<svg version="1.1" xmlns="http://www.w3.org/2000/svg" viewBox="0 0 649 584.9340504692047">
  <defs>
    <style>
      @font-face {
        font-family: "Virgil";
        src: url("https://excalidraw.com/FG_Virgil.ttf");
      }
      @font-face {
        font-family: "Cascadia";
        src: url("https://excalidraw.com/Cascadia.ttf");
      }
    </style>
  </defs>
  <g transform="translate(309 210.5)"><path d="M87.457826488065 3.320061658809081 C97.26852121010933 5.407257825740869, 107.28878600950665 10.63154262524381, 113.42086322007124 16.279926445903584 C119.55294043063583 21.928310266563358, 123.39568649978409 29.91934406393954, 124.25028975145253 37.210364582767724 C125.10489300312096 44.50138510159591, 123.219707805217 53.54013356922375, 118.54848273008189 60.026049558872685 C113.87725765494677 66.51196554852163, 105.24078713451676 72.34147029829506, 96.22293930064184 76.12586052066135 C87.20509146676692 79.91025074302763, 75.09887802947844 82.28453486234561, 64.44139572683234 82.73239089307036 C53.78391342418624 83.18024692379511, 41.59126730700453 82.23594967958108, 32.278045484765215 78.81299670500987 C22.9648236625259 75.39004373043865, 13.9971883131063 68.37765286683171, 8.562064793396459 62.19467304564306 C3.1269412736866187 56.0116932244544, -0.5721509256679388 48.65966312916467, -0.33269563349382736 41.71511777787792 C-0.09324034131971595 34.77057242659117, 4.321203080309843 26.660385917801005, 9.998796546441127 20.527400937922568 C15.676390012572412 14.394415958044132, 24.3976872602625 8.483319834727194, 33.73286516329388 4.917207898607295 C43.06804306632526 1.351095962487396, 56.26389503995114 -0.8141838735121686, 66.00986396462942 -0.8692706787968234 C75.7558328893077 -0.9243574840814782, 86.99650060206804 3.002011817698791, 92.20867871136358 4.586687066899366 C97.42085682065911 6.17136231609994, 97.63551195580794 7.853490347601614, 97.28293262040262 8.638780816406623 M56.20837352664315 1.755646292268672 C66.15149249414709 -0.032396018279815975, 78.53703393247444 -0.09365957232561106, 88.10941455502356 2.642258272533063 C97.68179517757268 5.378176117391737, 107.40093775424185 12.354620886273928, 113.64265726193786 18.171153361420714 C119.88437676963386 23.9876858365675, 124.66877006241062 30.64703022770678, 125.55973160119962 37.54145312341378 C126.45069313998862 44.435876019120784, 123.88635316969355 52.97944323344558, 118.98842649467186 59.53769073566273 C114.09049981965016 66.09593823787988, 105.37692680306064 73.19674531884719, 96.17217155106944 76.8909381367167 C86.96741629907824 80.5851309545862, 74.48786838563251 81.77998668535095, 63.759894982724624 81.70284764287977 C53.03192157981673 81.6257086004086, 40.931739916147826 80.03911087244009, 31.8043311336221 76.42810388188965 C22.676922351096373 72.81709689133922, 14.150512875081034 66.07276722262236, 8.995442287570263 60.03680569957717 C3.8403717000594915 54.00084417653198, 0.9105945498238164 47.26588124902267, 0.8739076085574666 40.21233474361849 C0.8372206672911169 33.15878823821431, 2.913104856046245 23.87026795636893, 8.775320639972165 17.715526667152094 C14.637536423898084 11.560785377935257, 28.20063182211927 5.955726666573645, 36.04720231211299 3.283887008317471 C43.8937728021067 0.6120473500612977, 52.62723073625195 2.1105246752595135, 55.85474357993446 1.6844887176150536 C59.08225642361696 1.258452759970594, 55.62344722886187 0.31713561983984206, 55.412279374208026 0.7276712624507127" style="stroke: rgb(0, 0, 0); stroke-width: 1; fill: none;"></path></g><g transform="translate(345 237.5)"><text x="0" y="18" font-family="Virgil" font-size="20px" fill="#000000">State</text></g><g transform="translate(223.5 298)"><path d="M88.40021595811085 2.8686103317419267 C98.30210449753022 5.158144752846141, 108.3072816626802 12.58536932421369, 114.27735906400427 18.562980433330342 C120.24743646532835 24.540591542446993, 123.54006152676848 31.903173315007034, 124.22068036605529 38.73427698644183 C124.9012992053421 45.56538065787662, 123.00707561729082 53.23341774122666, 118.36107209972508 59.54960246193909 C113.71506858215933 65.86578718265152, 105.27675555233294 72.82977844504062, 96.34465926066079 76.63138531071638 C87.41256296898864 80.43299217639215, 75.43934748179521 82.1749779927852, 64.76849434969216 82.35924365599371 C54.09764121758912 82.54350931920222, 41.92443388735568 81.05627015713867, 32.31954046804254 77.73697928996745 C22.714647048729397 74.41768842279623, 12.666364806119908 68.57976962036405, 7.139133833813311 62.443498452966416 C1.6119028615067128 56.307227285568786, -1.3441672854226225 48.223966839801164, -0.8438453657970513 40.91935228558168 C-0.3435234461714801 33.6147377313622, 4.329216167503013 24.64030509044584, 10.141065351566738 18.615811127649533 C15.952914535630462 12.591317164853226, 24.436691478093067 7.837806222698299, 34.0272497385853 4.77238850880385 C43.61780799907753 1.7069707949094006, 56.96481247646249 -0.3148455314949494, 67.6844149145201 0.22330484428283626 C78.40401735257771 0.7614552200606219, 92.08627390625543 6.149962405920151, 98.34486436693098 8.001290763470564 C104.60345482760653 9.852619121020977, 106.10817069746663 10.810133897784757, 105.23595767857336 11.331274989585314 M80.89912787914623 2.8037989216537866 C90.99295697112366 3.9001626534405576, 100.72408668601227 7.938172127489012, 107.86683752267578 13.17639060343409 C115.00958835933929 18.41460907937917, 121.74556302207313 27.23846880108655, 123.75563289912728 34.23310977732425 C125.76570277618143 41.22775075356195, 123.54693312141653 48.63708036032119, 119.9272567850007 55.144236460860284 C116.30758044858486 61.651392561399376, 110.16932715362769 68.72594406861744, 102.03757488063229 73.27604638055882 C93.90582260763689 77.82614869250021, 81.82614287489106 81.26638902055839, 71.1367431470283 82.4448503325086 C60.44734341916553 83.6233116444588, 47.516646647874204 83.29726748839124, 37.90117651345568 80.34681425226006 C28.28570637903716 77.39636101612888, 19.525276256939165 70.60244790900113, 13.443922340517155 64.74213091572152 C7.3625684240951434 58.88181392244191, 2.462341977542181 52.24818241647813, 1.4130530149236122 45.184912292582396 C0.3637640523050436 38.12164216868666, 2.632701180573931 28.666307225024035, 7.148188564805743 22.362510172347097 C11.663675949037554 16.05871311967016, 19.925382479697685 11.031540745748517, 28.505977320314486 7.3621299765207695 C37.08657216093128 3.692719207293022, 50.105244699113626 1.4295556549115531, 58.63175760850655 0.3460455569806129 C67.15827051789947 -0.7374645409503273, 76.31183695657668 0.7091121635653733, 79.66505477667201 0.8610693889351282 C83.01827259676733 1.0130266143048832, 78.75296497627676 0.6443080267091782, 78.7510645290785 1.2577889091991423" style="stroke: rgb(0, 0, 0); stroke-width: 1; fill: none;"></path></g><g transform="translate(259.5 325)"><text x="0" y="18" font-family="Virgil" font-size="20px" fill="#000000">State</text></g><g transform="translate(421.5 291)"><path d="M43.94835107465954 1.2874879795546974 C53.34162383417767 -1.159371379203686, 66.78423740568164 -1.0661257157216522, 77.42424610161315 0.8782402201879194 C88.06425479754466 2.822606156097491, 100.0983495618099 7.725358155501912, 107.78840325024859 12.953683595012127 C115.47845693868729 18.18200903452234, 121.16881722081445 25.52415419424879, 123.56456823224528 32.24819285724921 C125.96031924367611 38.97223152024962, 125.57315645394402 46.5702238560243, 122.16290931883356 53.29791557301462 C118.75266218372309 60.02560729000494, 110.99281006647914 67.81689883342871, 103.10308542158245 72.61434315919112 C95.21336077668576 77.41178748495354, 85.15648411809411 80.6734161857195, 74.82456144945345 82.08258152758913 C64.4926387808128 83.49174686945875, 51.32308947523326 83.61502167452203, 41.11154940973846 81.06933521040884 C30.900009344243657 78.52364874629565, 20.282019422807974 72.51366317674996, 13.555321056484637 66.80846274290997 C6.8286226901613 61.103262309069976, 2.1764979892576664 53.71716479894956, 0.7513592117984373 46.83813260736891 C-0.6737795656607919 39.959100415788264, 0.9346891187261823 32.16681034593259, 5.004488391729261 25.534269593426085 C9.074287664732338 18.901728840919578, 17.231408232950148 11.045084393117236, 25.17015484981691 7.042888092329875 C33.108901466683676 3.040691791542513, 47.01462075852861 2.578329654577086, 52.636968092929834 1.5210917887019164 C58.25931542733106 0.46385392282674687, 58.87885190210875 0.2863700866922739, 58.90423885622427 0.6994608970788576 M41.228271621522865 2.073821452074533 C50.32847227697162 -0.5803668318283841, 63.81179048983189 0.9116938702200716, 74.33845878243231 2.16194123372955 C84.86512707503273 3.4121885972390285, 96.3382750444189 5.024454702953173, 104.3882813771254 9.575305633131403 C112.43828770983188 14.126156563309634, 119.49277815807062 22.40140398248612, 122.63849677867123 29.46704681479893 C125.78421539927183 36.53268964711174, 126.08619550190183 45.20109581386446, 123.26259310072905 51.969162627008274 C120.43899069955627 58.737229440152085, 113.39046312819598 65.18598896471147, 105.69688237163459 70.0754476936618 C98.0033016150732 74.96490642261213, 87.56565591682971 79.37889432378118, 77.1011085613607 81.30591500071023 C66.6365612058917 83.23293567763928, 53.117246003651715 83.64637547706104, 42.909598238820536 81.63757175523605 C32.701950473989356 79.62876803341106, 22.649891562063345 74.71708849530191, 15.855221972373627 69.25309266976032 C9.060552382683909 63.789096844218726, 4.027580495592993 55.80430783970662, 2.141580700682219 48.8535968019865 C0.25558090577144554 41.90288576426638, 1.219371990224193 34.25753862693196, 4.539223202908985 27.5488264434396 C7.859074415593778 20.84011425994724, 16.137229667284167 12.600468814870137, 22.060687976790973 8.601323701032321 C27.98414628629778 4.602178587194505, 36.916967548081736 4.358409822733317, 40.07997305994982 3.5539557604127054 C43.24297857181791 2.7495016980920943, 40.43376291434796 3.093436148850092, 41.0387210479995 3.7745993271086533" style="stroke: rgb(0, 0, 0); stroke-width: 1; fill: none;"></path></g><g transform="translate(457.5 318)"><text x="0" y="18" font-family="Virgil" font-size="20px" fill="#000000">State</text></g><g transform="translate(321.5 396)"><path d="M58.045602448821455 0.9034887852324189 C67.99162417548334 -0.23337928848213996, 81.831144071373 0.9325550397867595, 91.33540728145377 4.025516863346752 C100.83967049153453 7.1184786869067445, 109.57638323753467 13.15807720365708, 115.07118170930602 19.461259726592374 C120.56598018107736 25.76444224952767, 124.12519540432277 34.68658223583754, 124.30419811208182 41.84461200095852 C124.48320081984087 49.0026417660795, 121.59511624838235 56.52819173652435, 116.14519795586037 62.40943831731825 C110.69527966333838 68.29068489811215, 101.1321272188942 73.55343625468872, 91.60468835694991 77.1320914857219 C82.07724949500562 80.71074671675508, 69.41558297487124 84.05700461515593, 58.98056478419467 83.88136970351736 C48.5455465935181 83.7057347918788, 37.78530069943136 80.3071960607267, 28.994579212890464 76.0782820158905 C20.20385772634957 71.84936797105429, 11.123607800428964 64.99302501050568, 6.236235864949286 58.507885434500125 C1.3488639294696085 52.02274585849457, -1.4479994427413558 44.03372792261055, -0.32965239998760154 37.167444559857145 C0.7886946427661528 30.301161197103735, 6.388307170409316 22.825845906219474, 12.946318121471812 17.31018525797966 C19.504329072534308 11.794524609739849, 31.12972980600128 6.997071331109694, 39.01841330638737 4.07348067041827 C46.90709680677347 1.149890009726846, 56.29490605732354 0.32713630025674456, 60.278419123788375 -0.23135870616888354 C64.2619321902532 -0.7898537125945116, 62.697457014721984 0.055952989261829345, 62.919491705176384 0.7225106318645018 M50.44559645191443 -0.19857433011992498 C60.035029871529844 -2.3084028826564147, 74.11138375725206 -0.7011280814320124, 84.40148481703503 1.8152335150285808 C94.691585876818 4.3315951114891735, 105.35991435284643 9.332667711012874, 112.18620281061222 14.899595248643635 C119.012491268378 20.466522786274396, 123.92940110724923 28.150730722566433, 125.35921556362972 35.216798740813154 C126.7890300200102 42.28286675905987, 125.12504421955605 50.52586471644335, 120.76508954889512 57.29600335812396 C116.4051348782342 64.06614199980457, 108.13792641873944 71.53004246531823, 99.19948753966419 75.8376305908968 C90.26104866058894 80.14521871647536, 77.73226749257567 82.50633815741679, 67.13445627444361 83.14153211159531 C56.53664505631155 83.77672606577383, 45.0017343840671 82.80616610233604, 35.612620230871826 79.64879431596793 C26.223506077676554 76.49142252959983, 16.58095353303991 70.33617347896039, 10.799771355271972 64.19730139338671 C5.018589177504033 58.05842930781303, 1.4965434853746244 50.15615039709431, 0.9255271642641958 42.81556180252586 C0.35451084315376724 35.47497320795742, 2.4448619002337493 26.640147546533363, 7.373673428609401 20.153769825976035 C12.302484956985051 13.667392105418706, 23.299535360431168 7.370649014249526, 30.4983963345181 3.897295479181892 C37.69725730860503 0.423941944114258, 46.83548880820844 -0.5078039026209874, 50.566839273131 -0.68635138442977 C54.298189738053566 -0.8648988662385525, 52.652161649376815 1.9453553921610074, 52.88649912405349 2.826010588329197" style="stroke: rgb(0, 0, 0); stroke-width: 1; fill: none;"></path></g><g transform="translate(357.5 423)"><text x="0" y="18" font-family="Virgil" font-size="20px" fill="#000000">State</text></g><g><g transform="translate(307 227.5)"><path d="M-0.9719272457063197 -0.7000774897634983 C-15.049774829794963 -0.7141423660020033, -73.61486746494968 -13.067400586356719, -85.04050837382674 -0.5797129906713963 C-96.4661492827038 11.907974605013926, -72.22703735853236 61.64633295163512, -69.52577269896865 74.22604808434843 M-1.48936922846362 0.0379728326015174 C-15.947454336465645 -0.10160886657113832, -75.19519672888642 -14.341300076165549, -86.67339749215171 -2.1103436550684274 C-98.151598255417 10.120612766028692, -73.40930992045129 60.62749656228349, -70.35857380805537 73.42371135918424" style="stroke: rgb(0, 0, 0); stroke-width: 1; fill: none;"></path></g><g transform="translate(307 227.5)"><path d="M-90.69274676654138 51.944483418132855 C-84.08643773904728 57.11166193459453, -79.57587383782894 64.08712399655585, -68.86094413204118 73.50580223990605 M-89.89392772193648 49.73858554114003 C-85.49268990565157 55.344742879610834, -79.98845121175377 61.34240685684419, -69.9497249729 72.96583314394579" style="stroke: rgb(0, 0, 0); stroke-width: 1; fill: none;"></path></g><g transform="translate(307 227.5)"><path d="M-71.37393523897522 45.02324627812551 C-69.66868441678257 51.77959230427905, -70.03060994570873 60.50069253658479, -68.86094413204118 73.50580223990605 M-70.57511619437032 42.81734840113269 C-70.68213449566372 50.02248007058142, -69.62982253344677 57.61510969028892, -69.9497249729 72.96583314394579" style="stroke: rgb(0, 0, 0); stroke-width: 1; fill: none;"></path></g></g><g><g transform="translate(249 390.5)"><path d="M-0.29677400998771186 0.02176388315856448 C2.331527463470896 8.462189203624924, 4.7937597154329215 40.04189032924672, 16.36440394707024 50.742929027602074 C27.93504817870756 61.44396772595743, 60.65474973507226 62.19112833949427, 69.1270913798362 64.22799607329071 M1.2381191819999366 1.1110343189444394 C4.354958500176047 9.211761997978513, 6.871815113235886 39.183997676114856, 17.757609767029063 49.86106425984762 C28.64340442082224 60.53813084358039, 58.06849040717818 62.67711156451764, 66.552887104759 65.17343382134102" style="stroke: rgb(0, 0, 0); stroke-width: 1; fill: none;"></path></g><g transform="translate(249 390.5)"><path d="M36.95324620486891 68.77378507071633 C48.510512070473126 70.15610198792653, 58.01151214638076 65.31291750148257, 64.8264461553935 64.14236699945293 M37.330967474483906 69.75719065611709 C47.02060775747516 68.57651320917276, 59.10014851981897 66.67586832706665, 67.29760941800662 65.66421659725718" style="stroke: rgb(0, 0, 0); stroke-width: 1; fill: none;"></path></g><g transform="translate(249 390.5)"><path d="M40.8915496911553 48.63402916266858 C51.08902959910755 57.04644966008968, 59.213397297450655 59.24310863817472, 64.8264461553935 64.14236699945293 M41.26927096077029 49.61743474806934 C49.64322801018857 55.88563236545783, 60.27082642360121 61.40995221800323, 67.29760941800662 65.66421659725718" style="stroke: rgb(0, 0, 0); stroke-width: 1; fill: none;"></path></g></g><g><g transform="translate(381 376.5)"><path d="M0.13170044235885148 -0.28794689588248734 C-0.5965574799726407 -11.659449092671277, -4.335403285299739 -56.81865137033165, -5.084611143544317 -68.26451002769173 M0.8505706538166851 0.016030385205522135 C0.3251520735428979 -11.877591344108806, -1.5561133456820002 -58.493976082494484, -2.4572757442388684 -70.1774501544144" style="stroke: rgb(0, 0, 0); stroke-width: 1; fill: none;"></path></g><g transform="translate(381 376.5)"><path d="M8.884934279598033 -44.41273174729339 C7.756646123472201 -49.82670208557358, 3.7501590548386616 -55.08968964997362, -1.1629804202262313 -69.2478647404071 M9.06080001452539 -43.19784106888018 C4.7891671878278155 -51.84294431616899, 1.332533517042945 -59.72426191602586, -2.0962622637767345 -69.69573476674967" style="stroke: rgb(0, 0, 0); stroke-width: 1; fill: none;"></path></g><g transform="translate(381 376.5)"><path d="M-11.604116176577973 -43.26433556560646 C-7.806264023451353 -48.97688020689126, -6.886950486528357 -54.51595526589099, -1.1629804202262313 -69.2478647404071 M-11.428250441650617 -42.049444887193246 C-9.544901382487918 -50.90824325515306, -6.836871972632669 -59.1350856785412, -2.0962622637767345 -69.69573476674967" style="stroke: rgb(0, 0, 0); stroke-width: 1; fill: none;"></path></g></g><g><g transform="translate(504 378.5)"><path d="M0.05096274688839908 0.022755049914121583 C-7.185682514558236 8.419339759399493, -36.63149716382225 41.500405135999124, -43.790985595434904 49.93432276174426 M-0.4951110122166573 0.2963292897306382 C-7.481389399326097 8.402305130021025, -35.34864206965392 41.038655735707536, -42.16885541236028 49.26038995688781" style="stroke: rgb(0, 0, 0); stroke-width: 1; fill: none;"></path></g><g transform="translate(504 378.5)"><path d="M-31.795517583853446 19.778642570728188 C-34.828376785212065 28.83610567631238, -36.45613581756505 35.98291036654585, -41.48630359252915 48.71928502550349 M-30.968082595161043 20.89298174170566 C-34.81685420278472 30.10428275309175, -38.04202143061283 39.80270776724801, -42.31341265929863 49.337522995900365" style="stroke: rgb(0, 0, 0); stroke-width: 1; fill: none;"></path></g><g transform="translate(504 378.5)"><path d="M-16.11043579685743 33.01111065952725 C-23.31464918866521 38.51472417194221, -29.16285326862074 42.101017978564514, -41.48630359252915 48.71928502550349 M-15.283000808165028 34.12544983050472 C-24.151382119571636 39.0893463566824, -32.336060175591854 44.60375947588544, -42.31341265929863 49.337522995900365" style="stroke: rgb(0, 0, 0); stroke-width: 1; fill: none;"></path></g></g><g><g transform="translate(458 431.5)"><path d="M0.6545403219759465 -0.6841178990900516 C6.765761786450941 -8.412806226561468, 30.35914839679996 -39.647738069047534, 35.94489302411675 -47.068832860141995 M-0.9708920018188656 0.37218020154163245 C4.384023694762339 -7.612230127124736, 27.70148367044205 -39.561744091579065, 33.57050861613825 -46.99859039055183" style="stroke: rgb(0, 0, 0); stroke-width: 1; fill: none;"></path></g><g transform="translate(458 431.5)"><path d="M23.99168387746674 -17.782503274453237 C25.53453142568261 -27.416633093099776, 30.65499968612078 -31.08506047169051, 34.56271799476817 -48.05967454554513 M24.718359978331748 -18.400438419727042 C27.9222234235582 -28.776096912711566, 29.936717490789796 -36.68068085871382, 34.073320642206816 -47.75928003469482" style="stroke: rgb(0, 0, 0); stroke-width: 1; fill: none;"></path></g><g transform="translate(458 431.5)"><path d="M8.198484925596972 -29.673576591711313 C13.459456638403482 -36.54240651304449, 22.367086940169962 -37.35938994826363, 34.56271799476817 -48.05967454554513 M8.925161026461979 -30.291511736985118 C17.095295484227783 -36.77183098152968, 24.168946830948943 -40.867255661110605, 34.073320642206816 -47.75928003469482" style="stroke: rgb(0, 0, 0); stroke-width: 1; fill: none;"></path></g></g><g><g transform="translate(429 357.5)"><path d="M-0.24958363696932795 0.34825985357165345 C-4.227499599506458 5.900165557116269, -20.255490711579718 28.074528001993894, -24.148608242720364 33.331515645235775 M1.0848517271317544 -0.40227962309494614 C-2.7377116471094385 5.254415713604539, -17.486950903690108 27.859594641383733, -21.479686416145412 33.3970062447153" style="stroke: rgb(0, 0, 0); stroke-width: 1; fill: none;"></path></g><g transform="translate(429 357.5)"><path d="M-15.938324713152255 11.991912977185965 C-17.3350337213691 18.27276016616031, -21.109313952196054 26.26812996951211, -22.07331021448597 34.582636547591534 M-16.4485727464821 13.809096112263322 C-17.936419663459112 19.729003354913743, -18.367327796603078 25.35150612057905, -22.282995568048207 32.86093474490568" style="stroke: rgb(0, 0, 0); stroke-width: 1; fill: none;"></path></g><g transform="translate(429 357.5)"><path d="M-4.57055137107394 19.740704803005034 C-9.112587203851323 23.85479452496576, -16.030897536123028 29.707050279761937, -22.07331021448597 34.582636547591534 M-5.080799404403784 21.55788793808239 C-9.79346115305595 25.348157018542448, -13.384809290163298 28.816359999037537, -22.282995568048207 32.86093474490568" style="stroke: rgb(0, 0, 0); stroke-width: 1; fill: none;"></path></g></g><g transform="translate(326 86.5)"><path d="M-1.9599630143493414 -1.3746656570583582 C37.06521729305386 -0.8856695080921053, 73.73109317235648 -1.9120602394267916, 109.72180260159075 1.133381387218833 M-0.41112463641911745 0.6026754127815366 C39.990739555098116 0.4869860430806876, 81.35104929562658 0.6819817741960288, 107.49820760916919 -0.02049779426306486 M108.16689146496356 0.017905255779623985 C108.32129127150401 24.28731796424836, 109.97524643307551 51.213734075427055, 107.82376427389681 70.92526527307928 M107.2781694335863 0.516728644259274 C106.63248800588772 19.03076846152544, 108.60749759627507 37.89869488310069, 107.41868282388896 69.2385919438675 M109.34903807379305 69.41686006449163 C74.07757084965706 72.6166183572635, 41.067038455232975 72.43144848164171, 1.0811767671257257 71.48372592590749 M107.37400628160685 70.65721944440156 C71.19528551269323 69.17044468656182, 32.72250785138458 69.9129391206801, 0.5603675646707416 69.50271422136575 M-1.5540871527045965 68.65905179642141 C-0.9421441464684903 54.28634906653315, -0.36152653982862826 35.65158235654234, -1.8398832585662603 -1.0047742519527674 M0.09657023381441832 69.54175645578653 C-0.2017868190072476 54.32447409816086, 0.6381691367365421 37.94111984875053, 0.34950084518641233 0.7552979933097959" style="stroke: rgb(0, 0, 0); stroke-width: 1; fill: none;"></path></g><g transform="translate(76 307.5)"><path d="M-1.9964793045073748 -0.052507875487208366 C30.675718273967505 2.6537776133045554, 58.787824833765626 0.31063599791377783, 106.43215647153556 -1.3749625068157911 M0.24046954605728388 -0.2945422688499093 C38.94824121873826 -0.5308833872526884, 78.54392278064043 -0.5134354089945554, 107.17907953355461 -0.6518357852473855 M107.39675655774772 0.8357990402728319 C108.52585943834856 14.18133167270571, 107.02769532101229 31.94489599764347, 108.66697367839515 69.48642981238663 M108.47236466500908 -0.4852553466334939 C108.45955840805546 26.70765896886587, 108.42252434352413 53.12348798010498, 107.48037257883698 69.06475303974003 M109.28423794917762 69.45004475302994 C69.21527556777 67.93991120029241, 26.65006494112312 70.10334230829031, 1.4230749886482954 71.25277704186738 M108.23431292269379 70.51909135188907 C70.33547194506973 69.39395744606853, 34.34047103244811 69.08979020521045, -0.6700622430071235 69.42546780314296 M0.9083354752510786 68.26172584481537 C-0.6439672079868615 45.146827603690326, -0.7747416463680565 18.239633906632655, 1.6127528827637434 1.194403888657689 M-0.2076639523729682 69.85335500445217 C-1.138297447282821 52.55312395654619, -1.2140373376198113 34.7674946160987, 0.48696085903793573 0.08762662019580603" style="stroke: rgb(0, 0, 0); stroke-width: 1; fill: none;"></path></g><g transform="translate(328.5 109)"><text x="0" y="18" font-family="Virgil" font-size="20px" fill="#000000">Sideeffect</text></g><g transform="translate(10 414.5)"><path d="M1.207997815683484 -0.7374391425400972 C34.19091868773103 -0.2536804651841522, 72.19412039779127 -0.9526841020211578, 108.35803015716374 -1.526283549144864 M0.43086282070726156 0.17921836022287607 C35.59018215108663 0.16804711274802675, 72.38894297163934 0.25765885166823854, 108.95576072391123 -0.47409608121961355 M106.26367314346135 1.7663080226629972 C108.84605200765654 28.517082720063627, 108.57656981227919 55.698473796248436, 107.19881786592305 68.13720597140491 M107.03652764018625 0.22571943048387766 C107.42708401298151 24.342076756060123, 107.86699564671144 50.05960843618959, 108.86972079332918 70.29241479281336 M106.78639139421284 71.89899004809558 C82.88040156960487 70.50116418581456, 62.535341997072095 69.89797430019826, 0.49279351718723774 69.63586814515293 M107.33718357142061 69.18817604426295 C81.49316536132247 70.90865224912763, 54.6032248718664 70.79236761048436, -0.6672325665131211 70.01678184513003 M0.39462180621922016 70.78920800797641 C-0.2368271241895854 46.603359279222786, -1.3750112543813884 27.78208689019084, -0.9521205257624388 0.190100921317935 M0.8590452140197158 70.9715259457007 C0.008372675348073289 47.469246903434396, -0.29775412781164046 26.15682629775256, 0.5732636814936996 0.011169382371008396" style="stroke: rgb(0, 0, 0); stroke-width: 1; fill: none;"></path></g><g transform="translate(60 307.5)"><path d="M-1.5043933372944593 1.4292154591530561 C38.219537041336295 -2.4878333761915563, 72.90294198356568 -0.8338864400610329, 109.45527941174805 -0.2075155097991228 M-0.29724295530468225 -0.21469551231712103 C27.53458796758205 -0.5526692009717227, 54.22730355691165 -0.8544489777833224, 108.81237102951854 -0.03803411033004522 M106.65243011899292 -0.5457260925322771 C108.64128019465133 19.500573969446123, 108.73664375199004 44.183072075247765, 107.36228788085282 70.99829664640129 M107.93253423180431 -0.6400965740904212 C107.4661436884664 23.212599910795692, 108.2994495539926 47.440999253653, 107.11754093971103 70.8187007913366 M109.66580760665238 68.19898071698844 C79.93448477387429 71.23105334412307, 54.58902810625732 68.79511456858367, -0.48419600538909435 69.3746238630265 M108.08307920303196 70.31620955560356 C72.82160091791302 71.17419289067388, 37.6755849359557 70.99398560836912, 0.7495760461315513 70.78532281611115 M-0.2193267922848463 70.87640961818397 C1.4508008849807084 48.09771563578397, 1.2923611891455948 24.831562470644712, -1.2904100399464369 -1.383038254454732 M-0.03496961388736963 69.98176804278046 C0.34660779358819127 52.232516372576356, 1.0050879907794297 32.968647736124694, -0.8334242859855294 -0.22370880749076605" style="stroke: rgb(0, 0, 0); stroke-width: 1; fill: none;"></path></g><g transform="translate(62.5 330)"><text x="0" y="18" font-family="Virgil" font-size="20px" fill="#000000">Sideeffect</text></g><g><g transform="translate(408 208.5)"><path d="M-1.0005880996584893 0.6118413850665092 C-1.181935326755047 -3.766824459532897, -0.3921834632754325 -21.121289101739723, -0.2045014545321464 -25.289711721241474 M-1.1193774628266693 -0.8895081061497331 C-0.8469263994321228 -5.170893654661874, 1.689353609122336 -21.895267389056585, 1.6742080462351443 -25.763400183357298" style="stroke: rgb(0, 0, 0); stroke-width: 1; fill: none;"></path></g><g transform="translate(408 208.5)"><path d="M5.5530144678016 -13.904021711291055 C3.3039586943419614 -18.09792738707189, 3.020984839442484 -22.712311817839584, 1.6229191853851082 -26.528002275452017 M4.502342656120359 -13.383043376465569 C4.333767223523727 -17.142077833289143, 3.6219684627525304 -19.184153838680714, 1.3010358240641655 -25.409736598674208" style="stroke: rgb(0, 0, 0); stroke-width: 1; fill: none;"></path></g><g transform="translate(408 208.5)"><path d="M-2.9653355027359263 -14.644849157301707 C-2.0256004378130372 -18.490930125178977, 0.8741523584805224 -22.828517844786823, 1.6229191853851082 -26.528002275452017 M-4.016007314417168 -14.12387082247622 C-2.0363516040883454 -17.66113141847713, -0.6066968135788006 -19.516968589982703, 1.3010358240641655 -25.409736598674208" style="stroke: rgb(0, 0, 0); stroke-width: 1; fill: none;"></path></g></g><g><g transform="translate(411 165.5)"><path d="M0.9354316905140878 0.6231328055262566 C0.8418073688944182 7.28350390245517, -0.5295642976959545 34.201785918573535, -0.9563444420695304 41.09743686169386 M1.8083892116323113 1.7556347033008932 C1.2510740047072368 8.523281223041316, -1.2923913525169093 35.66702265626441, -2.0572369625791906 42.15457933988422" style="stroke: rgb(0, 0, 0); stroke-width: 1; fill: none;"></path></g><g transform="translate(411 165.5)"><path d="M-6.011027761883147 22.33823388075584 C-5.3654957326604515 26.497189828680774, -2.5326204273198716 34.25816515016934, -0.36466841455548993 44.13096099194139 M-8.022634049094327 22.091143909898936 C-4.305424346776194 30.99604202736633, -2.9587267034505254 38.396797018134585, -1.3477606741711496 41.28449708443135" style="stroke: rgb(0, 0, 0); stroke-width: 1; fill: none;"></path></g><g transform="translate(411 165.5)"><path d="M7.941429287187221 23.782382637216184 C4.846363997003461 27.66434529148112, 3.9523037538905594 35.03956423194104, -0.36466841455548993 44.13096099194139 M5.929822999976041 23.53529266635928 C4.131091377344438 31.95642835313869, -0.04649551436046462 38.7853923960087, -1.3477606741711496 41.28449708443135" style="stroke: rgb(0, 0, 0); stroke-width: 1; fill: none;"></path></g></g><g><g transform="translate(218 333.5)"><path d="M1.0799981620162724 -0.20872131250798698 C-5.0920281185458105 -0.12264365814626214, -30.674263101195294 0.0791755352169275, -36.98647607304156 0.013478210940957025 M-0.567844982938841 -0.7051714407932013 C-6.844520044621701 -0.8704072674643247, -32.425362620151915 -1.045704019619152, -38.33061852862127 -0.9469950773846358" style="stroke: rgb(0, 0, 0); stroke-width: 1; fill: none;"></path></g><g transform="translate(218 333.5)"><path d="M-21.283018180006867 -7.294400695005176 C-26.244089010345235 -4.905512913418969, -32.471282337245825 -3.967384349087896, -38.285713182780896 -1.5210460164211692 M-20.45546184028567 -7.372326013182033 C-26.011301547331527 -6.391820000511702, -30.515006376717487 -4.281847109075288, -38.24748294534628 -0.5592548099672423" style="stroke: rgb(0, 0, 0); stroke-width: 1; fill: none;"></path></g><g transform="translate(218 333.5)"><path d="M-21.253245513142897 5.360309585098723 C-26.170318450398646 3.9048782742106365, -32.40655691597228 0.9984197925216531, -38.285713182780896 -1.521046016421169 M-20.4256891734217 5.2823842669218655 C-25.897299258029875 2.9539592078094064, -30.408788628765265 1.7551550961458737, -38.24748294534628 -0.5592548099672423" style="stroke: rgb(0, 0, 0); stroke-width: 1; fill: none;"></path></g></g><g><g transform="translate(120 382.5)"><path d="M0.7781439621001482 -0.61280546374619 C42.28952458289762 31.441141051178178, 166.24857092686 180.6338771245132, 250.26745950765908 192.13789421133697 C334.28634808845817 203.64191129816075, 475.6160107094795 104.15295728258789, 504.8914754468948 68.41129705719649 C534.1669401843101 32.6696368318051, 439.06765446650485 -7.417914010956887, 425.92024793215097 -22.312067141011358 M1.6907874202821405 1.6595644391980025 C43.48798663607178 33.252909820716205, 166.31346659482455 178.26266544336144, 249.75504452676512 189.2943514792528 C333.1966224587057 200.32603751514418, 472.84694983274676 102.97537651880646, 502.3402550119255 67.84968065454625 C531.8335601911042 32.723984790286046, 439.4366059724583 -6.489770132163539, 426.71487560183743 -21.45982370630838" style="stroke: rgb(166, 30, 77); stroke-width: 1; fill: none;"></path></g><g transform="translate(120 382.5)"><path d="M454.6742489496094 -14.927137456822978 C446.0137901202433 -15.133420091120282, 433.2124990819254 -18.18636822377729, 426.19476370015184 -19.78142997168936 M456.61951894125315 -12.799370822485374 C443.83756921907406 -17.682540646791384, 432.3896275917972 -19.83480887113511, 427.65196609464476 -21.164645403744654" style="stroke: rgb(166, 30, 77); stroke-width: 1; fill: none;"></path></g><g transform="translate(120 382.5)"><path d="M442.91013974951335 1.8873127903321425 C438.98054884009065 -5.119879800868876, 430.88409346678844 -14.897453135900086, 426.19476370015184 -19.78142997168936 M444.8554097411571 4.0150794246697465 C436.7229706026058 -7.361533301034569, 429.83007076149977 -16.024326222535556, 427.65196609464476 -21.164645403744654" style="stroke: rgb(166, 30, 77); stroke-width: 1; fill: none;"></path></g></g><g><g transform="translate(424 193.5)"><path d="M-0.591327466070652 -0.768114696443081 C35.09802102496227 3.0062292868892353, 184.17706856181226 7.77654723872741, 214.9354879960418 23.141056932508945 C245.6939074302713 38.50556662629048, 189.04509394417207 80.26311246305704, 183.95918913930655 91.41894346624613 M-0.733332564420998 0.8237828340008857 C35.207578921330466 4.465444876539211, 183.06272468925764 5.733475155619283, 213.9211800567433 20.762519056983294 C244.77963542422899 35.791562958347306, 189.262570231768 79.57099100608379, 184.4173996404931 90.99804624218494" style="stroke: rgb(0, 0, 0); stroke-width: 1; fill: none;"></path></g><g transform="translate(424 193.5)"><path d="M193.1739785347202 62.619282066578535 C192.79290377619344 72.97402783969923, 187.90973661827368 84.10684690164999, 182.87747122656555 89.11357754517347 M193.86465060078288 62.05058297863093 C192.15435680479885 69.57230753261376, 189.9762266835194 75.45938501413904, 184.0005748712644 90.44961080376059" style="stroke: rgb(0, 0, 0); stroke-width: 1; fill: none;"></path></g><g transform="translate(424 193.5)"><path d="M208.99822586948602 75.68500817246323 C202.76182682935166 81.17166660456755, 192.077230751384 87.51437592615977, 182.87747122656555 89.11357754517347 M209.6888979355487 75.11630908451562 C204.2240228690345 79.56596279978199, 198.2389534311525 82.30973587256149, 184.0005748712644 90.44961080376059" style="stroke: rgb(0, 0, 0); stroke-width: 1; fill: none;"></path></g></g><g><g transform="translate(412 167.5)"><path d="M-0.7203008752316236 -0.8435483057051897 C12.194701101258396 17.85019217741986, 64.3662077087909 93.97897771211963, 77.47973530478775 112.90289740972221 M-0.9946055720653385 1.2744308340456336 C12.427149204472078 19.882582405100887, 65.31963714198208 93.42114728429975, 78.77079021678306 112.25455433516763" style="stroke: rgb(166, 30, 77); stroke-width: 1; fill: none;"></path></g><g transform="translate(412 167.5)"><path d="M52.59815347579857 94.457903193864 C61.35549979617527 100.4728128360314, 68.42609440184496 103.67919180300774, 79.43269722097553 111.1675537099596 M54.93975741522004 96.02166300788052 C63.31831570265144 102.51854525482686, 72.7179048969856 107.1432329651746, 78.5426942299027 111.83317163321189" style="stroke: rgb(166, 30, 77); stroke-width: 1; fill: none;"></path></g><g transform="translate(412 167.5)"><path d="M69.27456660469561 82.49892131662253 C73.11706267559903 91.99118380345273, 75.19901468114847 98.77501590652913, 79.43269722097553 111.1675537099596 M71.61617054411708 84.06268113063905 C73.88081317324092 94.91216281840593, 77.11611585553166 103.95738089783593, 78.5426942299027 111.83317163321189" style="stroke: rgb(166, 30, 77); stroke-width: 1; fill: none;"></path></g></g><g><g transform="translate(340 206.5)"><path d="M-0.2867735680192709 0.35309814177453513 C0.12344015277922155 -6.387051860863963, 2.0145122949033976 -33.51034605142971, 2.600401598587632 -40.21443457640707 M-0.3580500550847501 -0.9142089959699661 C0.03532063079066572 -7.504497770440454, 1.3403213320393115 -34.31231446372656, 1.8375555337686091 -40.89682945546694" style="stroke: rgb(0, 0, 0); stroke-width: 1; fill: none;"></path></g><g transform="translate(340 206.5)"><path d="M8.141762226421832 -22.338346002327253 C5.378616972199711 -27.295289751100768, 4.169309532888782 -34.23766822185574, 0.3565754150319844 -41.28814099107869 M7.348541364606916 -21.90256667014395 C5.392960570557294 -25.6000315766168, 4.094799131361398 -32.27529429204869, 1.8482889845315367 -40.782427678192036" style="stroke: rgb(0, 0, 0); stroke-width: 1; fill: none;"></path></g><g transform="translate(340 206.5)"><path d="M-5.552717894111609 -23.162032677645346 C-4.04720079668378 -27.829594408428456, -0.9894003557187059 -34.51531765224582, 0.3565754150319844 -41.28814099107869 M-6.345938755926525 -22.726253345462045 C-4.882539771908286 -26.150648339694456, -2.7564892471476217 -32.61995378304657, 1.8482889845315367 -40.782427678192036" style="stroke: rgb(0, 0, 0); stroke-width: 1; fill: none;"></path></g></g><g transform="translate(252 10)"><text x="0" y="32" font-family="Virgil" font-size="36px" fill="#000000">Informal FSM:</text></g></svg>