<svg version="1.1" xmlns="http://www.w3.org/2000/svg" viewBox="0 0 514 382">
  <defs>
    <style>
      @font-face {
        font-family: "Virgil";
        src: url("https://excalidraw.com/FG_Virgil.ttf");
      }
      @font-face {
        font-family: "Cascadia";
        src: url("https://excalidraw.com/Cascadia.ttf");
      }
    </style>
  </defs>
  <g transform="translate(156.5 137.5)"><path d="M-1.229892261328709 0.604323801881802 C93.70380144784906 0.17657869230515616, 190.8191752486162 0.8047013616651262, 338.24666790097103 0.5392077720710873 M0.45631399058228134 0.20440899730309842 C68.05119222676977 -1.1870970218142662, 136.5440365856196 -1.6268310326264535, 337.4396066527216 -0.3286168755631506 M337.8623094763607 0.5407334063202143 C337.6761217291746 27.984643736016007, 334.632994013587 56.688634403236215, 337.9939736928791 107.10412896610796 M337.73644853103906 -0.8929582135751843 C337.24434452871793 22.884118134435266, 337.4940191767644 46.518932023644446, 336.3622730122879 107.28057614993304 M337.8800103864092 107.20780715730554 C246.0091877164469 105.84339192841361, 154.9393331216677 106.77955076405776, -0.7832007411592602 108.08516430134736 M337.23440679377023 106.55614688247576 C215.5564122476706 107.0939990877529, 94.95580833868651 107.42514203774394, -0.12734916536731122 106.41664335451917 M0.03702535293996334 106.25081176497042 C0.02299126296304166 65.9698731762357, -0.5464693078491837 24.272379182837895, 0.24984725378453732 0.37678743340075016 M-0.8090192629024386 106.83116043638438 C-0.09126487794332205 74.99803810911253, -0.07222873392514884 44.29358838163316, 0.138561581261456 0.5060890717431903" style="stroke: rgb(0, 0, 0); stroke-width: 1; fill: none;"></path></g><g transform="translate(173.5 153.5)"><path d="M0 0 C0 0, 0 0, 0 0 M0 0 C0 0, 0 0, 0 0 M0.365902595999663 6.464349786986701 C1.9413396754161965 3.5273993279399707, 3.832872342822861 1.8569823286813576, 4.964390277447647 1.0224371146259124 M0.10117872584146764 6.378413380731933 C1.6055406895669504 4.492895050750775, 3.3219681729700166 2.231248799019013, 5.168446638765282 0.6270542781648449 M1.6953505643736233 13.247271472632468 C5.048306452187639 7.4360755468681745, 8.419147491156375 4.965295326034659, 11.51621508742584 -0.2829039697453617 M0.5341014095674861 11.389319825589238 C3.7570333121990442 8.911115261157217, 5.427654181334783 6.1442359852208455, 11.303469999086989 0.6989368255331876 M0.09498765780122476 17.309546603728705 C6.512623746067821 14.148742411572613, 9.964659019572682 8.00128346079106, 14.46706040902384 -1.489030673454983 M-0.41224810020534797 18.532271868456775 C5.2518840329243 12.077635131364097, 10.66824975612001 5.044827893180008, 15.414261191620906 0.8399460694682768 M1.7874304579756473 23.01599412941849 C5.549888506704302 17.199158618305297, 9.339083568470581 12.497777146945277, 20.52475095381763 0.050513525882315946 M-0.17885333279154558 24.531130006252884 C6.520796901581467 15.488767832200214, 14.72181201778745 8.943970465018927, 21.982149614298606 0.14125360307986767 M1.8203504840423719 31.278710683573237 C8.351500601306771 19.117633879935493, 19.819331766469887 7.008705269703604, 26.021063255753727 0.6809947224345745 M-0.5129937296221598 30.420172882963172 C7.74033475329756 21.58682614653694, 14.421637420314362 12.349422923282386, 25.476399357106896 1.209943141230637 M0.14717004624190722 36.365935904720175 C12.280327467687123 23.10613919196352, 21.442623201757122 10.910883166839085, 33.51860365406314 1.2128179745062475 M-1.083073152331682 37.29649755898987 C8.127464760097174 27.500203318603468, 16.185559069325887 18.228295288572088, 32.783103087401784 -0.13503533589996053 M0.5494364548147672 43.96778443138652 C7.935126116539866 33.546575297719514, 16.471729426562526 27.24665855729552, 35.28386737201487 0.3971016612928828 M0.4034420374454015 42.671263594735194 C13.79108004469496 27.272580525408372, 25.49102010779438 11.856573918727246, 37.875054856577265 -0.391831027241377 M1.168644933029931 48.96037464276783 C12.835313420282018 29.771080658988325, 29.458558080984837 15.351812713849348, 43.035710748839904 0.3880008410989291 M-0.0181541088969297 48.983821791269705 C16.380402464233914 29.74955799919531, 32.14332568085311 11.79711860278141, 42.81022233198934 -0.16336895261416373 M-0.40134817988158744 53.62286159716855 C17.16114543180366 35.384713299489924, 31.173120562394246 18.682433771166743, 47.196879007807254 0.28038389311993583 M-0.22739392400266212 54.56874712877284 C13.722853678769116 37.60822454800508, 28.58452792053167 21.8040032064739, 48.233274565032005 0.13032668905222877 M0.13720233934920145 61.17511367378424 C19.09604030810547 37.952041558704096, 39.94445223540166 17.180279869414008, 54.642478488147916 1.5721558756603606 M0.48289164352219416 61.943515408315164 C12.540239507082614 44.69300984914769, 27.145751699507986 30.33866058196359, 52.374054223061265 0.46445587793725807 M-1.1216561990371972 65.99474551114211 C13.493066099830493 53.415315918060415, 24.532371865727153 36.37175969807087, 59.95150441313089 1.701935167915746 M-0.2510137679568558 66.7755361902989 C20.721644010621755 44.54897549483374, 39.32209183887989 21.4541849480759, 57.54910535747112 -0.5028805848885334 M-1.7557514848002782 71.3812467477694 C20.621555622832663 49.47848046869683, 39.35102743759829 24.083403681245777, 63.15531312198718 -0.4886231718094578 M-0.08188902007430698 72.39628153512625 C20.541237083462413 49.7557053427595, 39.12235661619893 27.285552287823926, 63.16014563561757 0.7816422807543049 M2.8291547633099654 77.8106916024161 C17.150328741977937 60.170257920505975, 31.515565903189934 41.56290723329817, 68.98914983798578 0.7828492356802954 M1.1423654965448478 78.80599558342224 C24.17006018789864 51.78732152628274, 47.90613065392359 25.7688694733939, 68.19559410889461 1.0542502759363188 M7.835720971496059 77.90748139271835 C23.169810240752746 56.9276866583463, 43.05852980621349 37.054176988279856, 72.64062090035769 -0.2982425513105227 M7.065082036228134 78.39543707469801 C24.739851171094614 59.27456834288702, 42.4521812375641 38.66476606497977, 74.22904344465825 0.4463933808369802 M13.734140276055477 79.26498823854004 C28.429772658863 58.87713816311923, 45.12019188006482 39.56088411071541, 79.00122153237191 0.3942198464136055 M12.729940063398026 77.51652305069243 C26.821166851295416 60.343793979678395, 41.014921879946534 44.0669661504647, 79.92078769430248 0.7724223965268067 M15.290907900257196 78.13433051907666 C39.61990082914612 49.173347812933805, 67.27194659163118 21.617807900008685, 84.41480807325945 -1.6106085128428447 M16.8597336294485 78.92110431247599 C34.313893436982205 58.29700255914028, 50.743010810986995 38.53479155347289, 86.0162945251833 -0.25808769681472654 M22.724880183332232 78.16966329263272 C46.47684536903906 50.460889409453785, 71.08011553866916 21.993455679238416, 89.96094865931778 0.4212694907839776 M22.26243040173557 77.25625584022822 C47.801121022906955 49.84303498013246, 70.6729966998418 21.73873847521716, 87.8795559017232 1.5114676425512314 M28.958802348549582 79.96585493840371 C48.22699704242436 54.24109173654591, 67.75230073284948 29.356947083980074, 89.17157254280639 7.626887656266845 M28.33269943165324 77.3519534350196 C45.19699618538323 57.14602129550954, 64.43329421241648 33.64731504723014, 88.45973740430665 8.632917135472454 M31.367780735140244 78.52081051469415 C50.48587318919551 57.90665633469198, 69.99720889849131 34.914405784905384, 86.49914717891829 12.782187721019142 M34.0503833865575 78.43339707702964 C46.328235593203374 60.92468956049475, 60.28563367656193 45.932149577492154, 88.00935531625169 14.039184941237323 M39.03081056637322 76.77314840069953 C49.488005398043974 62.16952155547769, 61.99260831185833 50.24329819909043, 87.97579279092253 19.122663064236384 M38.482026317842355 78.40868756732884 C54.5645856183436 60.338894947955836, 72.28194329245024 40.91036036205011, 87.99339118895233 20.614934360916358 M42.479248181479505 79.06452365472433 C59.206420384112484 60.531167312640804, 70.23905553549451 48.25666438055206, 88.92993168905956 27.541553324445815 M43.7793458928638 78.08114988609668 C59.23618737552454 57.955092869300316, 75.94771668497452 39.760290841658176, 88.05594116077405 27.1447624549118 M48.948338803728106 76.6773046559641 C61.522034620994006 63.85475189080914, 72.52751517432858 51.17247496764716, 88.51811118356993 34.35397314017467 M49.680761163015845 77.43700983440371 C57.45332122342801 66.71024453168774, 67.46767462876709 56.00452855010364, 87.8020388700824 32.82732878362589 M56.12568877235003 77.29689646272325 C66.55698777129705 65.74662940283693, 74.38413513357389 50.3536868230441, 88.25682649772259 41.06104089061848 M54.509864795654494 77.85771739242935 C65.5899590444634 64.86916351394548, 75.26411190041681 52.854518936589, 88.57947836827131 39.78948414812914 M59.40279331061424 78.5494174541974 C64.39964691049295 72.32794506681044, 69.43172715649123 62.956497840559706, 89.11493397074857 44.566911634081706 M59.67695084217371 78.40762336124419 C68.07133745896267 69.17927637943362, 75.46930196798877 60.193727402837126, 87.82122732269683 44.053303528601035 M65.62350875775178 77.46402268869095 C71.36090765641633 73.9830544225512, 72.61703123763374 65.25369571660897, 86.76517882591685 50.71645374975989 M64.67748696992953 78.04630272102766 C71.50780196017254 69.70398640357386, 79.39693729484017 59.55680155310326, 87.54695478475293 51.82376272611211 M68.33558033703164 80.01058054539945 C74.22314070389926 74.68867439090943, 79.81715445201246 66.31177134856989, 88.67660837346796 56.51228187618025 M69.59364223031596 77.9162312728503 C74.56856879041227 72.23379619971338, 80.52708245116474 65.77346674509938, 86.70544439280513 58.45577130106457 M77.4423638384578 78.516234346145 C78.32345557060816 73.32600922920913, 84.20155490368725 70.94729481157684, 88.61753642515848 63.85030533571389 M76.06832649631176 77.55969161469598 C79.06830935803026 74.09526982172562, 83.28922685948268 68.1753116128685, 88.9120576686562 62.985250214605 M79.68196183809249 77.6906291514867 C82.70764394171374 77.15596995297332, 84.12493274304437 74.41456454392268, 88.64590794329635 69.55199565643397 M80.22688867629675 77.55403610954518 C84.02002389946307 74.1416656789621, 86.23877262495974 71.33058352375173, 88.16229091581992 70.17446234168438" style="stroke: rgb(76, 110, 245); stroke-width: 0.5; fill: none;"></path><path d="M-1.0308355540037155 0.5369726866483688 C18.8909394107759 -0.6957106124609709, 38.87968520075083 -1.2192143928259611, 84.46393878757954 -0.21078474819660187 M-0.12505856901407242 -0.7021848782896996 C31.473774235695604 -1.3756004754453897, 61.363218307495124 -1.1096409741789102, 85.2142356261611 -0.6320895776152611 M84.05492313206196 0.19450776278972626 C85.64726587839425 26.479665645211934, 83.37292572565377 52.01694449931383, 84.66696126759052 76.88734786212444 M85.79035600274801 -0.7253913506865501 C85.2606951161474 15.22185396179557, 84.37333287440241 31.408395233750348, 84.91464623063803 76.88819912821054 M85.24317510426044 75.30545775592327 C64.54033443704247 78.31607262603939, 46.11637865751982 77.81139819137752, -1.6012534350156784 78.89543835818768 M84.97178467363119 77.017980851233 C64.95747053995728 76.98402886129915, 44.58874814212322 76.92294673658907, -0.9140950813889503 76.71632627397776 M1.0344086438417435 76.939646884799 C-1.5411853546649217 47.38980360999703, 0.4337115531414748 20.489542244374746, 0.6129079610109329 1.6801859587430954 M0.3682020530104637 76.48130086809397 C-0.6585393001884221 52.602691543847314, 0.018200630918145277 29.428710210323324, 0.32542379945516586 0.5322235003113747" style="stroke: rgb(0, 0, 0); stroke-width: 1; fill: none;"></path></g><g transform="translate(278.5 157.5)"><path d="M1.5756940711289644 0.32850746624171734 C20.03709662584588 -1.9546488844510168, 37.645214344747366 -0.8159764730092138, 74.19479970820248 -1.8232853580266237 M0.5346650397405028 0.8161333138123155 C22.17375287776813 1.1462422332447022, 45.97427012100816 -0.34865635422058405, 73.51943089719862 -0.5511613255366683 M72.61363391764462 1.7228386234492064 C71.48959884605371 28.676721359509976, 70.39908794126474 56.25558692943305, 74.50854407437146 69.93101398460567 M72.22562124487013 -0.036888874135911465 C72.6754744815547 17.550515393260866, 73.98368703004904 35.943424459546804, 73.47572886105627 70.90785204712301 M74.53631077893078 70.25760976783931 C51.720086643565445 69.31912039316259, 31.737711461447176 69.72517638004385, -1.8117123376578093 69.83374891988933 M72.82191096898168 70.46438371483237 C50.75278995381668 71.14325058792718, 29.35211738683283 71.85715899203905, 0.45170970913022757 71.47936942521483 M-0.5973764192312956 71.04286728613079 C1.224540358716622 51.0228457997553, 0.889656132394448 35.07153273317963, 1.2011325228959322 -0.13198729045689106 M0.32484646793454885 71.66385366860777 C0.8235670488607139 46.30474794013426, -0.7003489274252206 23.069323280081157, 0.04145913477987051 -0.7261050408706069" style="stroke: rgb(0, 0, 0); stroke-width: 1; fill: none;"></path></g><g transform="translate(380.5 152.5)"><path d="M-1.5008682254701853 -0.41011167131364346 C34.53438745001331 1.1408672561030835, 70.64517985340208 0.82558842795901, 90.75111964903772 0.2965786997228861 M-0.9430352775380015 0.7441179631277919 C26.687541880924257 1.272371505657211, 55.72433566078544 0.7532802869472652, 88.9334298344329 0.5915379105135798 M88.9020581599325 0.24943810142576694 C89.03293224545196 22.701798131503168, 88.64056088896469 46.93058066219092, 90.53237817250192 79.42676484026015 M88.78462302405387 -0.46200589556246996 C89.9347021416761 19.995996362715964, 90.14884312311187 41.72116761971266, 89.45643439609557 78.54473392944783 M90.28977725468576 76.83786093629897 C53.106831539329136 76.94584622380324, 19.792269231565285 79.54004844424315, 0.08450118266046047 76.95658820308745 M88.94031038600951 78.72264306526631 C56.46568047767505 77.17363188273274, 22.982289163395762 76.51806796199642, -0.2682827142998576 77.725098031573 M-0.8851352576166391 79.6359795872122 C-1.6746841614134609 54.83945727180689, 0.05001372648403046 26.715963902324432, 1.6002987381070852 0.02038716711103916 M-0.05138212721794844 77.73333706241101 C0.3745790600590408 54.99297291524708, 1.0444371282868088 29.88690423164516, 0.3293773801997304 -0.6244803788140416" style="stroke: rgb(0, 0, 0); stroke-width: 1; fill: none;"></path></g><g transform="translate(207.5 347)"><text x="0" y="18" font-family="Virgil" font-size="20px" fill="#000000">Different Towers</text></g><g><g transform="translate(268.5 327.5)"><path d="M-0.41541267558932304 -0.3852633722126484 C-5.8439923954506705 -15.090254132697979, -26.17257402266065 -74.58731451903779, -31.448240076750515 -89.19674482420086 M-0.2470886126719416 0.7255777127109466 C-5.503051912145068 -14.242184487922739, -25.132376274621734 -73.53181893243764, -30.178229729887097 -88.14729138011113" style="stroke: rgb(0, 0, 0); stroke-width: 1; fill: none;"></path></g><g transform="translate(268.5 327.5)"><path d="M-12.085928820239904 -63.7964727610528 C-20.623542451121253 -74.1192109205485, -26.072631863729967 -81.74247034932465, -28.364806971754877 -88.4173335797526 M-10.636287322434189 -64.15173218140299 C-18.76225956876816 -72.97899190101485, -24.404494613186813 -80.93169675195044, -29.688192119132726 -87.54178265588358" style="stroke: rgb(0, 0, 0); stroke-width: 1; fill: none;"></path></g><g transform="translate(268.5 327.5)"><path d="M-31.53024442321292 -57.236092199086954 C-32.3616586526155 -70.07370526175987, -30.15740347742431 -80.2791513867935, -28.364806971754877 -88.4173335797526 M-30.080602925407206 -57.59135161943715 C-31.667640522893354 -68.63118823521344, -30.70563214104114 -78.81212014668768, -29.688192119132726 -87.54178265588358" style="stroke: rgb(0, 0, 0); stroke-width: 1; fill: none;"></path></g></g><g><g transform="translate(311.5 309.5)"><path d="M-0.04804352223873143 -0.7088619858026504 C-0.40786576370398203 -12.354946421583493, -1.401783769329389 -58.83766263226668, -1.6769166797399522 -70.4450477272272 M1.6459764779359105 1.6505664443224668 C1.723691346322497 -10.431688333426912, -0.363456036572655 -59.34967473196487, -1.0471661102026701 -71.23530559308827" style="stroke: rgb(0, 0, 0); stroke-width: 1; fill: none;"></path></g><g transform="translate(311.5 309.5)"><path d="M9.37218302211264 -44.69724318573742 C7.663401651175756 -54.14960525699071, 3.870310098192231 -64.05009685435071, 0.3279410738497972 -69.436424196437 M9.75783607831696 -42.83856714705496 C5.110166712553633 -53.570222816325966, 1.5134034967786256 -65.79238642894938, -0.45759017132222657 -71.81515989519656" style="stroke: rgb(0, 0, 0); stroke-width: 1; fill: none;"></path></g><g transform="translate(311.5 309.5)"><path d="M-11.12541239895464 -43.713076360406816 C-5.8569035895406065 -53.49201408302665, -2.677367789688219 -63.72728780409864, 0.3279410738497972 -69.436424196437 M-10.739759342750322 -41.854400321724356 C-7.389118108236872 -52.943716576996856, -2.9878243812265852 -65.54989705347663, -0.45759017132222657 -71.81515989519656" style="stroke: rgb(0, 0, 0); stroke-width: 1; fill: none;"></path></g></g><g><g transform="translate(344.5 306.5)"><path d="M0.5081248350441456 -0.30608758404850955 C9.329643089324238 -10.865101896474757, 44.15943885520101 -52.06035392557581, 53.24623039439321 -62.81263224557042 M-0.0721658747456968 0.8010601504705845 C8.766017428729684 -9.869364456130814, 45.30404195496813 -53.52412506698941, 54.07452336559072 -64.46261957028881" style="stroke: rgb(0, 0, 0); stroke-width: 1; fill: none;"></path></g><g transform="translate(344.5 306.5)"><path d="M43.59169988021984 -37.424985881779065 C49.20847534682036 -43.73203198549278, 49.11861518266304 -53.54017356342128, 53.59357043588534 -64.54148937875405 M43.30989098422959 -36.62220422725724 C46.57086039194452 -45.52559943285192, 51.11569656306348 -55.1085384404215, 54.0459213075228 -65.11256456675008" style="stroke: rgb(0, 0, 0); stroke-width: 1; fill: none;"></path></g><g transform="translate(344.5 306.5)"><path d="M27.737884332503164 -50.454818381271 C38.5885611940934 -52.57570973010222, 43.67381034082628 -58.13056557473152, 53.59357043588534 -64.54148937875405 M27.45607543651291 -49.652036726749174 C36.172477080416144 -54.036039116033876, 46.16743932941223 -59.1396633692395, 54.0459213075228 -65.11256456675008" style="stroke: rgb(0, 0, 0); stroke-width: 1; fill: none;"></path></g></g><g transform="translate(160.5 61.5)"><text x="0" y="18" font-family="Virgil" font-size="20px" fill="#000000">* Switch to build mode via button</text><text x="0" y="43" font-family="Virgil" font-size="20px" fill="#000000">* Switch active tower via button</text></g><g><g transform="translate(88.5 252.5)"><path d="M0.2851302724331617 -0.47661937884986394 C4.100628072147568 -10.048996031408509, 10.66602586321533 -48.69889006627103, 22.505963538214566 -57.834046844765545 C34.3459012132138 -66.96920362326006, 62.94427769792577 -55.671243425334495, 71.32475632242858 -55.28756004981697 M-0.2937260376010091 0.39043896169401693 C3.7945834857628995 -9.457225405763214, 12.572468126555904 -49.35439635325534, 24.539119931897147 -58.48176739274524 C36.50577173723839 -67.60913843223514, 63.600298678319284 -54.862498850018405, 71.50618479444645 -54.37378727524541" style="stroke: rgb(0, 0, 0); stroke-width: 1; fill: none;"></path></g><g transform="translate(88.5 252.5)"><path d="M40.87794923289475 -52.044372314581025 C51.6140347341206 -53.26143068530781, 57.17947357133204 -51.665457596212185, 70.61960714167915 -54.363664005612954 M42.513364007424386 -50.937790994526196 C51.34272937353295 -51.992377751420136, 61.53380312790854 -53.68478294239787, 71.07161648708396 -53.420551970331" style="stroke: rgb(0, 0, 0); stroke-width: 1; fill: none;"></path></g><g transform="translate(88.5 252.5)"><path d="M45.83116228450024 -71.95883145489525 C55.174688421577684 -67.83206273355862, 59.41391406522939 -60.904031810623096, 70.61960714167915 -54.363664005612954 M47.46657705902987 -70.85225013484042 C54.61447227888958 -65.2644071507637, 63.156039795072346 -60.32495050984682, 71.07161648708396 -53.420551970331" style="stroke: rgb(0, 0, 0); stroke-width: 1; fill: none;"></path></g></g><g transform="translate(10 262)"><text x="0" y="18" font-family="Virgil" font-size="20px" fill="#000000">Active Tower</text></g><g transform="translate(147 10)"><text x="0" y="25" font-family="Virgil" font-size="28px" fill="#000000">Keyboard-based Controls:</text></g></svg>