<svg version="1.1" xmlns="http://www.w3.org/2000/svg" viewBox="0 0 692.5 565.5">
  <defs>
    <style>
      @font-face {
        font-family: "Virgil";
        src: url("https://excalidraw.com/FG_Virgil.ttf");
      }
      @font-face {
        font-family: "Cascadia";
        src: url("https://excalidraw.com/Cascadia.ttf");
      }
    </style>
  </defs>
  <g transform="translate(150.5 112.5)"><path d="M0 0 C0 0, 0 0, 0 0 M0 0 C0 0, 0 0, 0 0 M-0.33990249779539794 6.94666720559179 C2.387453536370751 4.520485062011039, 3.290727405016602 2.2314908036090233, 4.555097668203062 0.8588962692615801 M-0.01591066752093534 6.356306384180777 C1.6483341741678292 4.333817352493127, 2.9331849098487983 2.547520975792344, 4.675507199721879 0.34739221407447396 M1.0493578904401173 11.334908028363763 C2.6025062595022206 8.51998160393783, 5.438214002463241 4.874699179155112, 10.31782349343313 -1.4435375918552518 M0.6546844379137862 11.252681129842578 C3.7412396735143165 8.621080306212379, 6.662428514878428 5.119151204116726, 11.212118103307617 0.6515756595030191 M-0.9243674772372703 20.01782316053348 C6.380635141015948 10.079492708130495, 12.412727465275493 6.317560479212636, 16.278734867929895 1.8487751807016304 M-1.0141873080795865 18.324768571090573 C4.171628782188095 12.53881448981846, 10.308967105769618 5.425611083864419, 15.695162766150613 0.23985019297571686 M0.6301837323419068 25.55930106313443 C7.478323699566261 14.806489165231838, 14.94758775837626 8.169006069612639, 20.796417046615744 1.644478983634663 M-0.2645844582282688 24.20397405018574 C4.787988637791141 18.671876810046832, 9.56026567194136 13.230665291411011, 21.54167324984249 -0.09333505815123289 M-1.4567843684414967 28.702246434752098 C8.448631618412326 17.53217145064447, 20.295844346532853 6.427189183848007, 26.657626301657768 0.21578355636566293 M-0.6211052964861139 29.766728793036393 C7.353143233718247 21.591803098422606, 14.276774354148461 12.750820012979045, 25.688462633315833 -0.28365097716332066 M-1.3991468326282224 38.103875964694964 C7.676538427941708 26.446742244927723, 13.629302719803318 19.40935244022309, 31.755718484005726 0.9827741329803352 M-0.9258292215969881 37.61827805340414 C7.726298120720847 28.672784515300066, 14.048574765540762 18.16075415661407, 32.30204960931728 -1.0674759530217166 M-0.5064818382590062 41.735859467271496 C7.4023316164252035 32.83910432094696, 14.249046343307976 24.669407199753888, 35.45161020364736 1.5113273934554776 M0.4801409301952475 43.00351552255057 C15.07928658209378 26.578966507983807, 28.847904963825908 9.535997384238044, 36.33194331713145 0.07104838370350208 M-1.4647477753461189 48.4609486224585 C11.60764158440377 35.49788950361295, 27.415516091801777 17.072173761415904, 41.50975106153243 0.7879348218767888 M0.44475179817519717 49.914862069905624 C10.26483250011016 37.19953426551071, 19.096291290931614 24.698058253241875, 42.41536557450496 -0.29390948094884095 M1.9436299570602031 56.062509914341675 C11.558933281444308 41.99924414098196, 18.918363887977716 30.40415648450185, 48.53715141764867 0.5698793482210682 M1.2536627000894995 54.65304868150811 C11.106085151631254 43.36742888351803, 21.269536843614457 29.999253228095487, 48.28502864572245 0.3515556974511789 M-0.7212132810523002 60.59470127289782 C12.091368518435338 45.02364064625614, 25.246695570989573 26.904112817018017, 52.919354622945846 0.6600587065740235 M0.03802340022276951 61.70854310178797 C13.483016618573748 46.00547531693874, 28.529063706320642 29.059630872291432, 53.67385747353053 -0.7328407200576059 M1.7233318322756261 68.41200501243542 C21.085609003952218 44.40287395122225, 42.29699723474308 19.71296157268621, 59.2594647874117 0.2571620769124472 M-0.9768626876688629 67.32233277200679 C19.261382452890953 45.87233067300544, 36.3989916998865 24.847887846315317, 57.72276744721384 0.33985338595472214 M-0.19832850599676277 73.74585657226292 C19.473245359817923 52.4510113553728, 33.9463362321678 29.74716493509458, 63.314119011995984 1.2304934433220396 M0.21653441267073248 73.59380357092617 C18.186670885962148 51.12997423635578, 36.20876748834403 31.617674913086347, 63.885386634518994 -1.1100997484730115 M-0.900668310881727 78.28127325735716 C27.35621530176317 47.97802204537688, 54.71521692590994 16.771731462023382, 70.43251515668645 1.4701482357795967 M-0.9039558469738296 79.58861855547605 C25.06694064562944 49.83916811759214, 49.62421593873708 21.295852397959045, 69.33583354973062 -0.44770112891088587 M0.5428713935704934 85.1863871768038 C28.720811103707263 53.70637388976741, 55.954955715783036 18.850633146476298, 74.49238407243284 -1.8381633116291596 M-0.14154133635591393 85.89950089919523 C28.793057738513536 51.73167237249657, 58.09681894481904 18.625516779782117, 73.87343938559535 -0.9171416443200542 M0.8389103423476385 90.46262188557968 C27.185046478101828 61.54179152252747, 50.6406928591267 30.490371719516233, 80.33901736922292 1.1370604810725382 M-0.17268947869090567 91.52766053401366 C23.55460270104354 62.57057617660239, 48.30243950456221 34.90932661828152, 79.3305257813978 0.23962457472937615 M0.7540422324089633 96.97422532299325 C23.010507648191954 72.16897153647909, 46.22744909371981 42.32449344395074, 86.72123964800642 0.1479360979704154 M0.7015359522773252 98.44357708869293 C34.48415426132042 59.87829463095151, 68.128919687736 20.485561691577274, 84.47712705488459 0.5889535142762554 M0.8341576357137228 102.02489855335298 C29.062292977438133 73.03259439254705, 58.58410322463811 36.52299330826469, 88.73043626877109 -1.7826285309587462 M0.24354774530490886 102.69487862949464 C30.710953235296024 68.43786884496693, 61.471428712665464 31.80421197837846, 90.42876797034035 0.38693791875049044 M-0.876233087750343 110.93442450663568 C27.473402261724903 78.69433540048703, 55.18094231861915 43.55486637803473, 96.73652558246673 -1.0861106716292284 M-1.03269183532354 110.5142204008487 C19.948803192266897 85.70420710417788, 40.46110548386061 63.071657041139304, 95.55118597051174 -0.6145193508090756 M1.4459134129665259 117.06820091692707 C33.241032740423435 76.95288065052773, 67.16518507959242 38.04283623321378, 98.826986699081 -0.2981961440642422 M0.386992153138614 115.88006776379397 C34.54241358158674 75.93860267235979, 69.76732435844465 34.84262054488241, 100.86810894468331 0.7137213250274712 M-0.1587987521479306 123.18741696420392 C24.224890235954813 95.87081077757927, 48.17586452472469 69.5722482533532, 107.74283171956372 -0.7839559641780838 M0.42476509997598555 122.39812283776035 C34.82859281016072 81.19475445005145, 69.67007876304675 39.92416369533662, 106.96597746060175 -0.31589031770104015 M-1.1522915111344574 129.4785862127747 C42.98003347766703 83.82614099402774, 83.8921991354794 35.13080743568159, 111.31763350390263 -1.387669701993964 M-0.34055395605529526 128.86210743900943 C34.17954939366295 89.86074863764296, 68.4006797133886 50.53134149854121, 111.40172253255166 -0.32616778456469575 M1.2203100829662077 135.1301753519479 C34.031723412860686 96.98266275238069, 64.85263773501964 60.665892305632624, 114.75743887405696 1.596707456796615 M0.014580586300908749 133.36164182130284 C36.35468977548587 92.71763616575427, 73.03897577100292 51.13897459971241, 116.95142882428917 -0.3144048843018723 M-0.3499992348582168 141.90923293670036 C47.64463224560013 87.64786234783433, 94.9120540710918 30.27661842624272, 122.36009152698597 0.0021734515021023526 M0.44651380382919115 140.3901234165705 C25.279636055410638 109.90711223042896, 52.048004894493054 81.13633411914971, 122.2984075620704 0.45550301184900377 M1.0438082613420505 144.19092232611771 C48.55763599376829 88.08750510970025, 100.27808959231452 29.65005248728795, 125.2345549476774 1.365308087099315 M0.19305345177620836 145.4055097733512 C34.45064766805562 106.01760699305987, 67.03242292783062 67.43131081836205, 127.72126944767996 -0.4390622891821252 M-0.9265817330003954 152.31787730876985 C49.64912477809674 96.74015012575671, 95.150556286872 41.67307905418015, 133.47408283866363 -0.9418304575899547 M-0.7316281918243315 151.7826250185523 C26.407276211335414 121.07750738619237, 54.96129906254076 88.8942664040399, 132.3638288465661 -0.022294198402495934 M-1.8763597011199642 158.6085148966108 C40.16283713116812 113.65670423557343, 76.5494884421944 70.23636641287851, 137.1763558129004 -0.7356918367125536 M-0.6671606926142343 158.99337447670166 C29.621688319318476 123.23268266342188, 61.48433493515252 88.74712896651039, 136.65318769133944 0.901064294048714 M0.9121843264505792 164.84178366063125 C43.6807330558019 114.01486121092316, 85.07038751580296 66.87151692586482, 142.21848919411875 -1.2390577874706248 M-0.0070494593265354455 164.53919681352735 C33.77428585311409 126.0742989426729, 67.05491073963952 87.07260637110532, 143.7489968714782 -0.09123596941232003 M-0.14983071514845125 172.08177052137796 C50.661503619946096 109.24160691966843, 104.34305156425306 49.394834111761575, 147.61270835906058 -0.1648388402939236 M-0.8173998529970687 171.11683263076216 C49.18427314014857 114.3640587411725, 98.95579457486738 58.00350967207193, 147.4501747785833 0.9734499399979037 M0.49934200799782064 176.87262582069422 C55.42277732232818 112.07124645099383, 113.03952499385946 49.990670935291185, 154.31295463324236 0.021721845684288477 M0.8283391773941448 176.81666015065406 C56.95855815956758 108.81153637792237, 116.65554208593899 41.60580477706969, 153.6235741913114 -0.3331026034218695 M-1.33714540959532 183.46609666975198 C38.89965958295286 139.86193756720735, 74.93642922748043 95.05005140761867, 158.0993288527809 -0.6367275693407008 M-0.07663728387625736 182.81049245462327 C41.853341735967426 133.60704464446462, 84.03889999899715 85.94121132257614, 159.0077375965759 0.27123535879940475 M-0.02627250424109631 189.44361251103183 C55.227202843244974 123.20664612268165, 112.82877453562435 58.46877888556039, 164.57708646804116 0.38890151696868125 M0.397784552046871 188.75564698750685 C56.31616798576865 124.00680888268221, 110.35942398121917 60.504938494661985, 164.03116519024832 -0.6276540215923759 M0.9847545042601183 194.2019993787934 C42.2730030752985 145.94939438583773, 85.86790668717352 97.96393212833199, 168.64632771559454 -1.2960929946048243 M0.28116766843470903 194.8689352504578 C38.29872894313143 149.71161424877647, 77.79119523897239 103.90842954138502, 168.81298892009752 0.9713143690323326 M-1.2615134618782822 202.1075025996065 C40.28695274913503 159.34446081899122, 77.37157595604475 114.60142645944744, 175.94631504760528 -0.6779986459359519 M-0.5965700132615577 201.65845957751299 C57.82985867808155 136.37024031826445, 114.8555536135376 70.70183436542473, 175.58964460521503 0.4967295345020726 M1.1366227401385527 207.14182566056277 C61.60326771674013 140.26651323440439, 120.74193240538368 70.88122483641558, 179.62603799403468 0.9658068881617528 M-0.45948665487766027 206.2271020329386 C59.83465165661459 136.1905427230391, 119.91089076139266 66.9695349086333, 180.12544601142844 -0.2830790982242107 M0.9299638520894372 212.75381092924715 C72.03036625831503 125.78639702027964, 146.89188314227542 40.991724255847856, 184.47906999188956 -0.5681570022961047 M0.4852248004346684 213.57021330190554 C72.07977391307217 129.46285881511818, 145.21497062872578 45.915915361326405, 185.41366254364442 0.30444155747806834 M-0.880876485818025 219.53448768500033 C57.48964738817924 153.29341240688336, 112.008259992738 90.88407811661136, 190.21164199048437 0.6064712063978448 M-0.9290104311150673 220.26570545147243 C46.56222764496367 166.4884115000491, 93.12012055233079 112.59178685684036, 191.2906852221389 -0.2299751976397701 M0.7441626535312307 225.5450891192409 C47.49244481399955 172.08166955953965, 96.89502210190882 117.49126028304957, 196.67033504332565 -1.4029682343871532 M0.6274970598103826 225.24986422018165 C61.47579096341418 154.1348344803642, 121.99342674749325 83.37054506155394, 195.79425884643007 -0.8326365798860542 M0.785260733280462 231.19425418193458 C76.55616844719113 145.85530205762478, 151.2643638569371 59.246761756258074, 200.02564214187694 0.8108443751193407 M-0.5870001266309536 231.76404699798607 C61.38113522579404 160.56645042569633, 123.3661931838696 89.32136393469935, 201.60744040720334 0.5055259461023073 M-0.8329922291837748 237.71733857637483 C74.95103299350974 147.05521605105832, 153.3200624141004 58.80357177312112, 206.40591355684512 0.675655963015511 M0.7742959252903754 236.81816319808826 C56.12262429367011 170.73769392238776, 112.24131093429995 105.23334712287964, 206.95578064821547 -0.640968498561975 M0.6587833745942344 244.04249163221502 C60.24861373334081 174.52343381130973, 121.45574682309979 103.08376351268197, 213.24963327500626 -0.5197830412406594 M0.2984618305761052 244.36005313309752 C48.12308350509034 186.86880240752944, 96.72402471142743 131.13988848893626, 211.8788511499956 0.14918696914048263 M0.8232191099651902 251.0713208111757 C77.94425826257435 162.834183061284, 153.6417783583592 74.11413438896304, 217.61540231887716 -0.5607762909786501 M-0.2667255657448883 250.6582860099667 C85.84443003624415 149.34669912008627, 172.50698314849765 50.19498131520409, 218.0676083884392 -0.08194526149903664 M0.9390636102424041 255.07837639887882 C83.032625573511 159.02841556734572, 167.46271843574385 62.142560251760365, 223.056388288554 -0.47082198120753216 M-0.2768468209441145 256.33467899442894 C48.04774545380889 201.4054119091054, 95.32240114406059 147.02054398114473, 222.14084646328425 0.6846520223780902 M-1.2749907922778703 261.7449050295575 C45.49752440328851 208.10896499476354, 90.7745156678901 154.75255829214757, 228.06792884610684 0.07997930979987838 M0.337673307677614 262.20983318075673 C50.94779084600721 204.24603753713038, 99.62772030531077 147.93694154118344, 228.10320634274186 -0.8140414201353655 M0.5979511248441547 266.91178833246306 C64.5792732221263 194.80552404558762, 128.40668126760673 122.51128631483691, 232.93037879370178 -1.0363514958066538 M0.8147132011082343 267.97825167585233 C50.29229856001582 208.85535838309897, 101.13149795505777 149.43886977273445, 233.71811510358782 0.09862301296846483 M-0.7126633400686939 274.1725884112117 C67.7765472052883 194.76651005228635, 139.02081231935136 116.15564665835063, 238.64710397773015 1.503845977154659 M-0.5401907601364401 274.8122943210352 C93.70898146447004 166.27055661647603, 189.33222208301896 55.805533531695964, 238.3768672712655 0.1168442217954572 M-0.9802918052146675 281.2960056381529 C51.58983611841657 222.2097364840082, 102.2282383418563 163.98640382852307, 243.6697842795703 0.41819736157652904 M-0.2795827030379413 280.1372792109051 C71.04347097409553 199.2437713426233, 139.51234680292512 119.91337361646792, 243.42189874624512 -0.08573777775754794 M-0.8494850257195332 286.06733895477754 C61.77198324384643 216.54614538726548, 122.2367397307389 146.38335324727646, 249.23436873889978 0.6400312947782709 M0.44556390900867116 286.57601281993493 C57.96708458919304 219.01965094224562, 116.06028338471948 152.51535130370476, 249.1659545904856 -0.10632840684445283 M-0.4034924267013644 292.8493412476655 C79.55598945336978 199.6430289447832, 158.34854537620222 109.05122296088494, 255.03006663260027 -0.3635830302299337 M-0.5027515713913472 292.9873887175078 C54.93246723088776 229.32294319538215, 111.0916224818963 164.47799014236543, 254.4764604641796 0.37333473522210503 M-0.7990550661814118 298.39672481191906 C62.07929569589697 229.2497128564488, 121.89892365121389 159.17052140041181, 258.8223653243111 0.42897178051862883 M0.34357449263214135 298.35662230095056 C83.94207511346005 201.7411123066202, 168.2386130681382 105.3527547368045, 259.23843238817324 0.31867547209542635 M-0.26945716435472 304.74070697502947 C88.24473592012039 202.50050153310616, 176.32030650078337 101.23007396054416, 264.818283098028 -0.725663869468314 M0.11439772233031797 305.160330148498 C82.88360869873496 209.63383438330553, 165.5729188616932 114.9596673792658, 265.64589568420377 0.11698421968387276 M-0.21948357467119672 312.182853676615 C77.7734491153774 222.01632988573203, 156.65424188247218 133.15677955098414, 269.0450394625615 0.509454163299737 M-0.10461228306877854 311.2055602169439 C81.86990579194276 212.97888463886574, 166.48074597955807 116.88985748473253, 270.0559164655064 0.4643153169498744 M-0.3361604876572126 316.85620163425824 C82.30429086082218 221.85609989486954, 165.89882522795645 126.02629771877996, 274.69195972668365 -0.048579937437524964 M-0.3166607359599164 316.3597678144468 C57.75095365783384 247.52692542587855, 116.07298574297138 180.41558705797436, 275.9061405195745 0.28716169635520866 M0.11493097845837619 322.4991471867189 C106.1930388287205 201.9638742476227, 212.2771503760377 81.67557757161036, 279.9157250872048 -0.44706138233439296 M-0.5093887453037631 322.9327046644925 C96.8099109472067 211.38581129608173, 194.39985756046667 99.7623763378953, 280.9959377158654 0.4727542951551286 M0.34567953390876355 328.09886123936565 C74.1643854397993 242.75592832949928, 149.706616725801 157.38545056898457, 286.25758296939716 -0.36410161543628117 M-0.028887460348936578 329.27104782592556 C73.86689229670867 242.6784224883671, 148.3307105949268 157.59886150276347, 285.96138528354857 -0.597752814036234 M0.06759202921515059 334.77627486220825 C98.26541461815187 222.34264008828825, 196.035109244084 109.94463082012493, 291.17399993882105 0.45607828385246074 M0.20561967556895303 335.33934320660666 C62.73146111145017 262.6093179546494, 125.16994232165483 190.5937643004768, 291.30687325770623 -0.16144500958868319 M-0.29863432242941274 342.20344251435387 C105.44457512989669 222.04998296346523, 210.1059200026363 99.80337919658122, 296.2113918046364 -0.8909088864261487 M-0.40322112958190603 341.3932488563499 C107.13959618080541 218.92442701980278, 212.74036109808682 97.0379089074781, 297.360714288504 0.2302042894695972 M-0.6449060668831816 347.6480262920967 C104.39632863492882 230.7705457299798, 205.45530131048818 113.65067453219594, 301.41303009324037 0.8720683555614703 M0.6260656529625694 347.5006109663577 C66.20616804919555 272.13444436257186, 131.68423929571858 197.18068218846253, 301.5682909917857 -0.08788196405402221 M0.39009719666938886 353.6840531250985 C99.32289753925724 239.3490916340349, 198.25662630929733 124.72315062860159, 307.56895794184163 0.3738470454008206 M-0.4819154437311771 353.94208674936937 C87.1968408066178 254.17435083230666, 173.60790050142427 154.7217783254978, 307.2512166234791 0.08488596744794846 M-0.2618162543190996 359.56801116539793 C70.38853604326464 279.1198046521917, 138.57266231749352 198.76977210464753, 312.8182975262928 0.6986281264938077 M0.06826391029011547 359.22212741681693 C87.67868124744432 259.97195703261406, 175.66883365067957 158.7694618661651, 312.91619126886053 0.32207321498665076 M0.8818653827038921 365.29946619046507 C65.78677962539771 288.3782890518487, 130.72572417883293 212.46629596688598, 318.64187398109004 0.3107101022110056 M0.3044797184294902 365.86830600080793 C120.33996375117866 225.26059584652953, 241.60451369413119 85.7723597944519, 318.5138245410385 -0.49462662391345236 M-0.36221985883619157 372.17307009731405 C118.35550206831542 234.95909394769495, 237.29780271625864 98.91588105926742, 322.7348757305917 0.7113643377103082 M-0.1461852027769846 372.04381513129624 C82.8402550999772 275.0002001740049, 166.3640042999647 179.15364288701852, 323.12194415471834 -0.1749682464748762 M-0.5185064435291793 377.84158868773477 C85.89847349557549 279.01124764865233, 170.79592758852908 179.566539392236, 328.29042835829523 -0.6956809270841233 M-0.09370033036058206 378.05747744909127 C94.60058238534715 270.0603262220167, 188.41594478875567 161.86495639544586, 328.99440630784 -0.5760784506512039 M-0.19088829829893256 384.27721538383446 C70.81702279516281 304.6743342773107, 140.43998202257066 225.0219739069424, 333.55650820688504 -0.015955207483455074 M0.11320533194043492 383.98084066834235 C75.61360552581095 299.12032809304935, 150.37673026068882 212.36560746437564, 334.17049381205044 0.08319172972293246 M0.7439416774354981 390.4550143661664 C78.4655379520789 300.4707014982901, 155.781043041324 210.8217631002226, 339.5964746906666 -0.434560131338003 M0.32093664005325306 389.9788548878149 C135.38384850643217 236.74812230420605, 269.23025957672917 82.56257303672575, 339.2673898722289 -0.08783093733763964 M0.09229804288056016 395.74526905298865 C115.31506771135993 264.6391410270462, 228.96629454547147 133.40898058106185, 344.82211111884624 0.0008189696102931521 M-0.021332960096930267 396.26312432654834 C129.42290979050443 249.00977819366042, 258.9469768773282 100.03185643383445, 344.8627835593006 0.10019214220639015 M-0.5846088057856775 402.354915371891 C90.59196639824864 298.3411807915932, 181.83382732142744 192.67021321033252, 350.2750966376022 0.40414927295122427 M-0.20836231061329613 402.5494838379136 C131.06681088649202 250.06861252451125, 263.1507506480107 98.72284851673486, 349.55293165616246 -0.021669803273937305 M-0.46384972238523126 408.5166705004632 C131.96622042752594 255.79210136598098, 264.5134166948195 101.96654776149444, 354.3338291431122 0.6401792062744107 M0.4154803714008892 408.25962765028174 C118.14840363878142 272.4863048828021, 235.49632963457742 137.11221525234387, 355.44698157071105 0.021011829592248434 M0.04604610228834645 415.2781616069632 C74.65508967491498 327.4594268362946, 149.49613179428385 241.645635902856, 359.4202481945828 0.9135671878379412 M-0.049459593129176936 414.72273810769195 C99.25243701341908 298.65932656800675, 199.02499291968513 183.22635741791535, 360.4612942488716 0.447653759844286 M-0.8835546855868757 420.8986683689808 C120.59737904650332 280.70762974862436, 242.3234578558788 142.48105604115338, 365.2672482171828 -0.5890854349911877 M-0.6592691713066756 420.9847281885152 C88.92193302430633 320.5937854772533, 177.6212255567914 219.282907535085, 365.57435737753156 -0.12280623936957795 M-0.5945666898329421 426.0382517141057 C119.48285657335884 288.47570371682593, 238.75690591134094 150.85681440592415, 370.74520627011833 0.46344225604502753 M-0.13214470523490152 426.80987024612256 C80.93356279698376 334.44746761290037, 162.01740043342824 241.33660092139007, 371.04081315261595 0.10326730098990991 M0.36463714875667963 433.34688256059593 C89.29601045592906 331.27879228442333, 178.12517833201667 228.29082859431577, 375.78545427855806 0.2343141083135265 M-0.5540689989885721 432.88242474955325 C101.10441997694613 317.874783668848, 202.17384832814216 201.7228572115197, 376.3024305110123 -0.005969095929060586 M-0.4933612446495147 438.7064747558185 C138.29804184437842 281.80456217337724, 275.01903526629957 123.93092710839964, 381.60680680170844 -0.31868645992763056 M-0.1238981156804414 438.66117322195555 C110.4552202177571 311.1702888800874, 220.5088712154001 184.63509118365056, 381.0021328986455 0.26733878891282076 M1.9436207471359466 444.28414255758594 C109.26966115065282 318.2195522830575, 218.348273795733 192.4347095631215, 386.23903326473805 -0.15583310131144684 M1.1727844485957122 443.2451757219232 C117.7209650430012 306.9978835715119, 236.10035760445376 171.10949762275874, 387.2949705024031 -0.20943377133619948 M5.654779636253153 443.3742335725967 C112.72927689326275 323.6548531426669, 217.90761203521552 202.79596087139134, 392.74938572685323 0.40722010242008083 M6.418580967698728 444.02830378193596 C105.67175860185347 329.83560089178536, 203.84926205302577 216.5915600090617, 392.06214801821017 0.35578619236313214 M11.520440394936987 443.44397245977734 C134.43956943505157 302.1792121371651, 257.9545377251111 159.2647066566971, 398.3660711132227 -0.2132380013661077 M11.785894050582238 443.5573841117016 C116.59207996089009 324.7559417378302, 220.70913051406757 205.03161433325656, 398.02199688295406 -0.2204072968409946 M17.325823832394036 443.24723638738584 C141.19497981017736 301.6241025059494, 266.41859920186363 158.4559078171664, 402.70477898305273 0.0937010055880762 M16.92819401817158 443.6584740552593 C115.7590199368348 329.5660064919012, 215.46110223771734 214.6643051836279, 402.74400304256 -0.1217225199092411 M22.292105623792743 443.7948454527891 C155.40937833329718 292.1722073314624, 284.80339490778414 140.9681190108502, 408.092153761512 -0.7791115293504561 M22.298577932353947 443.4196520107574 C176.53109625036083 268.0303369908082, 329.58303659607714 91.9547423079782, 408.1597791839152 -0.43234670369344597 M28.102944078339608 444.5172393242452 C168.73265946514408 281.6324931284074, 308.1900333238738 119.46697626938848, 413.3923225078069 0.6057953120763842 M27.36379736405459 443.56619407223496 C145.5839850969529 306.7212214850135, 265.04753508809006 169.19808637781273, 413.57709250294494 0.4382306208457294 M33.627952371203186 444.15180059912115 C182.01709373098635 271.6189909658301, 332.1191626694543 98.54162219324645, 419.13036714710597 0.5178353772355365 M33.315230625160815 443.1603973878404 C169.17165563082585 289.9379175254976, 304.84705525495264 134.67266302121652, 418.7908369365365 -0.1449590231435252 M37.54922631158989 443.30553144567494 C177.98554120328077 284.41371840502023, 319.19859126135054 124.02219527986846, 424.51885223861575 -0.5789579156149955 M38.08291053659779 443.976756801613 C190.20655632111553 268.92024350176735, 341.5313038517531 94.51052843434574, 423.4970609306151 -0.2671864166219564 M43.6287575456778 444.4970865414963 C145.61564441621192 325.52788501839467, 249.77849695348272 205.81697536419156, 429.38129720750476 0.4613917808917848 M43.19043763126233 443.95649779192365 C164.20970582995454 305.4462696592313, 285.41699884396206 165.50762447902713, 429.603939672068 -0.3642012864413175 M49.01525646964484 444.54590181417495 C153.6707632157569 320.53748919085734, 260.89761695333476 199.05722193367816, 434.3787041129793 0.029480385013965812 M48.84930306705111 444.2092052121434 C191.31682660941814 278.93566037009487, 334.64224967381557 114.83738996644671, 434.2458028568203 -0.04705566356226995 M54.15097514269759 443.76132318196903 C140.02989154678963 343.7396038065577, 227.3723070309122 242.90568983669962, 439.73302988020805 -0.9521532558815977 M53.45321153988947 444.4144520313115 C167.9380240630901 313.66681704384496, 282.6658341394109 181.0016625389635, 440.09410692175953 -0.20228052483670922 M59.2391204900045 443.58463949224534 C200.68388164787422 277.91062806493915, 344.4504392398104 113.0206656617134, 445.4537140683976 -0.06635072353681723 M59.232994486664616 443.8763322725761 C164.18943096585704 322.70593100010313, 271.200475553526 200.014074291417, 445.17146281281083 0.18329084877470336 M64.4703820707721 443.551759163262 C165.89453362597425 327.9252771595461, 268.0979959809267 209.26861110272603, 450.0611511027163 0.28598932941530397 M64.47063785330181 443.8986376549766 C154.29543062800946 339.89059433082787, 244.08521026614085 236.55354595079385, 450.7626082168614 -0.4776537695797856 M70.34640431016885 444.580533542386 C190.08689392850292 306.36802333082767, 310.33195704936384 169.4573520951761, 455.61321804237053 -0.5514121787672309 M69.81025432668828 444.0846809516612 C153.03189083026757 348.5692578649882, 235.08841987156814 253.88642522865237, 456.0284353298365 0.0022710891390772744 M74.70631426740124 444.33343354787525 C166.3487259497293 338.28381332686996, 258.8433552138288 231.9717672441914, 461.62874681252896 0.19710859928251812 M75.27211110274925 443.912472631669 C180.69664282353526 323.00770209185436, 286.55356452806325 201.5018606556269, 461.11696308862327 -0.11502805192051824 M81.05019386763786 443.70487302709694 C180.87214178845767 329.1251166752379, 280.83152236861997 212.71465423609646, 466.91405197239817 -0.6981649181773606 M80.96360211837207 443.83454421814855 C180.28311237563065 326.1557644990621, 281.9730837827259 209.579827914769, 466.57736493914723 -0.11794697371923349 M85.96560767008512 443.78388539830894 C219.8787773294583 288.31799292898756, 356.26309337074 131.77236714101372, 470.83034391815596 -0.43029680355716105 M85.6932758194819 444.4531249301389 C202.68986318112633 309.6323294584, 319.4150825951224 174.67662307836463, 471.0148820393049 0.2093491771138872 M90.65107509991158 444.34144700887816 C244.20680299681206 269.6360789515756, 396.2160774553477 94.28528482636571, 476.8005517959804 -0.16656987926717762 M90.88180739296604 443.61996504078826 C235.96296186295447 274.76306296155235, 382.07933566612303 106.25169958450195, 476.9851461719931 -0.011445371050200492 M96.34259821632368 443.99315377706284 C197.16000074388126 328.956006134054, 298.4253782452603 214.1827045835563, 482.2161464150781 0.14064302295064976 M95.97602653474969 444.41151251913607 C181.0887876732532 345.426285782474, 265.9869518061722 247.788259086231, 482.08850265813714 0.24885172582781365 M101.43713394449 443.48654455022984 C245.97522898206205 276.1631725845033, 391.5911379364142 109.6612753377971, 486.9045534506174 0.1959120004633178 M101.55988968172018 443.42873638833044 C213.57014847710903 315.84843133462925, 324.711523056416 188.36059038583124, 487.4249235596242 -0.21855613410382377 M106.51912184361694 444.26377774663706 C251.32372963967367 279.7716173520364, 395.72792947294016 111.95944238465027, 492.5556812118049 0.32342672152882984 M107.16850777980265 444.3723033674105 C204.5041161158171 330.8941697030806, 301.38535415348406 219.11193749168234, 492.6080354473795 0.31473214319414067 M113.08395633887304 443.74895471365176 C220.14169082952992 321.4135942246067, 327.04997694696544 196.97850877290162, 499.0453928738091 -0.8456802164858743 M112.7991185158844 443.9424012295248 C261.8437394012865 271.8073513609577, 410.80142586003086 99.45241116364332, 498.47609163329037 0.01413870586989674 M117.36451448946485 443.51079636953165 C253.49726635963438 286.6807728373082, 390.0013110811972 130.15532712021275, 503.8620342458364 0.9893433546772941 M117.52511408589075 443.8139154437124 C212.82780582711248 334.48897955023386, 308.3240925866135 224.37085868441343, 502.90599993828204 0.25728339796278304 M123.45462822056082 442.9499665616439 C231.09572030791506 320.9827871740207, 337.4901534430512 198.1908020418106, 509.62990600305545 -0.913807467614754 M123.40701342670886 443.73625253312156 C220.0947886415296 330.37040903636796, 318.395821610064 217.81118380888628, 509.1242949242418 -0.06619288237903902 M127.53561209136748 444.26174870824656 C208.56138965788597 350.60434014680845, 288.0492659079037 259.6154056320503, 513.9357914546727 0.6221819848960706 M128.50648998426402 443.9085167167916 C275.91322401995546 276.34962350619617, 421.6485061568387 108.44252155262538, 513.5211656620947 -0.17945154111623085 M134.19973552705326 442.9233691567064 C266.89837408805255 292.1448722081399, 398.9309637064583 139.79110673528342, 520.0524287758565 0.3815693095766506 M133.99734394544342 443.6793332678706 C261.6272500114868 296.0247507277301, 389.0740038299484 149.47280098576124, 519.5614279637283 0.08136706989934056 M139.0767505868248 443.85667382528175 C291.85185640256844 266.57593064201404, 444.9264882087232 89.30792421273225, 525.1650387758136 0.9182316746851598 M138.77953000617245 443.9220251553981 C233.56317113111962 335.2362802955551, 327.53705520482015 227.68639402699316, 524.7985521500677 -0.15767970529290098 M145.15736419585042 443.91545156133935 C282.6149183975379 285.83892776085304, 417.95538646770075 128.9581000445781, 528.1826790717313 0.552408338034013 M144.1901296033382 443.33443640252216 C236.95133732839878 335.98800583488185, 331.0439923309279 228.17538947279112, 528.673517225019 1.0009056919007093 M148.61976591333675 443.2481107831372 C280.7677454610004 295.7931010804706, 411.4556846542644 146.61451006156585, 529.164771856854 7.133377288772249 M149.41737868286597 444.01410872828194 C285.1064045178066 288.76441291055914, 421.3647732392091 132.03565113082615, 528.3288386435456 7.8012376764104605 M155.15310016445227 443.7850028380425 C300.209108149328 277.2038194391265, 446.6536338256981 108.78255618534922, 528.7172844802936 13.87026364293041 M155.4116399316431 443.7581049058259 C262.73369029036127 321.3649863677068, 368.9896130062405 199.27202574657406, 529.1922488914778 13.677355915048144 M159.38399400840345 444.6010986443131 C272.0140032536988 315.0481790476027, 384.0510060303583 185.4607317535676, 528.1223127512562 20.37006956876639 M160.2994305455947 444.03818540419326 C259.36088246163064 328.26665045225394, 359.07849845827263 213.18265672063984, 528.6937807897407 20.103755251852903 M165.3439703413683 444.35802162953865 C246.35008105447523 348.9890535201284, 329.6740190747629 253.03377986004, 528.94184831592 26.551449743869888 M165.03833543261766 443.8553413267548 C279.68698699457815 311.586242218939, 394.48551339617916 179.2790257697538, 528.6570348712311 26.32166116519569 M170.7762708095248 444.09317647130916 C281.5164353869733 320.23155317247483, 389.87689011839444 194.7070647444613, 529.324601570463 31.433840095830753 M170.5113301256086 443.9414231518818 C258.66425653520537 344.0152481821859, 345.8327579899511 242.86627197341554, 528.7935022938458 31.540658508447603 M176.24267872207952 444.4088778378825 C262.1347704801517 343.42063701537376, 349.73153769703396 243.2723825308314, 529.1128245740917 37.52658654290697 M175.82110369549287 444.1607694736134 C277.0471982420404 326.9849605238406, 378.27418719807474 211.49362709737306, 528.5968877535101 38.34032025064787 M180.79093225420087 443.91438332662557 C253.50627299495366 359.37445873438685, 326.0864906746579 276.9789104312015, 529.5097242519746 43.67097793246543 M181.14497195415763 444.16473994009766 C309.6456644477649 295.62700813433776, 438.1364052814024 147.764730249273, 528.9980226871113 44.12474041494465 M186.18125221509538 443.3885701057966 C301.30935665240884 314.4687977015292, 414.3057600575818 183.95934517860272, 528.5059901633181 50.0029226827643 M185.9489052225282 444.56689189537417 C289.1186686763462 325.5674267771078, 393.05234513809353 205.89464678823848, 528.5788930405744 49.89771072037733 M191.6098142799316 443.4672582727624 C272.937817859976 351.47266805321874, 351.65039386697185 259.74204764597556, 528.5472077043003 57.19498172139325 M191.69850056249186 443.642803737591 C279.05163843187745 341.65135884351207, 366.96582504334725 240.6968923564523, 528.4275524717963 56.51725352031686 M196.33527675791595 444.00588749578094 C319.6624333622933 305.6565048899602, 440.3772862261195 165.62897076473507, 528.840681021099 62.84549722594195 M196.8730095449737 444.10525156078734 C316.2477290933219 307.63364686401, 435.3519476528553 170.3996131394671, 529.2324452636736 62.49725054313414 M202.40021890230236 443.3622180273199 C290.176865581446 343.6801011830183, 375.0814410340915 244.11211010529405, 528.0552711409636 68.26299468636105 M202.8801245352112 443.39986897046214 C318.5635902913752 312.4275040947888, 433.7534480563 180.99999140246604, 528.7785581979784 68.6085558514696 M207.67255712087686 444.1854588788315 C315.17421002826046 321.73571866845805, 423.4734405559121 198.0793083944224, 529.6486636321727 73.7085189462192 M207.44665250550514 444.5177222704936 C275.75867737649855 367.1223130357038, 343.7775399269125 289.1536504082907, 528.783647767144 74.54615814602808 M213.33518612061496 442.9880192922397 C310.26040938165727 331.25468025763155, 409.7320398289549 218.16619131897824, 528.2628769964981 81.05423858590532 M212.9725988823706 443.7756147978419 C278.59488629350517 369.3814703145842, 343.4648703130568 294.720160004954, 528.3479758423239 80.86136784440632 M218.56831374743672 444.27171364680737 C287.35702938297374 363.40780555609854, 357.0847500244731 284.03914678788715, 528.2701981113338 87.10865991367511 M218.36467910946425 444.18556327765407 C311.33342113759124 339.4737553097947, 403.1308020861414 233.29455230624978, 528.4409833497641 87.2790513821281 M223.0199874415108 443.04956555626075 C302.5556669330901 353.82731918657913, 382.55957698811994 263.76487989346083, 528.2668741831802 92.43311151926763 M223.97200073222993 444.0000498589841 C286.39377896240075 372.20869657617857, 349.31677176307346 299.847886155277, 529.2756012293839 92.37981481820009 M228.63050589048004 444.65320058649604 C326.8219952959999 332.29853553512646, 424.31358013850144 221.31619617457514, 528.4097649135473 99.16913535158685 M228.3607099343767 444.27173312333184 C293.8212945573054 367.1595895998054, 360.0572508860811 291.480029863045, 529.0114336157714 98.91052280980564 M234.7839677018553 442.96600514111174 C331.3193861974423 333.4644197175082, 427.5583746148908 222.82594114969092, 529.5757543488131 105.29906777223907 M234.5007095073724 443.20049605825886 C310.50875306497943 355.86353374205413, 386.56355523520557 267.40084221230046, 528.6603536387731 104.8272078326899 M240.11171665234195 444.82844612194117 C332.81963818453613 336.07405497667787, 428.30881715651054 228.8623508730817, 528.66854832955 111.17115261606563 M239.11079542789494 444.11651363979587 C317.21452641832366 356.8836096206428, 394.21037909414457 267.82307243971917, 528.6995015009459 111.4826394635673 M244.7914592815942 443.5611640149856 C359.2352803971738 312.64016040338373, 472.98156279248764 182.42657968419573, 529.0191337925418 117.87968537491506 M245.4076642271067 444.022708848551 C328.05411130480104 346.8227641133139, 411.8737593053957 251.16061147868263, 528.1423698279403 117.29863570065784 M249.19938153863785 444.1943802061215 C311.4053657324934 373.74215404068843, 372.70681659406955 304.5864590091582, 529.402384875895 122.22247902415258 M250.33107372822704 444.33564786579143 C330.48247830071 352.6110512061588, 410.2535435558627 259.7331038537067, 529.2723915005271 123.54272063762703 M256.12520001880006 444.24083657788606 C336.8146268373173 348.62991807415113, 420.48598045124527 254.49312675644856, 527.7592349446688 128.7973254943745 M255.58705985765653 443.36079961866756 C355.1409932841825 326.82184693916787, 454.88386223238155 210.6072563099524, 528.9188010681328 129.33445842464383 M260.89367921748277 443.15406422951526 C365.59925223818567 321.27766352473355, 472.67920391413065 198.43857399986467, 529.0877234316348 135.13007213038858 M260.83421449233083 444.42855322131345 C317.43471471588975 377.25677298712, 375.4404051321104 311.4091737422199, 529.0341738285041 135.0947602074486 M266.0101292906724 443.71560202465037 C350.8258490432053 348.3765519529229, 435.1150433272965 249.8702720727218, 529.2453079456714 141.29330507958252 M266.54457066478193 443.7997516632951 C361.2473778913837 334.6543494764179, 454.3937301133567 227.24456196692353, 528.7548360250619 141.1226013411828 M271.67629191662627 444.54598108408567 C363.8755261447269 339.9025045259651, 454.7885396240784 235.27593851167242, 528.9788592406397 147.68224278826284 M271.22257218038766 444.211970709477 C362.80106518753144 341.3897105625494, 451.3292412113904 238.68509508049075, 528.7567714287256 148.20759628277165 M276.6624190335328 444.1955045161059 C346.8335076639599 362.45812423573636, 419.1691236761459 278.74831834569363, 529.7674279154134 154.80052708875849 M275.8849961896924 444.60352149805743 C340.2685542750646 367.66713175565513, 405.7405035520485 293.07055021303074, 528.4386539691636 154.19362366835858 M283.03279844465476 443.2815216447744 C378.83499637020924 334.46391408919527, 474.821641061552 223.09303533758901, 528.1172487513385 159.05873871862087 M282.5453286211476 443.3068591283008 C346.572915223116 368.0610657709885, 411.7725832014706 293.84439866988083, 528.4478042368552 160.05698569793313 M288.15320933159853 445.3162925435334 C353.37804282961156 364.99182940301745, 421.1875182674073 288.44353092264777, 529.5144704803397 166.15847563914045 M287.1912392362453 444.48286934729623 C362.0721718573668 359.5274047156351, 435.4939162912869 274.8921580436708, 528.6210375906613 165.8608275776611 M291.3379663910167 443.45660897870675 C361.38984442776353 363.6187488030103, 431.8657939298214 283.1838319043924, 529.7834081375483 171.50885864863864 M293.19954593278226 444.2789855439378 C364.31177020671146 360.46493796272017, 436.80764359339463 277.16591801212394, 528.4430734157863 172.50898047443414 M297.3543245324655 444.6752204933686 C376.5365696525977 352.4765440343809, 455.7879137850491 261.5764539333218, 529.0163576319839 178.8659020330655 M297.33966833756745 444.60875416992525 C351.25195072595625 382.3216514579173, 405.4279573464748 320.26638798718096, 528.4556130272879 178.69303275773657 M303.8713504654289 443.3429878253849 C366.7301253562525 372.3999971949184, 429.04004545138645 298.5228229981707, 528.3590353261737 183.50911057563056 M302.9507419248865 443.3645401034339 C369.5873740054576 364.58387543471486, 437.9027114647671 286.65921167789725, 529.26764497902 183.72956471791437 M307.06842926517163 443.27780144560774 C387.9535600489846 353.7319801401708, 470.1631345899757 261.197634168072, 527.935865122531 189.30014562941244 M308.14026463444196 443.6076266955556 C359.1559033063657 387.8463450419272, 409.5168790661184 330.50673600841066, 528.6965492736732 191.13157261338378 M315.0584342462383 443.6691277721855 C364.2821906543496 385.48861735114843, 416.96224021875423 327.4946059405251, 529.291453345136 197.47717887608138 M313.95559236365204 443.52131105351964 C365.87616528463803 384.8252528319675, 418.3721430123903 325.1890646436162, 528.1319888086637 196.61012442130718 M319.5302351686281 443.0607252917205 C399.0301329957082 351.66207833602147, 477.05037614388743 260.249764314609, 527.5283327839751 202.77791379058024 M318.92912331211556 444.2491475746764 C397.549464322886 353.87902430975043, 475.26235290749725 264.5059703954366, 528.3929056605499 202.27944693353217 M325.1185890010046 443.879438794812 C381.94393714679643 378.65906404605926, 437.80886490504867 312.8762560945106, 529.9209097212581 210.28785246135666 M324.8106282344539 443.73696302764495 C406.7435559085313 349.67277829388536, 487.70217845938544 256.25188905895214, 528.8750474112204 208.7373966308884 M328.9208156150518 442.6546687087088 C383.99642660422717 380.319617215384, 440.7306923676442 315.07017360172665, 529.6313680057204 215.8856428513834 M329.66583714893295 443.37554508558355 C406.74084190694714 356.4725419095283, 483.50004326306845 267.88821530926435, 528.3125525701691 215.11970135507147 M333.94719555081633 443.34695325737846 C410.57956145777325 354.27155043659627, 487.1495892050896 267.38075314263443, 529.7604422508729 221.57712329453085 M334.9990352862853 443.3666880772716 C376.50428943351363 396.4373059811305, 418.2217407072346 348.8236950698194, 529.3351072620673 221.46143065925705 M339.417395159488 444.2581170888952 C400.2809844035549 376.74295719544244, 457.9380623070714 308.411366024861, 527.7488000818132 226.93912369607435 M340.3167475265918 443.53837995445554 C397.839803115234 375.62873221077274, 456.98648490487665 308.3167470235315, 529.0792534914111 227.62414000039385 M345.64311514699193 442.9187751484102 C382.51890721193615 399.7665485137853, 418.5832667904295 357.81644084100424, 529.3825028087364 232.4041769156918 M345.86610463137754 443.0060079264962 C382.3413180120564 401.6161284467063, 419.13641425821606 358.17490658095613, 528.5487297242172 233.33977889222854 M349.96938675512126 443.3850887953253 C414.2012002917171 370.5862245393728, 480.5277589373484 294.6718956949844, 528.5568723388657 241.04408006923035 M350.0732902006358 443.96252802853087 C391.15667401282843 398.2095392421086, 428.82945955582034 354.1553326993089, 528.3980409230767 238.76835572136312 M354.9301662283498 443.5958718689326 C390.3200624506267 403.2218464781943, 424.610907851569 364.58073498614, 528.2340824571044 244.81869787742738 M356.97915568821236 443.9259992931654 C401.39347528021455 394.44514425102795, 445.3433779172667 343.5472780702622, 528.6159214669328 244.49713970936818 M361.3534731131583 445.4294692989463 C407.76362575018425 388.95812886300945, 457.71802422474815 335.9443948288793, 529.044358125363 252.0029082764425 M361.2654636542567 443.9330786578805 C410.29516895066587 386.3789129096312, 458.37420015125326 331.1324309046967, 528.369651903533 251.28247432018964 M366.848333647319 444.8966294297202 C416.41131773078763 384.62182588070596, 467.02927496984586 329.5008551369531, 528.7069052261741 257.8230762160016 M366.61710778336567 444.0640177367298 C421.89826104336834 380.99865806737773, 475.8127649909399 319.59184467405674, 528.8289706716242 258.50080634180335 M371.50094912866757 442.3674456445336 C429.94889773092024 377.45571454008285, 486.48745861498867 310.0615235070897, 529.4108715598111 261.9351131140486 M372.3805552278108 443.669977388476 C424.5646878462093 383.68869881887974, 477.39586364952123 321.8942311806323, 528.4016525239176 263.0126363045637 M376.4932131408395 442.8831328529275 C424.86736518527147 386.52092802961937, 476.28197784149285 327.842126192362, 527.476088299609 268.77954618668275 M377.5143638308503 443.38785036313163 C432.9858060143223 379.89921048742974, 489.7152033617248 314.1878601408731, 528.7430746635156 270.43687831990337 M383.6419621842174 443.2337793893624 C423.3959570846445 397.3239202317043, 461.0036208184371 352.5600642940537, 527.7051652482157 275.02276949088656 M383.4304121179047 443.62936361003904 C427.59571691962884 392.8988912268219, 470.58371339951134 342.1979923496038, 528.2612225316185 276.4526566259259 M385.94638855520947 442.6693807854204 C425.8286928545752 399.46033134849904, 465.51534262198896 354.1149581569463, 529.558856351303 283.3353480996837 M387.3088603787449 444.1513666627801 C441.6345219264076 381.50841887735345, 496.35320906581063 319.490341913429, 528.35690913586 281.78468744792383 M394.734566909706 443.16923194528204 C432.7045455629306 398.6613719185787, 471.73197137489706 355.3957371306608, 527.7133206090076 289.65536444843536 M393.55586148062724 443.64608728397263 C439.2863112457717 391.5909792020717, 484.83400884580414 338.55036061784284, 528.3761118740157 288.71597765459825 M399.2233959311428 444.0602033618689 C433.4419039498158 403.77285450229004, 468.58305545706185 364.3032750099005, 529.1684975848783 293.42263260586935 M398.58967081231947 443.51499263996635 C444.4444538539621 390.83241660816253, 489.7090172435427 339.53297874288614, 528.3895643159066 293.5348060709499 M403.56973716744585 445.05727740405973 C434.9684714126487 406.52945302833336, 470.7655401338906 365.8940764557465, 529.8910673716681 299.76894902546064 M403.61474727501525 443.740179886398 C446.47757460900425 396.2797090843153, 487.8033555206091 348.60529567112604, 528.0447326637449 301.3462628630559 M408.49349219885505 443.7757529972985 C432.13507797657945 416.38122940508697, 459.11983151980735 389.0142935829615, 527.4081372732638 308.0502092614356 M408.7489405281175 444.52205482431947 C446.92142246927557 400.56329600622934, 486.18441087767735 355.768951549167, 528.8957025103613 306.31176919206564 M413.0598918763202 443.21384037567105 C448.53959704692585 403.15986045250617, 485.6024221679334 359.7113741028691, 527.7993738996533 312.61353999377104 M413.69783176437284 443.2101765647697 C457.6641285177175 393.1708953893455, 501.52248470081446 344.4703143920319, 527.7826079950405 313.30655842740896 M421.301727809829 445.015541219154 C456.34925657402727 401.5699523822958, 490.06589585051415 363.5613300298868, 527.8919178227957 318.9813922867754 M419.1999926230659 444.1563409771785 C454.55183168108374 400.8978114221292, 492.23305734478885 360.5115759479768, 529.0772369065385 319.5188836353475 M425.1553246003313 444.7454720118331 C457.79660415371393 409.59946439774814, 485.40513536221187 373.143933489687, 528.9797064896503 325.4281703297572 M425.9317074219434 443.52065404758474 C457.8723517918792 405.3073985545776, 491.2948963404549 369.1569665786994, 529.3711035961115 324.55789631964285 M430.8995676078147 445.23904068368523 C452.21482418084076 417.52327564245576, 475.25290280701245 394.10589499431796, 528.5427971352048 330.55686017769324 M429.9147509252897 443.1529585204184 C458.754330306839 411.48162991202946, 486.54446842104016 379.0711153913631, 529.1635218905441 331.56152516222494 M434.0918751832291 443.877269968796 C464.4573872813707 409.67411506141696, 491.1396434924595 378.1707644058406, 528.527279985409 335.32856268966924 M435.42111057585174 443.3989072567182 C472.9747824904702 401.46993834646634, 509.4175581146402 360.332686993384, 528.110268295083 335.75725896163266 M442.0072264365621 445.9369740471422 C460.8837805257109 418.3866450584343, 481.8691002404798 396.8069770859795, 527.7843060252505 342.41267017066184 M440.38076426291394 444.9813898759141 C464.056958091025 418.7282635413274, 487.11557852198 390.51605338149454, 529.4313597615126 343.34357327479574 M444.5741334687636 443.8655819028096 C476.27059579220446 407.6660088794647, 510.0640578995624 368.27984058169415, 530.3500002016888 350.21639930997975 M447.286402554223 443.80660611404494 C477.7202169550662 406.8033692238878, 510.3178203066516 370.3303130597747, 529.1597168910891 350.05071335547603 M452.81366913982123 442.631313965775 C473.691214662741 419.4800131943444, 496.14626785196367 390.7748240344214, 529.164784336683 356.46141992193134 M450.6012064640635 444.8454924655407 C467.69871291503677 425.3100257119625, 483.34899245504863 405.40447322432703, 527.829236847569 354.248572894935 M457.7754393006848 442.99800547012404 C478.59669263081713 418.6868159178826, 497.3106005942903 397.54681808974897, 527.7927000402209 359.7604836864933 M457.66356968518215 442.9397955414401 C478.4925286518973 419.9054233762814, 499.91207881521154 395.11878717542425, 529.1628662702363 361.0545727626025 M460.9766105613421 442.87528309583354 C489.30419058113216 415.99238779116564, 514.7442936784335 382.37446584666316, 530.7013219132523 367.6469570877515 M462.09487635686355 444.6834987111731 C479.1392838395031 424.5427756524477, 496.0704140827266 405.6751869292058, 528.3212644768382 367.89444394451755 M469.33788252274275 444.59338832698927 C483.42591020590345 425.0072917795485, 496.8886685803414 410.1552527103028, 529.7007853157647 373.92499805568264 M466.7042232968542 443.22889546077863 C483.0739034182237 427.329578427471, 497.7553095873015 409.3690061801728, 529.310581231659 374.3836541851099 M473.62251554487466 444.2533540935679 C493.40462701859025 420.6557473310172, 513.9331586806816 396.7839493730793, 530.2236995697176 378.6990889045952 M472.8961977694389 444.16801603468645 C494.72405950761487 419.87505884028445, 515.9139754191605 394.3681884576106, 529.2311199484548 379.8881909256412 M479.37230297868746 443.0018281296552 C496.39149540023874 420.1511583657291, 517.1793049516486 401.56047146751575, 529.0444708720703 385.9506650737977 M477.5755997173642 444.33870079393546 C496.5706353897102 420.7395627805404, 516.5139735632697 399.6330022511484, 528.9654106034819 385.6324400448731 M481.3465989341689 444.38124961522806 C498.298272231799 425.03349196795176, 515.5642203449537 407.7534747596581, 529.9986252078103 391.11474386826694 M482.55521952991467 443.70602685795564 C500.75844868555345 425.2527784792196, 517.4553753908738 404.4705573563681, 528.8662826485248 391.80706459973544 M490.45829051226883 441.60467253437196 C500.5329527989848 428.38252665357237, 514.2865695771845 411.0522741976312, 528.2627215528875 399.1094573970886 M489.460560274837 444.16838146278565 C504.28802939787937 426.5789495007221, 517.3444741903618 408.74236784768806, 528.0055282138302 398.1297877637671 M492.2128255729749 442.90594231706393 C504.7433212373125 433.26777600350675, 513.9104394946713 423.60226689278437, 526.7933796422897 403.68622921523945 M493.1376154664158 443.4388886028556 C503.8090177835959 432.638701253908, 511.6577088280933 422.0592006139891, 528.5816798761828 404.72681946889804 M497.644184967237 442.8145191973896 C507.1220901134574 436.4491287282843, 516.7953937742028 428.0581897051726, 528.6071931729759 409.45930726202806 M498.5575912973978 443.8514823892043 C507.44220215191564 432.83920778562003, 516.9858999812501 423.4692954885009, 529.1686738618384 410.69363934388986 M505.7539103050426 443.5056548553256 C511.89405825241363 433.4941448172275, 521.2548957516468 423.4328974143913, 528.5000527169058 415.48239260176274 M504.22468440706734 444.2423336912615 C510.42537413742576 436.449990216879, 517.502690793077 427.24857125851435, 528.4039229595536 415.202875455004 M509.7910171583513 442.82992535518065 C515.4227669039043 441.38189713124905, 517.1918361367523 437.14538604217296, 526.7664686340667 420.8252681644205 M510.42474508418087 443.510633075289 C513.7401999823019 440.1695621889767, 517.6117856185232 434.98536765893004, 527.6763894336126 421.6121830466706 M514.9713179741221 443.88985988626314 C520.3616484527844 439.6875586323522, 522.4681418939629 435.7437550014225, 527.4794842754086 428.60333168408687 M515.9133501799944 444.7264695450483 C519.3579301633793 438.75607842766203, 524.0514158393204 433.97504998435977, 529.3752482267623 427.0250274799284 M518.8830817079846 443.17641159916695 C522.8187294003368 440.5742943230198, 524.2190578729266 438.0361216251958, 528.844573486216 435.00476485332615 M519.7977168800518 444.23080245546464 C523.2062473631879 440.7404657558356, 525.4486039511021 438.19424524779, 528.4337481215051 434.25358490008074 M525.5076778713304 444.2170689278183 C526.5337191812437 443.43656891460256, 526.6867701126085 442.4537282947075, 528.7210551058189 440.4291629976171 M525.8038575092022 443.9043686318112 C526.5690826257086 443.1234774829852, 526.7971585170899 442.6072376795879, 528.3195056746961 440.83657326703394" style="stroke: rgb(190, 75, 219); stroke-width: 0.5; fill: none;"></path><path d="M-0.46271212175488474 0.4231707699596882 C159.5518971732818 1.8381083630658686, 319.6128680100665 1.3558287524320185, 526.7424622051418 0.3931043989956379 M-0.044593911990523344 0.20727430544793607 C127.69649140434339 2.001048951309174, 255.57990498300643 1.8361701180152594, 526.9967567984015 0.24741563759744167 M526.483923835877 -0.11190717875341624 C527.3853045594593 110.98842639734785, 525.7129725881468 221.6036522942087, 526.5903770370276 442.01699115534313 M526.5924459086688 -0.10482584797414914 C526.1181280389968 142.68718114604212, 526.3765695885381 285.2176395495883, 526.5197329556083 443.0940441682551 M526.8983075372875 443.0031324036419 C367.9242414944805 442.75748545685036, 210.0244178527966 442.9603300527595, 0.6959363929927349 442.9456261523068 M526.7615421477706 442.80101503096523 C414.09169138548896 442.3733965876587, 300.425619080849 442.69663192062455, -0.27188665233552456 442.759405111894 M-0.3669410906222179 443.35659537491716 C0.9791736917971716 326.74063219785756, 1.5553553826215372 212.2083396627489, -0.8675363749362305 -0.8294617467815324 M-0.02948703353428468 443.08344586654414 C-1.8652916725443882 316.81169055399823, -1.5981698022403998 190.74901013648022, 0.12007758663061037 -0.4908349538065113" style="stroke: rgb(0, 0, 0); stroke-width: 1; fill: none;"></path></g><g transform="translate(277.5 280.5)"><path d="M66.0313037117871 1.8567805161656352 C74.27856702324839 3.580828666692981, 83.24010031972401 10.745361254544267, 89.2255830356828 17.683553701085337 C95.2110657516416 24.621746147626407, 100.00127312906977 34.18593443808706, 101.94420000753988 43.48593519541205 C103.88712688600998 52.785935952737034, 103.56339732676987 64.36229038182782, 100.8831443065034 73.48355824503525 C98.20289128623692 82.60482610824269, 92.66583511186546 91.78884474542123, 85.86268188594104 98.2135423746567 C79.05952866001662 104.63824000389216, 68.6761572141407 110.19639634614839, 60.064224950956884 112.03174402044807 C51.45229268777307 113.86709169474776, 42.387693022937974 112.5324967148203, 34.19108830683813 109.22562842045477 C25.99448359073829 105.91876012608924, 16.593836101570506 99.49755036372845, 10.884596654357821 92.19053425425491 C5.175357207145137 84.88351814478138, 1.2682214413653021 74.89669033833556, -0.06434837643797664 65.38353176361356 C-1.3969181942412554 55.870373188891556, -0.7096778653984646 44.0859498006589, 2.889177747538149 35.11158280592289 C6.488033360474763 26.137215811186884, 14.263255127859896 17.47175124694699, 21.528785301181703 11.5373297951975 C28.79431547450351 5.602908343448011, 38.067566232268874 0.609435766114083, 46.48235878746899 -0.4949459045740454 C54.897151342669105 -1.5993275752621738, 66.60003156884902 3.068813248418497, 72.01754063238238 4.9110397710687295 C77.43504969591574 6.753266293718962, 79.14934205698022 9.764567131356547, 78.98741316866911 10.55841323132735 M30.069757466874197 5.00140815055137 C37.21245206723143 0.20402735243864623, 46.95029174588814 -0.006565361101858458, 55.77089715663665 0.7898990982204381 C64.59150256738516 1.5863635575427346, 75.65716328912232 4.319279989400879, 82.99338993136527 9.78019490648515 C90.32961657360822 15.24110982356942, 96.58015222751658 24.74601986874903, 99.78825701009433 33.55538860072606 C102.99636179267208 42.36475733270309, 103.61495567409227 52.840846232689394, 102.24201862683177 62.63640729834733 C100.86908157957126 72.43196836400527, 96.66533919889737 84.34100634303076, 91.55063472653129 92.32875499467369 C86.4359302541652 100.31650364631662, 79.53798039547736 107.43820447303739, 71.55379179263528 110.56289920820494 C63.5696031897932 113.68759394337249, 52.689162240454735 113.11502945873893, 43.645503109478774 111.07692340567901 C34.601843978502814 109.03881735261909, 23.95996041832645 104.38313932044397, 17.29183700677953 98.3342628898454 C10.623713595232612 92.28538645924684, 6.219984014451104 83.44055666662787, 3.6367626401972686 74.78366482208756 C1.0535412659434336 66.12677297754725, 0.005447203244309806 55.5682843901716, 1.7925087612565207 46.39291182260354 C3.579570319268732 37.217539255035476, 9.900391411964865 26.442365989537002, 14.359131988270533 19.731429416679184 C18.817872564576202 13.020492843821366, 26.115293655253055 8.479969626459093, 28.544952219090526 6.12729238545662 C30.974610782927996 3.7746151444541476, 28.553339787592854 4.657815811919075, 28.93708337129535 5.6153659706643495" style="stroke: none; stroke-width: 0; fill: rgb(190, 75, 219);"></path><path d="M76.0408230363596 6.888189852384535 C83.7523430280658 10.432476200156977, 90.4518929552635 19.770653857290426, 95.05889623880856 27.902978649743506 C99.66589952235361 36.035303442196586, 103.42694081490015 46.2706755022945, 103.68284273762995 55.68213860710302 C103.93874466035976 65.09360171191153, 101.04026934210287 76.14655701024355, 96.59430777518743 84.3717572785946 C92.14834620827199 92.59695754694565, 84.69496448848923 100.25014688661139, 77.00707333613732 105.03334021720931 C69.31918218378541 109.81653354780724, 59.189583817625895 113.23723236432959, 50.46696086107597 113.07091726218215 C41.74433790452604 112.90460216003471, 32.12661357137419 109.32314609912832, 24.671335596837757 104.0354496043247 C17.216057622301324 98.74775310952107, 9.932741844356528 89.72382956824191, 5.7352930138573655 81.34473829336038 C1.537844183358204 72.96564701847885, -0.9514311624541492 63.18242336506097, -0.5133573861572103 53.76090195503549 C-0.07528360986027138 44.339380545010016, 3.224630806330551 32.99774580618778, 8.363735671638999 24.81560983320751 C13.502840536947446 16.63347386022724, 22.404095695417013 8.630715408058768, 30.321271805693474 4.6680861171538695 C38.238447915969935 0.7054568262489718, 47.6065404381375 -0.00663112801798138, 55.866792333297774 1.0398340877781251 C64.12704422845805 2.086299303574232, 74.88278976351613 8.692779195630544, 79.88278317665512 10.946877411930508 C84.88277658979412 13.200975628230472, 86.35014784839974 13.911555030704646, 85.86675281213172 14.564423385577904 M72.2679013403359 4.27653310407328 C79.98529264843052 6.9037923523776765, 87.68736781549734 14.147673937914544, 92.83892155375139 22.001786764053556 C97.99047529200544 29.855899590192568, 102.29722700335294 41.49768454960238, 103.17722376986022 51.40121006090736 C104.0572205363675 61.30473557221234, 101.69510953122216 72.6422757275869, 98.11890215279502 81.42293983188341 C94.54269477436787 90.20360393617992, 89.13532561426449 98.85474646149969, 81.71997949929738 104.0851946866864 C74.30463338433027 109.31564291187313, 62.42665095588342 112.20270768464219, 53.62682546299238 112.80562918300373 C44.82699997010134 113.40855068136527, 36.5541582690655 112.10885287365547, 28.921026541951132 107.70272367685561 C21.28789481483676 103.29659448005576, 12.505341474066249 94.50217269161395, 7.828035100306153 86.36885400220461 C3.1507287265460553 78.23553531279528, 0.8352079209653169 68.24143129125098, 0.8571882993905504 58.902811540399576 C0.8791686778157839 49.564191789548175, 3.5781528843946004 38.83672354510412, 7.9599173708575535 30.337135497096202 C12.341681857320506 21.837547449088284, 20.01726518836566 12.831699784501431, 27.14777521816827 7.905283252352056 C34.278285247970885 2.9788667202026824, 43.19016637509328 1.5698937059812885, 50.74297754967322 0.7786363041999564 C58.295788724253164 -0.012621097581375751, 68.96268898667849 2.4587798660443547, 72.46464226564794 3.157738841664063 C75.96659554461739 3.8566978172837714, 72.3389181678555 3.7584445233802697, 71.75469722348994 4.9723901579182055" style="stroke: rgb(0, 0, 0); stroke-width: 1; fill: none;"></path></g><g transform="translate(528.5 272.5)"><path d="M-1.1550161894410849 -1.7864805106073618 L122.79927247203887 1.6814977880567312 L121.57972728647292 107.01584533415735 L-0.12987489067018032 104.80915245972574" style="stroke: none; stroke-width: 0; fill: rgb(76, 110, 245);"></path><path d="M-1.0501914266496897 -1.7903558071702719 C27.176018144004047 -0.7587763682939113, 51.26768143475056 0.4276194556616246, 122.89812747202814 1.5112022701650858 M-0.9094272581860423 -0.9631798984482884 C32.33629914969207 1.9500226339511573, 63.379416495375345 1.613352145832032, 121.97193020302802 -0.9571696342900395 M120.66750470362604 -0.8804512675851583 C121.62550657501444 34.80933873113244, 123.19209289064631 72.2219623632729, 123.77235398255289 107.29909181036055 M122.33690207917243 0.6002637324854732 C120.38229863127694 35.12177263163031, 120.62169100126252 69.07298715058715, 121.12938949186355 106.76016174536198 M120.98901209793985 104.60297965444624 C88.66605328116566 104.76972421998158, 53.52483236417174 105.7999272643961, -0.014317715540528297 106.86955314315856 M121.26132151205093 105.25070821028203 C97.31740074343979 106.1440900897421, 71.55667413529008 106.4088619386591, -0.4041712312027812 106.25049861054868 M-0.6526248101145029 107.14779096283019 C1.627449462953955 75.09048379082232, 0.6541226010955871 45.75417919754981, 0.5863911863416433 1.6889558974653482 M0.8294377299025655 105.78866012673825 C0.9436738808639348 77.22284797728061, -0.08155357642099259 46.840586662478735, 0.5448625357821584 -0.9405352594330907" style="stroke: rgb(0, 0, 0); stroke-width: 1; fill: none;"></path></g><g><g transform="translate(296.5 59.5)"><path d="M0.31868375837802887 -0.8162993341684341 C5.023222834865252 33.82279511392117, 23.120069955786068 173.26350241601466, 27.61484035551548 207.75880108773708 M0.16654867596924317 -1.5488622886687518 C4.756025394077103 32.79513082914055, 24.840007231508693 170.8557388227433, 29.348463670685888 205.58984767846763" style="stroke: rgb(0, 0, 0); stroke-width: 1; fill: none;"></path></g><g transform="translate(296.5 59.5)"><path d="M13.954517627483535 178.43259180166655 C20.05681120772615 184.45087751897915, 20.87849801040631 194.22003962172516, 28.83030954129994 205.77186808936298 M14.887304665869403 178.99572172590427 C18.641921417185994 184.0827119934982, 22.53183677542255 191.35673766522754, 29.519991883412004 205.42820418082178" style="stroke: rgb(0, 0, 0); stroke-width: 1; fill: none;"></path></g><g transform="translate(296.5 59.5)"><path d="M34.2814417497572 175.6154730407393 C35.3212201269306 182.38911098131038, 31.08217039900361 192.85964313585194, 28.83030954129994 205.77186808936298 M35.21422878814307 176.17860296497702 C34.61194231633672 181.71566137803137, 34.12419607819833 189.59638939872184, 29.519991883412004 205.42820418082178" style="stroke: rgb(0, 0, 0); stroke-width: 1; fill: none;"></path></g></g><g><g transform="translate(655.5 83.5)"><path d="M-0.15728165209293365 -0.9426281780004502 C-9.838826496402424 27.2061921586593, -48.51125116248926 140.99513548115888, -58.004780259728435 169.65208264887332 M0.2832501959055662 -0.9897934424132109 C-9.439595376724998 27.591570107613997, -49.20918209162851 142.67125500010948, -58.67925872810185 171.44193579562008" style="stroke: rgb(0, 0, 0); stroke-width: 1; fill: none;"></path></g><g transform="translate(655.5 83.5)"><path d="M-60.92996326454508 141.4416685911572 C-59.540354547993275 152.1286239459249, -57.08671835562844 159.49426917528615, -58.729800263121724 171.75149885125458 M-58.559577297350046 142.34269106264472 C-58.62724610539965 149.20581314636715, -58.672754337925504 156.00342109895237, -59.36770768620074 171.32227940417826" style="stroke: rgb(0, 0, 0); stroke-width: 1; fill: none;"></path></g><g transform="translate(655.5 83.5)"><path d="M-41.492274705099945 148.02165839752126 C-46.11245539140255 156.66281225537747, -49.626981358561686 162.00813258590642, -58.729800263121724 171.75149885125458 M-39.12188873790491 148.9226808690088 C-43.94511284479961 154.32085631974454, -48.770599958174905 159.5003597217585, -59.36770768620074 171.32227940417826" style="stroke: rgb(0, 0, 0); stroke-width: 1; fill: none;"></path></g></g><g transform="translate(236.5 31)"><text x="0" y="18" font-family="Virgil" font-size="20px" fill="#000000">Circle unit</text></g><g transform="translate(624.5 46)"><text x="0" y="18" font-family="Virgil" font-size="20px" fill="#000000">Tower</text></g><g><g transform="translate(167.5 41.5)"><path d="M-0.6932923961430788 -0.3172542225569487 C5.893836040422321 28.026173892493052, 32.66954804174602 141.88685645548009, 39.221422953531146 170.10738990195097 M-1.5719306986872108 0.45324366965331153 C5.012578846579418 28.910169901732978, 31.51569578415714 140.9945303827369, 38.045177834993225 169.15927295812406" style="stroke: rgb(0, 0, 0); stroke-width: 1; fill: none;"></path></g><g transform="translate(167.5 41.5)"><path d="M21.093066265352967 144.42306423424935 C27.991846687012686 150.41329612185504, 30.67068567433511 156.35347534893978, 36.31590522914193 167.44131591037848 M20.859507240832748 144.2953916187883 C27.785433269916826 152.36571056793824, 32.33287386857038 159.59445705352468, 37.90479895840399 168.9305211189855" style="stroke: rgb(0, 0, 0); stroke-width: 1; fill: none;"></path></g><g transform="translate(167.5 41.5)"><path d="M41.072743017462194 139.73984746934667 C42.481183442009645 146.90200669994076, 39.667855149858504 154.12954458642747, 36.31590522914193 167.44131591037848 M40.839183992941976 139.61217485388562 C41.25192689111028 149.22083919175083, 39.310619545572976 157.97054187360075, 37.90479895840399 168.9305211189855" style="stroke: rgb(0, 0, 0); stroke-width: 1; fill: none;"></path></g></g><g transform="translate(10 10)"><text x="0" y="18" font-family="Virgil" font-size="20px" fill="#000000">Circle sight-hit-box</text></g></svg>