<svg version="1.1" xmlns="http://www.w3.org/2000/svg" viewBox="0 0 966.5 345.5">
  <defs>
    <style>
      @font-face {
        font-family: "Virgil";
        src: url("https://excalidraw.com/FG_Virgil.ttf");
      }
      @font-face {
        font-family: "Cascadia";
        src: url("https://excalidraw.com/Cascadia.ttf");
      }
    </style>
  </defs>
  <g transform="translate(24.5 67)"><text x="0" y="18" font-family="Virgil" font-size="20px" fill="#000000">f * g * h = Game Map</text></g><g transform="translate(58.5 14)"><text x="0" y="25" font-family="Virgil" font-size="28px" fill="#000000">Functional:</text></g><g transform="translate(10 150.5)"><text x="0" y="25" font-family="Virgil" font-size="28px" fill="#000000">Partial computation?</text><text x="0" y="60" font-family="Virgil" font-size="28px" fill="#000000">Dynamic access?</text></g><g transform="translate(359 66.5)"><path d="M50.91537605172857 1.56096987831976 C61.81917189962354 -0.7702001158413463, 78.18035033201947 -0.9543437904630998, 90.21228372479132 0.4054616446278345 C102.24421711756317 1.7652670797187688, 114.0130766716305 5.721859097996392, 123.10697640835963 9.719802488865366 C132.20087614508876 13.71774587973434, 140.6093988490421 19.029700448423785, 144.77568214516606 24.393121989841674 C148.94196544129002 29.756543531259563, 150.18579222518352 36.18942855283842, 148.10467618510347 41.900331737372696 C146.02356014502342 47.61123492190697, 140.10714787787637 54.04347559670637, 132.28898590468577 58.65854109704732 C124.47082393149516 63.273606597388266, 112.6708567204123 67.6039084804856, 101.19570434595983 69.59072473941839 C89.72055197150735 71.57754099835118, 75.56373734905108 71.5908976130581, 63.438071657970866 70.5794386506441 C51.312405966890644 69.56797968823008, 38.1736455530064 66.98488590943536, 28.441710199478514 63.521970964934326 C18.709774845950626 60.05905602043328, 9.568742734974922 55.364917983695015, 5.046459536803553 49.80194898363784 C0.5241763386321843 44.23897998358067, -0.20284400120141544 35.94786563416158, 1.3080110104503007 30.144156964591307 C2.818866022102017 24.340448295021034, 6.829794423031089 19.407732166811336, 14.11158960671385 14.979696966216203 C21.39338479039661 10.551661765621072, 38.39189609927362 5.830847786097239, 44.99878211254686 3.5759457610205203 C51.6056681258201 1.3210437359438019, 51.928536904087196 1.8635753069818872, 53.75290568635329 1.450284815755893 C55.57727446861938 1.0369943245298987, 55.630667089719054 0.39866827415109773, 55.94499480614343 1.0962028136645543 M91.32715644945965 0.6036449440545013 C102.97978394239189 1.3001052071979124, 115.19075485357145 5.680437257643421, 124.4280701727682 9.532538446865221 C133.66538549196494 13.384639636087021, 142.8871862316057 18.23088094881273, 146.75104836464016 23.7162520793853 C150.6149104976746 29.20162320995787, 150.07452159942886 36.63337935832209, 147.61124297097484 42.44476523030063 C145.14796434252082 48.256151102279176, 139.88909272577783 54.40287618614194, 131.97137659391595 58.58456731125656 C124.05366046205405 62.76625843637119, 112.02085921613116 65.37235841810899, 100.1049461798035 67.53491198098838 C88.18903314347585 69.69746554386778, 72.4716983247514 72.11389265435002, 60.47589837595006 71.55988868853294 C48.480098427148725 71.00588472271585, 37.184256187357505 68.02744554552649, 28.130146486995493 64.21088818608587 C19.07603678663348 60.394330826645245, 10.531959895212164 54.37531520550914, 6.1512401737779925 48.6605445318892 C1.7705204523438205 42.94577385826926, 0.32690096068330377 35.684152851619885, 1.8458281583904608 29.922264144366256 C3.3647553560976178 24.160375437112627, 7.997653800337001 18.600993282142554, 15.264803360020935 14.08921228836742 C22.531952919704867 9.577431294592289, 33.91489617876487 4.9316815693053595, 45.448725516494065 2.8515781817154675 C56.98255485422326 0.7714747941255751, 76.73853415332283 1.709862685493628, 84.46777938639612 1.608591962828065 C92.1970246194694 1.5073212401625018, 90.77082538953746 2.41436004454294, 91.82419691493376 2.243953845722089 C92.87756844033007 2.0735476469012384, 90.97033340291918 0.4302498127285972, 90.78800853877388 0.5861547699029614" style="stroke: rgb(0, 0, 0); stroke-width: 1; fill: none;"></path></g><g transform="translate(430.5 84.5)"><text x="0" y="25" font-family="Virgil" font-size="28px" fill="#000000">f</text></g><g transform="translate(567.5 70)"><path d="M90.06342507261732 1.3996525938144941 C101.46836443382361 2.1537008503298303, 113.86264992756216 4.855094718665063, 123.06960178720595 8.619346321487907 C132.27655364684975 12.38359792431075, 141.10861828073658 18.433508877743666, 145.30513623048012 23.985162210751554 C149.50165418022365 29.53681554375944, 150.72861591596745 36.06231564627047, 148.24870948566712 41.92926631953522 C145.7688030553668 47.79621699279998, 138.363354538917 54.59412062034432, 130.42569764867807 59.186866250340074 C122.48804075843913 63.77961188033583, 111.89114507435279 67.49686289610742, 100.6227681442335 69.48574009950974 C89.35439121411422 71.47461730291207, 75.06997021278806 72.18081332562508, 62.81543606796231 71.120129470754 C50.56090192313655 70.05944561588291, 36.70716627111937 67.00089928146927, 27.09556327527894 63.12163697028321 C17.483960279438513 59.24237465909715, 9.507426480571858 53.37560892065222, 5.145818092919754 47.84455560363763 C0.7842097052676502 42.31350228662304, -0.7465124800039515 35.606761751269396, 0.925912949366321 29.935317068195666 C2.5983383787365932 24.263872385121935, 7.640696815277734 18.482219885397786, 15.18037066914139 13.815887505195246 C22.720044523005043 9.149555124992705, 34.91663587352635 4.220060938771084, 46.16395607254825 1.937322786980424 C57.41127627157015 -0.3454153648102367, 73.0680629174016 0.08099364346472746, 82.6642918632728 0.11945859445128093 C92.26052080914398 0.1579235454378344, 98.5402214577936 1.1610439939316481, 103.74132974777542 2.168112492899745 C108.94243803775724 3.1751809918678413, 114.3479053619515 5.653467660749017, 113.87094160316371 6.1618695882598615 M39.10533757580125 4.273805229177899 C48.91299193793865 1.5887372033718807, 65.62569734099284 0.6641405586254059, 78.20564977368043 1.0055316231295706 C90.78560220636803 1.3469226876337352, 104.37389682887438 3.406130690622582, 114.58505217192683 6.322151616202888 C124.79620751497929 9.238172541783193, 133.5982420836248 13.463914124572241, 139.47258183199517 18.501657176611406 C145.34692158036555 23.53940022865057, 149.93940783380455 30.693656745067397, 149.83109066214905 36.54860992843788 C149.72277349049355 42.40356311180835, 145.35724251181426 48.50320031775317, 138.82267880206223 53.631376276834274 C132.2881150923102 58.75955223591538, 121.35577248344455 64.53967913822784, 110.6237084036368 67.31766568292451 C99.89164432382904 70.09565222762119, 86.39496725966825 70.46892191826369, 74.43029432321568 70.2992955450143 C62.4656213867631 70.12966917176492, 49.565025140912866 69.02615693797748, 38.83567078492133 66.29990744342821 C28.106316428929787 63.57365794887894, 16.420708512938496 59.077004278678444, 10.05416818726642 53.941798577718686 C3.6876278615943425 48.80659287675893, 1.0916621282097065 41.55507423568376, 0.6364288308888604 35.48867323766967 C0.18119553356801416 29.422272239655584, 1.8428966708156693 22.30458603859672, 7.3227684033413425 17.543392589634156 C12.802640135867016 12.78219914067159, 28.136998484680916 9.366551454871768, 33.5156592260429 6.921512543894281 C38.89431996740488 4.476473632916793, 38.14791786562062 3.2372754631416547, 39.59473285151325 2.873159123769234 C41.04154783740588 2.5090427843968137, 41.66192798525621 4.214381083907456, 42.19654914139867 4.7368145076597585" style="stroke: rgb(0, 0, 0); stroke-width: 1; fill: none;"></path></g><g transform="translate(628 83)"><text x="0" y="25" font-family="Virgil" font-size="28px" fill="#000000">g</text></g><g transform="translate(785.5 64)"><path d="M95.51468847893858 1.7234564343403278 C106.90274284368724 2.7594222064812657, 118.47854764351314 5.786414323606496, 127.04952367570938 9.860148034129374 C135.62049970790562 13.93388174465225, 143.86245525480635 20.246878407079723, 146.940544672116 26.165858697477596 C150.01863408942566 32.084838987875465, 148.8971735993196 39.79008001424152, 145.51806017956727 45.3740297765166 C142.13894675981496 50.95797953879168, 135.23655377472394 55.54332286430985, 126.66586415360217 59.669557271128085 C118.09517453248041 63.79579167794632, 105.64727547541824 68.57398335873995, 94.0939224528367 70.131436217426 C82.54056943025515 71.68888907611205, 69.04945236620108 70.60412455294458, 57.34574601811292 69.01427442324442 C45.64203967002476 67.42442429354425, 32.80559989599866 64.36079418984335, 23.87168436430772 60.592335439225 C14.937768832616776 56.82387668860665, 7.4426659664780015 51.68778812823976, 3.7422528279672633 46.40352191953431 C0.04183968945652472 41.11925571082887, -0.8607599811678206 34.693357753700454, 1.6692055332432858 28.886738186992314 C4.199171047654392 23.08011862028418, 10.617774383321803 16.03900730769807, 18.9220459144339 11.563804519285494 C27.226317445546 7.088601730872916, 39.88966691632732 3.944521011127775, 51.49483471991587 2.0355214565168467 C63.10000252350442 0.12652190190591805, 79.04447290911445 -0.3489773252800017, 88.5530527359652 0.1098071916199217 C98.06163256281594 0.5685917085198451, 103.3907239127044 3.319934013669502, 108.5463136810204 4.788228557916387 C113.70190344933638 6.256523102163272, 120.0574847957149 8.645301212941721, 119.48659134586119 8.919574457101234 M65.6305950465314 -0.742635621797028 C77.31058234000548 -1.5154151057007166, 92.48349642614312 2.018940592658043, 104.082703911028 4.279772474054802 C115.68191139591289 6.540604355451562, 127.97230792650159 8.269014153954464, 135.2258399558407 12.822355666583526 C142.47937198517985 17.375697179212587, 146.40028716769817 25.570922990531884, 147.60389608706276 31.599821549829176 C148.80750500642736 37.62872010912647, 146.80282718894028 43.659423856277066, 142.44749347202827 48.99574702236728 C138.09215975511626 54.3320701884575, 130.73378641894413 60.2115122098376, 121.47189378559071 63.61776054637049 C112.21000115223727 67.02400888290337, 99.18329453790734 68.50788252598413, 86.87613767190764 69.43323704156461 C74.56898080590794 70.35859155714509, 59.20123590853159 70.95430070882391, 47.628952589592515 69.16988763985339 C36.056669270653444 67.38547457088286, 25.03964179980054 63.17699699472983, 17.442437758273222 58.72675862774149 C9.845233716745906 54.276520260753145, 4.382326225934337 48.51695103930946, 2.0457283404286244 42.4684574379233 C-0.29086954507708773 36.419963836537136, -0.6625747512239561 27.904241098188702, 3.42285044523895 22.43579701942452 C7.508275641701856 16.967352940660337, 17.300139362824602 13.254825111902928, 26.55827951920606 9.657792965338206 C35.81641967558752 6.060760818773485, 52.212861775245344 2.4134574270668727, 58.9716913835277 0.8536041400361896 C65.73052099181005 -0.7062491469944938, 65.8214072327026 0.3942420623149599, 67.1112571689002 0.2986732431541057 C68.4011071050978 0.20310442399325151, 66.72438857625683 -0.4211751567978995, 66.71079100071326 0.2801912250710643" style="stroke: rgb(0, 0, 0); stroke-width: 1; fill: none;"></path></g><g transform="translate(853 82)"><text x="0" y="25" font-family="Virgil" font-size="28px" fill="#000000">h</text></g><g><g transform="translate(277 192.5)"><path d="M0.8305663961917162 0.270510570332408 C16.92697502958278 -0.6216803430269161, 75.86331928359967 0.6851386389384668, 96.41574051566423 -4.3895683724433185 C116.96816174772879 -9.464275383825104, 119.29390686539313 -25.85503394193947, 124.1450937885791 -30.177731497958302 M0.9536626409087332 -1.2306606945488603 C17.12365325029629 -1.8772882811321567, 76.55784539427299 0.5950269509262096, 97.23761343196966 -4.602025392660871 C117.91738146966634 -9.799077736247952, 120.67261482572493 -28.153080765018238, 125.03227086708881 -32.41297475607134" style="stroke: rgb(0, 0, 0); stroke-width: 4; fill: none;"></path></g><g transform="translate(277 192.5)"><path d="M120.17113997189296 -3.860771504341699 C120.35548843956218 -12.806055684233485, 123.89678450156798 -18.967215261829548, 126.15601468616165 -32.175084290886296 M119.85013242678684 -3.215981321520246 C120.9679981091583 -11.3158674621498, 121.45755751515078 -17.777959991945966, 125.56517694395967 -32.50373812285252" style="stroke: rgb(0, 0, 0); stroke-width: 4; fill: none;"></path></g><g transform="translate(277 192.5)"><path d="M102.43498056767223 -14.183012151309413 C107.78257303967297 -20.29434504013847, 116.4042274827793 -23.498794510016424, 126.15601468616165 -32.175084290886296 M102.11397302256611 -13.53822196848796 C107.90647217024154 -18.829557269962415, 113.0168730454971 -22.602373246128217, 125.56517694395967 -32.50373812285252" style="stroke: rgb(0, 0, 0); stroke-width: 4; fill: none;"></path></g></g><g transform="translate(337 10)"><text x="0" y="25" font-family="Virgil" font-size="28px" fill="#000000">Objects:</text></g><g><g transform="translate(489 59.5)"><path d="M1.029975225403905 -0.46589452810585497 C10.655417138213913 -3.2593212762226664, 39.041125482196605 -19.265182220811646, 56.80523380227387 -17.55913043804467 C74.56934212235113 -15.853078655277692, 99.08901920107503 5.312521759793162, 107.61462514586746 9.770416168496013 M1.528146914402023 1.5397051000501962 C11.073214971680816 -0.950101995378112, 40.14652127619522 -17.544810113717492, 57.484884523013605 -16.099189610192553 C74.823247769832 -14.653569106667614, 97.39100074297127 5.6235306331422175, 105.55832639531232 10.213428121199831" style="stroke: rgb(0, 0, 0); stroke-width: 1; fill: none;"></path></g><g transform="translate(489 59.5)"><path d="M75.77313384407269 0.5739338582499478 C81.97917446820281 5.031227892443082, 88.94074959042601 7.295595596267921, 104.20538641893305 10.447828317200765 M76.26814085704343 3.057456969109044 C82.68894904335545 4.247283158665947, 90.0606830074163 6.727162858959803, 106.44805457544513 10.282411311892792" style="stroke: rgb(0, 0, 0); stroke-width: 1; fill: none;"></path></g><g transform="translate(489 59.5)"><path d="M87.47606009317262 -16.28315721921556 C90.98300638723894 -7.999180330013573, 95.35766689913014 -2.0085774720240614, 104.20538641893305 10.447828317200765 M87.97106710614337 -13.799634108356466 C91.76380982079874 -8.523072408212816, 96.36671267541159 -2.054921980016644, 106.44805457544513 10.282411311892792" style="stroke: rgb(0, 0, 0); stroke-width: 1; fill: none;"></path></g></g><g><g transform="translate(687.5 61)"><path d="M0.5853485394269229 0.15934667699038974 C10.20953131603698 -2.6138435789694388, 40.02362377333144 -18.690170851225652, 57.82344500310719 -17.08625501282513 C75.62326623288294 -15.482339174424608, 99.06284048644204 5.239787710830568, 107.3842759180814 9.782841707393526 M1.4231743496004494 -0.15097043671645216 C11.134156925712402 -3.0810389366590734, 39.68594332370597 -19.873154722635324, 57.56604926013388 -18.05616407760419 C75.44615519656179 -16.239173432573057, 100.19838367028473 6.254814980542286, 108.70380996816792 10.750973433470353" style="stroke: rgb(0, 0, 0); stroke-width: 1; fill: none;"></path></g><g transform="translate(687.5 61)"><path d="M79.93159551409823 2.919698367852602 C88.39510310112578 6.023087401364778, 97.07785721954525 8.946371278699498, 108.99059157908894 9.98611420228146 M79.42888616727484 2.6368178557864166 C88.61210564146371 5.713442058285468, 96.51104723712712 6.778501896657797, 109.65020216067322 10.048497856808826" style="stroke: rgb(0, 0, 0); stroke-width: 1; fill: none;"></path></g><g transform="translate(687.5 61)"><path d="M91.56984934316233 -13.982107754456162 C96.4029190782602 -5.641054217670108, 101.518210555617 2.4631238722691347, 108.99059157908894 9.98611420228146 M91.06713999633894 -14.264988266522348 C97.19289188872888 -6.566827118691086, 101.90292209420437 -0.8706290657887834, 109.65020216067322 10.048497856808826" style="stroke: rgb(0, 0, 0); stroke-width: 1; fill: none;"></path></g></g><g><g transform="translate(600 142.5)"><path d="M1.0845314037054778 0.21538826711475845 C-9.866752317423622 1.1655523110181092, -49.42818802880744 7.735661435996493, -66.79295810349285 6.5193862963467835 C-84.15772817817826 5.303111156697074, -97.05348967996736 -4.63367503794531, -103.104089044407 -7.082262570783496 M-0.3780472032073885 0.04345397614873936 C-11.348861069564396 0.663977723652497, -49.27159974474149 5.34872158332107, -66.61311732419766 4.2336436545196925 C-83.95463490365383 3.118565725718315, -98.35711817531225 -4.784773831234003, -104.42715267994441 -6.6470135966595265" style="stroke: rgb(0, 0, 0); stroke-width: 1; fill: none;"></path></g><g transform="translate(600 142.5)"><path d="M-74.07672718757432 -5.585547243435284 C-79.86001740698488 -4.31650611370862, -85.48116661722408 -4.454077691966011, -104.7140508477483 -7.508471657922492 M-74.22429633451294 -6.895839117657742 C-84.50172646935886 -5.419062393525398, -93.57415367159753 -5.813955923804074, -104.76674492721446 -7.1043815691303465" style="stroke: rgb(0, 0, 0); stroke-width: 1; fill: none;"></path></g><g transform="translate(600 142.5)"><path d="M-81.55388322560398 13.524977081365336 C-85.90057963189453 10.721601402505126, -89.95480092936612 6.579189770107938, -104.7140508477483 -7.508471657922492 M-81.7014523725426 12.214685207142878 C-89.48767203864581 7.423417407959184, -96.10836789931567 0.7622548306493719, -104.76674492721446 -7.1043815691303465" style="stroke: rgb(0, 0, 0); stroke-width: 1; fill: none;"></path></g></g><g><g transform="translate(806 144.5)"><path d="M0.5575265429913998 1.1637567378580569 C-10.66377614910404 2.028173265606165, -50.815384449313086 7.177247208108505, -68.09850685372949 5.575663623958826 C-85.38162925814589 3.974080039809148, -97.06668406104048 -6.339643818388383, -103.14120788350701 -8.445744767040015 M1.1386710743419828 -1.0885704381577672 C-10.1068977874207 -0.5464299179427328, -49.00533828016991 5.355877918073286, -66.76362031357363 4.403843487370759 C-84.52190234697734 3.451809056668232, -99.39368335104857 -4.962371799281488, -105.4110211260803 -6.800777022372931" style="stroke: rgb(0, 0, 0); stroke-width: 1; fill: none;"></path></g><g transform="translate(806 144.5)"><path d="M-73.48551068027732 -7.712465276535384 C-83.2052659488939 -4.527698962522936, -90.31089915399772 -7.08515030742169, -103.84592457266524 -6.025047124009579 M-75.29593601581868 -6.753837193887464 C-87.08364903065736 -5.738236206081919, -96.57560185749612 -5.976609263714234, -106.10072834381833 -7.657884454932064" style="stroke: rgb(0, 0, 0); stroke-width: 1; fill: none;"></path></g><g transform="translate(806 144.5)"><path d="M-81.09170474008604 11.347068146672274 C-89.07991448505307 10.002719406197901, -94.39219139163836 2.951491799141383, -103.84592457266524 -6.025047124009579 M-82.90213007562741 12.305696229320194 C-92.04817732020797 6.449910296863078, -98.77987126531617 -0.7050949160067557, -106.10072834381833 -7.657884454932064" style="stroke: rgb(0, 0, 0); stroke-width: 1; fill: none;"></path></g></g><g transform="translate(510 247.5)"><path d="M84.24657455413427 0.7518060433366713 C97.44484360030594 -0.5148324420702994, 115.06561421657074 -0.0035958704802356856, 128.05061782448155 2.2987034540085958 C141.03562143239236 4.601002778497428, 152.83153805839686 9.485588043660762, 162.15659620159914 14.56560199026966 C171.48165434480143 19.645615936878556, 180.17267602586216 26.422787786092044, 184.0009666836953 32.778787133661986 C187.82925734152846 39.13478648123193, 187.628002105408 46.332688439347315, 185.126340148598 52.70159807568931 C182.62467819178798 59.07050771203131, 177.35167910590118 65.99735423277053, 168.99099494283524 70.99224495171397 C160.6303107797693 75.98713567065741, 147.38149702377206 79.91728639901777, 134.9622351702023 82.6709423893499 C122.54297331663253 85.42459837968204, 108.383370982895 87.42447864848664, 94.47542382141663 87.5141808937068 C80.56747665993825 87.60388313892695, 63.975168273179214 85.93628558197032, 51.514552201332016 83.20915586067082 C39.05393612948482 80.48202613937131, 27.890411239985283 76.2124103928475, 19.711727390333436 71.15140256590976 C11.533043540681588 66.09039473897202, 5.011999402284772 59.212863998572914, 2.442449103420927 52.84310889904439 C-0.12710119544291842 46.47335379951586, 0.6665401110844251 39.23798083817065, 4.294425597150365 32.9328719687386 C7.9223110832163055 26.627763099306556, 15.18218356894322 20.111802109696416, 24.209762019816566 15.01245568245211 C33.237340470689915 9.913109255207804, 47.04059653607722 4.9193542071344325, 58.45989630239044 2.3367934052727577 C69.87919606870366 -0.24576739658891755, 85.87742456627174 -0.2564486986641571, 92.72556061769589 -0.48290912871794234 C99.57369666912004 -0.7093695587717276, 99.71288548746952 0.10829590690802482, 99.54871261093537 0.9780308249500465 M88.42404017211989 0.9171613524670192 C101.13323531175236 0.23038285220394883, 116.03676551084097 1.8343881623128215, 128.96250845950348 4.339412755625233 C141.888251408166 6.844437348937644, 156.84929310514525 11.231498627918008, 165.978497864095 15.947308912341487 C175.10770262304476 20.663119196764967, 180.75634631201623 26.621711500626876, 183.7377370132021 32.634274462166104 C186.71912771438795 38.64683742370533, 186.55695033011605 45.77840414464878, 183.86684207121021 52.02268668157684 C181.17673381230438 58.266969218504904, 175.96067884680392 64.86171772596217, 167.5970874597671 70.09996968373449 C159.23349607273028 75.3382216415068, 146.28388829163555 80.65005042402628, 133.6852937489893 83.45219842821078 C121.08669920634306 86.25434643239528, 105.79003403527639 87.2445409380428, 92.00552020388966 86.9128577088415 C78.22100637250293 86.5811744796402, 63.28885707066513 84.57026168184319, 50.97821076066891 81.46209905300296 C38.667564450672685 78.35393642416273, 26.26382141301429 73.54024524863337, 18.141642343912338 68.2638819358001 C10.019463274810386 62.98751862296683, 4.39558431548479 55.81879710471015, 2.245136346057194 49.80391917600333 C0.09468837662959828 43.78904124729652, 1.3709678413160638 38.20413208298425, 5.238954527346763 32.174614363559215 C9.106941213377462 26.145096644134178, 16.307347800311447 18.72977723565865, 25.453056462241392 13.626812859453114 C34.59876512417134 8.52384848324758, 49.60424542802018 3.6743595660293598, 60.113206498926424 1.5568281063260017 C70.62216756983267 -0.5607033533773564, 83.6221819396999 1.2556551643371232, 88.50682288767887 0.9216241012329647 C93.39146383565783 0.5875930381288061, 89.63594523605587 -1.0687441033898772, 89.42105218680022 -0.4473582722989491" style="stroke: rgb(0, 0, 0); stroke-width: 1; fill: none;"></path></g><g transform="translate(535 274)"><text x="0" y="25" font-family="Virgil" font-size="28px" fill="#000000">Game Unit</text></g><g transform="translate(769.5 237.5)"><path d="M133.4951599529129 5.093497389236354 C145.816611165696 7.014726579282084, 157.6574199587587 11.951724342784935, 166.36325558618574 16.84101984399775 C175.06909121361278 21.730315345210563, 182.69406820288708 28.060736793060812, 185.73017371747505 34.42927039651323 C188.76627923206303 40.79780399996565, 188.32844110061825 48.76043254806639, 184.57988867371364 55.052221464712275 C180.83133624680903 61.34401038135816, 172.37377843117514 67.18945479272988, 163.23885915604745 72.18000389638856 C154.10393988091977 77.17055300004724, 142.38560502753612 82.4037103827547, 129.77037302294747 84.99551608666432 C117.15514101835883 87.58732179057395, 101.47840189880456 88.10642068202733, 87.54746712851563 87.73083811984631 C73.6165323582267 87.35525555766529, 58.085460028789534 85.82792857281329, 46.18476440121389 82.74202071357823 C34.284068773638246 79.65611285434316, 23.60899282015292 74.75983132457515, 16.143293363061787 69.2153909644359 C8.677593905970653 63.67095060429665, 3.3333371332179427 56.18677960689135, 1.3905676586670808 49.47537855274272 C-0.5522018158837814 42.76397749859409, -0.011274829421068944 35.20987214274006, 4.4866765157566135 28.946984639544127 C8.984627860934296 22.684097136348193, 18.28693710267087 16.533811307531803, 28.378275729733176 11.898053533567108 C38.46961435679548 7.262295759602412, 51.950283495302884 3.1462148994233132, 65.03470827813047 1.13243799575595 C78.11913306095805 -0.8813389079114131, 94.43118931347072 -0.9075889014087638, 106.88482442669869 -0.1846078884370712 C119.33845953992665 0.5383731245346214, 133.54511822423973 4.0216076550680855, 139.75651895749826 5.470324073586106 C145.9679196907568 6.919040492104126, 144.9107690822105 7.750781542179389, 144.1532288262499 8.50769062267105 M90.64370399779219 -0.12662635942038492 C103.85125466924481 -1.0403149348827703, 119.59988203412821 1.6230977215994842, 131.91201864606106 4.199154036644337 C144.2241552579939 6.775210351689191, 155.99867297181746 10.547655256642141, 164.51652366938924 15.329711530848734 C173.03437436696103 20.111767805055326, 179.8879762129796 26.313376325764498, 183.01912283149176 32.891491681883885 C186.15026945000392 39.46960703800327, 186.43194639039424 48.16524463411624, 183.30340338046216 54.79840366756505 C180.17486037053007 61.43156270101385, 172.8695339515173 67.57946329623303, 164.24786477189923 72.69044588257673 C155.62619559228116 77.80142846892042, 144.13733713473508 82.7937886434802, 131.57338830275373 85.4642991856272 C119.00943947077238 88.1348097277742, 102.63744321180252 89.30510277869604, 88.86417178001109 88.71350913545874 C75.09090034821966 88.12191549222143, 60.77038741073255 85.15873398117134, 48.93375971200517 81.91473732620342 C37.097132013277786 78.6707406712355, 26.00664653435075 74.39747323871796, 17.844405587646804 69.24952920565121 C9.68216464094286 64.10158517258446, 2.3663410222764654 57.60921893592645, -0.03968596821849246 51.027073127802936 C-2.4457129587134503 44.44492731967942, -0.8040340578353664 36.095903606387765, 3.408243644677057 29.756654356910147 C7.620521347189481 23.417405107432533, 15.569014334623631 17.765353172183353, 25.23398024685605 12.991577630937247 C34.89894615908847 8.21780208969114, 50.61623482597104 3.454581363017621, 61.398039118071566 1.1140011094335165 C72.17984341017208 -1.226579144150588, 85.16453982248017 -1.2050677809948134, 89.9248059994592 -1.051903890567381 C94.68507217643823 -0.8987400001399486, 89.87133008268952 0.9116587326861147, 89.95963617994578 2.032984451998111" style="stroke: rgb(0, 0, 0); stroke-width: 1; fill: none;"></path></g><g transform="translate(791 262)"><text x="0" y="25" font-family="Virgil" font-size="28px" fill="#000000">Game Unit</text></g><g><g transform="translate(541 241.5)"><path d="M-0.2022777568548918 -0.9496011424809694 C-10.985853247965375 -17.555465869978068, -54.13382101965447 -83.64110640771688, -64.5967486988753 -99.85644340999424 M0.3472317285183819 -1.577232689196244 C-10.303151689187313 -17.748522094124926, -52.48160821270508 -81.65670215361752, -63.27914019188844 -97.99620264672674" style="stroke: rgb(0, 0, 0); stroke-width: 1; fill: none;"></path></g><g transform="translate(541 241.5)"><path d="M-40.765539467523524 -81.11986312861019 C-48.01645558651462 -83.98284582545176, -52.76421776456934 -90.5192628950974, -64.33757321610116 -97.6167144188378 M-39.42219338119281 -80.46092985881889 C-44.464887951493154 -83.84954868736119, -49.0997243126585 -87.72161275912904, -62.53700869138353 -98.56654177417047" style="stroke: rgb(0, 0, 0); stroke-width: 1; fill: none;"></path></g><g transform="translate(541 241.5)"><path d="M-57.89020195789392 -69.81208098635344 C-59.83345138899411 -76.1371965751892, -59.29439607788182 -86.16461268945778, -64.33757321610116 -97.6167144188378 M-56.54685587156321 -69.15314771656213 C-57.97262765310152 -75.05344356216816, -58.94599846230685 -81.34325191393124, -62.53700869138353 -98.56654177417047" style="stroke: rgb(0, 0, 0); stroke-width: 1; fill: none;"></path></g></g><g><g transform="translate(743 253)"><path d="M-1.1388416659086942 -1.0260550785809754 C-11.741453640783828 -17.542027609422803, -53.427995249753195 -83.12536750324071, -63.90469818226993 -99.48595635183156 M-0.7114246942754836 0.5985826281365005 C-11.526733525112894 -16.187324057752267, -55.09965601962371 -82.52238992237486, -65.51795722297393 -99.11311017447152" style="stroke: rgb(0, 0, 0); stroke-width: 1; fill: none;"></path></g><g transform="translate(743 253)"><path d="M-43.33321733038764 -80.81489624519955 C-48.96701136823653 -86.20385174731531, -55.06599427399927 -91.89460336049886, -63.76677695973777 -99.89062350154855 M-41.19756920181106 -80.94408172526519 C-50.14493355972121 -86.05354843283237, -57.901423143568536 -93.41403791547353, -65.89356733704918 -98.1889267005492" style="stroke: rgb(0, 0, 0); stroke-width: 1; fill: none;"></path></g><g transform="translate(743 253)"><path d="M-60.58331313215215 -69.69940267919961 C-61.42141951296183 -77.9915743236924, -62.76085133934629 -86.74925147791937, -63.76677695973777 -99.89062350154855 M-58.44766500357557 -69.82858815926525 C-61.56355843214929 -78.62562234740794, -63.58077841860242 -89.68434139448135, -65.89356733704918 -98.1889267005492" style="stroke: rgb(0, 0, 0); stroke-width: 1; fill: none;"></path></g></g></svg>