<svg version="1.1" xmlns="http://www.w3.org/2000/svg" viewBox="0 0 948 424.5">
  <defs>
    <style>
      @font-face {
        font-family: "Virgil";
        src: url("https://excalidraw.com/FG_Virgil.ttf");
      }
      @font-face {
        font-family: "Cascadia";
        src: url("https://excalidraw.com/Cascadia.ttf");
      }
    </style>
  </defs>
  <g transform="translate(319 328.5)"><path d="M24.064581974333013 3.5119235586941073 C30.778188468512592 0.1764929374313282, 40.78661875440368 -0.8061019494982957, 48.54349580886264 0.615070979820004 C56.30037286332159 2.036243909138304, 65.22629514849103 6.259727692839232, 70.60584430108673 12.038961134603905 C75.98539345368243 17.81819457636858, 80.02790026748548 27.744750699528296, 80.8207907244368 35.29047163040804 C81.61368118138813 42.83619256128779, 79.37829821961698 51.0510820314017, 75.36318704279472 57.313286719882385 C71.34807586597246 63.57549140836307, 64.08985128575759 70.07010188593887, 56.73012366350324 72.86369976129217 C49.3703960412489 75.65729763664547, 39.09646186651858 75.56368707066329, 31.20482130926868 74.07487397200215 C23.313180752018777 72.58606087334101, 14.44829831528995 69.47861815861157, 9.38028032000382 63.93082116932535 C4.312262324717689 58.38302418003912, 1.345839703579383 48.47166450673424, 0.7967133375518927 40.7880920362848 C0.24758697152440234 33.10451956583536, 1.8963481446921797 24.40292998561781, 6.085522123838878 17.829386346628723 C10.274696102985576 11.255842707639637, 21.903841031564056 4.016424413680433, 25.931757212432082 1.34683020235029 C29.959673393300108 -1.3227640089798527, 30.033582379413673 0.9931916616551332, 30.253019209047032 1.811821078647867 M26.45856841240202 2.105153489774935 C33.75222850666528 -0.9921880742387046, 46.24925893199325 -1.499703850085052, 53.99265235999363 0.6241146541199498 C61.736045787994 2.7479331583249516, 68.2870820386721 8.472221451699657, 72.91892898040425 14.848064515004946 C77.5507759221364 21.223907578310236, 81.67011298752786 31.428854660320386, 81.7837340103865 38.87917303395169 C81.89735503324513 46.32949140758299, 78.25594566115393 53.51380682434327, 73.60065511755606 59.549974756792764 C68.94536457395819 65.58614268924225, 61.49730261551476 72.79526193896189, 53.85199074879924 75.09618062864865 C46.206678882083715 77.39709931833542, 35.36656114351763 75.66487489630677, 27.728783917262923 73.35548689491335 C20.091006691008218 71.04609889351994, 12.678550498669377 66.84951223335092, 8.025327391270999 61.23985262028819 C3.372104283872619 55.63019300722545, -0.2307789711335341 47.04592233907022, -0.19055472712735622 39.697529216536935 C-0.15033048312117833 32.34913609400365, 3.439226755962359 23.40140635992978, 8.266672855308066 17.14949388508847 C13.094118954653773 10.897581410247163, 25.42151416011117 4.781968366372473, 28.774121868946885 2.186054367489092 C32.1267295777826 -0.4098596313942888, 28.459290773068666 0.9907275015732324, 28.382319108322356 1.5740098917881866" style="stroke: rgb(0, 0, 0); stroke-width: 1; fill: none;"></path></g><g transform="translate(409.5 204.5)"><path d="M31.61070832918994 0.8001263492206405 C38.74745137676773 -1.2563277872083578, 48.7442066920905 0.21408168897288382, 55.920336095939135 3.293248722546963 C63.09646549978777 6.3724157561210415, 70.48335800117718 12.87072006239423, 74.66748475228172 19.275128550665116 C78.85161150338627 25.679537038936, 81.82923495680785 34.3102797703635, 81.02509660256635 41.719699652172274 C80.22095824832485 49.12911953398105, 75.03398953564451 58.108348727105536, 69.84265462683273 63.73164784151777 C64.65131971802094 69.35494695593, 57.55546064020542 73.94709613995401, 49.87708714969562 75.45949433864568 C42.19871365918582 76.97189253733735, 31.027701321425326 75.92713184947614, 23.772413683773937 72.80603703366782 C16.51712604612255 69.6849422178595, 10.243816484688812 63.118347702379296, 6.34536132378728 56.73292544379573 C2.446906162885748 50.34750318521216, -0.11657857693257273 41.79567047013971, 0.3816827183647433 34.49350348216641 C0.8799440136620593 27.19133649419311, 3.254467761421181 18.683262688386478, 9.334929095571177 12.919923515955915 C15.415390429721171 7.156584343525352, 31.375842782246334 2.05547998145254, 36.86445072326472 -0.08653155241697164 C42.3530586642831 -2.2285430862864835, 42.29719660259316 -0.6889628570113521, 42.266576741681476 0.06785431273884512 M42.87523130501906 -1.0387205919490015 C50.402033866393424 -0.9932980264408293, 60.410572536649646 4.166036748510527, 66.79235630997351 9.058521699837037 C73.17414008329739 13.951006651163546, 79.1920984928018 21.150820306190525, 81.16593394496228 28.316189116010058 C83.13976939712275 35.48155792582959, 81.85740382456612 44.853384266785795, 78.63536902293632 52.05073455875424 C75.41333422130651 59.24808485072269, 68.86604025875627 67.44167927488567, 61.833725135183414 71.50029086782075 C54.80141001161056 75.55890246075583, 44.38849339756377 77.35947006747111, 36.44147828149916 76.40240411636469 C28.49446316543455 75.44533816525828, 19.815983219564647 70.52760364613098, 14.151634438795753 65.75789516118223 C8.48728565802686 60.98818667623349, 4.212608113160716 54.95160059675653, 2.4553855968857903 47.784153206672215 C0.6981630806108647 40.6167058165879, 1.0061915249324618 29.680829554451815, 3.6082993411462 22.75321082067636 C6.210407157359938 15.825592086900908, 11.328928082017846 9.886821813188929, 18.068032494168218 6.218440804019501 C24.80713690631859 2.550059794850073, 39.65387350397839 1.414595220041619, 44.04292581404843 0.7429247656597937 C48.43197812411847 0.07125431127796844, 44.50053114164945 1.4524568777727573, 44.40234635458849 2.1884180777285493" style="stroke: rgb(0, 0, 0); stroke-width: 1; fill: none;"></path></g><g transform="translate(304 191.5)"><path d="M1.3577115535502882 -1.012158574044034 C72.27170337742723 -0.10209153148855449, 144.72537997234605 -0.4710100198217797, 205.7495275252562 1.258531642108634 M0.37174706100020555 -0.5442584590766206 C76.56576181379843 -1.0197311941230054, 153.69276576615874 -2.133185033662295, 204.85191756240997 -0.701104908114411 M204.3312569204718 -0.8971919063478708 C204.20488756056875 31.060561452060938, 203.36326252575964 59.57090231962502, 204.9178930465132 100.61524823866785 M205.9260378656909 0.7738147648051381 C206.0694095250219 24.000994413159788, 204.68923909030855 47.03258404228836, 205.72635297756642 99.78458010870963 M203.890302108069 99.93769859810658 C153.69734498704142 99.56702929742352, 104.05675983920418 101.49828854148166, 1.2499782004719227 98.63563498018331 M205.16380458987032 99.94783762979772 C133.98467755703467 99.97690045880188, 62.6465745992494 99.74096256874074, 0.6518642753163353 100.16483379481937 M1.583902532234788 100.5591335054487 C1.0905545921996236 74.55636886507273, 0.06746822316199541 46.55528841353952, -0.8152515944093466 -1.0097137335687876 M-0.941187840886414 99.92173257190734 C0.4636381268501282 69.68523510824889, 1.3879739940166473 39.760044598020606, 0.8995993016287684 0.5578889222815633" style="stroke: rgb(0, 0, 0); stroke-width: 1; fill: none;"></path></g><g transform="translate(315 206.5)"><path d="M31.305165939056756 1.7521716280489201 C38.59123033528731 -0.05460968789565501, 49.61886295532732 1.2414624588520362, 56.886247666115864 4.306579931097524 C64.15363237690441 7.371697403343012, 70.92826314252686 13.997981510571986, 74.90947420378801 20.142876461521844 C78.89068526504916 26.287771412471702, 81.44795934630575 34.06935588061128, 80.77351403368274 41.17594963679668 C80.09906872105974 48.28254339298208, 76.29742202846711 57.2640260373345, 70.86280232804998 62.78243899863422 C65.42818262763285 68.30085195993394, 56.03539312595821 72.54801839949707, 48.16579583117994 74.28642740459497 C40.296198536401675 76.02483640969288, 30.683608841669937 76.2417732116541, 23.645218559380385 73.21289302922165 C16.606828277090834 70.18401284678919, 9.779382531427778 62.76324496868405, 5.93545413744264 56.11314631000018 C2.091525743457502 49.463047651316316, -0.1308185247624808 40.7106452759798, 0.5816481954695547 33.31230107711845 C1.29411491570159 25.913956878257096, 4.215300679456448 17.268147205054095, 10.210254458834854 11.723081116832073 C16.20520823821326 6.1780150286100515, 31.517517676584934 1.8365433692126765, 36.55137087173999 0.04190454778631647 C41.58522406689505 -1.7527342736400435, 40.43533301667897 0.1621231491455445, 40.4133736297652 0.955248188273913 M28.4723805991106 1.8501556383874913 C35.46548695504276 -0.4102795064414404, 47.15795458064784 1.0705875811722017, 54.55876652994705 3.386706244954837 C61.95957847924626 5.7028249087374725, 68.47824748429944 9.738593357614548, 72.87725229490587 15.746867621083304 C77.2762571055123 21.75514188455206, 81.06615004591202 31.833585440900407, 80.9527953935856 39.43635182576737 C80.83944074125918 47.03911821063433, 77.26133872242517 55.52607394843723, 72.19712438094736 61.36346593028506 C67.13291003946955 67.20085791213289, 58.43931645510382 72.48632336502398, 50.56750934471874 74.46070371685437 C42.69570223433365 76.43508406868476, 32.08196617530179 75.6462015301385, 24.966281718636857 73.20974804126743 C17.850597261971927 70.77329455239637, 11.80449070621973 65.96146285181499, 7.873402604729158 59.84198278362796 C3.942314503238586 53.72250271544093, 1.355673598997346 44.23809555826186, 1.379753109693425 36.492867632145256 C1.403832620389504 28.747639706028647, 3.515196373124322 19.32262017563439, 8.017879668905632 13.370615226928315 C12.520562964686942 7.418610278222238, 24.611152516190828 2.882062790373876, 28.395852884381284 0.7808379399087926 C32.18055325257174 -1.3203869105562909, 30.532089911194074 -0.005194966749677121, 30.726081878048372 0.7632661241378145" style="stroke: rgb(0, 0, 0); stroke-width: 1; fill: none;"></path></g><g transform="translate(423 216.5)"><path d="M7.831823551943823 9.45812633331916 C7.831823551943823 9.45812633331916, 7.831823551943823 9.45812633331916, 7.831823551943823 9.45812633331916 M7.831823551943823 9.45812633331916 C7.831823551943823 9.45812633331916, 7.831823551943823 9.45812633331916, 7.831823551943823 9.45812633331916 M-0.9427860872576357 27.39764447992334 C4.980185323668198 19.739239692849186, 7.146344740499218 16.615101841999785, 17.13942380642914 4.348483204297918 M-1.9152909600863577 25.614928164683672 C5.799834416344009 18.642730655943822, 12.697998937143012 9.050823539488327, 19.14850717803859 2.8119141640292584 M1.7036359712304403 27.876674102110332 C7.146816222253158 23.234371190230753, 13.378556418142368 17.927705876952718, 23.77601755173749 0.7443214607262867 M-0.20196399914009078 30.660504346204466 C5.8406702293983885 24.007061064276655, 11.939609675782359 16.620066363609347, 24.5408295257563 0.9831193228090065 M3.523024033136487 34.59765471306685 C12.31055576118532 22.80356473605196, 18.63667821079328 13.852278240628287, 31.004660414357787 2.7032974444947317 M2.9950093546284435 34.80110845130924 C14.169434791016739 20.921489778121057, 23.655970543796368 9.096813178055147, 29.06915774737776 2.054059651555784 M2.0299733663449935 39.96886034614068 C15.024406666958651 27.57983926338637, 25.663784832717386 15.197203534813916, 35.01925322015555 4.632078528505479 M3.561196048791235 39.618964708658275 C13.052881032642079 27.433494706057793, 23.95446729464099 14.559886480039665, 35.060083098455976 3.5311339684843173 M5.3869438257119775 43.329748794011266 C11.08312695892053 36.42730517203675, 19.291151361425833 26.468036705730256, 40.09944332398679 2.627935005437987 M4.3229963678918 43.52201235624352 C14.550978589103803 30.78868467630646, 24.470907005809913 20.01579295153667, 39.09391211353447 4.630875261586564 M7.186082766093449 44.465090349358064 C18.229494715331704 31.66718555486755, 29.50805414775251 21.26574518765724, 44.736388493735994 4.747578408640024 M8.70446684647365 44.383034382056934 C16.6019040409335 35.26524495072965, 23.688538586535188 25.723158130176905, 45.005430490185226 3.6737890095227925 M11.91892989739289 46.6285157059744 C22.994805120245594 34.30372937251053, 31.56786203125067 27.274406076422743, 46.38275691031614 6.257161512127684 M13.072025124127766 47.68820542520434 C20.502518699429597 37.30321608378307, 28.391896065830764 28.2474870510194, 47.50890308900872 6.459353181621598 M16.974889516485305 49.75483931698527 C28.73674090538129 36.25123338333556, 39.99653130873909 21.605073943669225, 49.41937648656426 12.580472948134872 M15.607922177416654 48.874415134123225 C22.478325520249125 41.51195360434941, 28.646352637573816 32.952225622504514, 49.039723252529484 10.339212855429384 M19.42305342024568 51.97418813551566 C28.964795916611266 38.85991173452973, 41.351414221319246 27.386729174367204, 50.032526519355336 15.605452169786592 M19.967065232902797 49.96839690725109 C28.359054945850517 40.26006904721618, 38.09305019466363 29.921438947896846, 51.50670445731 13.648695179383655 M24.106141876558524 53.616711194913364 C28.127325267319698 46.93833094288256, 37.6072867812531 37.190089367606596, 54.93211477657388 18.67006071043062 M22.24595873815821 52.71643747324822 C31.043966146538096 43.037133918581254, 39.688285791172746 33.71284764152168, 53.885257400922285 17.817680632144686 M29.63897585624187 50.42490296696673 C39.9168769039692 39.33846460458086, 48.737838862095714 31.896453633230326, 57.381972642066415 20.038734282523627 M29.856176593688417 50.92170024921546 C38.371864028249966 41.761728086391685, 47.492507743771895 31.751711965687896, 57.12268514690035 19.972055121481652 M36.69335548222767 51.1430853861374 C41.17528189050563 45.66090686325323, 46.11874308930733 38.190741013235275, 57.421087738764875 25.963607320527256 M34.68424060211288 51.15870736492697 C41.13076138217498 45.685979585527576, 46.814642518255965 37.48635209250122, 57.23441574786364 27.11993452716869 M41.21318158038145 50.4279258253276 C44.533122762686546 43.99908352524079, 49.26641656455195 39.575267723458445, 54.42266645051581 32.34974053689819 M41.181742018984615 50.80885763859745 C46.692456586907255 45.66753627021265, 51.94811072355109 38.13753383450897, 56.73806476734621 32.94189225697499" style="stroke: rgb(230, 73, 128); stroke-width: 0.5; fill: none;"></path><path d="M23.558977477523715 0.25032003268432135 C29.240763072370573 -1.0009250040103501, 37.98274662650388 0.04693547043135382, 42.91577313377609 3.0703004279344626 C47.8487996410483 6.093665385437571, 51.40371380648332 12.783977972231682, 53.15713652115696 18.390509777702974 C54.9105592358306 23.997041583174266, 55.72701499349852 31.457662653632404, 53.436309421817924 36.70949126076222 C51.14560385013733 41.96131986789204, 44.61430871780091 47.343474775206104, 39.41290309107338 49.90148142048187 C34.211497464345854 52.45948806575764, 27.985354179995696 53.156810617695164, 22.227875661452742 52.057531132416806 C16.47039714290979 50.95825164713845, 8.704058826176817 47.77657342267225, 4.868031979815662 43.30580450881172 C1.0320051334545055 38.83503559495119, -1.254353393883856 30.842105190028388, -0.7882854167141957 25.2329176492536 C-0.32221743954453547 19.623730108478814, 3.069299393306867 13.949094489999943, 7.664439842833623 9.650679264163006 C12.25958029236038 5.35226403832607, 23.029590856706907 0.7599141170044816, 26.78255728044634 -0.5575737057680179 C30.535523704185774 -1.8750615285405174, 30.06908919342271 1.1314450202647044, 30.18223838527023 1.7457523275280096 M32.581627599602434 1.2111502325837407 C38.45440563782247 1.351709615230872, 44.45756279121264 4.187789700196997, 48.09980656699423 8.450108823096912 C51.742050342775826 12.712427945996826, 54.282684090212605 21.17602174614591, 54.435090254291985 26.785064969983228 C54.587496418371366 32.39410819382054, 52.573045906009824 37.76144919391971, 49.01424355147051 42.104368166120814 C45.45544119693119 46.44728713832192, 38.789504085081596 51.28475182420499, 33.08227612705606 52.84257880318985 C27.375048169030528 54.400405782174715, 20.128883431378007 54.05601659764508, 14.770875803317304 51.45133004003 C9.412868175256603 48.84664348241492, 3.332873971733511 42.887703130415275, 0.9342303586918561 37.21445945749935 C-1.464413254349799 31.541215784583432, -1.6984129440059412 23.10142396359971, 0.37901412506737486 17.411868002534483 C2.456441194140691 11.722312041469255, 8.476503808673595 5.859144839923756, 13.398792773131753 3.0771236911079853 C18.32108173758991 0.2951025422922151, 26.88850983286951 1.2326302382852568, 29.91274791181632 0.7197411096398625 C32.936985990763134 0.20685198099446822, 31.617268887758474 -0.44311348641950826, 31.544221246812622 -0.00021108076438025591" style="stroke: rgb(0, 0, 0); stroke-width: 1; fill: none;"></path></g><g transform="translate(312 318)"><path d="M0 0 C0 0, 0 0, 0 0 M0 0 C0 0, 0 0, 0 0 M-0.6720237858267376 7.119972644795768 C0.9307075689343615 4.903984892052507, 2.894093372144634 2.9524617915015785, 4.614204412283844 -0.399460207313556 M-0.6323374934168408 6.0169935629266424 C1.3710647061369665 4.591645867263104, 3.992403228454813 1.7530917604845133, 4.626690959515519 0.7386612128314787 M1.2715382822882044 13.004602927386344 C3.6602266986288208 6.341791771894479, 8.793582999265679 3.7590627948221695, 10.081763233196867 -1.1083594565198063 M0.3485652097593652 12.1714188877936 C3.4219909283968777 8.603167420614989, 6.976412117985028 4.753322697855781, 11.157308150780333 -0.2796427850529789 M-0.5736913262447576 19.506307720114165 C5.988944318718447 12.396234523108863, 9.259614295857963 5.6734322829372275, 17.336122609212477 -0.987565367768986 M-0.15772316144316 18.705590858031684 C3.977123299616517 13.28916212766925, 8.922114031498348 8.982498515364435, 15.142068705990393 -0.16352780098794195 M0.8369087653420184 24.383369011520504 C9.310380794704379 16.618742535910478, 17.034659938951265 4.642366508814074, 22.337327501082683 -1.0669734427541968 M-0.6814821434953 24.135808525323032 C3.8846990556373253 19.65579956159669, 8.489267170414571 13.422214933946085, 20.28580356230762 -0.17902205379908054 M-0.47828283807734095 29.94961864291524 C7.772227507844917 21.39604885768838, 18.639699046751407 8.484799022000814, 25.27582663544676 -0.6359041152510105 M0.7226384440948621 29.62083037732934 C6.731002089296832 21.475298868782986, 16.068950772419985 12.275187512892984, 25.564937519517155 1.0355808468547405 M-1.973558670012327 38.670073596575605 C8.888713635212293 27.57629185745378, 17.645988925436903 14.563148049798016, 30.947136507785714 -2.0777999832049723 M0.742435911567835 36.44452105257784 C12.078767488329529 23.198489459808485, 24.939539913568357 8.14219913374765, 31.776451916850007 -0.19368904072202398 M0.7405387360275739 40.666000854778815 C10.33003955600168 30.323722757540498, 19.3375166576153 18.614730384055747, 38.36628749761854 -0.10101532367053423 M-0.6061674308358675 41.81262018959575 C12.902346058135107 29.04339328120146, 24.220403367377106 16.0250454054416, 36.92121697757517 0.8999116626661738 M-1.0709602404386587 48.97904614047043 C13.758562761249378 35.363971131701476, 26.586579077071193 17.252446005869672, 41.016296100426246 1.2235072654067523 M0.5526986401527338 48.61687116757862 C12.313936420534807 33.248744472240745, 26.633570135250718 17.080818304297097, 41.952464040923644 -1.0138369846762174 M-1.6750391039300112 55.28826685570489 C11.169524143222276 40.429682261534, 22.343755134767125 27.043148357223007, 48.599692695727825 -0.5000864930275633 M1.0472654637646528 53.652054044830905 C19.033874793178732 31.981768910551935, 37.27397610972509 10.64309816301202, 48.02731333016443 0.17555839644635185 M0.8808325250725062 60.947808723427755 C15.6865351933593 40.710549081455355, 32.12006448126719 25.506330595259833, 51.28699377900428 0.9697608030809768 M-0.09034673673112081 61.153662200548155 C18.874576643888428 40.307049803740114, 36.594354424583535 20.366385745141308, 52.25524618452853 -0.5183721356616608 M0.3611121130593986 68.70393872591625 C12.968414319186886 52.794805399676676, 24.761037696043292 36.700479661771915, 57.468229729774606 -0.45030512332208517 M-0.5317156510940819 67.01493527325759 C11.635015910796108 52.7150465704008, 22.972805535496782 39.82258211335744, 58.949632827284944 0.35861479819528697 M-0.6259928734788289 73.95917384544758 C15.224486865092672 53.48833837307227, 33.512392565521864 38.713975106071494, 62.00141704351981 -0.20622687018229868 M-0.12029396908372547 72.55098790148644 C18.72715168269455 50.9854392562323, 37.654631032345556 29.948919794982082, 63.37620459766467 0.16379925632164571 M-1.5967020550231865 80.03640980496732 C18.406931364340668 62.191622679095616, 32.941009066369254 42.17335736657413, 67.96408609975889 -0.06885871455411774 M-0.3395864674310616 80.26293846443025 C20.562754174396016 55.00774297831781, 40.63238465375596 31.42108071348386, 69.0045817189367 -0.3048253820870386 M-0.599248936092664 85.8959540065299 C18.097967982741253 60.71716724837398, 40.224016678692784 39.034811673809465, 74.90175339397284 -1.1716432543830706 M0.7792631930949199 84.05494202039347 C19.325949792263078 61.078768671695514, 40.15773466578281 39.980275665151716, 75.25674553033205 0.6537709412737058 M-0.46235313716827164 93.1732021730809 C23.24432780719819 64.13298827775338, 47.20871350431385 38.36135882007612, 80.57944930568067 -0.9729347667236397 M-0.09099976423679124 90.77186694857166 C26.055973434179364 62.2319634568464, 50.9582384942251 33.26246210902235, 78.75856625511972 -0.8186683944006035 M1.421428924202523 94.87683296600642 C17.723792183880754 77.22713157284322, 34.73896556262029 57.91325861275871, 85.23019033036337 1.7063241504786504 M2.1429080867763375 95.39748956660094 C21.08901252818906 72.19733517776437, 42.54452760662533 48.326439004448666, 85.08827523253069 -0.6773633308054912 M8.22299568551972 93.44532294780649 C30.237447399321393 69.79350258646255, 53.1962094011466 42.973541316048895, 89.30650684753994 1.7202792201693313 M7.622100027384306 95.61100909323133 C38.17126603134852 58.30064425201458, 70.9058650806102 21.605320167990612, 90.02799268583396 0.5631795112545745 M11.988818497311804 96.23752742164939 C33.23264541206652 72.50158025897221, 52.05239685062854 51.22174353693862, 92.41679729471039 0.06990700484841739 M13.3476372518656 95.77762848788112 C34.714696566626785 68.87560277752044, 55.89572079330747 44.76249268691659, 94.00008189627957 0.8009093505296079 M19.26517773909775 93.51384211048071 C36.5850113737181 75.41198769027177, 53.790188311046094 54.34453131154482, 95.07685593543167 6.940691548352532 M18.304764983489193 95.42971612974588 C38.17510759831863 71.24559548447154, 59.1993112229228 47.79329327057261, 93.31867697117443 7.883907887106233 M24.066339906358586 93.17207441635486 C38.67098596060592 76.18559332489835, 58.00791438027817 54.07924318121496, 94.8310534391278 11.608432771399492 M23.93108956148611 94.50267707713004 C41.58114139231317 73.4715906545008, 59.50556598123446 52.62637208209266, 93.81086342369258 14.016197697952265 M29.626085378613283 95.78512006221743 C52.5267806129408 70.94113841879198, 72.46374617882157 43.24140516018982, 93.50692018531782 21.552276396934857 M29.36810620912533 94.87262970922919 C44.39817860195154 77.2309175657852, 61.872772104197864 58.70391130784978, 93.57126147710306 19.370772162263265 M32.646180651342874 93.56328645012285 C49.243054891463665 77.40353483565326, 63.57618308381706 59.314938683847785, 93.39997266948272 24.888779827013074 M35.20967126563788 93.81872908434774 C48.169792505279815 79.10153041700693, 60.743756928098065 63.692963199552395, 94.64685247063686 25.02366133834368 M41.04790610406633 93.39196930301665 C51.069386792596006 80.48121658018331, 66.00700470242018 65.05845115451693, 95.0252412711415 33.40958878457968 M38.75352995429273 95.56084358168124 C54.04422243224663 79.10012130158357, 67.25584178656834 62.76895643340256, 94.28850662756297 32.49160860538905 M46.22052823226465 95.79397602295332 C54.361498602865375 80.78817820198614, 67.40017843523589 70.78533748703002, 92.70968345678463 38.29847025191192 M45.749788614320885 94.72187825953417 C55.39730915448962 81.54799778672461, 68.8231946924299 66.78378486256902, 94.04339625812187 37.94910360192661 M48.77282741545685 93.96720233287839 C65.34020913898479 76.86511465398665, 79.94191708160743 60.60340666918294, 95.62400669290265 45.395441211287014 M49.65244246899136 95.86545149710206 C62.466436926487965 80.01300246007199, 76.30756732794438 65.58284696880699, 94.2868186725541 43.992510966483586 M54.78157014912394 92.74695563484629 C71.22930197306657 77.31059664094568, 87.36347545526013 60.911754624800004, 92.81449135901455 50.4608973856505 M55.36784785753515 94.95821835268934 C66.17000440822184 83.71214456948947, 75.35411014762224 72.57290165067722, 94.75401909412865 49.404199078255516 M61.54303681278488 95.64363165180261 C67.1835521009733 87.43323031548765, 75.58273969016783 79.17211700002316, 92.79540395060131 54.89264617705684 M60.50625000322124 94.90754720549161 C69.45934178099316 85.49091999667007, 77.65548820936368 74.59207661897409, 93.6326038620765 55.36957299554687 M65.82149390192072 95.80503778580177 C75.43424350535469 82.43040723320526, 88.87834841478366 70.09992513389369, 93.30052484718196 60.76358330845158 M67.13025524528067 95.02384311381329 C73.48151561286605 85.07114499580128, 81.84780182044422 75.9231906759208, 94.81406819966666 63.01475109755318 M69.60072179605041 95.05406975978933 C79.29520692183965 87.16001379526148, 82.42372422225122 82.15146947234157, 92.87556151524699 70.53872576211194 M71.00635880698238 94.55822445684991 C78.98404385985293 87.61252247530062, 85.1270799763588 79.10801270068254, 94.98620941713965 67.62359802280167 M75.6764279616645 95.60574455604251 C82.62267553139206 89.38724446736187, 88.12222727076707 81.81319342502016, 95.90997142128688 74.33934052031515 M76.69735799856693 94.91955587312873 C80.26195755528516 90.01802419331386, 84.80757725206396 86.00060340091322, 94.16494982473594 74.40185340981958 M80.7424126432805 95.31156730093826 C84.5540099994013 89.49150376091407, 90.5319245642509 85.03453149981686, 93.69734804641033 81.17655014143644 M82.07821264505075 95.41345275305976 C84.6878826848436 89.96180397792, 87.8075116202934 85.96548265736745, 94.22685401226902 80.25902810664233 M87.59518306526465 95.13196133672439 C89.18708109688173 92.21260843391502, 92.94321350322855 89.24391940186834, 95.38487082141489 86.58846269332604 M86.87338458868784 95.19769849776469 C88.68570634353993 93.06210351558892, 91.43246682853467 89.8506458550663, 94.25270180421919 86.05783363961415" style="stroke: rgb(121, 80, 242); stroke-width: 0.5; fill: none;"></path><path d="M0.9471515119075775 -0.049368709325790405 C37.44466096907854 -0.11985552445054048, 71.97766236960888 -1.1547113670408726, 94.40802702307701 -1.1275690495967865 M-0.01036827266216278 -0.48688967525959015 C23.130477692186837 0.6676820440590382, 47.73429057598115 0.7764261884987355, 92.35890252888203 -0.41602833569049835 M93.48643431067467 0.6706105768680573 C91.90436869964003 27.117912371456626, 91.0971682678163 53.68060112893582, 92.27284082770348 92.29959407448769 M92.30987222492695 0.8421694487333298 C93.61717493131756 21.907221145927906, 93.8704989631474 43.99246022105217, 93.33302791416645 92.59044472873211 M93.35344538092613 94.16198268532753 C59.84144760817289 94.34160414591432, 29.159863653779027 93.79155054941774, -1.0277811586856842 92.97568908333778 M93.17938335239887 92.01380364596844 C71.44779518097639 93.6405641619861, 51.10983799099922 93.30622358962893, 0.8920684605836868 92.0366608351469 M1.531583160161972 92.05072417855263 C1.6239632262289523 58.85576374977827, 1.2177027358114718 26.262518408894536, -1.9166904985904694 -0.5670574605464935 M-0.6669716089963913 93.61346213519573 C1.0164693121612072 66.77554275840521, 0.6528194670379162 41.13652169704437, -0.27598755061626434 -0.1950557976961136" style="stroke: rgb(0, 0, 0); stroke-width: 1; fill: none;"></path></g><g transform="translate(410.5 327.5)"><path d="M24.911275346032898 2.257420181845113 C31.703407459381314 -0.9460622375588787, 41.90331800796459 -1.0930352677522734, 49.697414626956906 0.5296011020544498 C57.49151124594922 2.1522374718611728, 66.61718748499295 6.244455072877803, 71.67585505998679 11.993238400685453 C76.73452263498062 17.742021728493103, 79.48283062365319 27.4895107303778, 80.04942007691994 35.02230106890035 C80.6160095301867 42.55509140742289, 79.07146709918167 50.88380362029083, 75.07539177958736 57.18998043182074 C71.07931645999305 63.49615724335066, 63.38909202671881 69.89625457304633, 56.07296815935409 72.85936193807984 C48.756844291989374 75.82246930311335, 38.99780202981662 76.48998638637522, 31.178648575399084 74.96862462202178 C23.35949512098155 73.44726285766833, 14.30023566855741 69.32829767047696, 9.158047432848893 63.73119135195922 C4.015859197140377 58.13408503344149, 0.8578612209008494 48.86147553639324, 0.3255191611479873 41.38598671091538 C-0.2068228986048748 33.91049788543752, 0.6638363812804053 25.59546928911601, 5.96399507433172 18.87825839909204 C11.264153767383036 12.16104750906807, 26.713116661078267 4.219504543581317, 32.126471319455874 1.0827213707715515 C37.53982597783348 -2.054061802038215, 38.592243377149266 -0.5968082728934654, 38.44412302459737 0.057559362233440936 M52.711046419697915 1.9834796043822251 C59.98778394476629 3.463830713908144, 68.1708276768322 8.191279328768015, 72.86583683108866 14.160825759346867 C77.56084598534511 20.13037218992572, 80.5523173152244 30.02163899221723, 80.8811013452366 37.80075818785534 C81.2098853752488 45.57987738349345, 79.28294240695007 55.02947591841234, 74.83854101116191 60.835540933175515 C70.39413961537375 66.64160594793869, 61.94000187175954 70.41828315435761, 54.21469297050763 72.63714827643439 C46.48938406925571 74.85601339851117, 36.0427140306668 76.28688365011618, 28.486687603650417 74.14873166563622 C20.930661176634036 72.01057968115626, 13.732949044743322 65.58816009773108, 8.878534408409344 59.808236369554585 C4.024119772075366 54.02831264137809, -0.20960149102468745 46.722360001237334, -0.6398002143534498 39.46918929657725 C-1.069998937682212 32.21601859191716, 1.8738968346273106 22.47847674041082, 6.29734206843677 16.289212141594085 C10.72078730224623 10.09994754277735, 18.308448382665034 4.8637531286314815, 25.900871188503302 2.333601703676834 C33.49329399434157 -0.196549721277814, 47.43241551496722 1.0394010460938314, 51.85187890346637 1.1083035918661963 C56.271342291965524 1.1772061376385612, 52.51455643874251 2.2537363913890425, 52.417651519498236 2.7470169783110236" style="stroke: rgb(0, 0, 0); stroke-width: 1; fill: none;"></path></g><g transform="translate(305 314.5)"><path d="M-1.6169011189341544 1.1651279294276238 C67.00049579442741 0.45474115203934884, 132.75396723171477 1.08749691474992, 205.09784024649858 0.7210987331843376 M-0.602629246917963 -0.6530179769933223 C44.04339021549106 2.2692515105304123, 89.68817817765594 0.7614398150882123, 204.66599216692327 -0.2576304461324215 M204.14294904470444 1.2933369278907776 C203.00515022873878 35.11465299129486, 204.36980667710304 72.2270457148552, 205.9576215147972 101.34814077615738 M205.66189196705818 0.18714186549186707 C204.2779160141945 31.268671184778214, 205.25041872262955 61.463939517736435, 205.76592352986336 99.894710034132 M205.39106778014423 99.4307353413844 C154.13528345482587 99.45324437902278, 101.39134630968333 97.02740936536617, 0.6776831153035163 99.95333881603956 M205.23372712751745 99.42961239539743 C124.80547401650308 98.8793690305124, 42.48686682711956 99.29181596544129, -0.10972879506707191 99.6229333173716 M1.5793923735618591 98.8492642045021 C0.24396845698356628 65.32618880271912, -0.2442803680896759 28.863721311092362, 0.46034902334213257 1.5077057480812073 M0.7625484764575958 100.97750708460808 C-0.6250324249267578 78.02714803814888, -0.7114286422729492 55.27451238036156, -0.6226167380809784 -0.3325639069080353" style="stroke: rgb(0, 0, 0); stroke-width: 1; fill: none;"></path></g><g transform="translate(424 339.5)"><path d="M2.7929435799331515 14.352985753644164 C2.7929435799331515 14.352985753644164, 2.7929435799331515 14.352985753644164, 2.7929435799331515 14.352985753644164 M2.7929435799331515 14.352985753644164 C2.7929435799331515 14.352985753644164, 2.7929435799331515 14.352985753644164, 2.7929435799331515 14.352985753644164 M1.7968487946703906 20.421842603269674 C6.211771970042722 16.5573553828022, 12.322443326434644 11.085621442640843, 16.008841411024385 2.3950750828418137 M2.370015780666458 21.765423619445123 C6.236915558017704 15.604033303905872, 11.396318379075169 10.603259852963516, 17.131838863529318 2.6051049484568836 M-0.5937850655646386 26.695011466357364 C9.90445259327107 22.718179441576524, 13.908759778833828 13.308227411146333, 21.80619537792587 1.227667842798466 M0.5748807505114613 29.362619275774314 C7.40039199859731 20.664582957791417, 13.705834123355652 14.16092277490075, 22.936790545093356 2.1869821844553297 M0.5706209614049769 35.53837962297901 C11.207584867628986 20.95351754644021, 21.242416754450165 9.448188715760164, 30.84824119358224 4.580491849703362 M0.9575091869678474 35.01991576830103 C9.981776399284254 24.5510977255691, 16.362468983501874 16.75090247763684, 29.82867059427214 2.888092551862469 M4.955220142851001 38.185213567130575 C12.189292442270457 26.548707048891153, 20.55383341820122 18.584538037684478, 34.48958525026525 1.2786104725524758 M4.379862218635505 37.082853760943124 C14.083587301685366 25.666936610602896, 26.269981517867862 12.380133499831974, 36.121588577165554 1.7112032770961498 M6.212257755083154 42.30753998869913 C16.827639665290455 25.802779524177176, 28.79014454163769 14.842542393388737, 39.41624886231311 4.537476016901191 M6.195875795652281 41.53397630100953 C15.187600524169504 30.987218524909736, 23.47133354438674 21.79906762571306, 38.49720179443993 3.216462710633632 M8.0420433153732 44.16596913168067 C21.575320205561447 31.30285341475237, 32.212948085343044 15.14111801088892, 40.92328981695011 5.810947700631633 M9.593682921618061 43.361402177418114 C16.705094659478483 34.26805734095488, 26.18216506837838 24.395806886406085, 41.563586832147685 5.588168302778914 M12.413037379021368 46.08016185573946 C19.13167674302715 36.896851008253364, 25.67451669385297 31.427804432861457, 44.60612179447648 8.072983258408083 M12.096950450661204 46.24804298225503 C19.568584542068365 37.67287026945634, 29.052044513531122 27.112167999710984, 44.82780898191717 9.135208208118154 M14.310705713299427 50.0880721548715 C24.154586098964952 37.88059575701447, 34.242409335080985 26.064048059478885, 47.0457227161545 8.94862397900376 M13.5949832613816 49.449595629438136 C24.24757732664754 40.01565887273015, 31.922843258123116 28.17862609167787, 47.6623805888388 9.640796322846445 M18.55001929745064 50.13344715740443 C26.455988008177766 42.55512992529988, 33.828159132504155 33.14712155045889, 54.02872154127489 12.18446176686017 M19.436474256850637 50.20079235471697 C30.844527528465594 37.49645856307494, 41.152781555151755 24.587375652847655, 52.80659784853141 13.05168934632717 M22.715245974803725 51.30984208867089 C34.48350791768985 38.88399423805099, 46.447976431246474 26.504595822574245, 53.359898267156886 15.836139142087163 M22.650546016725162 52.17816567834602 C32.03168054213275 39.94839790205197, 42.86416690985763 29.034325064658177, 53.460290807142364 17.88443678109205 M27.81333588763045 54.72747656766684 C34.867829692052425 43.87449834586023, 43.606491244703236 36.18079232684539, 52.89133324804377 22.154043858012407 M26.881386232105065 52.58565470174314 C37.74039743820637 40.33590589137859, 48.7511125714466 30.175949822745295, 54.59422268024307 22.32982555039063 M32.49400827421206 52.983701668611026 C41.71978215916168 42.3186741317532, 51.8118320500042 32.01001822614528, 53.46219884721678 26.82732386385463 M31.88958450259971 54.84382216904894 C38.671556043860186 46.895002313246536, 43.79443023494936 39.692078728343674, 56.17113150494289 27.715644960863514 M37.798605642782334 49.822242439608345 C45.40861166577037 44.36795796013996, 49.93776248607827 39.436536512614936, 58.335495552957184 30.152548983832602 M38.58223651027102 52.4678469857902 C45.21854616280853 44.85086022983805, 51.23583455164299 37.884599842891326, 55.863716255851216 30.894098381651347" style="stroke: rgb(230, 73, 128); stroke-width: 0.5; fill: none;"></path><path d="M34.28450732759343 1.0531587001854312 C39.831073836299744 2.1924615547309045, 47.753531612609564 6.974108036077084, 51.22843933106654 11.854820155240855 C54.703347049523515 16.735532274404626, 55.8892875607648 24.6195863726052, 55.1339536383353 30.33743141516806 C54.3786197159058 36.05527645773091, 50.96178736235651 42.560280620394636, 46.69643579648954 46.161890410618 C42.43108423062257 49.763500200841364, 35.30468516567252 51.539322362429836, 29.54184424313346 51.947090156508224 C23.779003320594406 52.35485795058661, 16.934940386496358 51.644115417527416, 12.119390261255212 48.608497175088345 C7.303840136014069 45.572878932649274, 2.1875745073718535 39.460321549574246, 0.6485434916865991 33.73338070187378 C-0.8904875239986556 28.006439854173305, 0.23387856033320986 19.55399323293021, 2.8852041671436837 14.24685208888551 C5.5365297739541575 8.93971094484081, 9.812371828778126 3.4931478570519356, 16.556497132549442 1.890533837605581 C23.300622436320758 0.28791981815922596, 38.10469186700843 3.3238466811078426, 43.34995598977159 4.631167972207379 C48.59522011253475 5.9384892633069155, 48.49111967646412 9.514219248597806, 48.0280818691284 9.734461584202801 M18.599849668692247 1.6431791260603816 C23.744267333025395 -0.17884806074873416, 29.962824048539442 0.6233900520248374, 35.633899682893855 2.7622199734141617 C41.30497531724827 4.901049894803486, 49.348426271054635 9.602737381767572, 52.62630347481873 14.476158654396327 C55.90418067858282 19.349579927025083, 56.43894070064929 26.473037608967484, 55.30116290547841 32.0027476091867 C54.16338511030752 37.53245760940591, 50.58630450872065 43.93447046977289, 45.79963670379341 47.65441865571161 C41.01296889886617 51.37436684165033, 32.53967636204247 54.431676517800824, 26.581156075914947 54.32243672481902 C20.622635789787424 54.21319693183722, 14.336282927554088 51.09843920045077, 10.048514987028263 46.99897989782079 C5.760747046502437 42.89952059519081, 1.9128063962022417 35.504278058453764, 0.8545484327599908 29.725680909039117 C-0.20370953068226005 23.94708375962447, 0.6033046863406195 17.188302678248355, 3.698967206374757 12.327397001332915 C6.794629726408894 7.4664913244174755, 17.08021704807936 2.1415416611276026, 19.428523552964815 0.5602468475464768 C21.776830057850272 -1.021047966034649, 18.10464642340111 2.366326271984622, 17.788806235687492 2.839628119846161" style="stroke: rgb(0, 0, 0); stroke-width: 1; fill: none;"></path></g><g transform="translate(10 10)"><text x="0" y="25" font-family="Virgil" font-size="28px" fill="#000000">Circle with damage animation frames:</text></g><g transform="translate(408.5 316)"><path d="M0 0 C0 0, 0 0, 0 0 M0 0 C0 0, 0 0, 0 0 M-0.4966181188495705 6.9269232996302765 C1.036356548106045 5.231214392906927, 3.2211051900093586 2.5553195562552062, 5.34811554286117 0.6247238907811455 M-0.5883660908462355 6.160567048614018 C1.354544280792948 4.3434841111100715, 3.8545451439259684 2.1345293922858453, 4.660076279150791 0.2814253270474487 M-0.09321277503858938 13.506314705729068 C4.075046218346532 8.402218307945574, 9.03475707673704 4.216239623423268, 9.112631806683671 -1.251448674957478 M0.6667085678409446 12.469456843703567 C1.7490693927303345 9.403201321793809, 4.11378024873521 6.874693593566414, 11.387326065403354 0.5151139828458191 M-0.9256910319021205 20.12851593354779 C5.719287369736076 11.422797970189581, 12.069335298215348 6.642765340223248, 14.311344356744964 1.9414097729069164 M0.4974895566189428 18.478704433795684 C4.723123512727438 13.300019850531971, 9.358068232577006 6.350562657669752, 16.38611734891631 1.3085148760047725 M-0.1651400903054263 22.48305805371618 C5.154644048052551 17.95531077490616, 12.699275356200117 11.597459258692561, 19.27064867345419 -0.7206618977547166 M-0.01895429639152546 25.017516071624218 C5.839557828574793 18.3593144939805, 11.191953098184145 11.17126486088873, 20.732711577134097 0.5177616350516203 M1.2636411442001716 30.36216716072356 C5.80649768255566 23.233511927489616, 9.3608672019057 18.809184653274244, 26.940236505728574 2.0929442582663835 M0.8314414956187264 29.652930485781482 C8.365445565422934 21.03052243869694, 15.165715452520798 12.491998451201066, 26.582833682794483 -0.09872159324467766 M-0.7327389829885682 38.2771859204409 C8.3001795311769 25.99023222628136, 20.177125464325997 15.29348824644672, 30.642540852955378 -1.2146542983815785 M0.3035823971870819 36.54652837924783 C7.4235342115800815 27.699212255132373, 14.67689877723853 19.129858446053433, 31.451940346925355 -0.6916808736265416 M-1.3785315014748818 43.02656637373917 C6.928916408319942 35.21007729764861, 15.641275291311167 24.94385923595908, 36.507399223559844 1.5031075888406953 M-0.17282143964906993 41.85696076750361 C12.292518556689906 27.80055398764837, 25.59487642660933 13.194457877965434, 36.62480682209258 0.8852963625547012 M-0.9345239028335399 50.897498677157685 C16.781693986348113 31.82912622470647, 30.100218180443246 11.506880904934711, 42.78302586692922 -0.9639338694185966 M0.5073177376761251 48.0353277191975 C9.179481571379897 37.4658605594764, 18.09223908604054 28.079921577403464, 42.872749164324034 0.06935467555662456 M1.956873062322721 55.32044404134463 C15.864097983298976 36.68559833356328, 29.031692791803792 18.525545090508594, 46.650039541488766 -0.20749476662015454 M0.18562848519055564 53.57346129458706 C18.50204114352631 33.64002232006506, 36.326689480042724 13.25072725659075, 46.673902001185596 -0.3427027409720971 M1.085653152419141 59.844311372839314 C11.527643444108534 50.235427704483406, 22.065383530532802 37.953431678310736, 51.53243574662572 0.698979857884229 M-0.3394420695399134 61.07285218732099 C20.25723281616678 35.685514060593704, 42.37285935433646 12.776498111174796, 53.930440763705136 0.7991592982261189 M1.3291278378524751 67.79099021251271 C15.106503403533814 49.68384966775022, 33.39347369971108 29.651637960660715, 57.911614490765345 2.1754926606338465 M-0.251465024477902 66.99293266287962 C17.520919219335827 46.352901473534615, 34.315364277234124 27.04859918997301, 58.18885945444853 1.0671346117999398 M0.7462492140194783 73.45697947623579 C23.60172399093308 48.67148946583508, 43.67473667078854 21.332981035941238, 62.63735252329488 1.0353173522768984 M0.78454320991397 73.94645529924331 C13.080409811312556 56.395715724881, 28.324550064939707 41.38893710168054, 64.35719287944366 -0.5508509899930587 M-1.3280670856546095 79.31501619554786 C22.88193034684795 52.91805785875242, 48.50104544748969 25.140711115023173, 69.74183110263958 1.4601753393526806 M-0.8773061762984327 79.99487172756074 C20.747700618839115 56.423897446678055, 41.571831695142265 33.112978583663015, 68.92529441625639 0.41778693649579424 M0.3719713132174718 83.6686084560971 C27.39470372208221 49.828425461043494, 58.795970377659486 17.561818533204928, 73.75060822818669 -0.09994091749058498 M1.1973888104127752 85.39661557058946 C20.170622026034284 61.50444101020096, 40.86277382576572 38.69592154650031, 73.6820582459146 -1.0761351734759046 M1.857061294060962 89.62721203942284 C20.296585429506116 66.54003011555693, 43.20536484706981 43.98646515156734, 78.49664640836147 0.04840873828636916 M0.7435987351134585 91.67602908447817 C29.61618564469267 56.90394983903775, 59.69071296570104 22.03186137971747, 79.93569712098417 0.4653577487404874 M1.1619535682346438 93.74192504050495 C28.621436192652585 62.30225448408149, 56.64038780527511 32.1831516102146, 84.43128489255116 -2.2580644826682317 M1.4822620533030246 95.35280777631613 C35.64456781738044 58.24788503904931, 67.05659558246728 20.25177837251789, 84.23096459749297 0.08097276340257054 M8.535244327144767 93.9995028304372 C26.24086310283599 70.07074763840272, 48.60190306462566 47.06007213655116, 91.438267439181 -0.06420167381510566 M7.7163267630283485 96.02976536680646 C27.241430868995373 71.46055851360525, 48.94198946223679 48.45245451609558, 90.56943280300686 0.4190755641590016 M11.813993300226066 93.2504388959816 C30.70748281501707 74.99529771116117, 49.623661685242155 52.5763867992226, 92.83259648965728 3.1128462859395114 M13.11161846286479 94.91466462982058 C41.36878254897045 61.16004112169081, 70.31255683913622 28.412972623788207, 94.81459661057275 0.24068299671291982 M17.110459870903767 95.12762651867752 C45.217854049480806 61.85571375752147, 75.3268166844669 29.493380895675188, 94.17456093644316 8.258795374025993 M17.7898264678782 94.8326290715072 C45.49230654465397 61.899099046626404, 75.76673463091966 27.981054499041633, 94.91215140679444 8.488389700604074 M22.842780163565145 94.7197300341731 C49.11729415269595 66.67532234081203, 71.91833763540741 39.45379951907136, 96.45341670286894 12.705536819755906 M23.765430896596477 93.99326418962386 C50.40157031262998 63.547623474556815, 77.08946120283919 34.529622179567085, 94.47992367164284 14.223426504753405 M28.548994811635424 95.54636147400768 C45.32863906849188 76.26264191468078, 61.929087279457 59.34116852850321, 92.4044700473599 21.18166702966856 M28.165980439085473 95.05958411531927 C51.48892980162317 67.7208240000055, 76.2849120297935 40.028860262634154, 94.53120428268386 18.7699403528096 M36.19802118950189 96.45790392382945 C59.565710669687405 68.868550260334, 80.23047955196932 42.12552263234146, 93.75640396930326 26.184053464412152 M33.949314588873094 95.14158497135098 C47.6169192569431 79.03455592022178, 61.89226262438634 62.5901698100171, 95.12832492094536 26.180310180030226 M39.00368118058975 96.61068816517769 C53.79351877301136 75.20796932962472, 70.90484227026491 58.08204311939282, 94.0453059771243 30.953011280525974 M39.12384141102518 94.86517151386766 C60.021211579442266 72.1175553834934, 80.15522931169227 48.70589629747525, 93.60293583899322 31.304073555063955 M46.73567340928627 94.36681603370063 C58.122373689924174 81.28708577317042, 71.91909887001574 63.18832997481215, 95.26958129121974 39.12683626888101 M45.46575977406962 94.36573049062692 C61.57594719916759 75.8692131772003, 79.48127873971913 54.91501545001198, 93.6171690638648 37.53620961839114 M50.533601009016714 96.26933706093756 C63.727079158172856 82.37494207948819, 72.78215798393549 66.17110979464337, 93.98427575698635 41.94343359534823 M49.73933711807229 94.3570572827774 C63.12105792637245 79.7122937884424, 76.668549920064 64.48782631605252, 94.66421131009749 43.11251782299214 M56.217943854168325 95.94207183253666 C70.01817909194668 76.81763994979897, 83.78377010175846 60.63382108304363, 93.39539875784938 51.44194654146693 M56.41413168656108 94.12492926307668 C66.22202995787852 82.15147424126157, 76.1675979376865 71.07581613069782, 94.56887689275716 50.40499667501561 M61.10408632816633 95.06478863003726 C70.66242321202394 80.66685985637613, 84.31178449743275 67.7496089945079, 96.01483641819605 56.11728944288533 M60.885270294601824 94.59603243767346 C74.49992470924451 79.22167517995211, 88.03704840916612 63.884019318330715, 95.54877093037167 56.67012667221915 M67.31328955539803 94.27302678908754 C73.15791030104494 86.5019519484087, 84.18204474164611 77.75669972162638, 92.47437937145166 61.89532433114271 M66.19067056072245 94.33153480432529 C76.4456651170163 81.80771412075872, 87.66913601582618 69.70160514743215, 93.43456711300693 63.117796945751415 M70.58671916928861 94.1332733412268 C76.1311430592001 86.54088735643047, 84.04687416493812 79.59521802856668, 94.18063596301293 67.78739387211004 M70.23131867498878 94.59601299418084 C77.5132169523608 89.40877554925638, 82.47971454134537 83.31835429552379, 93.7311709052003 67.65958819859276 M76.94035851523489 94.79749595232602 C82.21018003982525 89.68634712334081, 83.92322895766382 83.85383601534339, 93.40935516327662 75.09195010665832 M75.83243260193825 96.10573521022047 C81.6189172546582 89.12693946093037, 86.87623209608445 81.8762813708677, 94.11829245898915 74.20415144622353 M82.7101112567416 93.291337682035 C83.84222777893314 93.72526514286953, 85.86805995501871 88.05327747115297, 93.44176435546527 82.4962045324905 M81.27057951521749 94.35464257146997 C85.9232439685359 89.92021253193228, 90.77665498678984 85.14188353539708, 93.96547089942308 80.9347879201578 M85.64011182720881 94.68822914398454 C88.53709778717193 92.60489664416399, 89.66426296563212 90.36546784542256, 94.85950457136184 87.43420638263956 M87.28969199500156 95.57250866721563 C89.43465987088737 91.84274387386314, 92.07311342964454 89.13916209259988, 95.04644807166457 86.18390949581548" style="stroke: rgb(121, 80, 242); stroke-width: 0.5; fill: none;"></path><path d="M-1.6805310603231192 -0.914812857285142 C27.068734400998807 -0.10339376091025765, 51.77865698207171 -1.5599025761988012, 93.64129736460745 0.06508696638047695 M-0.5123299332335591 -0.6782071171328425 C36.594485687371346 0.20911437655799092, 73.0440776064992 1.5997408964764328, 92.31634697597474 -0.6151227233931422 M93.54796078242362 -1.3850716296583414 C93.55866708279588 23.126913781743497, 92.1934376549814 44.55968128237873, 94.54913529194891 91.30967766605318 M93.9379397360608 -0.7110006092116237 C93.11916640284471 20.6268023009412, 93.80770581844263 41.80830657370389, 92.97514611762017 93.27824364323169 M93.43283423222601 94.34122378192842 C71.69338480355218 94.14565494044683, 52.32877706494182 93.0771504281368, 0.5870486740022898 94.42654276452959 M92.73871428053826 92.47703586239368 C62.09520587967708 93.75421676588245, 30.5746861796826 93.006596749546, -0.9853069456294179 93.24842752236873 M0.8906542304903269 93.77035999856889 C-2.6269144080672415 64.97628144966438, -1.7484953068289908 40.686847294680774, -0.5061319228261709 0.5059532579034567 M0.3902073232457042 92.69770039338619 C-0.24869417051784692 70.96653429949656, 0.9766208340693265 47.502958728373045, -0.9915564032271504 0.5808598222211003" style="stroke: rgb(0, 0, 0); stroke-width: 1; fill: none;"></path></g><g transform="translate(413.75 78.5)"><path d="M55.47329372714304 2.717272700854238 C62.50713275364701 4.879230563384594, 70.45408473686204 11.43085423636802, 74.59427278476267 17.739144767559463 C78.73446083266329 24.047435298750905, 80.86715358209285 33.03163022326181, 80.31442201454679 40.56701588800289 C79.76169044700073 48.10240155274398, 76.39998222063471 57.15675745804785, 71.2778833794863 62.95145875600599 C66.15578453833788 68.74616005396413, 57.14519240902816 73.64789645636186, 49.58182896765632 75.33522367575173 C42.01846552628448 77.0225508951416, 33.1862736682053 75.91254237994694, 25.89770273125525 73.07542207234525 C18.609131794305203 70.23830176474355, 10.027300424349097 64.6944740853375, 5.850403345956025 58.312501830141606 C1.6735062675629537 51.93052957494571, 0.36545085836670843 42.22509168013881, 0.8363202608968265 34.78358854116985 C1.3071896634269446 27.342085402200887, 3.619122131212836 19.249000120895015, 8.675619761136733 13.66348299632783 C13.73211739106063 8.077965871760643, 23.20133384720564 3.125911663390455, 31.175306040440212 1.2704857937667384 C39.149278233674785 -0.5849400758569783, 51.9577021373524 2.0636931193144363, 56.519452920544175 2.5309277785855286 C61.08120370373595 2.998162437856621, 58.59683798201711 3.5018962435072876, 58.54581073959086 4.073893749393292 M57.32171845209456 3.0797898211616044 C64.44713527433213 5.4991926615080775, 72.36378204030603 11.14664300207458, 76.51509758327333 17.73438841546025 C80.66641312624063 24.322133828845917, 83.15557511077121 34.95630223022355, 82.22961170989831 42.606262301475624 C81.3036483090254 50.2562223727277, 76.20384884260497 58.13248614673332, 70.95931717803593 63.634148842972685 C65.7147855134669 69.13581153921206, 58.69326934069802 74.12677980244935, 50.76242172248409 75.61623847891182 C42.83157410427016 77.1056971553743, 30.982061331708252 75.80645762570106, 23.374231468752328 72.57090090174754 C15.766401605796403 69.33534417779401, 8.87857701557783 62.49785047289514, 5.115442544748539 56.20289813519068 C1.3523080739192488 49.90794579748622, -0.019196757582501278 42.05416785238681, 0.7954246437765846 34.80118687552079 C1.6100460451356704 27.54820589865477, 4.99585840485672 18.30837865728147, 10.003170952903055 12.685012273994566 C15.010483500949391 7.061645890707663, 23.286780255963368 2.5856299636516864, 30.839299932054598 1.060988575799371 C38.39181960814582 -0.4636528120529444, 51.254419357711605 2.89249609176499, 55.31828900945043 3.537163946880675 C59.38215866118926 4.18183180199636, 55.25388003853111 4.678700737178938, 55.22251784248756 4.928995706493481" style="stroke: rgb(0, 0, 0); stroke-width: 1; fill: none;"></path></g><g transform="translate(319.25 80.5)"><path d="M47.93603061522517 0.16245414333651098 C55.59033918778861 0.9524588753697637, 65.08449770461034 6.082844365505473, 70.58778984835173 11.785387581796613 C76.09108199209312 17.487930798087753, 80.006577168988 26.690239290632544, 80.95578347767349 34.37771344108335 C81.90498978635898 42.06518759153416, 80.26118353888606 51.39074330511916, 76.28302770046463 57.91023248450146 C72.3048718620432 64.42972166388377, 64.47931736234578 70.52813236554616, 57.086848447144945 73.49464851737719 C49.6943795319441 76.46116466920822, 39.572184911953684 77.48124193510134, 31.928214209259572 75.70932939548763 C24.284243506565463 73.93741685587392, 16.355228021721008 68.4280069055978, 11.22302423098029 62.86317327969495 C6.090820440239571 57.298339653792105, 2.182029201938229 49.67257310412511, 1.1349914648152577 42.32032764007056 C0.08795372769228682 34.96808217601601, 0.9503489659759374 25.14368823766974, 4.940797808242465 18.749700495367673 C8.931246650508992 12.355712753065607, 15.93914174222722 6.162068254894367, 25.077684518414422 3.9564011862581694 C34.21622729460162 1.7507341176219722, 52.395108205505984 3.984715860865748, 59.772054465365684 5.51569808355049 C67.14900072522539 7.046680306235231, 69.68257338201356 12.79808119720676, 69.33936207757263 13.142294522366619 M32.61086627600844 1.0572194493019467 C39.88926231167461 -1.1436783495961595, 48.784413350027286 -0.04181562085734347, 56.060911005677006 2.70928806517027 C63.33740866132673 5.460391751197884, 72.18151470932634 10.947452810865983, 76.26985220990676 17.563841565467627 C80.35818971048718 24.18023032006927, 81.49325357025923 34.638276260019005, 80.5909360091595 42.407620592780134 C79.68861844805978 50.17696492554126, 75.84274832543184 58.56291537832098, 70.85594684330842 64.1799075620344 C65.86914536118499 69.79689974574782, 58.487265871406954 74.44319679705212, 50.67012711641897 76.10957369506067 C42.85298836143098 77.77595059306923, 31.520523809503075 77.41329022952553, 23.953114313380482 74.17816895008568 C16.38570481725789 70.94304767064583, 9.071657418735523 63.17354527655753, 5.265670139683408 56.698846018421584 C1.4596828606312933 50.224146760285635, 0.5535614763506267 42.67449647711447, 1.1171906390677933 35.329973401269996 C1.6808198017849598 27.985450325425525, 3.3911829000652176 18.179853617175816, 8.647445115986407 12.631707563354752 C13.903707331907597 7.083561509533689, 28.92116530697862 3.6127313683441384, 32.65476393459493 2.0410970783436184 C36.38836256221124 0.4694627883430986, 31.28081854089627 2.8582271491772233, 31.049036881684287 3.2019018233516334" style="stroke: rgb(0, 0, 0); stroke-width: 1; fill: none;"></path></g><g transform="translate(427.25 90.5)"><path d="M5.927295709040379 9.127558531030262 C5.927295709040379 9.127558531030262, 5.927295709040379 9.127558531030262, 5.927295709040379 9.127558531030262 M5.927295709040379 9.127558531030262 C5.927295709040379 9.127558531030262, 5.927295709040379 9.127558531030262, 5.927295709040379 9.127558531030262 M4.202736322104612 19.22192196591105 C5.3973530688601095 14.5751994389423, 12.312570798464371 9.880208930142732, 13.208927759720487 3.4470434637804312 M2.9995217460092696 17.651119267626665 C6.563118895937871 13.4895824765217, 12.367209605087128 9.312173881679128, 15.722992450936239 5.663753139420298 M-0.4307363530594266 28.58285135281471 C7.016510323171199 22.172502761345903, 9.338226163201238 17.236512304324727, 22.782591132037986 0.1905531360742021 M0.9711187953156077 27.532718564096964 C8.835517651547056 18.171930926368077, 16.63807124776747 10.564644862491601, 24.103979294710506 0.9185535012718606 M1.21629009652667 31.236443667643915 C11.653294407108085 23.828917132136016, 19.963265579926485 11.357417543078714, 29.38631958692818 0.9061535800629841 M1.6963601287060257 30.696966997319112 C11.752940593113406 21.67663929539141, 19.852175293366884 11.771095491530176, 28.24531136631518 1.2983363698059307 M5.424855242401833 33.92444455180906 C10.595530424600073 24.887937405853343, 21.291221524579633 17.613154931064432, 31.565937865366934 2.7795245173604766 M3.248620199889416 34.882707434935796 C14.258178723412275 24.75176940016977, 24.13043841501895 12.044937179071745, 33.249741818597315 3.680150901082305 M7.673962990816058 39.64441259906013 C11.385537342960834 32.4859895309147, 20.44659266249618 24.095905447539025, 36.62819293158526 3.03318038127113 M5.321990805740775 39.595066830072 C12.213612408656722 30.343024722169424, 20.433288644737775 23.451429864234388, 37.24066800641293 3.817517387780434 M9.333242248019339 41.75328140314715 C15.644201318890225 36.40358955879981, 20.56679800594711 27.241537210359105, 41.64622063385214 5.767848925990496 M8.040251243135096 43.78448463585274 C15.988210156137189 35.193607889858036, 21.529493246735306 26.889747333442298, 40.896938668656006 5.178106943470869 M10.131124007233211 47.203230817151784 C23.208761135291674 30.675125843212378, 37.11045969007608 17.844726551587236, 43.23984084942706 7.688923325491341 M10.675045395918914 44.8325840647347 C20.999320781368937 33.848222900405574, 31.54756810189189 21.942915836351954, 45.48314907321103 6.420193601501378 M16.750310087736146 48.834073175492364 C23.209349190305552 37.92122132030406, 27.57100580466961 33.3650958103636, 48.73161651355054 10.851752593300898 M14.491350473995702 46.59455831051119 C24.335489109837443 37.14340633028421, 33.71438566479822 25.783836322494963, 46.25570004594352 9.887944734774191 M19.232304395778137 48.080867071918874 C27.380890025594205 39.851274768328246, 35.6902434317939 29.272602733470492, 49.99079459045359 12.916351162723618 M19.40200827424045 49.856784326307206 C29.909044284368015 35.46514082297509, 42.47940017577404 22.90926301505041, 50.55673894170948 13.616130635968762 M23.5092358376092 50.73804610018132 C33.76163795217069 39.618471755022846, 42.71035932304086 27.539811483166126, 50.6530109284052 16.420946787955053 M22.74954809352818 51.850951565247755 C29.292019610958867 42.68160093862697, 37.328411756476726 34.458720345009226, 53.28386449940292 16.35367241865564 M25.24779929048881 53.21412843425249 C33.6921781951922 43.676304933673734, 41.80448423627706 38.34053564765169, 53.868762491636375 20.24430390229965 M25.40012769974336 54.258771560680614 C37.72656894648323 41.636882431878284, 48.05981081065383 27.93659057052532, 54.88859907387982 18.775965375514275 M33.597727834610026 53.99404018654572 C35.747355214835615 46.107047637049746, 44.03296417797978 40.84662443500866, 57.58675804144458 25.40752900062127 M31.742005563704055 52.42430128439413 C37.237394329346124 45.032941037693746, 42.844318939000885 40.327134536569176, 56.90973931706266 25.03668436078353 M37.8827302312703 52.7238878519249 C44.49489174459984 45.51841603205541, 46.47330564652451 38.15593625894643, 55.55086260004185 28.498717355778837 M38.62647833733271 52.1887155906272 C44.06872579973895 45.03927375297918, 50.769326285118964 38.205252152446846, 57.22030064178847 29.94243050669732" style="stroke: rgb(230, 73, 128); stroke-width: 0.5; fill: none;"></path><path d="M40.11706504790996 3.191742641662625 C45.041038748092745 5.456393607232295, 50.52386752247894 11.237289996986693, 52.80513585637602 16.47211637278111 C55.0864041902731 21.706942748575525, 55.46966183983804 29.18278889674102, 53.80467505129246 34.600700896429124 C52.13968826274689 40.01861289611723, 47.771693542312185 46.053360158268674, 42.81521512510258 48.979588370909745 C37.85873670789298 51.905816583550816, 29.951628407045906 53.123346762066774, 24.06580454803486 52.158070172275536 C18.17998068902381 51.1927935824843, 11.4293795533701 47.43700758479774, 7.500271971036298 43.18792883216233 C3.5711643887024955 38.938850079526915, 0.7460639483616525 32.3486752022204, 0.4911590540320425 26.663597656463065 C0.23625415970243263 20.97852011070573, 2.2738425806109777 13.291919339944128, 5.970842605058639 9.077463557618316 C9.6678426295063 4.863007775292504, 16.481587948933104 2.0193189323079697, 22.67315920071801 1.3768629625081914 C28.86473045250292 0.7344069927084131, 39.397675903775244 4.285619037059859, 43.12027011576808 5.222727738819646 C46.842864327760914 6.159836440579434, 45.05304239823308 6.681165945269294, 45.008724472675006 6.999515173066914 M16.82522005341564 3.744040124641174 C21.907624160670615 1.1845251230585387, 30.675589824996656 0.9333191283043252, 36.02683481175291 2.1162266301033448 C41.37807979850917 3.299134131902364, 45.79581755213696 6.353455558924696, 48.93268997395319 10.841485135435292 C52.06956239576942 15.329514711945887, 55.196201628800274 23.267253211761417, 54.848069342650284 29.044404089166918 C54.49993705650029 34.821554966572414, 50.785934023195 41.32601317287816, 46.84389625705323 45.504390399868285 C42.901858490911465 49.68276762685841, 37.16698544985917 53.681497256714515, 31.195842745799673 54.114667451107664 C25.22470004174018 54.54783764550081, 16.066409321479405 51.56679702400132, 11.017040032696276 48.103411566227166 C5.967670743913145 44.640026108453014, 2.3504569916270643 38.86778658805992, 0.8996270131008934 33.33435470446273 C-0.5512029654252775 27.800922820865544, -0.30690038159115884 20.040436752123398, 2.31206016153925 14.902820264644035 C4.93102070466966 9.765203777164672, 14.45189348726462 4.629175072231844, 16.613390271883347 2.508655779586551 C18.774887056502074 0.3881364869412587, 15.09054572171659 1.697551874108176, 15.28104086925161 2.179704508772282" style="stroke: rgb(0, 0, 0); stroke-width: 1; fill: none;"></path></g><g transform="translate(162 105)"><text x="0" y="18" font-family="Virgil" font-size="20px" fill="#000000">1. Drawing</text></g><g transform="translate(161 221)"><text x="0" y="18" font-family="Virgil" font-size="20px" fill="#000000">2. Texture</text></g><g transform="translate(166.5 340)"><text x="0" y="18" font-family="Virgil" font-size="20px" fill="#000000">3. Frames:</text></g><g transform="translate(670 194.5)"><text x="0" y="18" font-family="Virgil" font-size="20px" fill="#000000">Adjustment?</text><text x="0" y="43" font-family="Virgil" font-size="20px" fill="#000000">Non-standard enhancement?</text></g><g><g transform="translate(656 198.5)"><path d="M-0.8471132297068834 0.19728881902992734 C-23.090579841410122 -11.679524707918365, -111.5056572853277 -58.682820054019494, -133.87141660638153 -70.55100664310157 M-1.5438425318989903 -1.5628572961594909 C-24.03498121893344 -13.748419135998315, -112.53897205497759 -60.9700658232874, -134.7645429147873 -72.47103969811462" style="stroke: rgb(0, 0, 0); stroke-width: 1; fill: none;"></path></g><g transform="translate(656 198.5)"><path d="M-104.71206986256081 -68.19420600353412 C-112.21660572133105 -71.43420096504792, -120.88465688768699 -70.57860903770045, -134.0625414493028 -74.15829929581844 M-105.5311947744726 -68.17282889733694 C-110.75993300806972 -69.8261888729123, -117.8063249079292 -69.918679555817, -134.2554642845411 -72.73647908273153" style="stroke: rgb(0, 0, 0); stroke-width: 1; fill: none;"></path></g><g transform="translate(656 198.5)"><path d="M-114.27742759245939 -50.03865770873153 C-119.3470656318345 -58.03654468175755, -125.47281763624966 -62.00636927492126, -134.0625414493028 -74.15829929581844 M-115.09655250437118 -50.01728060253435 C-118.19673366693647 -55.48989341556453, -123.19041929255575 -59.478527760772934, -134.2554642845411 -72.73647908273153" style="stroke: rgb(0, 0, 0); stroke-width: 1; fill: none;"></path></g></g><g><g transform="translate(658 217.5)"><path d="M0.6671039063483477 0.9726633410900829 C-19.377275792881846 3.9535351337244107, -99.59683115892113 14.329794385160008, -119.76786224059761 16.921784112975 M-0.21681020169518894 -1.705246028462425 C-20.52111602067016 1.3918995640085388, -100.65260074227118 14.706236495018624, -120.53103990971111 17.812518335124476" style="stroke: rgb(0, 0, 0); stroke-width: 1; fill: none;"></path></g><g transform="translate(658 217.5)"><path d="M-92.71900927617824 3.5694643535465964 C-103.5330432232191 7.726332811124204, -113.14012266130563 14.736515417148313, -121.37295818260871 17.575567295020445 M-94.06003025795943 3.145652793981231 C-99.73745312486375 5.809109031389501, -105.5283295928613 8.539025640666967, -119.79645193579607 17.108607188044115" style="stroke: rgb(0, 0, 0); stroke-width: 1; fill: none;"></path></g><g transform="translate(658 217.5)"><path d="M-89.44257098573911 23.82742462882564 C-101.21297664799809 21.08371182595916, -111.9390733331179 21.175098798352007, -121.37295818260871 17.575567295020445 M-90.7835919675203 23.403613069260274 C-97.07985277391565 21.891922913847548, -103.54835289394802 20.43214577410246, -119.79645193579607 17.108607188044115" style="stroke: rgb(0, 0, 0); stroke-width: 1; fill: none;"></path></g></g><g><g transform="translate(666 243.5)"><path d="M1.0919156726449726 -0.9385657545179129 C-17.635588163509965 22.05709254381557, -93.19592185653747 114.92272974687319, -111.70753633417189 137.9136131886393 M0.020739977834746348 -1.7005299389641733 C-18.725666835131122 21.21953471886304, -92.4784483839292 113.21472601987111, -110.80068373960442 136.0552055546362" style="stroke: rgb(0, 0, 0); stroke-width: 1; fill: none;"></path></g><g transform="translate(666 243.5)"><path d="M-102.72863518949717 106.46574700141053 C-103.07483213585814 119.5160544821176, -108.00517300172935 129.7256359577207, -112.40197597165592 136.07787219707853 M-100.57019071132063 106.73915306089174 C-104.02227045779048 113.48455358777798, -105.73999941375955 118.78999955433048, -110.6928688865248 136.38597856082953" style="stroke: rgb(0, 0, 0); stroke-width: 1; fill: none;"></path></g><g transform="translate(666 243.5)"><path d="M-86.72136223915534 119.30658868251129 C-92.74033203041485 127.94674172725098, -103.34990218073177 133.60051383179683, -112.40197597165592 136.07787219707853 M-84.5629177609788 119.5799947419925 C-91.34368714999346 123.58373716145127, -96.37612001875755 126.2301675482752, -110.6928688865248 136.38597856082953" style="stroke: rgb(0, 0, 0); stroke-width: 1; fill: none;"></path></g></g></svg>