<svg version="1.1" xmlns="http://www.w3.org/2000/svg" viewBox="0 0 603 475">
  <defs>
    <style>
      @font-face {
        font-family: "Virgil";
        src: url("https://excalidraw.com/FG_Virgil.ttf");
      }
      @font-face {
        font-family: "Cascadia";
        src: url("https://excalidraw.com/Cascadia.ttf");
      }
    </style>
  </defs>
  <g transform="translate(384 325)"><path d="M0 0 C0 0, 0 0, 0 0 M0 0 C0 0, 0 0, 0 0 M-0.7603488281043121 5.981856863995187 C1.3555309338493642 3.741831580729124, 3.900826227725276 1.193156456768228, 4.269123803409284 -0.18553119117047245 M-0.2677121434034655 6.047264058564894 C1.8047909121774999 4.267866693455517, 3.595663444713682 1.7732280627124808, 4.7337354212575615 0.6818739630130344 M-1.1687659866083755 12.277239020585595 C2.4824511026405696 8.525466581842805, 5.789887358087105 6.143312860960787, 10.346513199758661 1.0372764478519323 M-0.6456392093468799 11.329904210239231 C3.9701347382505814 7.256390441832404, 8.04191405592506 3.35740220354836, 10.913329680961501 0.23564059018043304 M-1.0779393958440284 18.947740093712383 C2.725646374561091 12.908272547996372, 6.672170201261322 7.666425248794436, 14.190683712720354 1.531462060932534 M0.1679511721664806 19.331348528993004 C4.157377802921487 12.96209218112166, 9.229289060617058 8.911669295308837, 16.358262330762525 0.7189335745689442 M0.7092659084311936 22.935023069097756 C6.411224275502104 15.271378228431377, 11.673494763399821 10.450181254067227, 22.279566739031935 -1.236718394404697 M0.2553476106561039 23.84487116774088 C6.340429664358587 16.064429368753327, 13.251170659913187 9.134267229633224, 21.000368221940363 0.5716630783095482 M1.1633472880860225 29.07743867463266 C11.665709960391746 17.291878423503512, 22.091538329016227 6.139480962739352, 24.89879019619188 -0.5618633875611483 M0.9077400509779707 30.660496231865338 C10.82109512905457 18.3523789146643, 20.296488781263548 7.596192335697989, 26.569194968466075 -0.4531009398388921 M1.6871289088297168 35.720191880875575 C10.706793165049271 26.374529302651922, 18.789691544440032 16.49285527735301, 33.855284153899944 1.1172255967988853 M-0.9120192649867853 36.23869358450298 C11.158903951798393 25.00100191029938, 22.58170517195236 12.081513214154697, 31.012755403711296 -0.5880747594625468 M1.6338429273335677 39.83222746249388 C13.945133384953209 27.898038649721776, 24.640419354709124 11.982653549670328, 36.345414440893876 -1.6643364800977984 M1.798197083105002 39.37168070539932 C15.896595059266996 24.46783685417831, 27.07227589299478 10.481707688198497, 36.226115307585644 -0.3528004017564932 M6.934039201325817 40.365825800491606 C21.455529912447638 26.429827414416813, 31.42957116388837 10.172955042448947, 41.39095487687342 -1.622694852915501 M8.42545140415345 38.3242684931365 C18.42515817739775 28.808093337962326, 25.778703932065653 18.87056117700066, 43.206115638460744 0.00242772869309249 M12.595203347572674 38.55968372176387 C23.813436337342356 27.05293110386203, 32.20001903566225 18.906828315223233, 45.77811504057634 -0.8750783104274227 M13.960108953596642 39.91819210468777 C24.8940016293166 27.062877526923344, 35.82729260814298 12.948449387032813, 47.709150301246225 0.12798948569113477 M17.105906060773904 37.449609116646364 C29.98061567111925 29.248307139431784, 37.972503534529565 16.325651122978662, 52.49351250170237 0.835024162702144 M19.118737252306218 38.82405557296695 C29.897716669640282 25.823114195362855, 42.302848679920885 12.840135968244365, 53.40588837931371 0.1310123396514662 M24.406653794667246 39.98282632136589 C31.861733936670007 30.23764352865027, 40.657124381205705 19.41249848920058, 56.66320058898927 -0.011959972300008559 M23.033706767691793 38.45688718927896 C37.08310472370092 24.175496437370533, 49.85202873841175 10.533904337857184, 57.53905190257282 0.20679801937900422 M27.66980196496195 39.54750905648092 C35.63210044182108 32.58883017836817, 42.668307957430855 22.25982874206884, 63.988640622136785 1.0631365499018202 M28.751854116634494 39.286922441760396 C42.38870878405671 25.142014847899574, 54.129196388328836 11.339262305244272, 64.07813807939519 -0.8051041297124257 M36.51887786236729 40.04940916754994 C41.204076711816555 32.12468957006508, 49.969808994007806 19.064461399227945, 68.68572967988267 -1.6116025594655738 M35.172554978515464 39.697482756047876 C42.73470960893589 31.375047118414184, 48.320509265453595 23.62240490389405, 69.37719706469044 0.21052949618209738 M38.24790356562098 37.98848536579974 C52.37843779589738 26.550365688873676, 62.681559449069 13.133198027785788, 75.92077283192667 -0.08435378506646884 M39.9857970082443 39.84285423594631 C48.829234768198134 28.220763134320045, 60.60828404730029 15.95487614522169, 75.32955419183018 -0.7993298825235797 M43.6013091444228 38.988436166566025 C53.844244254839694 32.01981618280665, 59.877125655614094 22.584376483956206, 79.74951090700654 1.0706228343259028 M46.17084303919265 38.959070601869534 C56.809800226556725 24.757728653084875, 68.55637354930843 11.762214296062304, 79.02558774072406 0.5754632129754356 M48.712960427510474 39.646876531075584 C56.00230045833141 32.77536841187161, 64.39180526684396 21.494045959625613, 85.55309272482202 0.5278070640472663 M49.65400885127011 38.995339832622456 C57.75646016450388 30.784790230731268, 66.79244573756469 21.756592116772953, 85.9074511697437 -0.23569812190700645 M57.54213123458377 39.310161224664135 C64.79627910566624 30.08073997207986, 72.60813326038856 21.99399145200303, 91.97710286411086 2.0605951153244035 M56.46338540284834 39.17011752361892 C68.63555371952638 25.004063261317476, 79.71327169205125 12.439331051438362, 89.42685088379869 0.847253466634001 M59.812531144380436 37.92356145855846 C71.21757758965269 30.760807536132802, 81.4114425044715 19.037500620714763, 95.39935680760132 0.5802517441613446 M60.386616598836945 39.602533528663834 C70.75287249325484 29.712352753642982, 79.89306324264687 19.911208011432525, 94.2315913792892 1.3752616896806131 M65.44827772660022 39.806088248094284 C73.27064349776289 31.372332256449774, 79.0833999041145 22.40451543284017, 95.14922385504062 8.212538992007666 M66.12562152260756 39.86846531817105 C75.54269885992885 28.426181203982008, 85.36590667023398 17.810002786254167, 93.1036481571343 8.228025356260531 M70.51292430998087 39.500669054498374 C77.67599141849483 32.08119138995682, 87.28329172028572 24.15359478077268, 92.5996583841095 13.317829963753503 M70.9543722040698 40.63196462094545 C76.349763082545 34.421692748290496, 82.66162969242956 27.17452222120836, 94.76994898368663 13.415362151342016 M75.64543221422214 37.548971143106456 C83.6393159641368 32.24054646622977, 91.48343061567766 23.042440829672323, 92.45016858950777 19.095995049734583 M77.87361585159529 40.2013307824009 C82.36414488268952 33.28678568749496, 87.2817243645348 27.412201457452294, 94.90409262981785 20.46334485783892 M83.8152646417932 38.46943686521261 C85.94945377654999 36.98329780161132, 86.19376752690457 34.78211320802517, 94.53887081019636 26.821028195740745 M81.3577733336219 40.106500128289895 C86.76380337747692 34.897491840091675, 90.03552659313567 30.214776213611003, 94.64532495936434 26.469262683531362 M87.74672653676586 38.62582554866678 C89.26659684624208 36.97408198994569, 92.65985910835624 33.98406616505131, 93.81167436202578 31.701416841524846 M87.92043983504752 39.54044690242156 C89.48920663305867 37.25752151862424, 91.92019876371586 34.61861421396642, 94.0519476291962 32.5322964245949" style="stroke: rgb(18, 184, 134); stroke-width: 0.5; fill: none;"></path><path d="M1.4871555399149656 -1.5149327646940947 C34.404538256675 1.4098303259536624, 67.09180126823485 -0.022174185402691338, 91.35398797504604 0.35354344733059406 M-0.663682914339006 -0.6379580581560731 C35.447006785683335 1.338866786286235, 71.90891661662609 0.6134346585720778, 91.93381565157324 -0.7846829080954194 M90.5051992367953 0.47235934622585773 C93.00406690160744 14.212504614982755, 91.9956827334594 27.714294247142973, 93.57629917375743 38.53741644509137 M92.52115481439978 0.6640458917245269 C92.36776218206622 12.910808228794487, 91.4473074117396 23.902648652717474, 91.98266037646681 37.99903242941946 M91.00163458101451 36.90286015160382 C60.653893406689164 37.93051220539957, 31.636945613101126 37.706649020947516, -1.8458617497235537 35.4074790943414 M92.27558883372694 37.94859283324331 C66.57718390133232 37.027251363396644, 41.302081619389355 35.86940994918346, -0.9658846920356154 36.780030748806894 M1.690023584291339 36.128437327221036 C0.6316236258018761 25.390177824255076, 1.4731425643432885 15.75304022375494, -1.263385908678174 -0.9011978041380644 M0.37613891903311014 37.60176064725965 C-0.4720154925528914 29.26956870732829, -0.8069542869273574 21.519552022218704, -0.8999482160434127 0.5996633684262633" style="stroke: rgb(0, 0, 0); stroke-width: 1; fill: none;"></path></g><g transform="translate(311 239)"><path d="M0 0 C0 0, 0 0, 0 0 M0 0 C0 0, 0 0, 0 0 M-0.32923097160177917 6.87190809776365 C1.3634568263285298 5.207238030971809, 2.928941146915836 2.453030945170396, 4.715649603637403 0.4613716203567797 M-0.6582793686212847 6.576735569213621 C1.2137405788081104 4.145370919712494, 3.385704355649148 2.3281247425844174, 4.646905264216012 0.5033634103683049 M1.0164548033009875 13.469988735436976 C2.9127060813459593 8.225885433280006, 7.351856697267047 5.1109966045820805, 10.614576244306695 -0.09150017396661037 M0.5396451787184584 11.792600512176334 C3.73417421222657 7.5053921118078035, 6.457329459073103 4.687440389054233, 10.906832834285629 0.22635469912437212 M1.1069700372824212 18.7109865405603 C1.901360902875687 14.869918364519659, 5.892183571240536 10.405874815472027, 15.996327360629518 1.7559902842086723 M-0.5341892038053135 18.31325999451863 C5.534316568033041 10.814742671546497, 11.96289341604462 4.3005221761212145, 16.16781447874703 -0.3893310654046962 M0.2634218244067643 25.595243125869988 C7.767733054524504 13.777826358749618, 15.482758661707738 4.449467853719273, 19.767536703774596 0.5614496985613826 M0.08364899570115547 23.781028677425443 C6.113866178617408 16.212664465096505, 12.35383541061471 9.063099747045861, 21.920394479574526 -0.8408546630129692 M-1.7874263384799107 32.28371071046983 C4.790184129784226 22.171482937180304, 10.65166903954637 17.679698157759656, 25.33455888987741 -1.5712504932645022 M0.5397528503601805 29.550335210513524 C10.207415850636442 18.83346199142741, 19.174706986150046 7.501355778765422, 25.27970327032021 0.49313786104440105 M-0.33903934816834536 38.552258327418315 C8.819899235512388 26.346292816442194, 18.277239884038707 17.99224099351513, 33.65178492613772 -1.9939977134332771 M0.059181633302895165 37.07725492566948 C8.319639225763154 26.75685227649977, 16.487094829151445 18.087730431833194, 31.784085715605713 0.29741069593124436 M3.3592758895127517 40.206744813882814 C13.865822608748202 28.226579465516608, 20.693892113532367 19.51007533594228, 36.156791578793275 1.3214870617818555 M2.1093947961224657 39.196485771388815 C9.486780205750872 31.457470125638366, 15.848383667077787 24.857731450444604, 37.62206462659066 -0.48322271079751644 M9.729280169791622 37.442614613367354 C20.114010526088407 24.00488971994573, 35.163418505193604 8.74075286124091, 44.20631360504382 -1.4415273397834056 M9.245911678969009 38.76219411500368 C19.197363936076215 26.149098718227666, 29.555903835026605 13.08872486024476, 43.287062992896665 -0.5878262949780577 M14.363420046934475 40.14797861526706 C19.90285316752092 28.555397851989444, 31.173048025494417 18.881308495598773, 46.015271521127104 -1.094605644402261 M12.83067956853061 39.23234558223732 C23.595355799352923 28.308284981744876, 33.19303322687831 15.38382889218277, 47.73518175068337 0.6920852659445451 M17.428977153141076 40.41430877241762 C24.677982909154867 30.53811769071958, 35.6803365276483 19.371202391653938, 52.09274383424288 -0.6693227742390029 M19.654973016928906 39.46064967475356 C30.635301128027123 27.071880996700433, 41.330868206996755 13.779322538704534, 54.03992201457238 -0.4313800888658754 M24.638918879649164 39.65074348354584 C37.01121227450349 24.926186586565137, 48.70268503107555 11.229067820220575, 56.1809948106289 -0.567087205566839 M23.128994522823515 40.09211515260732 C36.366502235962386 26.113492429644886, 48.3357744665787 12.078968268551524, 57.54996284572334 0.8889348381455981 M30.03181157966799 40.11362053171018 C39.06865526226327 26.3032678587406, 54.22599281416376 12.640392535137323, 64.69144670748491 -1.7843176105500689 M29.28053773434556 39.37383297268519 C39.309129916809056 28.744568439842567, 50.490241372181494 17.594689214898438, 63.54388348375787 0.19130986114279125 M34.191143481406826 37.983105824969144 C42.74298738476276 31.74469129171989, 50.79939718002275 19.802953130258043, 69.64370754104867 0.9377337845381035 M35.19306036212619 39.512855029373796 C47.57060232776363 25.046146594024943, 60.30013742124873 10.156525268941955, 69.38794111483558 0.8365740526806249 M40.46464760110339 38.43982213704951 C49.87203130502695 28.531047396901116, 60.483584567492336 16.297272097737544, 74.10154331851992 -0.11219544246660007 M40.443757092324994 40.03407289522804 C49.22697305467476 28.985905071705837, 60.413282562416995 16.919830448038645, 74.19079310357812 0.06417910192294585 M43.74421494595745 41.19438204578699 C55.01076366199183 30.790675429125514, 62.14193783785002 17.146639347579157, 81.1119058061364 1.234798732162588 M46.102222789563626 38.59100075941176 C59.694230941873386 23.435136692950195, 71.55185449131656 8.075347148082482, 78.96127476114509 0.12362595642464669 M51.40492228220675 39.33756457490836 C62.16267108361771 24.08443259923551, 75.93235923825733 10.760485940848497, 83.14090476109789 -2.197389863738607 M50.88823026500169 40.09720206947987 C58.19759648521598 30.23192888563201, 66.99428120003809 21.06300058642223, 84.26312157715813 0.3305381803495777 M56.74100436705104 40.115138552249356 C68.16859853853721 26.775363153917397, 77.12561778760859 15.824707338480042, 91.0128356996421 -0.07970095644340347 M56.82645250826082 38.78236288959621 C63.022572946963095 30.879807184414616, 72.84675753693917 20.42784232406427, 90.37274698777685 0.19808859625264574 M59.90488171672808 39.77803925153675 C69.22707368566144 30.06010094422146, 80.23489786523932 18.970813028369466, 93.3779750419973 2.461044272552229 M61.40424045550065 39.32371854231568 C69.80881810537628 30.15347755811744, 78.61918864477389 20.469358187809505, 92.96578752065139 1.757201383966006 M65.34313283843761 40.35719175060626 C73.6665650141845 29.57300483792656, 83.60039576067842 21.302573232391556, 92.93190302541072 7.9187719271978665 M67.2263452213428 38.90212696680214 C74.80430040937922 30.028470500397958, 85.0213449874625 18.788403801186885, 94.55517570795084 6.914430821267359 M70.73552199841738 40.51368757318467 C75.86300885055438 31.1821176343758, 82.49932923379136 24.21870993702016, 92.5075349650631 14.428269174883646 M72.17269586694688 40.333495360610485 C79.0899075514437 31.513351573901407, 86.95721674727173 22.286502701291738, 94.80192134727783 14.753325061874968 M76.43097145386714 40.31360804710769 C81.73048512388 32.70501312291651, 85.36898096586647 28.28625130369325, 95.35808999315424 19.37007046844529 M77.05312163193453 40.124853537904556 C84.4277778838521 31.601368143329367, 89.65196087636333 23.34587722560046, 94.01683024075402 19.42056235745268 M82.3639162744598 40.03239731407373 C88.51293273182227 35.523740040301114, 91.49929107280938 27.481385857169364, 92.22611792855021 27.526678254129457 M81.80460270775644 39.60721897669716 C85.50284493722285 35.5615249883346, 90.27974527802077 31.427145851633433, 94.22606475105565 25.759747414430695 M88.61325239391641 40.09547606309063 C88.99919492706103 36.942834505862685, 91.61100378014633 34.89938162369249, 94.35894052793795 31.98651158698202 M87.41849615514855 39.11707449888929 C89.48417186803735 37.32797851259517, 90.60848235636205 35.98116171591677, 93.52980476964787 32.67432316714265" style="stroke: rgb(18, 184, 134); stroke-width: 0.5; fill: none;"></path><path d="M1.7861921321600676 1.2804114986211061 C30.827635259181257 1.1245352489873768, 63.911022889986626 1.6192914111539722, 90.11735619418323 -1.0991505812853575 M0.20349405054003 0.8613136177882552 C23.020181819610297 0.015829089209437375, 45.05425488073379 -0.2421285779029131, 92.07863057497889 -0.4235151940956712 M93.9216207396239 -1.445277614519 C91.05407564069145 12.03845317075029, 92.2247505011689 26.627486766688527, 91.4175930749625 35.63532151468098 M92.28518284205347 0.06096876319497824 C90.83785031662323 13.420393271092326, 91.57144971118309 29.06571312658489, 92.94469074252993 36.16683266218752 M93.16028840653598 37.28167189843953 C63.333394201099864 37.29392435971648, 34.10740446038543 35.65203425113112, 0.9316036831587553 38.441389756277204 M92.06178835872561 37.58586404379457 C58.54860182609409 36.9396083599329, 24.02898466754705 37.24829536139965, 0.04854483250528574 36.30760986264795 M0.8632180821150541 37.400041775777936 C-1.5477179632615299 28.947042638715356, -0.7262977109383792 17.97202697638422, -0.20029215700924397 -0.3027109932154417 M0.1501624071970582 37.48955780919641 C-0.3762964598182589 26.16800758866593, 0.7860501118656248 14.999723321199415, 0.0705212140455842 0.1295231943950057" style="stroke: rgb(0, 0, 0); stroke-width: 1; fill: none;"></path></g><g transform="translate(501 249)"><path d="M0 0 C0 0, 0 0, 0 0 M0 0 C0 0, 0 0, 0 0 M0.32158614102286587 6.4647516020137 C1.3987697230524097 5.309596149160069, 1.6110185584246992 4.374646504088399, 4.8792089018547005 -0.36774413251902516 M-0.1295051928283522 6.23497526985883 C1.708139580734609 3.9911492338115555, 3.563285618787299 2.4388274581908784, 4.721245069014377 0.1600808322278076 M0.23081476326097117 13.039615963816225 C2.3430192291352743 10.772204862431359, 3.628117307789541 5.678826525156046, 11.76038676197542 0.5279982130124927 M-0.21081957508813276 11.708469514220536 C3.5148911171456696 7.987984244538345, 6.645414235594726 4.0834084796473515, 10.428720346790683 -0.3415291693911193 M1.1575927501031895 18.319957111869627 C3.3112307788955713 14.861035091688315, 7.303659388339229 6.653652705408135, 14.699067683428009 1.7341120901447704 M-0.46280677621720834 18.014422099944824 C6.353942792629345 12.334251852409903, 12.760837637064592 5.091060755147344, 14.734935472256918 1.108146650430279 M0.09871238676824312 22.90597887681341 C7.710588686197316 18.074894734398416, 10.150020171755946 10.222250017397608, 20.891064718643094 -1.617744584178972 M-0.14750738887123127 23.631188983745037 C7.332575050707682 16.097293392717987, 12.318054381605391 8.898844616303581, 21.6538124916124 -1.0199955828324434 M0.7689754022797004 32.35213891765868 C6.2153382315115095 22.925792236874102, 15.680509723578398 10.324575107448762, 24.881602105360837 1.7518041072425188 M-0.14328583697328412 30.58985893684273 C7.88968138918611 20.475861481124074, 17.91834710906806 9.266717342549367, 26.54087803294173 0.6601043645304383 M-0.99141610796568 35.67368615027641 C8.558904140684259 28.60607761165261, 13.091643888393055 19.69723105511245, 30.3017065929685 -1.6252181249425526 M-0.2557835309859833 37.39380953721826 C9.430500668148683 24.14372320962652, 20.321545953153183 13.048412070734685, 31.663541902272797 -0.47300269722349597 M1.526116692390893 39.77914054464649 C17.11984941732561 22.71012243554778, 30.77480156888243 10.07022967395741, 36.964809439891326 1.1516601258051118 M1.8208989220900875 39.21215035446088 C13.197479019781944 26.238197998723106, 23.347938886650077 14.264007403603323, 36.37103247717147 0.9438926755544266 M7.400439090765161 37.954888927085435 C13.93819186244023 32.5305429963813, 21.747166283385333 23.000979402664843, 44.17771864551656 -1.7488186798662895 M7.412361428811295 39.45806875199649 C17.384205281954486 29.001192241878236, 26.103932327222516 18.514647389188763, 42.81161893866562 -0.7477680818782204 M11.455320883610835 39.29326581980087 C27.33422734010137 23.303560964305017, 41.9113404630365 10.00708011987249, 45.55464671826947 0.08553561458254322 M12.644772467271974 39.31066072664209 C21.074898545250168 29.98442343829374, 29.156971239355165 21.86435262983449, 48.152889039321124 -0.15938490087276236 M19.538585695315177 37.328248058441 C28.17653603626146 28.363239819523724, 41.26262025539823 16.872474547487585, 52.32818290753728 0.21018421979981738 M19.130268406000013 39.44437552615525 C28.79913697893533 27.48538257187078, 36.90080124851815 17.546518031180717, 52.29897133516586 0.13837427882838327 M23.36796165930343 41.27476017454511 C35.96219754566174 22.282782908941396, 52.49642364507861 10.152784511798885, 56.163320971745264 -1.7009639576751745 M23.219054185061278 39.362071031684636 C33.97745098354082 29.204886299947283, 43.3255535048942 16.699285199658473, 58.1108129537657 -0.31549984912611606 M29.18599462097234 39.68320733398417 C38.66279719675817 31.87226576128943, 46.37178595620199 22.65242334148644, 64.46843141028066 1.044271042805768 M28.060566518993145 40.1432966962106 C37.587913427133614 30.86895321463257, 44.76508276679386 21.841950080972023, 63.12340182614852 -0.8787845994786849 M33.85437105071868 37.64110407762918 C46.82249935482488 25.62118544920724, 61.48478755597391 9.316292394368066, 67.20928923156872 1.1315168777819409 M34.10404680983301 39.7396722852135 C43.147150782746465 29.93967803004482, 52.640473313889906 18.40795043213747, 69.7660444548802 0.2629013464193477 M38.94824095696767 39.97470306201942 C52.7400648562988 27.667336825602575, 61.70232064259561 13.735578110787202, 76.22004618499669 -1.860327742098434 M40.59911406014671 39.27026661734201 C49.538934713216264 27.64481616102217, 59.451336573206035 15.391699397442608, 75.07958814598861 -0.9103287011744214 M45.41113108910659 40.9035279978031 C53.67112883710655 30.35001612217932, 62.369709560638626 21.12381057222748, 80.01725852898983 1.5160835897039107 M44.656928075962156 38.7698805028537 C54.72629167315319 27.255620784795507, 65.36340404309401 17.56671536488578, 78.93669877703962 -0.18370279861134975 M48.36897270556066 39.01555029151951 C58.113456944799125 30.854392559138688, 66.83762659702548 19.089132075991543, 83.11085926293538 -0.5236316661627995 M49.470467234845195 39.25797338539724 C61.443809805411455 26.61344134460019, 73.88755912727365 13.576386460548783, 85.75908302906112 -0.11421701063383694 M56.441073805717146 38.16701240381686 C63.65132254618919 29.32397860199408, 71.69052643716232 19.161959803981688, 88.81818589525858 1.979591646840717 M56.03175071782372 39.732236700230224 C64.80174867579338 28.892168601273788, 73.21767207018682 18.957519010879142, 90.73776615461895 0.03829123140677382 M62.5541468980013 38.45760449123444 C72.10194299912811 28.081936149597237, 84.21794116364522 14.033743021152382, 92.6067755883752 3.8922184800309907 M61.3521162774636 39.237520516001304 C69.08524080737352 29.009476500186395, 79.3611953993367 18.71188096141122, 93.58213712276952 1.5688452284363876 M67.25328123180037 41.13028776442047 C75.12812192707804 28.365854145832497, 82.28148619060303 19.60797054236341, 92.18868807171995 8.189742320170097 M66.17944246979272 39.85940689296808 C75.12708357974842 28.096040054829132, 84.08614076667126 19.17484253798908, 94.02052153208817 6.622707754326456 M73.5159705655396 39.546471129914224 C79.87775082476209 32.90186750571796, 85.01171425257695 23.84689266488366, 95.48753690266109 14.101798967460674 M71.21842642237694 38.7931365247792 C79.89541643753782 29.72287969215217, 88.58759813296933 19.595760351126767, 94.17346287158377 14.43424483388899 M78.06308539860625 40.08583454836392 C82.33937774984373 33.11325469825767, 86.47667742171936 30.131113334525153, 94.7964582055859 20.842052757550945 M76.84780606624413 39.33718209669226 C82.96639161330903 33.24549330088707, 87.48356406395214 27.38396957234768, 94.11794125978423 20.15056196488159 M82.17159664102061 40.97137157125978 C86.02427093459139 35.41028301100537, 89.400128943056 29.5677941901415, 95.3725355802482 24.253143367963002 M81.42256008910178 39.02797389720215 C84.81601699848213 36.25250186531603, 87.57891351597351 33.96098157765615, 93.1364970758004 25.43849516878845 M87.43804455754923 38.63800678246773 C90.11959139438508 36.865189996052216, 90.97644659832868 36.37191978625307, 93.33128031210565 32.00023314636499 M88.15329746442491 38.81107457865148 C89.31391133741923 37.95230062847151, 90.26410213277761 35.88935589540511, 93.5312770718947 32.643824924298755" style="stroke: rgb(18, 184, 134); stroke-width: 0.5; fill: none;"></path><path d="M1.1724632624536753 -0.02585809864103794 C27.245740237087016 1.6027725106850266, 56.855235854908834 -0.16906299527734514, 93.69948806799948 -0.01146959699690342 M0.43441909831017256 -0.15570546966046095 C19.95625748727471 -1.5961618246883154, 39.862192975543444 -1.4511617543548345, 91.13062110822648 0.21151520032435656 M92.79575719870627 -0.004261249676346779 C90.63332657792606 10.40954867405817, 91.47105811812915 23.834594788588586, 91.3628458622843 36.932618325576186 M92.51654187124223 -0.007333266548812389 C91.99890217925422 9.072082433383912, 91.14403606201522 19.85524588264525, 91.91376602929085 36.39999989885837 M90.10118957795203 35.522117322310805 C71.09018157571555 39.40779175858945, 47.95926428698003 38.42410703998059, 0.5843796972185373 37.59236443601549 M92.44508016388863 37.46459106821567 C73.76647568214685 36.618654415011406, 55.59983695205301 35.685100331902504, -0.9713524850085378 36.84419615287334 M0.31391909159719944 38.18847048841417 C0.31004179752431815 28.881733734626323, 0.409244132405147 21.365407976321876, 1.786513889208436 0.8119459804147482 M0.4722007242962718 36.601162505336106 C-0.2156624698918313 22.23658822486177, 0.2288202440459281 10.089494603872296, 0.613174500875175 0.5463317455723882" style="stroke: rgb(0, 0, 0); stroke-width: 1; fill: none;"></path></g><g transform="translate(449 119)"><path d="M0 0 C0 0, 0 0, 0 0 M0 0 C0 0, 0 0, 0 0 M0.07039998251480373 6.257694259335391 C0.9518495958656192 4.502344238286633, 3.18747174919769 1.8874264936217457, 5.140759469153828 0.9396899636683279 M0.025172324511235022 6.2734147690731215 C0.6696991308309956 4.672346576665486, 1.8919189329643173 3.900471843105987, 4.914575852783865 0.43034416919920976 M-0.619502147184719 10.59203183990675 C3.0190918284684276 6.790178588589803, 7.1232652710873285 3.828050964818951, 10.62596841300739 -0.5801248227164386 M-0.1670113629568709 12.774677302360116 C3.828186157156874 7.4588594987862455, 8.677920195428078 3.316569876239217, 10.798067361068856 -0.39180294768067586 M1.863358170674159 18.3225734931423 C6.4506997676747275 12.548500016058036, 9.365246637908157 5.797590572733409, 14.072954978331406 -1.352275627951605 M-0.40111762010960383 17.81167657012182 C3.3152969140388233 14.6474625682042, 6.4972264256272405 9.469925198692646, 16.552382168828924 1.077636877719777 M2.168882545288584 24.089700812189935 C10.102639774875085 13.8315549340992, 16.10645757676128 3.675129080026263, 21.478838334137464 -1.1975510554224726 M-0.4385437683948066 25.014113001241444 C5.513750882804101 17.71748328291359, 11.77017387697273 11.331540242146003, 21.15727857900586 0.7915089870035175 M1.2168349819769517 30.98191048367714 C5.503779330335816 23.778686395701882, 12.419892631383197 16.81876816184394, 24.25129525982997 0.21006348673372877 M0.5014606630941287 31.14816369092857 C6.1238478026522545 22.91248708715007, 13.481734623943005 13.7871497686377, 27.078900002550693 -0.4814006412389933 M1.3528497050422708 35.728745857068645 C7.223304586835374 28.01205636267546, 15.31696956912069 15.096606569546342, 33.817800258702434 -0.26787948224104596 M-0.4231532068085393 36.292187906616675 C10.607852412911916 24.666327147854027, 19.39414593507226 12.981519101939703, 31.637115962288178 -0.07955169479705049 M3.9413283047495824 40.45888071093808 C10.847308088266345 29.098570417084268, 16.040719403439383 21.438987803507192, 37.50112296808635 1.541979627786251 M3.3412862316934806 39.82797221984814 C15.789313438040743 23.826901709680623, 27.478356693744814 10.297436834263031, 36.23654424008106 1.0622000844311437 M7.929849447420878 37.122215055195724 C19.424941025772483 28.48459729800411, 27.451210095181168 14.67797516475888, 40.892800391275216 -0.03786916394243178 M7.62108078945343 38.550326308501994 C20.43236150867972 25.81102619826072, 30.586216047328953 13.802254741728174, 42.05252310875409 -1.0625737413437122 M12.286286933416118 38.85545597064294 C25.511546788277087 24.13281506285203, 39.710381649089314 10.107425354793968, 47.72966466560054 -1.6231287672940446 M13.264780536362519 39.72016379634835 C22.483978646819295 28.91097422840086, 33.55093102459679 17.51461742722133, 47.220139100170016 1.0683023359801815 M20.340459016028817 40.555312226521686 C28.95468634063119 28.655848278957613, 37.33826851604526 17.253220696352848, 54.26731529435581 0.0696283369733699 M19.79733312024551 39.325196870597914 C26.302414282602697 30.550086815516686, 33.633367214620286 22.364213194011487, 52.52019923715359 -0.9695688713864676 M25.692479082590463 40.055299662965 C34.00637945263091 30.392111235935477, 38.831288722383306 19.05886586989135, 57.15664691487254 -0.8643632610071457 M24.640934447965147 38.944241664352475 C32.635477346777705 29.06521097892105, 41.88092970865823 19.18307959551854, 58.568258801567566 1.0530193946581328 M29.93016885740406 41.7177741294376 C36.61599577777588 31.582191858991408, 43.46746535228745 23.434660554775782, 63.81732153044422 -0.6807385419936409 M28.144941888355678 39.026751195045506 C36.76137564294007 29.515632462623945, 45.694516361041565 21.828769087393624, 63.50059356623669 0.5437011963246832 M33.785881314772624 39.573060225404234 C43.92060374325197 30.889485087121024, 52.084023332274505 17.290155352966465, 68.31429627840235 0.9266745841469302 M34.05519718525137 39.7194441051105 C44.31438259573805 28.586335103103927, 53.45333984094182 17.063127680513443, 68.16322756302371 0.6887145417149796 M40.293323592027626 40.45858004099794 C51.37780134568057 25.124570670684385, 65.65442674823939 8.4015809176429, 73.73129566204044 -0.3368213633434607 M39.98334937051495 39.69293340264924 C51.64596421705491 25.37744959003267, 62.91016017486706 12.806193796413762, 73.79790531475338 -1.0222752569602562 M44.504970192462594 39.610886095460664 C53.17125199116906 29.96597478092349, 63.769559715886814 19.24853716737555, 80.04733931868998 1.5458832056682041 M44.43676796697119 39.42125939987243 C52.314103106077546 29.820700449633907, 60.09752518131958 21.275985013613955, 79.23111960328845 -0.19599894159925668 M49.368590753409 39.578337978925454 C62.38909251429696 29.04847816793975, 71.77819926318656 15.281572945072636, 86.51021425164447 -2.2589716895761 M50.007570756482814 39.78206635488187 C63.792536728105055 23.98213873074021, 77.39326736365166 7.0170342176542775, 84.56008370145366 -1.0107599499912965 M56.10072227816037 41.058425710634275 C66.54886477715863 25.45723927475254, 78.46960672666418 13.753362643246238, 91.5130025982354 -0.5233389589433415 M55.05859601187459 38.58142582988827 C65.79691104773113 27.51323647583382, 75.77928176052794 16.954779549460138, 90.34175914111177 0.3837422259654062 M60.06319690404819 37.81044638072016 C70.41823682553506 30.64580721529083, 79.64670409220564 20.16227673644843, 92.99937677478479 3.14408765747676 M60.91243026500927 39.15401333299341 C68.07757972800093 31.393558991692935, 74.25904720755658 23.442682424890382, 93.31065085811602 2.6553641391498815 M65.13661413436597 39.49282750842508 C71.72679848331066 34.29862143498343, 80.30530143854473 26.67495216683563, 95.6204223896336 9.43700233004003 M67.5373805387116 38.887931676408016 C73.09374110018042 32.60390305770164, 80.52282656623692 23.26111939063445, 94.84813010533864 8.116147127886705 M71.5968686064452 38.57580368388206 C76.59941375798182 30.510703814557125, 83.29717933628805 26.695762800665513, 93.76416950405634 13.434100917542857 M70.73650211484433 39.82488761823386 C76.80295993731588 33.50978608435718, 82.85149499951385 25.117534657979604, 93.32446571358538 14.492431093941015 M78.48862232357938 41.178739926333066 C83.15308450125241 32.742038187733854, 87.93627423911855 27.562317557707253, 94.77606137134654 20.266467189227214 M77.8335707662322 39.18501522068166 C81.55746340399452 34.36584676239154, 87.48577312531833 28.704578290778848, 94.63179283068104 20.279740724523535 M83.36763515632762 38.14654395590185 C85.50511088777836 33.59780215120067, 90.48968775658732 31.55560584257599, 94.69154496867266 27.35533200488435 M82.79188544780179 39.93236370524971 C85.2166875005246 36.56834724712156, 87.12300277108451 33.10307575511812, 93.37543760486002 26.73677340564327 M88.49696433946134 39.154799462325194 C90.30613383920101 37.54906938727831, 90.79215144559504 35.41061947550404, 93.09882956210114 32.57007967913822 M88.00472846665996 39.33698346627063 C90.00445127462156 36.948579932743044, 92.02999688741457 34.103002197787625, 93.64745850560777 32.03781168759168" style="stroke: rgb(76, 110, 245); stroke-width: 0.5; fill: none;"></path><path d="M-1.0499009303748608 0.2321898750960827 C19.32515684813261 0.751762721017003, 38.91074395403266 0.24922654338181022, 90.41152115538716 -1.462308306246996 M0.21688454411923885 -0.7661708202213049 C31.980783193185925 -0.17920157119631763, 62.7853827547282 0.0607435424625874, 91.55107199214399 -0.2038672175258398 M93.48909207060933 -0.036659616976976395 C90.062115398366 9.435351360403, 89.8191395673342 16.61352002210915, 91.85525735095143 38.12758777663112 M91.47371994517744 -0.06452633999288082 C91.27287611698732 14.926909040473403, 92.1117874715291 28.427600783854725, 91.24075918458402 37.68659905530512 M92.14642079547048 36.87821815535426 C58.29698967635631 38.80317226313055, 20.597785150259725 36.19828775785864, -1.4389939717948437 35.32198749110103 M91.70236282609403 37.75597838498652 C61.20498017109931 38.065058034658435, 30.674934170767663 37.09805963635445, -0.049467334523797035 37.16229520179331 M1.3499416895210743 36.035294871777296 C0.7100372713617981 24.388489137031137, 1.3375982445292176 13.722987570986149, -1.4925951175391674 -1.058918733149767 M0.25431465171277523 37.02255282737315 C0.4605633158423007 25.099276180751623, 0.5432223815657199 12.307448279857635, 0.9752532746642828 0.4508213195949793" style="stroke: rgb(0, 0, 0); stroke-width: 1; fill: none;"></path></g><g transform="translate(249 126.5)"><path d="M0 0 C0 0, 0 0, 0 0 M0 0 C0 0, 0 0, 0 0 M-0.4538839295180389 5.748976521988504 C0.8509059990071558 4.158124096845444, 1.6700826450541166 3.3971389969029415, 4.281411074432081 0.9333283502456956 M-0.6481097194971392 6.275868440841429 C0.8085795958984662 4.8258779299985175, 2.329847086042305 3.1115070630412367, 5.100954613047189 0.3194808401015812 M-1.4554890519846573 11.868150242089808 C1.7026620507453938 9.285189401312554, 4.959168694662143 7.269268903584905, 11.190453433942926 -0.32367924348565325 M0.835024149818312 12.430914473205387 C2.3690884034822766 9.694633452895122, 4.74857077207116 5.788198953329647, 10.389287611049545 0.20088387011436248 M1.4103736532339592 20.306932137255245 C5.406164585314788 12.321681672680945, 11.529195493585021 7.153261319389509, 14.9666850171084 -0.10957382368622515 M-0.8815907035535435 18.895465647709244 C4.794617511300756 12.351138130225609, 11.1758395012219 6.054323163219006, 15.104184493891378 1.1276699674245885 M-0.5322727652081038 24.62170782656884 C8.817763786985157 18.27785146218801, 14.338453879086122 8.123006446677426, 22.51941138906207 0.3043832102953914 M0.3537287276423786 24.799769212207853 C4.590879280860976 18.50942894734358, 10.55087762133009 12.327692087070485, 20.324953734220827 -0.36107363140438764 M-1.0887132742861851 31.862032405797592 C9.997310495335645 20.37394592338375, 17.865625683417573 6.136955724587629, 28.23489396334848 0.5030810287234129 M0.2809515093033568 30.95080105657523 C7.466579247319834 22.123085698547555, 14.22049934441061 12.836884429896283, 26.681870709780963 0.5176080711197795 M1.283524729208974 37.34283740799998 C12.682397581545402 23.67357158377345, 23.021821179393744 7.98371658498014, 33.653461247167385 -1.0763052905664559 M-1.2303318354394754 36.97260526269798 C10.506702390007492 24.866797833586773, 22.76481595317245 10.423462779105218, 32.48281153519342 0.49144801416091966 M3.9210718394486648 38.659044170343385 C13.944699349777546 27.4983904441705, 23.806651021341885 16.07704284510939, 36.54862750675653 -0.366434223847417 M3.0568693950070482 38.742848529071615 C14.148188009405834 26.365301429092874, 24.467393593830895 13.7594163551274, 37.81083027161782 -0.5767716047260443 M7.581626351661129 40.04515963633183 C17.75416569172949 28.949275537725967, 24.50328485671821 22.897948061017566, 44.36306499931567 1.1050255567162282 M8.592605790793044 39.03366597302828 C20.712644865351635 24.816765146816465, 32.77748641389672 10.645732720668615, 42.17888115867578 0.3668540286227113 M13.943572320112576 37.67835719536044 C25.669939841708135 25.27587303748465, 39.121171065630136 9.40162882702283, 47.14763174108255 -0.9344281751487209 M12.758355888606598 40.095991970291216 C24.192999780799866 28.125064353978832, 33.95630436996676 16.463898085370822, 46.687596382526934 0.698778986762111 M19.01012887700277 40.18917130026491 C29.569887283677808 23.450506739370063, 43.368920522897774 11.371368516720082, 54.99734373925692 -0.7273078416065566 M19.489925490569348 38.45150477252425 C31.364577823704707 23.723896263820933, 44.19662685773447 8.531722471145017, 53.6800083077929 0.17407995885598737 M22.080200913569453 39.775802849772035 C34.24787969024308 24.91797604236568, 49.75783013788504 12.66902648769575, 58.990402760076535 0.36404058106951354 M24.46704834534091 39.28818188978231 C33.119996717911725 28.471139666503547, 42.84807905310444 19.085958045697513, 58.899327245633316 0.05788289245925782 M28.528292283021873 39.733652126940285 C43.253963239918505 25.378401371868662, 54.96362560183195 8.380038196816503, 64.62416856074114 -1.36773907928481 M29.11204935105241 40.27108302895198 C41.40832030585096 27.708561503519995, 51.23782255997819 13.711703251696964, 63.14366368566979 -0.8185636482642522 M36.0238287135693 39.53194753982815 C43.8451977742402 27.57014904366133, 54.32113600032653 19.519623715964595, 68.75418665748849 -1.1248365489427314 M35.02791746833499 39.90022883441988 C42.38787208247246 30.74568712631499, 52.32151016680562 19.621279094391, 68.42380606406196 1.0735381592403783 M38.750480721449456 37.890374362162426 C52.96118192416405 23.775437630436986, 66.3992677119873 9.239965395876176, 73.03016055751833 -0.8294517500685288 M39.43637863334825 38.86847962874092 C51.33742840732531 25.13076139839295, 65.6223759458723 10.82578340662278, 73.61794299543145 0.01660875413699614 M44.186076813862115 38.30860767177881 C54.520028976679725 29.981099758515565, 61.639672321934 20.66406269813453, 80.83497952706841 1.7263818410645655 M46.176558960713834 38.87231835107894 C54.52620508144051 29.129002976589845, 63.35228649028537 19.993317045222224, 78.62944104093788 0.17811783398049386 M50.041631257045005 39.91648899240409 C64.53030942610172 22.92138838868195, 77.31992291952008 7.0775700409021525, 86.72069082333849 1.6556205522922767 M49.86276251159135 39.74327719898884 C58.55637929621541 28.993057452456334, 67.85277115467406 19.335853808479076, 84.04156694020287 -0.33334228706527824 M57.69731630819789 38.24884965187399 C68.41800825219784 26.768434548602023, 77.55063579522906 14.073370247371297, 89.34752746256629 1.8263871573413866 M55.539193525602435 39.504010986634476 C65.11640289796692 28.540557675966667, 75.28242813862677 17.878828216541113, 89.27526537938604 -0.33663003644541334 M61.14148998355852 40.09568742391529 C72.36323351872753 24.163110515695664, 84.66793950170741 12.593977777624655, 94.95170336498009 3.9009229747159253 M60.837734188906715 39.49972378657075 C70.34529404855537 28.82561104680776, 79.90320580508379 19.214995291422397, 94.27570413613753 2.7421475156722437 M68.40666829032665 40.27698988636371 C74.70744878960963 27.23916582350101, 84.22992139168113 16.24738700696469, 93.5647362678271 7.412216608365469 M65.63266686612582 38.454242287961506 C75.00839923357009 29.1584521948651, 85.34824627690455 19.71889230177008, 94.95034699262644 8.227513397065394 M70.50855299474001 40.49291106294602 C76.78347004471728 32.414600159469444, 82.99531566630532 27.965238104090552, 93.10547898628808 13.784117725680154 M72.19845186841935 39.601442438361644 C76.39864173565142 33.691478147719174, 82.34472052247702 26.089957091115785, 93.47973499645538 13.4959845114523 M78.88200385399837 38.09859478149795 C82.04738287255175 33.30570334353402, 87.83998407964472 26.668372411656804, 95.6630881525628 17.936223279495707 M76.86444968540896 38.74132280193501 C82.85987581680915 33.75078166939254, 88.8080569934272 26.22292459199916, 93.81920519974602 19.86220786049681 M82.30404572144313 40.82093264675348 C84.02543436828248 34.79601818764182, 86.96712189502999 33.73010816252879, 92.53205776982065 24.748756219865847 M82.17141485346644 39.39630454369469 C85.03885905272647 35.320292974314626, 89.96670283229885 30.72625442837897, 94.71061256876271 26.167455952009277 M88.07608864755946 39.66427566607601 C89.2333113585565 38.34974709889009, 89.83441375673235 36.51152061652286, 93.92634945919328 32.18303221352697 M88.13130076468566 39.008381465432485 C88.99086322738438 37.768887270344024, 90.84643167083539 35.84569906766893, 93.88097550619916 32.53694723421075" style="stroke: rgb(76, 110, 245); stroke-width: 0.5; fill: none;"></path><path d="M-0.3173027504235506 -0.5210656952112913 C35.44795777276158 1.3032706148549913, 72.3701530341059 1.7419278390333055, 91.17275871150196 0.2357629109174013 M-0.45504560228437185 0.4937321310862899 C30.896474978141487 -1.3103913945704697, 59.82390135843307 0.07133370809257034, 91.17078138235956 0.7881078785285354 M92.97073663584888 -1.5718509387224913 C93.23078974987381 14.75178154418245, 93.91984382177704 25.975882853381336, 91.09215910546482 38.61217989213765 M91.81553555373102 -0.2832858497276902 C91.44630094037392 14.705607039574534, 91.41942899093964 27.510546643659474, 91.84597317222506 37.97099647577852 M91.10395844094455 36.17790283448994 C56.015606458485124 35.43664958421141, 16.940024175122375 35.83387538138777, 0.4907140862196684 36.259655909612775 M91.62295238021761 36.5343454843387 C70.07897508945317 36.58869840204716, 47.86365018058568 36.3371170014143, 0.40165907982736826 37.48544234689325 M0.029323114082217216 36.45603986270726 C-1.7625698326062411 22.75542036956176, -1.8382977126073092 9.281075366772711, 0.8446809779852629 1.5954883266240358 M0.3535879338160157 37.04315323289484 C-0.7847985724452883 26.551798785012217, 0.28968407711945476 16.142299157381057, 0.41269872430711985 -0.6198789710178971" style="stroke: rgb(0, 0, 0); stroke-width: 1; fill: none;"></path></g><g transform="translate(264.5 134)"><text x="0" y="18" font-family="Virgil" font-size="20px" fill="#000000">Action</text></g><g transform="translate(363 125)"><path d="M-0.8784712366759777 -0.6850655861198902 C20.25688556879759 -1.5284608905762433, 43.935840549319984 0.5736801321059465, 90.26956011727452 1.9364209584891796 M0.039328476414084435 0.4248849842697382 C31.713076948001977 -0.0023161546885966944, 64.65308175198733 0.5185880883038044, 91.04179271124303 0.37596441246569157 M90.76801421120763 -1.1860107965767384 C89.95372682096436 13.74371329303831, 91.7563728618808 25.02992465682328, 93.67534198239446 35.43283216282725 M92.97433598898351 0.1725242231041193 C91.60763396685942 10.268100520037116, 91.1624581403099 18.882241041213277, 92.64009024761617 36.79634268023074 M92.09588469937444 37.45032350346446 C72.79667548835278 36.817845294699076, 50.18779296800494 35.58387334130705, -1.334048729389906 37.133783619850874 M91.82374741695821 37.1115639898926 C55.10743252672255 37.655475190877915, 20.449244086071843 36.210341683626176, 0.8055626954883337 36.31687391735613 M0.40213729813694954 36.569518368691206 C0.23603680400177834 23.2057246575132, 1.30118742255494 8.954033454880118, -1.3483336977660656 -1.4159248657524586 M-0.8861310873180628 36.566284069791436 C-0.09792504331097007 26.729542814381418, -0.5724854828976095 14.324573791027067, 0.226625582203269 -0.5565214660018682" style="stroke: rgb(0, 0, 0); stroke-width: 1; fill: none;"></path></g><g transform="translate(326.5 246.5)"><text x="0" y="18" font-family="Virgil" font-size="20px" fill="#000000">Action</text></g><g transform="translate(399.5 332.5)"><text x="0" y="18" font-family="Virgil" font-size="20px" fill="#000000">Action</text></g><g transform="translate(370 123)"><path d="M-1.9508624970912933 1.916402906179428 C32.61837066411972 0.5367912584543229, 68.82081305384636 -0.34654290139675137, 93.53020992875099 0.7634707391262054 M-0.423733189702034 -0.02480010688304901 C35.355863109230995 0.20053643822669975, 68.66822002828121 -1.0706337010860443, 91.05078034102917 0.21784181892871857 M90.27193203568459 0.4312945306301117 C91.0530832399428 8.819307915866375, 90.19925004139543 18.474014416337013, 93.8539871275425 38.812633603811264 M91.80253891646862 0.35603685677051544 C92.3739578525722 14.695683102309705, 92.74942944452167 29.212773805856706, 92.42748884856701 36.314209178090096 M90.22046509385109 37.07054528594017 C63.932130217552185 38.894497868418696, 31.966457694768906 37.93993568122387, 1.0138544142246246 36.7664290368557 M92.26726011931896 37.91321964561939 C58.463738611340524 37.471520261764525, 25.145126160979274 37.174928979873656, -0.48909182846546173 36.048348143696785 M-1.1589742600917816 36.153491109609604 C-1.87498490229249 23.679707403481004, -0.14489476099610327 10.751913687586782, -1.8876491487026215 1.2879429757595062 M0.5832233875989914 37.77614279091358 C-0.8903985266387462 28.86954946666956, 0.43383405163884164 20.95387716293335, 0.5857062786817551 0.6277782469987869" style="stroke: rgb(0, 0, 0); stroke-width: 1; fill: none;"></path></g><g transform="translate(463.5 126.5)"><text x="0" y="18" font-family="Virgil" font-size="20px" fill="#000000">Action</text></g><g transform="translate(521.5 252.5)"><text x="0" y="18" font-family="Virgil" font-size="20px" fill="#000000">Action</text></g><g><g transform="translate(358 162.5)"><path d="M0.18369074240326877 -1.0641734518110753 C6.589368879546722 10.091851266473531, 32.68079797799388 54.53252907618881, 38.88330762758851 65.742491324991 M-1.0686117020063102 1.0845324533991514 C5.015796587386477 12.003736399393528, 30.259047602533048 55.72015520630404, 36.826058030445125 66.42718761680648" style="stroke: rgb(92, 148, 13); stroke-width: 1; fill: none;"></path></g><g transform="translate(358 162.5)"><path d="M11.860035737409593 48.8701108857359 C20.84115412332321 52.78151085238912, 29.422299111836157 60.554061990107364, 37.82273993300274 65.25930597526953 M13.815871744781138 47.03002271757677 C22.51863539660923 54.04161972073878, 30.969980124033142 60.30943015201678, 37.0557204320468 66.46097533112392" style="stroke: rgb(92, 148, 13); stroke-width: 1; fill: none;"></path></g><g transform="translate(358 162.5)"><path d="M29.517796614493825 38.41432381858725 C32.43653559420453 45.88091840580201, 35.05930637037633 57.18163443737602, 37.82273993300274 65.25930597526953 M31.47363262186537 36.57423565042812 C33.76552355964769 47.3834407999028, 35.87306927391574 57.40763983220812, 37.0557204320468 66.46097533112392" style="stroke: rgb(92, 148, 13); stroke-width: 1; fill: none;"></path></g></g><g><g transform="translate(409 267.5)"><path d="M-0.8005770396441221 0.14571933858096608 C5.831274804348747 8.166080718363323, 32.854029167567695 40.341947659974295, 39.618192641809586 48.377012790367004 M0.5544807597342878 -0.23924686619080604 C6.687357304428394 8.354442062989499, 32.27622164113758 41.32483935188812, 38.61452210360207 49.77646297535859" style="stroke: rgb(92, 148, 13); stroke-width: 1; fill: none;"></path></g><g transform="translate(409 267.5)"><path d="M13.592204506474282 32.96388420067139 C19.560867442625046 38.02923141370874, 26.741516641375462 44.99441056579688, 36.662969535598535 50.38245287670754 M12.575723387266244 34.40377890947617 C20.59529478455752 38.91289389760716, 27.495802782413932 43.52231220714148, 39.15848638434895 49.476258907867596" style="stroke: rgb(92, 148, 13); stroke-width: 1; fill: none;"></path></g><g transform="translate(409 267.5)"><path d="M29.90101676073543 20.508257149370397 C31.238495929062488 29.022004691128615, 33.76150929171029 39.54438801055953, 36.662969535598535 50.38245287670754 M28.884535641527393 21.948151858175184 C32.13037771372015 30.100312838761262, 34.35145691087888 38.28357938726702, 39.15848638434895 49.476258907867596" style="stroke: rgb(92, 148, 13); stroke-width: 1; fill: none;"></path></g></g><g><g transform="translate(367 329.5)"><path d="M0.5431698203086852 -0.6496038794517517 C-4.33175935347875 -8.422418439388276, -24.963908986250562 -38.784008634090426, -30.028865015506746 -46.143163526058196 M1.1648620292544365 0.47501414090394967 C-3.998705497880777 -7.2397548696398735, -24.49416313121716 -37.93184031695127, -29.492404425442217 -45.814020521342755" style="stroke: rgb(230, 119, 0); stroke-width: 1; fill: none;"></path></g><g transform="translate(367 329.5)"><path d="M-9.153663303748719 -31.47815657692572 C-15.07760073843567 -34.85021311925804, -17.881850079083037 -35.584795840860494, -28.97372295886278 -44.54094726532698 M-7.975135382310501 -30.75686083274504 C-15.248668504594104 -35.1477931591868, -22.203054430871344 -41.160754433778905, -30.219550544321535 -45.88432494491339" style="stroke: rgb(230, 119, 0); stroke-width: 1; fill: none;"></path></g><g transform="translate(367 329.5)"><path d="M-24.48247406238488 -21.463873091002995 C-26.844436399662953 -27.259263348558314, -26.045508222626143 -30.347795223839466, -28.97372295886278 -44.54094726532698 M-23.303946140946664 -20.742577346822316 C-25.55399944415292 -28.329550435669482, -27.511851330074677 -37.60673808209492, -30.219550544321535 -45.88432494491339" style="stroke: rgb(230, 119, 0); stroke-width: 1; fill: none;"></path></g></g><g><g transform="translate(300 235.5)"><path d="M-0.052013561502099126 -0.3466272678226232 C-5.788111243024469 -10.651145367448528, -29.38499135710299 -50.98446538510422, -35.24484506584704 -61.11617350243032 M0.46824749330990034 -1.3852504378091544 C-5.366807841556147 -11.394653090092664, -28.94178844173439 -51.52653762733254, -35.22388348569162 -61.83973782028072" style="stroke: rgb(230, 119, 0); stroke-width: 1; fill: none;"></path></g><g transform="translate(300 235.5)"><path d="M-12.54494289703473 -41.63047067875893 C-15.978243987460122 -45.96156618149171, -21.384532966177424 -51.886926494749495, -37.172869175942616 -61.32799192595296 M-12.636259620299484 -43.580019391690506 C-16.457022651915036 -46.5216191150259, -23.316023897299694 -51.879304417557066, -35.43298878640868 -61.56170873328112" style="stroke: rgb(230, 119, 0); stroke-width: 1; fill: none;"></path></g><g transform="translate(300 235.5)"><path d="M-30.167225492018424 -31.114998338993388 C-29.592458102489655 -37.8673026996773, -30.9283801151673 -46.22151018488256, -37.172869175942616 -61.32799192595296 M-30.258542215283178 -33.06454705192496 C-30.171166799210305 -38.380234153670884, -33.07743270215984 -46.096574127397815, -35.43298878640868 -61.56170873328112" style="stroke: rgb(230, 119, 0); stroke-width: 1; fill: none;"></path></g></g><g><g transform="translate(354 137.5)"><path d="M0.7388335961848498 0.23652143888175492 C13.961880133425195 -0.9174127656966446, 67.25103213178615 -6.394633217528462, 80.32637626118958 -8.091496117785573 M-0.6918316234555095 -1.5642958209011704 C12.40076654767928 -3.091310306796804, 65.8393446144058 -6.462784684011712, 79.33642927960493 -7.902244190583005" style="stroke: rgb(230, 119, 0); stroke-width: 1; fill: none;"></path></g><g transform="translate(354 137.5)"><path d="M52.48024344611003 5.1882831546640755 C64.14127482190617 -1.6690313852108796, 71.47162720736529 -4.264223553539285, 80.71330657445826 -8.65834432550706 M52.24488059318646 3.988009680917001 C57.090593344728504 0.9504233713122958, 64.77334063126683 -1.3538489105252554, 79.25950798702426 -6.969958351822569" style="stroke: rgb(230, 119, 0); stroke-width: 1; fill: none;"></path></g><g transform="translate(354 137.5)"><path d="M50.790845446258494 -15.26326780813425 C62.89876048476034 -14.311508848859596, 70.87503970011075 -9.087225984708244, 80.71330657445826 -8.65834432550706 M50.55548259333492 -16.463541281881326 C55.6894451671513 -15.12400822335299, 63.73460102134965 -13.04102700334846, 79.25950798702426 -6.969958351822569" style="stroke: rgb(230, 119, 0); stroke-width: 1; fill: none;"></path></g></g><g><g transform="translate(535 170.5)"><path d="M0.9306860938668249 -0.4515629544854164 C4.493328239023685 10.080759245653947, 17.113034440577028 52.05214776049058, 20.40462403446436 62.606767629086974 M0.400732083208859 0.6383885748311879 C3.6079653035476804 10.696500883412858, 15.95898146379739 51.610905630501605, 19.454895676262677 61.74918887566775" style="stroke: rgb(92, 148, 13); stroke-width: 1; fill: none;"></path></g><g transform="translate(535 170.5)"><path d="M0.331358896338525 37.03962630606791 C6.003608161543497 42.552085386933335, 10.477003867347538 48.51179564788487, 20.985513189025223 62.18714743655175 M1.2895470762189056 37.74125731192132 C6.477419832284156 45.68393649412753, 13.54246391552554 54.29579235904805, 19.93299697075039 62.17677509214729" style="stroke: rgb(92, 148, 13); stroke-width: 1; fill: none;"></path></g><g transform="translate(535 170.5)"><path d="M19.874507326675207 30.779805876082037 C21.234921580021453 37.81513904716656, 21.427111865981935 45.14615226104978, 20.985513189025223 62.18714743655175 M20.832695506555588 31.48143688193545 C19.423015523936442 41.49364874723127, 19.943359740691193 52.201822207978026, 19.93299697075039 62.17677509214729" style="stroke: rgb(92, 148, 13); stroke-width: 1; fill: none;"></path></g></g><g><g transform="translate(500 229.5)"><path d="M0.028653095662593886 0.7135807290673255 C-2.695626927912235 -9.707437251508235, -14.685686828196047 -52.68888385146856, -17.544627191126345 -63.299142859876156 M1.5408983338996767 -1.4765243287011982 C-1.4524469088390468 -11.60473656963557, -13.222788592465221 -51.468146888725464, -16.465870735533535 -61.82627493929118" style="stroke: rgb(230, 119, 0); stroke-width: 1; fill: none;"></path></g><g transform="translate(500 229.5)"><path d="M2.7180548820991817 -37.063289500226624 C-2.415688639185242 -41.16250837661046, -5.430909909323653 -45.790766060245964, -17.621063624806702 -60.14223304431886 M1.5737839814622703 -38.16393414457644 C-2.3351782830191965 -43.60563807837069, -7.232160422231923 -47.49517243521872, -16.161562958098948 -62.585550394319" style="stroke: rgb(230, 119, 0); stroke-width: 1; fill: none;"></path></g><g transform="translate(500 229.5)"><path d="M-16.92138104438265 -31.11244427660887 C-18.087179005361662 -36.40704378171911, -17.17278981100412 -42.22599267211133, -17.621063624806702 -60.14223304431886 M-18.06565194501956 -32.21308892095868 C-17.717266575163308 -39.085869485417646, -18.307013835197537 -44.280517095197624, -16.161562958098948 -62.585550394319" style="stroke: rgb(230, 119, 0); stroke-width: 1; fill: none;"></path></g></g><g transform="translate(63 112.5)"><path d="M0 0 C0 0, 0 0, 0 0 M0 0 C0 0, 0 0, 0 0 M-0.8236610792251179 5.836183011581294 C0.9878480718643601 4.456475469578497, 2.940198134060803 2.556223377648279, 5.735584382297939 0.13307234308097893 M-0.19240564700680468 6.7671516217786 C1.9835482190536837 4.339764799043626, 3.6728701987256787 1.4046761330128157, 5.236782646509355 0.07448409235451758 M-1.410408045994152 11.97339040976721 C3.7169589885959504 7.528750610958613, 4.1370283544153015 4.220600646054033, 9.05839720810665 -1.6097565864131091 M-0.09905575280081169 11.459935145496905 C2.3681027986875693 9.33651393182302, 4.3614750542423115 5.806086199483344, 11.212410739016665 0.3773939709260823 M1.1207654261449118 16.628202321846658 C6.309225994972704 12.424006297134044, 11.906883303370948 4.102331345871555, 15.501689109488805 1.0729694708180597 M0.11685070297212796 18.660600048397356 C4.4491501095525505 12.71173587540267, 8.121168872991749 7.173291969791199, 15.4329273342187 -0.1266845923918316 M-0.588649268988588 23.271493838816045 C6.150906963480322 21.144591154339253, 8.242698702556806 15.729127229684492, 21.815691423991705 1.798145260601208 M0.6636286324075673 23.9780721326313 C6.225276169359964 17.81233394368372, 10.182061526276085 12.631700379569267, 19.644164982641126 2.0452948267896627 M0.5242588813368929 30.2608585064202 C5.888927543720111 25.255471595393562, 8.88716630792438 18.6500096818899, 19.24063799594805 7.194160471418253 M1.556966086379136 30.070353100532238 C8.651133960586145 21.518777528082325, 14.889381368633531 13.071196115598415, 19.943159251187893 6.59767215394353 M7.277664257482918 30.651026909439445 C9.198704710590182 24.269775557558003, 13.835199142183875 17.333498737438237, 18.810119868747865 12.833780678717837 M5.698960785092147 29.055711134536743 C11.2052306349889 24.63929724222479, 14.279840643893362 18.845019812437236, 21.07828389809278 13.379641187174663 M12.610901891294695 29.504203077031598 C13.057251246078842 28.16787921523125, 15.021492260474465 25.867232250812947, 19.305819089340904 18.530898231618934 M10.7898194000533 30.031268363630694 C14.527515136607345 26.736218823539996, 15.921686167786785 24.056497419369585, 20.757737368906774 18.67817115576648 M16.98992251273082 28.96787687849567 C17.594519636245344 28.390537930215967, 18.083029176998593 27.462394737265893, 20.278096289036736 25.50374303630553 M17.059565128701045 29.18659237718523 C17.76516868088343 28.411296352816606, 18.414115186822954 27.741318004175525, 20.263293175155237 25.442632862487805" style="stroke: rgb(18, 184, 134); stroke-width: 0.5; fill: none;"></path><path d="M0.25121978018432856 0.8300092777237298 C4.315855929255486 1.1874596328102054, 13.725079213641585 0.6791580230556431, 20.82205289695412 1.3153888722881675 M-0.7286842037923633 0.3847987388260663 C6.8561760951764885 0.3605276671797036, 13.297794034983962 0.5725435671955346, 19.844795254897328 -0.5882508511655032 M17.55895021185279 -0.9143236540257931 C19.45089600270614 8.929724340327084, 19.51163659280166 17.770510768517852, 19.36531748995185 27.240557465702295 M19.034174220636487 -0.3761956561356783 C19.77354517536238 11.414858177490533, 19.892523139286787 22.126823800057174, 19.23040254600346 28.761298133060336 M19.668316788412632 27.319693466089667 C14.941157798841594 27.447713893521577, 8.48623487036675 29.127147650588306, -1.802590130828321 28.57179478611797 M18.9750653992407 28.0818867479451 C14.249089357350021 28.9729349726066, 10.59680821215734 28.162112852297724, 0.4144801835529506 29.37294028447941 M1.8888612054288387 30.21924725547433 C-1.8650071725808084 21.163311746530233, 0.2648023262061179 13.41197599954903, 0.8789977096021175 -1.9015597961843014 M-0.6989708971232176 28.975824965164065 C-1.1678294199891388 18.272717868350448, -0.403271164316684 6.944013771414756, 0.3832170534878969 0.27038891427218914" style="stroke: rgb(92, 148, 13); stroke-width: 1; fill: none;"></path></g><g stroke-opacity="0.5" fill-opacity="0.5" transform="translate(343 10)"><text x="0" y="18" font-family="Virgil" font-size="20px" fill="#000000">Planned</text></g><g><g stroke-opacity="0.6" fill-opacity="0.6" transform="translate(343 42.5)"><path d="M0.3688851233571768 0.8537895742803812 C-5.026190925017 13.171191837762793, -26.814787137880923 60.77673401671152, -32.523459911718966 73.06660141386092 M-1.1155050953943282 -0.626459779618308 C-6.6700492536742235 11.56580922486571, -28.533804070027543 61.79040236703741, -33.92002195534296 74.06019363981672" style="stroke: rgb(0, 0, 0); stroke-width: 1; fill: none;"></path></g><g stroke-opacity="0.6" fill-opacity="0.6" transform="translate(343 42.5)"><path d="M-30.605489554740487 44.91411918195754 C-34.336519876938254 51.25412562642453, -32.33587940728159 60.67856738137739, -32.92922456418164 72.84106238801964 M-32.26498169071972 43.56922332829654 C-31.705123667334114 52.74556225372713, -32.896181184055074 59.57316021533306, -34.361857518041504 74.2157466184441" style="stroke: rgb(0, 0, 0); stroke-width: 1; fill: none;"></path></g><g stroke-opacity="0.6" fill-opacity="0.6" transform="translate(343 42.5)"><path d="M-11.80276916318384 53.13468535849181 C-20.877481157037778 57.17113701488891, -24.277916445392318 64.23422361651279, -32.92922456418164 72.84106238801964 M-13.462261299163075 51.78978950483081 C-17.858221676878593 58.78755609058919, -24.046426017475333 63.43039699023426, -34.361857518041504 74.2157466184441" style="stroke: rgb(0, 0, 0); stroke-width: 1; fill: none;"></path></g></g><g><g stroke-opacity="0.4" fill-opacity="0.4" transform="translate(416 38.5)"><path d="M-0.3482895568013191 -0.28519635647535324 C9.905442695319651 10.891012441615265, 51.978450612723826 56.12286012520393, 62.686676578223704 67.36510743647814 M-0.5427586576715111 -1.223164461515844 C10.066147901080548 9.991999725836017, 52.40445717360824 56.09556057685365, 62.74827816870064 67.335481348373" style="stroke: rgb(0, 0, 0); stroke-width: 1; fill: none;"></path></g><g stroke-opacity="0.4" fill-opacity="0.4" transform="translate(416 38.5)"><path d="M35.63795744714785 53.00830830226955 C47.331933821309086 60.590494493849334, 57.57862130369105 63.5803679158207, 62.79690792199224 66.74230248752981 M35.30463296634603 53.10229551757988 C41.76990425980535 56.1858403242847, 49.41597270193831 58.95285297764708, 62.78023466628045 67.90757602352649" style="stroke: rgb(0, 0, 0); stroke-width: 1; fill: none;"></path></g><g stroke-opacity="0.4" fill-opacity="0.4" transform="translate(416 38.5)"><path d="M50.74302413508205 39.11741334410001 C56.47556919533855 52.17077136197958, 60.725188892342096 60.67565775176903, 62.79690792199224 66.74230248752981 M50.40969965428023 39.21140055941034 C53.333960045718975 45.56144323949447, 57.45812491652675 51.56726268350539, 62.78023466628045 67.90757602352649" style="stroke: rgb(0, 0, 0); stroke-width: 1; fill: none;"></path></g></g><g stroke-opacity="0.6" fill-opacity="0.6" transform="translate(380.5 440)"><text x="0" y="18" font-family="Virgil" font-size="20px" fill="#000000">Dynamic</text></g><g><g stroke-opacity="0.6" fill-opacity="0.6" transform="translate(569 373.5)"><path d="M0.731995629519224 -1.0389674775302409 C-3.2879627314706648 -11.915677487105132, -20.596902339408796 -54.406158935278654, -25.19910786226392 -65.33561934158206 M-0.894807250443846 -1.580786174889654 C-4.950451194190731 -12.986261447425932, -20.82923416648681 -55.995783818122, -24.789448098484428 -67.00916194176301" style="stroke: rgb(0, 0, 0); stroke-width: 1; fill: none;"></path></g><g stroke-opacity="0.6" fill-opacity="0.6" transform="translate(569 373.5)"><path d="M-7.220348237029292 -42.7073544525299 C-8.421194210707352 -50.21746685876989, -14.608894498234857 -54.0709408064113, -23.233503078315408 -67.98709336301312 M-4.754359185642578 -44.94985496445929 C-10.398557740038846 -48.80727870288558, -12.906535823545006 -53.751636684605295, -25.3050848014839 -67.30845242930576" style="stroke: rgb(0, 0, 0); stroke-width: 1; fill: none;"></path></g><g stroke-opacity="0.6" fill-opacity="0.6" transform="translate(569 373.5)"><path d="M-26.498751979338806 -35.67435000675097 C-23.645684599830748 -44.77936735101724, -25.783888219008276 -50.110148675989294, -23.233503078315408 -67.98709336301312 M-24.032762927952092 -37.91685051868036 C-25.60526635967214 -43.17034065470411, -23.99502573085615 -49.617076680768164, -25.3050848014839 -67.30845242930576" style="stroke: rgb(0, 0, 0); stroke-width: 1; fill: none;"></path></g></g><g><g stroke-opacity="0.6" fill-opacity="0.6" transform="translate(122 385.5)"><path d="M0.9614847667515278 0.6311758629977702 C-13.236400500188271 -7.021877921372652, -71.28402522330484 -37.24822081401944, -85.5099172346294 -44.81483279541135 M-0.11243525510653862 0.4178007522784175 C-14.236707922077427 -7.231439932826907, -69.87610938276474 -38.842682103756815, -83.93988676851615 -46.394203043226156" style="stroke: rgb(0, 0, 0); stroke-width: 1; fill: none;"></path></g><g stroke-opacity="0.6" fill-opacity="0.6" transform="translate(122 385.5)"><path d="M-53.25744429005954 -42.54997364865818 C-62.13652250164282 -41.7345123519801, -70.15185931113128 -43.14616566866607, -84.4849784981273 -46.51708310345188 M-54.033502187195154 -41.640726281946684 C-63.31397400816443 -43.99951488944681, -73.43264960495131 -45.68699464656199, -84.53278416318818 -46.144341257084164" style="stroke: rgb(0, 0, 0); stroke-width: 1; fill: none;"></path></g><g stroke-opacity="0.6" fill-opacity="0.6" transform="translate(122 385.5)"><path d="M-63.20696419664435 -24.602075275469414 C-69.53371173999588 -28.76819499634244, -74.83167350812691 -35.08171006535725, -84.4849784981273 -46.51708310345188 M-63.983022093779965 -23.692827908757916 C-70.15545562323796 -31.769946703017673, -77.06212131899038 -39.25155801810779, -84.53278416318818 -46.144341257084164" style="stroke: rgb(0, 0, 0); stroke-width: 1; fill: none;"></path></g></g><g><g stroke-opacity="0.6" fill-opacity="0.6" transform="translate(312 301.5)"><path d="M-0.04849440157413487 -0.8732583850622178 C8.008245055874188 21.49709210296472, 39.65608711342016 112.4810519049565, 47.5444946616888 134.90181438028813 M-1.741789493635297 -0.4006472694128751 C6.083621540789802 21.985395464574296, 38.93684587630133 111.44729494142035, 46.7956581711024 133.91557728417217" style="stroke: rgb(0, 0, 0); stroke-width: 1; fill: none;"></path></g><g stroke-opacity="0.6" fill-opacity="0.6" transform="translate(312 301.5)"><path d="M26.147700611419417 111.76559865361845 C33.721505193242464 116.72365516108086, 36.12208842525703 121.47023549153998, 46.35775749377906 132.01198220916092 M26.734871294266917 111.08163038528359 C32.58569840197727 117.72319176813352, 38.595519363509595 124.3399613280699, 46.477108724340795 133.21523265458643" style="stroke: rgb(0, 0, 0); stroke-width: 1; fill: none;"></path></g><g stroke-opacity="0.6" fill-opacity="0.6" transform="translate(312 301.5)"><path d="M45.45895478978526 104.82330332394635 C48.55959275476982 111.39577228222615, 46.447686389615704 117.76456912779456, 46.35775749377906 132.01198220916092 M46.04612547263276 104.13933505561148 C46.51861136088029 112.70268653902049, 47.157843022755344 121.2501549892634, 46.477108724340795 133.21523265458643" style="stroke: rgb(0, 0, 0); stroke-width: 1; fill: none;"></path></g></g><g><g stroke-opacity="0.6" fill-opacity="0.6" transform="translate(366 449.5)"><path d="M-0.14262670017778878 0.8665557179600001 C-16.848510326320927 -7.641961837435763, -89.10468851067125 -25.585765278960267, -100.08893835283816 -51.543229850754145 C-111.07318819500506 -77.50069442254802, -71.77578069108228 -137.67640589935084, -66.04812575317919 -154.87823171280326 M-0.4460149313975126 -1.4667534893285483 C-16.97678909510064 -10.406409602814044, -88.31409598668107 -26.47403974806579, -98.95768337835558 -52.35435660208575 C-109.6012707700301 -78.23467345610571, -70.01267888396667 -139.86907462224676, -64.30753928144462 -156.7486546134483" style="stroke: rgb(0, 0, 0); stroke-width: 1; fill: none;"></path></g><g stroke-opacity="0.6" fill-opacity="0.6" transform="translate(366 449.5)"><path d="M-65.77656626938975 -127.03867424263582 C-65.42757340351432 -136.28883304333675, -65.07639067392894 -145.068613734226, -63.89784716722555 -156.5006091447454 M-66.65125387492722 -127.08408114205078 C-65.14488549887396 -138.87439019874682, -64.29568797408537 -148.22295863038244, -63.445283010611305 -156.77620521857403" style="stroke: rgb(0, 0, 0); stroke-width: 1; fill: none;"></path></g><g stroke-opacity="0.6" fill-opacity="0.6" transform="translate(366 449.5)"><path d="M-84.28747475151792 -135.89679309214984 C-78.19576018852881 -142.35947295404284, -72.0655282828917 -148.37377595440836, -63.89784716722555 -156.5006091447454 M-85.1621623570554 -135.9421999915648 C-76.82573739037704 -144.3053903960405, -69.12489391282685 -150.37520596565687, -63.445283010611305 -156.77620521857403" style="stroke: rgb(0, 0, 0); stroke-width: 1; fill: none;"></path></g></g><g><g stroke-opacity="0.6" fill-opacity="0.6" transform="translate(421 434.5)"><path d="M-0.05737157799303527 0.21655869819223872 C0.10411870740354068 -8.919208257024486, 1.6782823707908392 -45.79834622206787, 2.1049204375594854 -55.18555856607854 M1.6360852385591715 -0.009449510229751379 C2.5811296294163912 -8.974991774711137, 4.2700071472954 -45.69165957038912, 4.362691699666902 -55.028965378953146" style="stroke: rgb(0, 0, 0); stroke-width: 1; fill: none;"></path></g><g stroke-opacity="0.6" fill-opacity="0.6" transform="translate(421 434.5)"><path d="M13.478607913187423 -29.882441940165837 C11.102141127083957 -39.73727782819487, 6.111594549475357 -50.850293329846956, 3.0121870088856664 -53.24089407998137 M12.676251914991715 -28.408830845176954 C10.335910936390754 -36.577124043637596, 7.137911761076401 -43.83074947828506, 3.6400624328758564 -55.06630264951848" style="stroke: rgb(0, 0, 0); stroke-width: 1; fill: none;"></path></g><g stroke-opacity="0.6" fill-opacity="0.6" transform="translate(421 434.5)"><path d="M-5.692453270151164 -30.487029651003052 C-0.5046441971662592 -40.094090377430476, 2.070954050509827 -50.96849633441337, 3.0121870088856664 -53.24089407998137 M-6.494809268346872 -29.01341855601417 C-3.0892291855658915 -37.10237311722809, -0.5458093030790581 -44.17493442757292, 3.6400624328758564 -55.06630264951848" style="stroke: rgb(0, 0, 0); stroke-width: 1; fill: none;"></path></g></g><g><g stroke-opacity="0.6" fill-opacity="0.6" transform="translate(469 433.5)"><path d="M-1.0784304309636354 -0.9153330456465483 C8.007283007229368 -22.94195803118249, 45.473230400805676 -110.99532270940642, 54.9585535954684 -133.05939314477146 M1.1019291717465967 0.4430493799690156 C10.471478110120323 -22.110146381969876, 47.08924503650827 -113.01284270943763, 56.0566204843577 -135.63259956947527" style="stroke: rgb(0, 0, 0); stroke-width: 1; fill: none;"></path></g><g stroke-opacity="0.6" fill-opacity="0.6" transform="translate(469 433.5)"><path d="M53.579213014194025 -105.71678109563695 C57.21803966250105 -114.35556026659354, 57.13823138283551 -126.02593252324895, 55.71407950310968 -134.42830539270304 M55.05350134647007 -106.34469379860715 C54.83383224094722 -115.03209233941948, 56.17356959727143 -124.74131978499369, 56.91562863360159 -136.45022741760127" style="stroke: rgb(0, 0, 0); stroke-width: 1; fill: none;"></path></g><g stroke-opacity="0.6" fill-opacity="0.6" transform="translate(469 433.5)"><path d="M34.5279846636744 -113.34375301915921 C44.530329014163605 -119.24085728968637, 50.87121805058243 -128.34076651591602, 55.71407950310968 -134.42830539270304 M36.00227299595045 -113.97166572212942 C42.00324651499044 -120.01635913932435, 49.519589256708024 -127.25284335856551, 56.91562863360159 -136.45022741760127" style="stroke: rgb(0, 0, 0); stroke-width: 1; fill: none;"></path></g></g><g stroke-opacity="0.6" fill-opacity="0.6" transform="translate(10 142.5)"><path d="M12.08351083768445 -0.09606822933275438 C12.08351083768445 -0.09606822933275438, 12.08351083768445 -0.09606822933275438, 12.08351083768445 -0.09606822933275438 M12.08351083768445 -0.09606822933275438 C12.08351083768445 -0.09606822933275438, 12.08351083768445 -0.09606822933275438, 12.08351083768445 -0.09606822933275438 M2.541398745602966 15.892742907573481 C5.4897210768634475 12.262596113149105, 9.08841253381283 8.361228057665516, 14.784653390733364 4.015856358060814 M2.4266461353889115 17.069495264944635 C5.690070207650218 14.094088929957806, 9.49743286443283 9.419026672398315, 13.944284867843454 3.5868879391124615 M4.918214776376074 20.439110719561047 C5.161340901927813 18.907668423128793, 9.056814700637233 16.235371935089205, 15.934779892087526 6.6319495881392 M4.141427767844682 20.65342190075613 C6.533836394676373 17.082864707626143, 9.70752615626057 15.426135897349134, 16.908083262079007 5.758922446933234 M5.45574667323805 24.10105050725662 C11.949811722547135 18.10815972501329, 15.734999029709279 15.422847548192973, 20.31963348999931 10.759720750956845 M6.372924831513832 25.307928637580805 C10.491587853460754 21.059422009903233, 12.637902922441368 16.948613264358205, 18.948173503543572 10.714714546001565 M10.028652319348648 26.909142294281715 C11.862127955650086 23.45229653135009, 17.538696523990627 18.853894585932444, 21.037799646666365 14.218015589827175 M9.528714780918554 27.024224735179537 C14.065538468760186 22.95766960164532, 18.165268798335315 17.635162223434286, 21.777023039346652 14.070403659978385 M12.501484792897484 29.065219333354396 C13.424372421534962 25.986974913369995, 18.03761996069694 23.890986335643216, 23.12172297104528 17.34055304760103 M11.5553530944828 29.742005158174795 C15.202791289604383 27.005463708668124, 19.15977742218779 21.460491624709658, 23.273183066167736 16.870804703701182" style="stroke: rgb(18, 184, 134); stroke-width: 0.5; fill: none;"></path><path d="M13.831813088258933 0.7639647795348834 C16.750435805965264 5.9082357319636545, 17.10178627869512 10.209833378990202, 22.89283005880688 15.352128962429207 M11.09923035583155 0.23137288395515232 C14.982466904881635 3.6743583026049746, 17.274601427577153 8.282191710404748, 22.866973537626357 15.712163101862007 M24.25412097301692 14.614019756747375 C21.089288420163495 22.30068017228336, 14.801532222584989 27.36090012565327, 13.426979802521215 29.240227109171848 M22.498842181227253 15.309276699319073 C19.397978446067164 21.745220377435075, 14.596270917560169 27.128147346576057, 11.414582291146255 31.05527709283613 M12.298880808338833 32.03659238757741 C8.154157202720668 24.409913187023285, 2.2222440371147787 17.721441135523808, 0.763242437023703 14.89881538256105 M12.072820008095594 30.779404431796223 C7.126406432766421 26.770028180167277, 2.7112129736425405 19.998149547298972, 0.7331773455934487 15.855364002526942 M0.12201643735170364 17.85544740408659 C4.8637749743461605 10.407277385145427, 11.086636092960834 2.410085151344539, 13.96291995793581 0.10928951948881149 M-0.21238381043076515 16.02108669653535 C3.2347381342947483 12.619711625277994, 6.320099261850119 6.451477628648279, 11.127675827592611 0.039873722940683365" style="stroke: rgb(0, 0, 0); stroke-width: 1; fill: none;"></path></g><g stroke-opacity="0.6" fill-opacity="0.6" transform="translate(72 112.5)"><path d="M1.6464507300406694 -0.17681020684540272 L17.19450536556542 -0.03149879164993763 L15.521828265860677 19.172221360728145 L-0.7026962917298079 21.147301910445094" style="stroke: none; stroke-width: 0; fill: rgb(92, 148, 13);"></path><path d="M-0.24023714214563374 0.3129114881157875 C4.596194386482239 0.7120384539663791, 7.675690795481205 -1.3898391877114773, 15.04854626506567 -1.2232390150427819 M0.27768098190426826 0.7386775009334088 C4.931152426451445 0.4730546087026596, 8.133562622219324 0.7860406249761581, 16.62254442051053 -0.3582775361835957 M15.94467836432159 1.569324167445302 C16.84455268654041 6.331172721926123, 14.959466686574743 13.605626943521202, 15.064872024580836 21.437498541548848 M15.600110218860209 0.9203746011480689 C15.414538459265604 4.616405892465264, 16.519337223256006 9.074246532842517, 16.91105802450329 20.681900798343122 M14.698217581212521 21.06086270958185 C13.050355312228202 19.576972665041687, 8.910694642364978 21.262823905199767, 1.142906139791012 22.222273851931096 M16.479230750352144 21.147550248354673 C13.2169317625463 21.456386336386203, 8.246784416586161 20.66889170080423, 0.6554433710873127 21.506965755671263 M-1.6007934231311083 21.100672038272023 C-0.6275668059568852 16.753610126581044, -1.477843693373725 11.40999860856682, 1.393358824774623 -1.176169304177165 M-0.9530806681141257 20.843069463036954 C0.8576608472969383 14.363853279780596, 0.39717297493480147 6.665672519803046, -0.7540083965286613 -0.7393088350072503" style="stroke: rgb(0, 0, 0); stroke-width: 1; fill: none;"></path></g><g stroke-opacity="0.6" fill-opacity="0.6" transform="translate(70 160)"><path d="M-1.523327860981226 -0.5591774247586727 L15.946529474109411 -1.075755264610052 L16.217622008174658 21.83195659890771 L-0.6230141259729862 19.48512515798211" style="stroke: none; stroke-width: 0; fill: rgb(230, 119, 0);"></path><path d="M1.5658129483461383 -0.6431703835725785 C4.060629796981812 -1.274458785355091, 7.752983877062798 -0.23797416239976873, 15.625788095593453 0.4171623915433882 M0.1029561385512352 0.19576400667428973 C4.17016836553812 0.020575534105300886, 8.03380240648985 0.1818093883991242, 16.461578641831874 -0.7373801335692406 M14.414245579391718 -1.9516371823847294 C16.72294411936775 5.711728617362678, 16.53971360007301 10.040709498897195, 14.060721013695002 22.06405207142234 M15.058735711500049 0.23152981884777546 C16.206899320464583 5.274260993115604, 15.673275207858534 9.805137995630503, 15.395912690088153 21.101463245227933 M16.966758421063425 21.7957431524992 C10.146017652750015 21.56513177782297, 7.91597817838192 22.29798480898142, 0.2080384999513627 21.62643115222454 M16.125736270844936 21.615529955923556 C12.9883533552289 20.664902388453484, 9.961747722327708 21.496262585520746, -0.13388158231973646 20.80213984400034 M-1.0149848721921444 22.66523441299796 C-1.603676976058632 14.548806615360082, 0.15037125220522288 11.24325757138431, -0.03323569521307945 -0.32024363055825233 M0.3192016910761595 21.184829937294126 C-0.2724115617386996 12.37403928283602, -0.8649460442177951 4.246340745687483, 0.2804288100451231 0.5790896881371737" style="stroke: rgb(0, 0, 0); stroke-width: 1; fill: none;"></path></g><g transform="translate(93.5 157)"><text x="0" y="18" font-family="Virgil" font-size="20px" fill="#000000">Finish</text></g><g transform="translate(90.5 112)"><text x="0" y="18" font-family="Virgil" font-size="20px" fill="#000000">Interrupt</text></g></svg>