<svg version="1.1" xmlns="http://www.w3.org/2000/svg" viewBox="0 0 684.5 484.5">
  <defs>
    <style>
      @font-face {
        font-family: "Virgil";
        src: url("https://excalidraw.com/FG_Virgil.ttf");
      }
      @font-face {
        font-family: "Cascadia";
        src: url("https://excalidraw.com/Cascadia.ttf");
      }
    </style>
  </defs>
  <g transform="translate(279.5 65.5)"><path d="M-0.8260499016094579 -0.46110459014853084 C112.30896588320309 -1.030842209053061, 226.71194812989154 0.5040991205470347, 394.3628913702371 -1.0520432861626967 M0.34497004580600926 0.40510510187600174 C146.55292345188008 -0.27130998736921413, 293.5132485723897 -0.8539264722051964, 395.47742346389316 -0.5076064145215935 M395.8868720030325 0.6322759817858635 C397.9893351328196 156.22648178974637, 397.9272153618965 311.962425767525, 395.47470293381804 409.38960633158194 M394.9456170259779 -0.5468366187449425 C394.9709078864561 81.32211118223698, 394.46890354781635 163.23687398410087, 395.1963042585939 409.1981881856676 M394.4013683881583 409.3399447885331 C307.785784801226 408.1514945926191, 219.39716158583764 406.7884978898553, -1.0207765624835863 408.1381523548023 M395.41985265741096 408.79062588340236 C242.244324794169 408.64177215874275, 90.1990748350599 408.23633648562094, -0.5190045885262898 408.91365924745975 M-0.6827428069753586 410.083538892459 C-1.2490810945650903 323.10718639858544, -1.4649931503147928 239.19123135382682, -0.9335695931697784 0.22147690161790248 M0.3061668227756947 409.1685646055602 C2.722900721322578 261.9595354508676, 2.2964963158188283 114.87278081053338, -0.3034112139503985 0.4603570003109007" style="stroke: rgb(0, 0, 0); stroke-width: 1; fill: none;"></path></g><g transform="translate(64.5 83.5)"><path d="M4.2080463440985305 24.85820677262189 C4.2080463440985305 24.85820677262189, 4.2080463440985305 24.85820677262189, 4.2080463440985305 24.85820677262189 M4.2080463440985305 24.85820677262189 C4.2080463440985305 24.85820677262189, 4.2080463440985305 24.85820677262189, 4.2080463440985305 24.85820677262189 M1.6457415865212948 33.78558801112197 C12.2986676705134 22.99958413945256, 18.737016502373336 13.300455094082384, 24.81467517456213 6.455484976228085 M2.122310853511122 32.260674877068624 C10.806989324966441 22.640403538259342, 18.629663496444643 13.612010158731156, 25.87559580234984 6.155108916740623 M3.174948836992595 38.70901177943352 C13.329795670699816 27.856542631532275, 22.848555990740067 15.509962647751998, 33.33766426870213 0.7606187994536739 M1.8616471861853334 40.325025662115245 C9.354033198310171 31.990923700872184, 16.70618307172383 22.834589694512502, 34.635113591119506 1.936861208727656 M0.9421207175908464 46.42309640589935 C15.040311481525201 28.095873834552936, 31.16734428201454 10.304176056416495, 39.00944751885753 3.549241489803233 M1.3215702955929416 46.833676145037835 C15.131605791507688 30.502911595528968, 30.419184490840884 13.78398343317999, 39.78221223329227 1.6747719692790888 M4.389974789590578 52.826850249315896 C16.926184325038612 32.33298862282136, 33.95075094360904 11.165853452971497, 45.94775985226487 2.9632418351820924 M1.6575052625397255 51.79030997760157 C13.95820420668321 36.80565763634717, 26.410526985451376 22.064700847450347, 45.789912300635926 1.5040771542690017 M4.732287632342267 55.64992706026174 C19.571559909471816 36.81894371563903, 36.517043417972985 17.64711494103875, 49.51033618524617 1.6048635955005146 M3.2353893109074114 54.871053078353775 C18.67139525138153 37.678442558646296, 33.14583253925293 21.19185459074584, 49.623187479003725 3.049664566576407 M3.951603191158405 58.27111101842438 C20.112493272174717 41.01143603146457, 39.46598188543659 23.87418767945293, 53.29261977109492 4.355190540000468 M5.941880155539742 58.93045866995071 C17.19101859800932 47.68204531912365, 28.231563084274015 34.599408494238546, 55.04917291622043 2.932058893412023 M9.299996661351503 61.612155053491314 C24.381437024970907 41.5309631107056, 43.94416081188251 19.21417207693961, 58.31640802613313 3.7774039285922143 M6.997619886280479 63.58284560004862 C26.67878040028503 41.208449712139696, 46.55765956595337 18.792441431224425, 59.138311048139286 3.858179187654862 M10.424074488234048 69.01278084515005 C26.588324368131243 46.694835005729516, 47.27175828045657 24.074504691417317, 60.81091155870177 8.237072931631573 M9.394734967973356 67.76479834130376 C24.068112195776397 50.90273504604182, 39.77213296170005 32.60656289047439, 63.35791062763251 6.429129287629493 M12.489974367118545 71.10567882308808 C31.197379213155074 50.36032396757332, 50.68460960902412 27.795946834638315, 66.58622640108486 8.739477988137736 M10.334336240462132 72.29766699137238 C29.322963025069782 49.92360536694717, 48.317087087152544 29.943394365901547, 65.25811895651539 9.665021175323858 M12.652306214326991 75.44621774721568 C27.71659614501151 58.508269147182155, 40.41101221674325 42.40934385308603, 70.25380274859491 10.596997027798189 M13.007959889600052 77.2047768531335 C25.59705386067734 61.30321071805312, 38.209035130975074 46.74614978245743, 69.00489062463167 12.359861198394192 M13.77156537012442 78.10447764610649 C33.65079769127239 61.98947962804732, 47.39180344770588 44.69525106036556, 69.6635630175539 16.79468631052321 M15.6274806501834 78.9909613731295 C26.819871833820333 65.75713936874322, 39.069999858191636 52.37327699536212, 71.12960556783459 16.134630909719526 M19.698247163861303 79.86089352033909 C41.532719265783065 55.997715901950855, 57.87303777886133 34.567140137169424, 73.65313796125535 17.846442105554758 M20.021726371093898 80.52570584490772 C37.714149852531456 59.319814940692105, 58.608984792430164 36.41409315400172, 73.59080518394892 16.980948746510563 M24.270555261859627 82.02474037982375 C41.21773404160818 61.2178148371152, 63.0922237837228 36.91950936639194, 75.23651249602125 21.198258172803108 M21.94668636318478 82.54913244634719 C43.1930148607765 58.59401969321552, 65.40253130996572 32.151299055966305, 76.27533815882788 20.351827511646334 M24.43940166741292 83.30913324380245 C43.88282405118068 66.57709256632938, 57.16468480490455 48.403672298409674, 79.35326181716411 25.084387441955748 M25.52301139928083 84.23450023965862 C38.62096960759965 69.04909636743336, 52.73747800230568 55.430712247165374, 80.06009658231525 22.705336052783075 M29.457052546843155 85.23428462218546 C42.21698088911435 73.4740964390901, 56.31997151564471 54.152473892941714, 82.02537431201542 25.666470753145727 M29.737159540235265 86.27896265272103 C48.45306375232405 66.83891006989595, 66.2135228660498 45.76213246455929, 81.28133886127377 26.331228003022584 M31.970305316472334 90.73837577488302 C44.30732515616027 74.08931830315919, 57.64629565903212 60.11099429628197, 82.76254670487815 30.134988955837777 M32.84707322190134 89.20193873841345 C44.985891019486566 75.31991719369778, 56.2093884438255 63.495281699666, 83.45248486453765 32.13989387979834 M37.73790184555601 87.76958965024602 C49.24684391841673 76.29859788052609, 58.3994500926859 64.48928144381286, 84.37506599904586 35.09368206927386 M39.41209245806586 88.62464611305546 C53.20992542683596 72.00342938881965, 66.78572030800706 56.27853585410678, 84.38949786493171 35.73428024532107 M46.29040690546364 88.50059290929859 C56.584239657379484 71.40159036421745, 72.9288870755091 57.49187425161632, 87.47457336084051 38.453387603364234 M44.265333289629524 88.17208298063998 C58.867160639263716 73.00753497666844, 70.86373699199484 57.95000676504263, 86.02414842330916 40.99122802746976 M48.52032972049821 87.86405390150546 C63.28618816399833 72.93374487761567, 75.59836465697842 56.884280966231394, 84.91118217759362 46.797621398241944 M49.416309335426575 87.69604610860048 C61.571518122550536 75.28314879663007, 72.66215739965503 61.23437360363944, 86.15363244653275 45.11455335934622 M55.87076979395326 84.95590014610858 C68.57839510012514 75.36325282070982, 78.10490960797519 63.132790977537, 82.24241902865562 57.01228720448559 M56.5520776182818 86.36588830914766 C66.05899194235096 76.94234586779528, 72.80772483967408 67.43477911118407, 82.22201215848419 55.95225715949779" style="stroke: rgb(250, 82, 82); stroke-width: 0.5; fill: none;"></path><path d="M34.7087115646894 1.396433523345756 C41.90122079135814 -0.7793577731415309, 51.36856875306469 0.23594843188113002, 58.51398114450357 3.46990244913264 C65.65939353594244 6.703856466384149, 73.08830475287301 13.900632091629028, 77.58118591332267 20.800157626854816 C82.07406707377233 27.699683162080603, 85.65876790492737 36.703745767628625, 85.4712681072015 44.86705566048736 C85.28376830947562 53.030365553346094, 81.20150422925836 62.98884345807735, 76.45618712696736 69.78001698400723 C71.71087002467637 76.57119050993713, 64.4961815844841 82.62915309582296, 56.99936549345551 85.61409681606668 C49.502549402426915 88.5990405363104, 39.231310869928606 89.49721143655948, 31.4752905807958 87.68967930546953 C23.719270291662998 85.88214717437957, 15.63519275191075 81.13104510707618, 10.463243758658681 74.76890402952691 C5.291294765406612 68.40676295197764, 1.5321581765428995 57.78233247494563, 0.4435966212833833 49.516832840173954 C-0.644964933976133 41.251333205402275, 0.1834265700013571 32.59194741664366, 3.931874427101583 25.175906220896845 C7.680322284201809 17.759865025150024, 16.58109404422101 9.319887750214832, 22.93428376388474 5.020585665693034 C29.287473483548467 0.7212835811712361, 37.478965306830936 -0.1353591313917934, 42.051012745083945 -0.6199062862339417 C46.62306018333695 -1.10445344107609, 50.35880954571593 1.4183639731531472, 50.3665683934028 2.1133027366401436 M57.530903571613536 3.5440266148371293 C64.89620671472903 6.012952421816298, 74.01395591980321 13.560865545721065, 78.5154902384999 20.13257358251277 C83.01702455719658 26.704281619304474, 84.82442202867885 34.93376094121099, 84.5401094837936 42.97427483558736 C84.25579693890835 51.014788729963726, 81.08534192646496 61.24700221057286, 76.80961496918835 68.37565694877095 C72.53388801191173 75.50431168696905, 66.1396215492837 82.5371446798483, 58.88574774013394 85.74620326477591 C51.63187393098417 88.95526184970353, 41.163333271477136 89.30331907978496, 33.28637211428976 87.63000845833665 C25.409410957102388 85.95669783688834, 17.15672219254831 81.46508073322707, 11.623980797009686 75.70633953608602 C6.09123940147106 69.94759833894497, 1.4743791839123321 61.236018615504676, 0.08992374105800138 53.07756127549038 C-1.2945317017963294 44.91910393547609, -0.08843234586102966 34.62159944686193, 3.317248139883702 26.755595496000243 C6.722928625628434 18.889591545138558, 13.344257231322025 10.39888942684929, 20.524006655526392 5.881537570320276 C27.70375607973076 1.3641857137912607, 40.307261018223734 -0.0005086724652064167, 46.395744685109904 -0.3485156431738474 C52.48422835199607 -0.6965226138824885, 54.995641826552244 2.8656678588221403, 57.0549086568434 3.79349574606843 C59.11417548713456 4.721323633314721, 59.04276703818818 4.8244292354621265, 58.751345666856864 5.218451680303893" style="stroke: rgb(0, 0, 0); stroke-width: 1; fill: none;"></path></g><g transform="translate(60.5 212.5)"><path d="M5.9916185502039365 19.783577470582895 C5.9916185502039365 19.783577470582895, 5.9916185502039365 19.783577470582895, 5.9916185502039365 19.783577470582895 M5.9916185502039365 19.783577470582895 C5.9916185502039365 19.783577470582895, 5.9916185502039365 19.783577470582895, 5.9916185502039365 19.783577470582895 M2.2530800423802937 28.111698545830432 C9.155221899130307 22.668123917475153, 14.217341592403084 16.41248522619461, 21.212791231350863 11.208149800198107 M4.2333370329098905 29.096888399997834 C6.958223332486233 24.29255901044398, 11.453244014306579 19.71670418240429, 20.081103457027936 9.50759545818898 M2.2969576007114902 37.445748981244165 C12.428393630677798 23.321480433547343, 22.003649469936096 10.241131245324578, 28.751806522082482 5.493917278296276 M0.6432206377746716 37.90881105807354 C8.06266038449906 30.98916356775227, 12.907839197242621 25.05583504765986, 28.750697891522144 5.97921150019668 M-0.29313581001606437 42.22685803866048 C12.581220425696547 34.49140571740586, 21.08092763287773 21.76690315144322, 34.52904511573754 3.957230078772957 M1.0209484972745493 44.39045526387204 C10.64699544127972 34.15814568822699, 19.19146824920343 23.70932951219939, 36.31126469052426 3.478324608662481 M4.448490186844381 46.915098852700346 C13.17535880355234 32.60753910568111, 23.88035419506057 19.21382556534062, 42.69050121689634 2.8435536496897136 M3.6973538103219 46.811067735998684 C12.941935338117338 35.77253557260072, 24.576002506447765 24.147750373895107, 42.75147994338022 0.3476597531323229 M7.123437418996552 52.33278641432139 C16.94231935775186 38.82132259057721, 29.85039719186598 25.062135132876556, 50.519990191291086 0.24519109767248537 M6.265157789386073 50.31678548689547 C15.447748295479085 40.05269366030666, 25.470467029314207 27.238513897876064, 48.73006746308785 0.8851779992165199 M8.060486542077708 54.29075302792181 C19.48551894819247 41.82636540624239, 31.51257187265104 27.15364897977199, 53.37130137754005 1.4069149416739215 M7.326487037369954 53.40066127994497 C19.094965039244485 42.81123689651545, 29.809156260143155 28.629942398508206, 52.16420159803104 1.493458262352096 M9.317506749753587 57.57294411356813 C27.82637103274287 38.85790776879939, 41.85242738920637 19.02002318975385, 56.045871681280495 1.7294012360922402 M10.151033257704906 58.731009431698084 C22.023700275283396 44.592967862512836, 32.161371981064605 32.26293472236752, 58.26343082611269 3.5268814309216445 M13.212132860689934 62.10978946632687 C22.35952221112243 49.30244318003464, 33.702632396595654 36.36087487946717, 62.69922654617817 1.9614391509939573 M11.862980341322299 61.168527071205716 C29.656022366141954 41.478062130975495, 46.83331709601106 22.63650593328621, 63.09236872576416 3.3275899464760563 M15.508501434514528 66.39686493537346 C31.398009893521376 42.81734121196204, 48.295996274222816 25.53078093859071, 67.37165704089881 2.3733022314455923 M14.283990482615536 64.02870581912765 C32.09907666725978 43.37753278208426, 50.59459773510102 25.340088883305476, 66.75762106291683 4.242609063066226 M16.731278539893097 65.97006906577442 C35.86287819535191 49.64983731323547, 51.62532382530185 31.1692977182354, 70.51889694607969 2.930119656845349 M17.90348194751597 67.40075842951481 C34.18004637902862 48.518147649572846, 51.11064441231342 30.11906824172621, 71.59471287797358 3.640968106574732 M23.352395870491403 68.82428477759629 C35.591666508438124 54.82283543851551, 45.488480480854335 38.41216703807707, 73.67009149341503 6.5217624629280735 M22.72161518945499 68.41003046891808 C43.477260706272915 44.86415947599331, 62.64556530880343 20.929650797745765, 75.48230722489426 7.987336696720796 M25.00960977396568 71.09616978568282 C42.84728470331053 49.61668250475932, 59.89457678116599 29.551169798580617, 78.51906474253258 11.589118998869203 M26.124101878354452 70.7445407361656 C45.266987443996186 47.975532566925295, 64.02251508312715 23.488105784916165, 78.58972254807225 10.31205020416423 M28.412942222972184 72.25636617987773 C44.77208068524766 52.76262610420267, 62.44203208156411 34.374963117120124, 81.58228832007913 11.353981149289702 M30.44489587163624 72.69094084258548 C44.11559128134695 56.025347431179874, 57.982779133562616 40.49634354043238, 82.69115142141996 11.284745972510372 M33.907180815167166 75.54700042502479 C46.655354597566486 60.090193594156375, 54.94033575218292 47.943103354174234, 84.1053223907299 13.011253914478871 M32.18494321422223 73.41576521200584 C47.39086214258419 58.497899816003, 58.456310200116285 44.46664534233286, 84.72835151937824 15.2503228985329 M38.03437877320687 74.41918336096775 C48.66190131152508 61.96583161271258, 58.515082276129064 49.69673812802884, 89.21772886012214 16.883488348834916 M36.230932138534286 76.24668108075481 C52.14554461043845 60.14092978499919, 67.17151058131478 41.44727599150894, 88.62180881984996 15.227224370614394 M44.064532031719075 74.70638146188205 C58.66598609647796 57.557516666443675, 73.13204193175532 40.73377428920633, 91.2470991429311 16.89605820264714 M43.04222015146582 74.68960975699221 C57.21292614147695 57.800605348176205, 70.79970709042867 41.297545607323606, 92.24101537227601 18.22636491052853 M45.997488947398 76.60901263850252 C56.61799269642563 61.870494361450945, 69.50740169018957 52.87333762329838, 92.87396736580354 19.731692860536505 M48.308993744476666 75.25707242293726 C62.306077149962476 59.00497757573681, 76.74923833249969 40.11861881754703, 95.21563250056874 22.24941311188065 M53.65421767588091 77.32072169522735 C60.38503992675435 63.957475307877104, 72.48980507413353 54.17581740048398, 95.7579561934147 23.796234822792314 M52.699785770469724 75.9382155919725 C65.51692509249513 59.72170085564537, 79.4492765660407 45.06327525943172, 97.21788662916906 26.098299121444427 M57.334774910833545 76.25826655212309 C67.53936104917872 65.01599049221898, 74.00790906075123 55.52589771682497, 97.03663100241133 31.127882224035545 M58.175694182876356 74.27244733064886 C71.00729079337098 61.86364935665989, 82.2150766132421 48.28780172400625, 97.11767345698931 31.128207157825216 M63.661101028902664 75.72547034381071 C73.69997148312646 63.63814747534588, 81.73047953318536 53.30568907786619, 97.91982279444017 36.098817573887175 M64.48942718060894 73.8571393575717 C77.30966965428516 59.297287333125745, 90.58803606923168 44.21591395515364, 99.23313087044187 34.79295425212837 M74.79557911870654 70.59601183924286 C81.9122989272083 58.23376861511907, 89.3314216181546 48.90448788596926, 98.94001013816698 39.362126917413725 M74.06011223705138 68.87416746317803 C81.7787489131929 59.720511128981855, 89.44533038963296 53.215783618012566, 99.23727088545813 40.43565940840478 M84.62719025722737 64.77594794972543 C86.97289862906874 61.238147795660026, 87.639503088798 59.978417208751445, 90.94521346162051 57.45316538246272 M83.81202026087823 63.70505418034014 C85.38939110037504 62.151284890483424, 87.12784321382054 60.62241108028681, 89.98307317681589 57.57947757829836" style="stroke: rgb(21, 170, 191); stroke-width: 0.5; fill: none;"></path><path d="M43.35637291867385 0.44755814486725143 C51.870646436698415 -0.9619149813662016, 62.912943656516916 0.8972638187547459, 71.05208981299505 3.974097492340725 C79.19123596947318 7.050931165926704, 87.58998478077476 12.7214303294028, 92.19124985754266 18.908560186383127 C96.79251493431056 25.095690043363454, 99.42384856021138 34.01148302288766, 98.6596802736025 41.096876634222696 C97.89551198699363 48.18227024555773, 93.29712778546475 56.02346017030415, 87.60624013788943 61.42092185439332 C81.9153524903141 66.8183835384825, 73.23040213285728 71.3579547017431, 64.51435438815055 73.48164673875772 C55.79830664344383 75.60533877577234, 44.07439136114412 76.03415691246816, 35.309953669649104 74.16307407648102 C26.545515978154086 72.29199124049389, 17.76539734990801 67.50987071018906, 11.927728239180432 62.255149722834915 C6.090059128452853 57.000428735480774, 1.3041218051351795 49.677876306524865, 0.2839390052836279 42.63474815235618 C-0.7362437945679237 35.5916199981875, 1.2733213457219978 26.332290467852435, 5.806631440071122 19.9963807978228 C10.339941534420246 13.660471127793162, 19.193434197585866 7.777414031848288, 27.483799571378373 4.619290132178364 C35.77416494517088 1.4611662325084391, 48.84879384359614 1.4032179366834765, 55.548823682826175 1.04763739980325 C62.24885352205621 0.6920568629230235, 67.92998267476025 1.8861674812724303, 67.68397860675859 2.4858069108970042 M42.43398702461192 -0.33338507499264836 C51.13116080923599 -2.174198960980587, 63.904502518420685 -0.37623290002551, 72.18581890317951 2.8454629075543494 C80.46713528793833 6.067158715134209, 87.89517020161739 12.782667299069896, 92.12188533316487 18.996789770486508 C96.34860046471235 25.21091224190312, 98.21731679947764 33.02155303839177, 97.54610969246438 40.13019773605402 C96.87490258545112 47.23884243371627, 93.39730055356384 56.1061184742888, 88.09464269108528 61.64865795645999 C82.79198482860673 67.19119743863118, 74.53407669262815 70.98744183581836, 65.73016251759302 73.38543462908117 C56.926248342557884 75.78342742234399, 44.414915842380296 77.90683601208096, 35.27115764087448 76.03661471603687 C26.127399439368663 74.16639341999277, 16.851985604038006 67.7933231675055, 10.867613308558127 62.16410685281657 C4.883241013078247 56.534890538127634, 0.058407079095498915 49.311265921185445, -0.6350761320048051 42.261316827903244 C-1.328559343105109 35.21136773462104, 2.2103234154440035 26.376527048342894, 6.706714041956303 19.864412293123358 C11.203104668468603 13.352297537903823, 20.246367470223568 6.453147733930043, 26.343267627068993 3.1886282965860318 C32.44016778391442 -0.07589114075797943, 40.357228787184816 0.5333412758585514, 43.28811498302885 0.27729566905929204 C46.21900117887288 0.02125006226003262, 44.05440024102989 1.175721470486754, 43.92858480213317 1.6523546557904751" style="stroke: rgb(0, 0, 0); stroke-width: 1; fill: none;"></path></g><g><g transform="translate(164.5 123.5)"><path d="M0.42045610919594756 -0.963153002411127 C28.040365801006555 -0.4690862792233625, 137.97995894923807 2.1651053371528786, 165.44142061248422 2.6143852256238462 M0.7756480597145856 -0.49250951724126946 C28.316653879154472 -0.21726600107426458, 138.81665768252685 0.9296599205645422, 166.4330932466872 1.1841108380071819" style="stroke: rgb(0, 0, 0); stroke-width: 1; fill: none;"></path></g><g transform="translate(164.5 123.5)"><path d="M136.53708511457572 11.901459390424453 C147.02716488228995 8.618788483756973, 153.38913504548296 6.83752164378982, 165.92232793631032 2.031813635509461 M138.9479474654121 10.63799661410626 C146.20230685232784 8.68584452528178, 152.94428606376394 6.286212449090529, 167.07918825248257 0.8361355858109891" style="stroke: rgb(0, 0, 0); stroke-width: 1; fill: none;"></path></g><g transform="translate(164.5 123.5)"><path d="M136.73978465966493 -8.61874809586234 C147.11389788112794 -6.220095535836776, 153.4197546876731 -2.3207491279614194, 165.92232793631032 2.031813635509461 M139.15064701050133 -9.882210872180533 C146.51034781979294 -6.231466590471964, 153.1969724384726 -3.0272985783051443, 167.07918825248257 0.8361355858109891" style="stroke: rgb(0, 0, 0); stroke-width: 1; fill: none;"></path></g></g><g transform="translate(327.5 342.5)"><path d="M2.913089242237982 26.382543724631205 C2.913089242237982 26.382543724631205, 2.913089242237982 26.382543724631205, 2.913089242237982 26.382543724631205 M2.913089242237982 26.382543724631205 C2.913089242237982 26.382543724631205, 2.913089242237982 26.382543724631205, 2.913089242237982 26.382543724631205 M2.0802028675287954 33.30448842486216 C9.941654470984307 28.018972698209517, 14.290344809559167 21.351131221248835, 20.71827065802038 10.0718638141995 M2.0948717792242757 33.38752487739397 C10.080351626739875 25.067043412394256, 17.142967970840598 16.062327100292748, 21.592637865309122 10.65132684906774 M1.1437716019390258 38.01100542838823 C11.626962205847047 26.479304568667523, 24.061628393227178 16.97690126489598, 31.832571560016465 4.349470620388024 M2.906330032372299 38.46900087292444 C12.448549268291192 28.932431988390157, 21.333481759386483 17.186116492233886, 31.445520424714875 5.004118477338784 M0.827831600327503 47.83142390666834 C15.238330100695912 29.71026867610319, 32.48710402020316 9.26153775665577, 40.268153658971805 0.8116378658850287 M1.2559736412954443 46.67588347016207 C16.393099105452094 30.280386481307296, 30.255817810946713 13.67881451257842, 41.03249546037676 0.35473348437143315 M2.4423568246657403 52.378568244034156 C14.174866404530803 38.511378440718055, 27.29583469569743 22.98769827981341, 44.649782568971844 3.940204897695459 M0.8942062554652246 51.60244236593853 C11.95652675046672 39.40392544547883, 23.23704686568357 27.655461456779303, 46.137508273880215 1.9477065296706328 M3.6727031789442535 56.0871819852629 C23.36665411086393 34.620969183154784, 37.58287317595633 16.157077254509588, 50.442727396940626 4.699448199037139 M3.9155634663721557 55.196116417531044 C14.45008397535236 43.463603083544236, 26.943203628131425 30.559360551109325, 50.35375765964929 4.0412594089542075 M6.611431422201001 58.47805657624566 C17.863411307465483 43.553806139857414, 29.714242646743614 30.937338695285117, 56.207344046868656 4.649111314687296 M5.790535720554196 59.0216423833307 C15.766544629845438 47.32399406409847, 27.7571006294462 35.088872877342645, 54.33827920917449 3.0203309794993842 M6.318897458426509 64.61093556175969 C21.016940332912064 49.5182322287273, 33.66810997649851 35.2694106561777, 58.223311335774945 2.92556653009148 M6.926158609501872 63.713959120614746 C22.9778802921413 47.80956468080076, 37.76693582689303 29.64288895924127, 59.43618142697482 5.3777388392517125 M9.542957191611265 66.85806248658218 C28.547758917482227 45.57492068922646, 47.859141249921976 20.575206472469688, 65.738103225631 4.204138229581364 M10.385717724705671 67.75175548666039 C30.6179466692537 42.75578609032985, 52.21077867906038 19.34354931790022, 63.92911796252179 4.676502685042866 M10.750789438774273 69.16830963615871 C24.145358225692192 60.01763934958114, 36.06801515741723 43.21072930056678, 65.78216241749377 7.265037019493587 M10.920571570684597 70.72159907941318 C26.699682428444895 53.46763750891013, 42.06691699100646 33.835416300632836, 66.85046120437235 7.115778435709483 M14.721309132896533 75.78421097504369 C35.87963519735047 50.92793669926287, 58.526563697774435 25.118483241224574, 69.63402190232527 8.653877703937066 M14.56256476791965 75.03496917592756 C35.91854755982176 47.63552356815356, 59.617643988225616 23.471384560387186, 71.45042383098853 10.191376207860483 M19.26487217796856 77.0155100480144 C37.11105637100825 51.79290600768391, 55.46123141553646 30.46018647371684, 74.29153758411606 10.492903827689016 M18.343732907901344 76.70180463348079 C38.66063139882489 50.97069567210081, 61.79361878312584 25.688550358726786, 73.66729143386085 11.506984858773077 M19.911157391009333 76.74857914051636 C39.06917400200984 56.425041880819265, 57.77992103058713 32.47295779938781, 76.47188827988506 14.480987676194989 M21.98418449514866 77.83992305001838 C37.28879429421569 59.11634185620399, 53.998739926126916 40.12708844603808, 77.12742251750828 13.774171986392819 M23.189461647018852 78.67287137754955 C35.775925298886996 64.55479077140829, 50.76897328126978 49.494690672301275, 78.54792989362284 15.365372794232211 M24.1723960921616 79.90147286304035 C40.706435296195025 61.257622255933256, 56.164199938833264 43.23253995586784, 80.08160267342134 17.284126447996936 M27.316581820997133 81.79033988411402 C42.19420539186904 64.3260570371359, 58.597959876890805 47.33577556741654, 83.92395930032936 17.96051230680069 M28.25309426144017 82.18235251004671 C43.31087562079417 66.30579033883335, 56.34800580734774 50.403269342149386, 83.78080846410003 19.926496681085435 M32.196814787944156 82.41543778520972 C43.86439011567697 68.57122096997202, 56.593529876896994 56.33938144052267, 87.69177337500462 22.393359338900414 M33.22725556548436 84.82221042853743 C44.471002890039074 69.64065942929643, 57.320013681282475 57.05312939012416, 86.13226645204433 21.434681123158303 M37.42195742285993 84.17511820583667 C54.85260014314091 68.10102808325156, 68.97588046554142 47.89288097105495, 89.31855093466763 27.612786175976932 M36.75210656679418 85.80444505601253 C55.465432183317084 63.305033791202966, 76.02351920792381 39.602282159753145, 87.38733514177326 25.89524737216109 M40.27130660074447 88.00883427099487 C56.07500194800299 67.36593992433727, 72.76926850026473 45.28657926316941, 90.58320691229937 28.861326782584698 M40.141123827869635 87.956204829972 C51.700139298939334 73.55577508770685, 61.935671563758774 61.780961690743084, 89.0778591537678 30.21967470514825 M43.67983628356925 87.904410365016 C54.567121479765405 73.2519291209288, 66.18026394121449 61.820556972810216, 89.64003818289987 36.20343428372372 M45.33221099818221 87.68425944724753 C62.891079062672055 65.96773340990485, 81.59955382922583 46.896027817498016, 91.07981505052797 33.672611559619796 M52.3336662593628 87.6904283535684 C66.01990810743445 70.65389901580158, 80.57893038509974 52.911252585782414, 92.33084162146913 39.016061804393985 M51.98316755326043 86.76738608600743 C60.709735523785156 77.39620574058229, 69.05539746663936 65.53530375971803, 93.92542939455377 39.3624563730757 M56.5745934031251 88.24384136165203 C63.203151302133094 78.68879722604822, 71.8415111840809 66.56991870747858, 93.52885507401663 44.743372049818284 M56.37622005560427 86.56398318375172 C66.15939493363184 74.64096594112458, 75.11539939033419 64.60484572902146, 93.14711971935469 43.99606716323877 M61.74403264783715 86.24468335382136 C69.64062360919439 75.2157757300771, 79.48573446817208 67.41653253786632, 91.85846221260881 52.67028520655599 M63.76196312569474 83.76678001753481 C71.21793024482179 75.23462059506731, 80.062286321589 66.43591963135026, 88.99719938449716 54.65230942916837 M80.3036913974933 70.42977878708597 C82.94210417789826 68.61337188465515, 85.1685700626686 66.22612160318913, 86.26960790849942 63.96479973442307 M80.8330455033831 70.98182419348711 C82.80914215209599 68.79265365608728, 84.6363062726881 65.77294817039805, 86.15831617660541 64.8016094783639" style="stroke: rgb(64, 192, 87); stroke-width: 0.5; fill: none;"></path><path d="M38.58203629260189 -0.26149864037588344 C46.314626904418645 -2.1638017680108943, 56.54133204641977 0.9457091726258873, 64.27770224126135 4.39702819973953 C72.01407243610294 7.848347226853173, 80.14412852511826 13.95306341633152, 85.00025746165139 20.446415522305976 C89.85638639818451 26.939767628280432, 93.43166504502292 35.58209872958098, 93.41447586046013 43.35714083558627 C93.39728667589733 51.132182941591566, 89.90283696217507 60.34987437521806, 84.89712235427464 67.09666815833772 C79.89140774637421 73.84346194145738, 71.28814086802552 80.74548458842315, 63.38018821305755 83.83790353430425 C55.47223555808957 86.93032248018534, 45.84612947696778 87.4110740603201, 37.44940642446677 85.65118183362424 C29.052683371965763 83.89128960692837, 19.035837434491967 78.98768949739382, 12.999849898051501 73.27855017412904 C6.963862361611034 67.56941085086426, 2.899485057352405 59.22974390345302, 1.2334812058239706 51.39634589403559 C-0.43252264570446397 43.56294788461816, -0.19004913858051253 33.45991661213728, 3.003826788880893 26.278162117624454 C6.197702716342299 19.09640762311163, 14.146141995961443 12.60192203069861, 20.396736770592405 8.305818926958644 C26.647331545223366 4.009715823218676, 36.70590214894133 1.6378987987525697, 40.507395436666656 0.5015434951846487 C44.308888724391984 -0.6348118083832723, 43.04999726505988 0.8970051444241017, 43.20569649694439 1.4876871055511174 M66.27336884194183 6.027593507928891 C73.7966235732373 8.840440180814022, 80.88938396511324 14.690139786646721, 85.55167522867744 21.309913485435438 C90.21396649224164 27.929687184224154, 94.64049308708992 37.68022594737407, 94.24711642332707 45.746235700661195 C93.85373975956422 53.81224545394832, 88.79072861407536 63.26480072295465, 83.1914152461003 69.70597200515819 C77.59210187812525 76.14714328736173, 68.72168494862942 81.67956988941077, 60.651236215476736 84.39326339388246 C52.58078748232405 87.10695689835416, 42.774652427322984 87.92091160898966, 34.768722847184186 85.98813303198838 C26.76279326704539 84.05535445498711, 18.130432433435434 78.81840277726548, 12.615658734643965 72.79659193187479 C7.100885035852495 66.7747810864841, 2.816994103681555 57.66188987102559, 1.6800806544353648 49.857267959644204 C0.5431672051891745 42.052646048262815, 2.34676190599046 33.17317088029163, 5.794178039166823 25.968860463586452 C9.241594172343186 18.764550046881276, 15.441924996969487 11.166552973583151, 22.364577453493546 6.631405459413138 C29.287229910017604 2.0962579452431243, 40.089191095309104 -0.6616775251749006, 47.33009277831118 -1.2420246214336288 C54.57099446131326 -1.822371717692357, 62.43900725278838 1.9949991272126344, 65.80998755150603 3.149322881860769 C69.18096785022367 4.303646636508904, 67.87298498557399 4.7643286949045445, 67.55597457061705 5.683917906455179" style="stroke: rgb(0, 0, 0); stroke-width: 1; fill: none;"></path></g><g><g transform="translate(304.5 379.5)"><path d="M-0.1652740772813559 -0.3449844483286142 C-29.45496931237479 -1.023677643512686, -145.74508054020504 -2.982756237561504, -175.14430527053773 -3.159714126959443 M-0.5779624589066952 1.3541461149137466 C-30.396157032328965 0.7638924483737596, -148.38814944682332 -1.5019476086615278, -177.61288699853233 -2.148306154580787" style="stroke: rgb(0, 0, 0); stroke-width: 1; fill: none;"></path></g><g transform="translate(304.5 379.5)"><path d="M-149.7932527728212 -10.40441139262009 C-161.0011133234386 -9.420204524603053, -168.00307494760256 -3.6852908675472404, -176.0902467311453 -2.7799591151345524 M-149.17805342951985 -12.116910892872397 C-159.91934764602433 -8.422489713735246, -170.29589218666226 -5.103321970537379, -177.76747120237908 -2.0824100411776456" style="stroke: rgb(0, 0, 0); stroke-width: 1; fill: none;"></path></g><g transform="translate(304.5 379.5)"><path d="M-150.2126904039633 10.112510268765213 C-161.42996687708123 3.9268595670789797, -168.28533972798698 2.491337969702652, -176.0902467311453 -2.7799591151345524 M-149.59749106066195 8.400010768512907 C-160.00108909938578 4.421503578221433, -170.22076520102755 0.06740303296247419, -177.76747120237908 -2.0824100411776456" style="stroke: rgb(0, 0, 0); stroke-width: 1; fill: none;"></path></g></g><g transform="translate(10 10)"><text x="0" y="25" font-family="Virgil" font-size="28px" fill="#000000">Object Pool:</text></g><g transform="translate(410 11)"><text x="0" y="25" font-family="Virgil" font-size="28px" fill="#000000">Game:</text></g></svg>