<svg version="1.1" xmlns="http://www.w3.org/2000/svg" viewBox="0 0 512 520">
  <defs>
    <style>
      @font-face {
        font-family: "Virgil";
        src: url("https://excalidraw.com/FG_Virgil.ttf");
      }
      @font-face {
        font-family: "Cascadia";
        src: url("https://excalidraw.com/Cascadia.ttf");
      }
    </style>
  </defs>
  <g stroke-opacity="0.6" fill-opacity="0.6" transform="translate(135 68.5)"><path d="M9.440476153545845 9.531493712296557 C9.440476153545845 9.531493712296557, 9.440476153545845 9.531493712296557, 9.440476153545845 9.531493712296557 M9.440476153545845 9.531493712296557 C9.440476153545845 9.531493712296557, 9.440476153545845 9.531493712296557, 9.440476153545845 9.531493712296557 M1.8138141181810408 24.04979665810401 C4.314942874479172 22.000143659614224, 7.0813585786232665 18.010928824486385, 15.139170718054348 5.835779617573011 M0.405227978390327 26.188242820558795 C6.116695033656081 20.1323814083412, 9.88369909414908 14.221440302001877, 16.737379060733193 6.950689068096566 M0.4993883816595037 30.44491337126009 C7.220196316203877 22.71457026793407, 15.294769148157439 17.077624459102857, 24.688849752028705 3.6312931279886733 M1.4754222229192813 30.57446482198201 C11.135181537986316 21.206312200231302, 19.659290315089795 11.41007472517838, 25.9253144359265 3.0180495583687197 M3.8327611833459745 34.72326792316129 C10.551618855903989 27.78510140121327, 16.393288957413887 18.206937370902466, 32.33262425225181 -1.1108440871590233 M3.398520787211419 33.50510611204048 C14.454771733289183 21.99866170992603, 25.74428795075545 9.593360899030372, 32.020147592126854 1.328295021014526 M7.650175199021703 36.15506295052634 C15.9290885410492 24.821177738360362, 29.85756496452231 9.924332578629802, 37.909644874552384 2.1511653849625247 M5.443414052126116 37.58774115362482 C16.418098856325685 23.97163047831852, 29.894330388042505 11.106522722126726, 36.9157472027411 1.7166493825384634 M8.899010258458453 40.33196338485126 C15.603958989831934 35.40944250759621, 22.106182001624916 24.30271901399143, 40.55540777663573 3.911566289289901 M8.97938736501326 42.2152738919029 C16.573068298978896 32.15807188151099, 26.579250772121995 21.639305798104495, 40.822835255552675 2.903401089048991 M9.482106258446954 44.61872519307753 C23.911950228784967 30.4273714229961, 35.45741518772114 19.021912410136494, 49.3930740382736 2.898742307319079 M10.101693952741705 44.73631649498811 C18.185933205040165 35.972403703994374, 26.86829278339219 27.212896186991443, 48.74155647291145 1.494344710713957 M16.006617336739986 46.8124378962556 C29.36552115384213 31.41358019044177, 43.15781037191077 17.2855367844626, 52.68991063231371 2.0174256373282056 M15.161659095642356 45.83318187260275 C23.09882528415968 34.86909833302927, 33.843406791176946 24.056075448111844, 52.39916928274326 1.6417405219833832 M18.379862553156766 48.63182995199532 C31.184224205933717 32.34628968474186, 42.25871909160341 18.885781652131772, 57.47885294650881 3.9514245503677294 M18.143780808612558 48.72993905852855 C29.031337404503454 36.34796389757748, 37.79126382481745 25.984704023584356, 55.652858340378984 3.3657920575795934 M21.49453423746906 47.84825379179266 C34.1714885657729 37.26417775078211, 43.18781965374322 24.227996569130628, 60.154355464621176 6.652928772710844 M22.1321881890022 50.042148247933355 C37.80092793117675 31.546906357433215, 53.32004140960089 15.309261892474687, 61.86683520965903 5.762701494947656 M27.760902844448612 49.24673372214358 C38.60249079907801 37.0217330724377, 48.68327775525539 27.38611014110287, 64.97277370844155 6.039428646299076 M26.62409627166115 50.45665869848501 C34.52548107043651 42.05473162694335, 42.99351302112518 32.41412749213574, 66.19397030495226 6.420338814700973 M31.607198895886178 51.32288508498962 C37.327359891875744 40.7217551273819, 48.15082308052324 33.79197893187807, 67.83304132476067 8.917086388073944 M31.811437970958288 52.147277890796914 C46.296722939719736 35.152154508519786, 61.03616047423341 17.436335702354526, 68.13771997812754 8.060363059952937 M35.9163490965535 50.451575936826764 C51.5551964898611 35.21067724560559, 64.78665221593629 18.38608015445893, 74.05734717234083 7.90410734930866 M35.79885019674349 52.662183207536934 C45.72412768136003 41.178073991440215, 55.047818429514294 30.02117659163272, 73.11405360552527 10.180343595648637 M41.87029924723184 52.33855578937375 C48.03331456014183 44.042129800338394, 59.04535953575993 32.865185816727774, 74.9551630899917 10.655916657390293 M42.229246767376125 51.094300674095685 C52.95043197057769 38.170866158491094, 65.1265695854247 24.10385706959873, 75.79673135603328 11.997686750347015 M46.10645521572144 51.962665189794876 C54.232465671604714 41.05201860249318, 64.56455308957104 31.279606236199598, 77.54027515748508 14.260272993814805 M46.221509380734574 51.74226453880934 C59.28719412150308 36.96446362297138, 72.54503530035878 23.687459838013137, 77.61558545200147 15.563499594215909 M52.46653711078454 50.23507823936334 C59.376567729791546 40.38747308401919, 69.70940008542576 30.597171434986763, 79.71904757959273 19.44360691507819 M51.900591788159204 51.48840979162296 C63.35286188156838 39.61358215659273, 74.24763759231215 26.389122842363086, 80.72603405327972 19.687678259923185 M57.21666607921192 50.46976965502068 C62.682437896762636 44.226625743818815, 69.37552370161335 37.21153356921997, 81.44686365709589 20.51323043289919 M58.39885659151891 51.987989225649976 C65.1080040824315 41.89077838831923, 73.01257597909353 33.4453457886093, 82.94677222822742 22.599867522859466 M67.42045459572783 48.023918967149 C72.98809891770136 38.80780163667839, 80.63679621795086 30.648202599063993, 87.8527438447663 23.03541785377379 M68.01041553311607 46.02832763494436 C71.1812268290366 41.78231187899199, 75.91643204633166 37.349046302664135, 85.6656400116944 25.34629164069261 M77.59356571078305 40.74922236948067 C78.82372847006624 38.203825219694686, 81.32638966925538 36.99323507004394, 84.3202371013904 34.102938567289186 M76.61025222713133 41.22405301694551 C79.53961968039938 38.938298793212965, 81.30357878043861 35.556524886939634, 83.51100042821784 34.439487854485435" style="stroke: rgb(134, 142, 150); stroke-width: 0.5; fill: none;"></path><path d="M47.603057686858556 0.5820027469231697 C55.78456163692076 0.9474316652312513, 66.77905654986594 4.843630015252357, 72.94453802604619 8.65760281089657 C79.11001950222644 12.471575606540783, 83.45566577081907 18.358208459098385, 84.59594654394002 23.46583952078845 C85.73622731706097 28.573470582478514, 84.30998776785266 34.7552073355483, 79.78622266477188 39.30338918103696 C75.26245756169111 43.851571026525626, 65.84895440207825 48.80968644860293, 57.453355925455384 50.75493059372043 C49.05775744883251 52.70017473883793, 37.68997930157888 52.445199458954974, 29.412631805034668 50.97485405174194 C21.135284308490455 49.50450864452891, 12.63898713871902 46.12968521882099, 7.789270946190101 41.93285815044222 C2.9395547536611817 37.736031082063455, 0.018744529843540192 31.217574199318413, 0.3143346498611521 25.793891641469354 C0.609924769878764 20.370209083620296, 3.979381013343221 13.597544001238482, 9.562811666295772 9.390762803347858 C15.146242319248323 5.183981605457234, 27.026462801332297 1.9347000284787785, 33.81491856757646 0.5532044541256091 C40.603374333820625 -0.8282911202275602, 47.39987113906819 1.0697116633867232, 50.29354626376077 1.1017893572288422 C53.187221388453345 1.1338670510709612, 51.49069451819548 0.5470869245415896, 51.17696931573194 0.7456706171783232 M63.381503702419835 1.7038945540147843 C70.82906526220839 3.859254576145696, 77.74464770993748 10.723929135089385, 80.93095734080752 15.901326630083634 C84.11726697167757 21.078724125077883, 84.55530984482375 27.66957656210233, 82.49936148764004 32.76827952398028 C80.44341313045634 37.86698248585824, 75.05031260482446 43.117095088813805, 68.59526719770527 46.49354440135137 C62.14022179058609 49.86999371388894, 52.547774363751024 52.69066825770726, 43.769089044924954 53.026975399205675 C34.99040372609888 53.36328254070409, 23.03353342465986 51.738585825544675, 15.923155284748837 48.51138725034187 C8.812777144837813 45.28418867513906, 3.30225967681463 38.80548294869105, 1.1068202054588099 33.66378394798883 C-1.0886192658970102 28.52208494728661, -0.6180824955585584 22.616984595752665, 2.750518456613918 17.661193246128548 C6.1191194087863945 12.70540189650443, 13.851984828602717 6.7218068852826605, 21.318425918493666 3.9290358502441194 C28.784867008384616 1.1362648152055779, 40.97007717127989 1.0983234539005349, 47.54916499595961 0.9045670358972977 C54.128252820639325 0.7108106178940604, 58.664698038080964 2.461862173727519, 60.792952866571966 2.766497342224696 C62.92120769506297 3.0711325107218728, 60.397932344398484 2.2170759221496055, 60.31869396690563 2.73237804688036" style="stroke: rgb(0, 0, 0); stroke-width: 1; fill: none;"></path></g><g transform="translate(10 63.5)"><path d="M0.07668862016646191 0.5467440552830882 C60.44943655025153 0.9167035562949102, 117.88435394046155 1.671733360428683, 280.26130132121233 0.6793162405115551 M0.42360811944455834 0.4321737082783784 C101.74288671823324 1.3117276579314336, 203.276451567947 1.3251763190063701, 280.2450414909494 -0.703090381433824 M280.46449170190084 -0.896558343914379 C280.7865055079244 84.78828738257558, 279.83378782028893 172.31090284757718, 280.59815482996123 306.81628025910203 M279.46152985106255 0.4903686393631405 C281.5243485625984 70.38562435130525, 281.8905261042696 141.65730140674788, 280.17654429504586 306.561882159181 M279.5958615684828 308.0340122331226 C210.69597732421664 305.88572261385474, 142.7046077097532 305.5187798909423, -1.0430745220133848 305.94162789189994 M280.13894557397634 307.5625614122568 C204.17658485127808 307.44816332388024, 128.82244702318164 307.74425971362723, -0.04347110790549777 307.63909029371695 M0.8843725548912896 308.0162787574485 C1.7943812445856735 200.23485895819903, 2.583150467017953 96.3351416805667, 1.2446698225299253 -1.1570606579707279 M-0.49066788658457466 307.19214747599324 C0.9667437937821893 185.0599312559876, 1.810492588061121 63.00662709496098, 0.029172635534446684 -0.4224429167239956" style="stroke: rgb(0, 0, 0); stroke-width: 1; fill: none;"></path></g><g transform="translate(137 278.5)"><path d="M19.846924398572686 2.3329607155183005 C25.722174898568266 -0.612494010994086, 34.63764474565445 -0.6774758904857847, 41.7420983323352 0.897224453084128 C48.84655191901596 2.471924796654041, 57.927637354521714 7.239299918291785, 62.4736459186572 11.781162776937776 C67.01965448279267 16.323025635583768, 69.18104337074894 22.580392502669177, 69.01814971714809 28.14840160496008 C68.85525606354724 33.71641070725098, 66.49622388744737 40.83560183931905, 61.496283997052096 45.18921739068318 C56.496344106656814 49.54283294204732, 46.44305852421528 53.47600281911591, 39.018510374776405 54.2700949131449 C31.593962225337528 55.06418700717389, 23.030133431200834 52.980270810847166, 16.94899510041884 49.95376995485711 C10.867856769636848 46.92726909886705, 4.8470596336295735 41.73023744263814, 2.5316803900844533 36.11108977720455 C0.2163011465393332 30.49194211177095, -1.1422094584270859 22.267942847678903, 3.0567196391481204 16.238883962255528 C7.255648736723327 10.209825076832153, 21.965919801886358 2.596368070825345, 27.72525497553569 -0.06326353533570739 C33.484590149185024 -2.72289514149676, 37.66425570961089 -0.260021521332653, 37.61273068104411 0.28109432528921374 M17.025024239361258 2.347565595268101 C22.895653642253183 -0.7396499075011924, 34.547475150291085 -0.9781748179643894, 42.19885233267816 0.294362786547822 C49.85022951506523 1.5669003910600334, 58.14500646438851 5.3780178879129, 62.933287333683694 9.982791222341369 C67.72156820297889 14.587564556769838, 71.13668357454215 21.773525861764362, 70.92853754844927 27.923002793118634 C70.7203915223564 34.072479724472906, 66.67665879573715 42.4995183218021, 61.68441117712644 46.87965281046699 C56.69216355851573 51.25978729913189, 48.38250918079145 53.75346738169574, 40.975051836785 54.20380972510798 C33.56759449277855 54.65415206852022, 23.769545840762554 52.71405881252929, 17.239667113087712 49.58170687094041 C10.709788385412871 46.44935492935153, 4.496665589950345 40.693057718462065, 1.795779470735944 35.40969807557469 C-0.9051066484784562 30.126338432687312, -1.6661140122861227 23.08673614848524, 1.0343503978013118 17.881549013616148 C3.734814807888746 12.676361878747056, 15.252872572325236 6.5792860175318655, 17.99856593126055 4.178575266360138 C20.744259290195863 1.7778645151884107, 17.03082017803526 3.083646303319443, 17.5085105514132 3.477284506585786" style="stroke: rgb(0, 0, 0); stroke-width: 1; fill: none;"></path></g><g transform="translate(188 92.5)"><path d="M7.8369875487927985 0.18752437385242127 C7.8369875487927985 0.18752437385242127, 7.8369875487927985 0.18752437385242127, 7.8369875487927985 0.18752437385242127 M7.8369875487927985 0.18752437385242127 C7.8369875487927985 0.18752437385242127, 7.8369875487927985 0.18752437385242127, 7.8369875487927985 0.18752437385242127 M5.34178330313533 8.503814472401412 C7.283146323342437 7.684341520964081, 8.485879203191374 5.870673933035818, 8.406864389331037 5.132436320428291 M5.795370745073328 8.62322426149984 C6.282253191138986 7.992192713052107, 6.823950537597318 7.327793223565924, 8.808554134118328 5.098106947737301 M4.238548486527502 16.976414226165996 C5.021385726728079 15.99881194925888, 8.275659281102996 13.234291179633765, 10.95767549600059 10.175210710556819 M3.8943272849418964 17.674792487391294 C5.981761740110332 14.937973433259398, 8.028051447340692 12.524321678283407, 11.103643326671587 9.588365030277162 M-0.5006786328631015 27.644664333640442 C3.592222663728692 24.06111840408361, 6.180022856179954 22.255718869745728, 11.656086142538731 13.975472078540715 M1.0151969754712162 27.37615423949513 C3.204135589206767 24.061639541150452, 6.222631405145418 20.237353055808345, 11.059321550317724 14.051840978323835 M1.7207488659457957 29.611303682111135 C6.04830322096931 29.01410825064512, 8.818767518986785 25.73632245732961, 11.19822678659628 19.666443705660427 M2.4479832987921037 31.544611606232753 C6.275975638468064 27.834381498241825, 8.919901123928142 23.10972916775699, 12.196686409605247 19.510905971479737 M4.330828850363744 35.822075865254746 C7.390724131198608 32.59298768412677, 8.475572103842829 29.548523918830263, 13.325943553653017 25.302448626742617 M3.9367356328027228 35.54837097718847 C6.134129491839168 31.581173594340697, 9.534450142419194 28.74335630493504, 13.548899516063214 23.609710129345686 M6.123380738251168 41.51419840432776 C8.836463099355582 36.12781871961414, 11.791868564239664 31.99724713376676, 13.396183944805822 29.296312289015084 M5.0666274211241635 39.974827366704844 C8.321331751716242 35.663832154811686, 11.079730493976047 32.17461412001636, 15.493106385027355 28.33942422264318 M4.973863070598954 44.56680548954433 C8.416264627127712 42.091059305378664, 12.510628467088878 36.23889834344306, 17.326524655586123 30.652410747055356 M5.2334792821213245 44.90095188589444 C9.987215318586617 41.74665135325305, 13.692937234602734 37.44421701413559, 18.041581915849832 32.18142093665937 M7.414555730396867 49.48203093882057 C9.098749330050664 46.67742333759438, 12.143849179420165 44.55006984026899, 15.00928984227145 40.73116946478333 M8.042874616669476 49.0629902039409 C10.942673891229756 45.8588336960447, 13.286709396996173 42.71829898679813, 15.354363039867225 40.559490610444506 M8.914075837396895 53.43705826244261 C9.808533247461968 52.27422624285708, 11.735278455232075 50.95878243275426, 13.424799190834557 48.70336618488532 M9.02919191408052 54.30519585773293 C9.970317876182405 52.60249910964818, 10.609315896377469 51.803791731216805, 13.48865550993981 49.01174571453471" style="stroke: rgb(230, 73, 128); stroke-width: 0.5; fill: none;"></path><path d="M8.66968891210854 -1.4465236086398363 C8.735811375817285 8.885908717783169, 10.677610267782585 15.647644222928212, 15.287918599322438 27.118707893416286 M7.096351801417768 -0.002193762920796871 C10.113755977200345 9.127252654870974, 12.842258485360073 17.83304842100479, 15.880418091081083 29.661674574948847 M16.989227326586843 30.9922816734761 C14.673887430224568 35.341562048727646, 10.20575094744563 42.89347295911052, 7.431341977789998 55.30860990099609 M15.944974451325834 29.861739949323237 C12.568973862770944 36.624404153404754, 11.789975780732929 43.37459428290836, 8.837163566611707 57.72252391371876 M6.09570917673409 58.977670131251216 C4.890132562480867 44.62432330913842, 2.833400397412479 36.421695962846286, -1.9719704072922468 28.016469595953822 M8.348047136329114 57.58331774268299 C5.121075316444038 49.50395172256977, 3.93588034056127 39.60367299672216, -0.12591460440307856 28.97613085899502 M0.20574823208153248 28.67291080765426 C1.1599704221915452 19.53162539096549, 5.367821962488815 11.313667384423315, 9.562173338606954 -0.330772103741765 M0.07568094041198492 28.194674626924098 C2.813204639637843 18.002358307484535, 6.154352820152417 6.903915826305745, 8.7993805995211 0.9009194830432534" style="stroke: rgb(0, 0, 0); stroke-width: 1; fill: none;"></path></g><g transform="translate(184 154.5)"><path d="M3.148156655829746 1.4116378361318698 C3.148156655829746 1.4116378361318698, 3.148156655829746 1.4116378361318698, 3.148156655829746 1.4116378361318698 M3.148156655829746 1.4116378361318698 C3.148156655829746 1.4116378361318698, 3.148156655829746 1.4116378361318698, 3.148156655829746 1.4116378361318698 M2.0900222256626715 10.724991471529734 C3.044030888762504 7.091814056651829, 6.946597337854755 1.759122070548265, 9.040797874836887 -0.5050189739061985 M1.299251139055543 10.413869858835618 C3.8604537294157457 6.225634557118028, 6.530462210985938 2.450668131911174, 10.630659817571456 -0.07918123351098028 M3.4244674366884515 16.1497152221953 C4.428759782342323 12.385305868219696, 10.437726594777777 8.745063434034924, 12.94762403109792 -0.40007969634195706 M1.416760973444639 14.151027980130674 C5.678522179275489 11.664978551490648, 8.028839944118404 7.604357183633046, 14.22814244676131 1.304362791221981 M4.4341535895440325 18.98964809618917 C8.7992795909707 13.963655238622035, 14.389619667063245 8.63329392666677, 16.86763828606532 4.087670217141664 M4.955700194866543 17.965833619069578 C8.683484621477392 13.036938659752352, 12.084702359600014 9.80946654367269, 16.963283278748403 3.9671120222324188 M9.209969892043482 20.09803442934531 C11.122422153061674 16.209175377206556, 13.629191871756468 11.463158122365758, 18.81224036994089 6.234607338144058 M8.160381694992864 20.52617459905337 C10.537835104725936 16.834371763882313, 14.83950890088942 13.596488479285672, 18.830111286786167 6.981634376507798" style="stroke: rgb(230, 73, 128); stroke-width: 0.5; fill: none;"></path><path d="M9.170351315000252 -0.6900264414977642 C11.137579223072182 -0.7429843546071871, 13.712335279026338 0.8055050704497917, 15.274191169259899 2.017688894943955 C16.83604705949346 3.2298727194381183, 18.04960514349897 4.899103735796299, 18.54148665640162 6.583076505467216 C19.03336816930427 8.267049275138133, 18.931049942157056 10.449663289547097, 18.2254802466758 12.121525512969457 C17.519910551194545 13.793387736391818, 16.26906536410626 15.525100592153025, 14.308068483514095 16.614249846001382 C12.347071602921929 17.703399099849737, 8.657682889478542 19.123841411203948, 6.459498963122805 18.656421036059594 C4.261315036767067 18.18900066091524, 2.333854063913207 15.399702384694102, 1.118964925379668 13.809727595135268 C-0.09592421315387045 12.219752805576434, -1.1225766169825881 11.130627291102076, -0.8298358680784261 9.116572298706593 C-0.5370951191742641 7.1025173063111104, 1.1005470294180155 3.2492214317149015, 2.87540941880464 1.7253976407623721 C4.650271808191265 0.20157384980984294, 8.351460889999208 0.20779715421750242, 9.819338468241321 -0.026370447008581266 C11.287216046483435 -0.260538048234665, 11.758488602429436 0.3272959867769633, 11.682674888257322 0.3203920334058701 M7.2094053848386075 0.7743983957679177 C9.192613982556043 0.41682167399105435, 11.164611739108043 1.5241034221928516, 13.185563357191487 2.0228710485410453 C15.206514975274931 2.521638674889239, 18.415083654281894 2.2878384674430894, 19.335115093339276 3.76700415385708 C20.255146532396658 5.246169840271071, 19.238644610486208 8.707750832984846, 18.70575199153578 10.897865167024989 C18.172859372585354 13.087979501065131, 17.65795609806515 15.580091470066359, 16.137759379636705 16.907690158097935 C14.617562661208263 18.23528884612951, 11.944278596976298 19.06520412214456, 9.584571680965125 18.863457295214445 C7.224864764953951 18.66171046828433, 3.7442395097776418 17.12859074868229, 1.9795178835696623 15.697209196517248 C0.21479625736168306 14.265827644352207, -1.0628365691286261 12.383844886751945, -1.0037580762827503 10.275167982224204 C-0.9446795834368745 8.166491077696463, 1.3088103964527003 4.508835062763164, 2.333988840644917 3.045147769350799 C3.3591672848371337 1.581460475938434, 4.285915909058304 1.8379289188692887, 5.14731258887055 1.4930442217500133 C6.008709268682796 1.148159524630738, 7.074497150773296 1.2121416062671724, 7.502368919518393 0.9758395866351464" style="stroke: rgb(0, 0, 0); stroke-width: 1; fill: none;"></path></g><g transform="translate(183.5 180.5)"><path d="M3.2758585976801458 1.5226474405758013 C3.2758585976801458 1.5226474405758013, 3.2758585976801458 1.5226474405758013, 3.2758585976801458 1.5226474405758013 M3.2758585976801458 1.5226474405758013 C3.2758585976801458 1.5226474405758013, 3.2758585976801458 1.5226474405758013, 3.2758585976801458 1.5226474405758013 M1.2012299055552476 8.88128614785576 C5.8561565049432405 4.430575632004369, 8.381803343027306 2.139314921073419, 9.46181307128954 0.5301035359133934 M2.1713354317790263 9.24514249587858 C5.282788896093506 4.554129122692158, 8.297286170093756 2.0970186659994074, 10.551469552808882 -0.2618770439545657 M2.1417848148096845 16.58744905601972 C5.946193290197825 12.580946050633345, 8.50603487491804 7.63230739601104, 12.809063208799966 3.7211396838726856 M2.0436858128469932 15.750525314936128 C5.0966105745490475 11.640101768940573, 7.353320226861603 8.669907466214411, 13.878164649985887 1.7168071694860618 M3.5153445567041146 17.16939842428773 C8.583848491034166 13.721586529211411, 9.530565540760612 9.887747238932805, 17.43175300898297 4.460132699906813 M5.347831317599814 17.037833620586838 C8.238831076546976 12.66990479573782, 12.845524086381067 9.539530630858666, 17.115308907332704 5.586901939827936 M8.79973632221915 19.32395998280233 C10.651354677858526 17.617697585556353, 13.023364155746076 13.725407923322889, 18.479111502708456 7.781631705015647 M7.928526447749363 19.75210945171973 C12.824388359103086 15.493176241240121, 16.84337238021186 10.747891748377887, 18.81744578324031 7.615687258112924" style="stroke: rgb(230, 73, 128); stroke-width: 0.5; fill: none;"></path><path d="M9.374088307146717 -0.5641119810879296 C11.162025992872097 -0.4559359769706887, 13.200909224659593 1.7948385886054472, 14.897843088744978 3.2668771415420466 C16.59477695283036 4.738915694478646, 19.276224402879556 6.458183922182881, 19.55569149165902 8.268119336531667 C19.83515858043848 10.078054750880453, 17.877312950230724 12.591698542880035, 16.57464562142175 14.12648962763476 C15.271978292612781 15.661280712389484, 13.642234231923704 16.804975400654175, 11.739687518805194 17.476865845060015 C9.837140805686685 18.148756289465855, 7.081571053274463 18.90761313714423, 5.159365342710699 18.157832294069788 C3.237159632146935 17.408051450995345, 1.03991473457785 14.90343446229612, 0.20645325542260906 12.978180786613354 C-0.627008223732632 11.052927110930588, -0.34103518628087964 8.50183511194306, 0.15859646777925285 6.606310239973193 C0.6582281218393853 4.710785368003324, 1.2952702647827918 2.678736388055661, 3.204243179783404 1.6050315547941434 C5.113216094784017 0.5313267215326258, 10.059021697934606 0.175775496835203, 11.612433957782926 0.16408124040408723 C13.165846217631247 0.15238698397297146, 12.792459638754835 1.2834612816362274, 12.524716738873325 1.5348660162074488 M11.673992671948493 -0.09525603286032869 C13.459453288135455 -0.003363048531817611, 15.379669154780284 2.1257040045018964, 16.498036258988176 3.6217472535382376 C17.616403363196067 5.117790502574579, 18.591583464455173 7.000485156330195, 18.384195297195845 8.881003461357716 C18.176807129936517 10.761521766385236, 16.281380462033244 13.541801407352882, 15.253707255432214 14.904857083703362 C14.226034048831186 16.267912760053843, 14.020027087227255 16.677869130347013, 12.218156057589676 17.0593375194606 C10.416285027952096 17.440805908574184, 6.263867787158903 17.977305555222173, 4.442481077606735 17.193667418384887 C2.6210943680545675 16.4100292815476, 2.140496784167592 14.122419014923471, 1.2898358002766717 12.357508698436883 C0.4391748163857513 10.592598381950294, -1.1000173864319176 8.494464355958566, -0.6614848257387873 6.604205519465361 C-0.22295226504565696 4.713946682972156, 1.7122675159469427 1.8748382263700512, 3.921031164435454 1.0159556794776528 C6.129794812923965 0.15707313258525424, 11.2503993467868 1.7010501540520258, 12.59109706519228 1.4509102381109695 C13.93179478359776 1.2007703221699133, 11.977865231646353 -0.37994177849859473, 11.96521747486833 -0.4848838161686846" style="stroke: rgb(0, 0, 0); stroke-width: 1; fill: none;"></path></g><g transform="translate(181.5 209.5)"><path d="M0.5690193951828326 5.794692987187892 C0.5690193951828326 5.794692987187892, 0.5690193951828326 5.794692987187892, 0.5690193951828326 5.794692987187892 M0.5690193951828326 5.794692987187892 C0.5690193951828326 5.794692987187892, 0.5690193951828326 5.794692987187892, 0.5690193951828326 5.794692987187892 M-0.5000823823641936 12.562927301913732 C2.316847764599308 10.751402385284983, 4.245849477368845 7.713339473545097, 6.838157661118826 3.9669884798031667 M-0.17006676526739695 12.546780181383946 C2.928900985644715 9.144615003781905, 6.138657924794713 5.826076426057851, 7.045388760510183 3.81938719995398 M2.595626100473757 16.386750754896543 C4.742931609174324 10.833325267357072, 8.200482391763622 6.969453493003901, 14.705945608190891 1.9381400727268452 M3.157255371235962 14.79327971730008 C5.817485691010735 12.01754804367855, 7.6749912459592355 9.00285376423127, 13.132655211709139 3.237411502056956 M5.7506902936654125 17.170068691443408 C8.304815796738586 14.259289755924316, 10.472367516485054 12.061981669862819, 17.251518451700214 3.6043215314854073 M6.306850033513639 16.55687090517556 C10.613387855760118 12.706926388759344, 13.142061908165308 9.713440881877045, 17.754549934154603 3.4370110873129356 M10.470358720173964 17.224039125013594 C15.117254334047644 15.907896683991762, 17.044379049377508 12.866772984404017, 18.695164543588767 9.86476540904062 M11.05554915287895 18.151416227351373 C13.106083140310872 15.36777355352305, 16.1174636918658 12.508498369956103, 18.879072528717227 8.487115545045008" style="stroke: rgb(230, 73, 128); stroke-width: 0.5; fill: none;"></path><path d="M4.6786883464027955 1.4228979083270161 C6.104458866862195 0.5943698557184884, 8.920909830647544 0.32129833038040106, 11.136550931601771 0.6782893463441741 C13.352192032556 1.0352803623079472, 16.66935698234996 1.9076744765001001, 17.972534952128164 3.5648440041096547 C19.27571292190637 5.22201353171921, 19.27238734357439 8.630561348022265, 18.955618750270993 10.621306512001501 C18.638850156967596 12.612051675980737, 17.387184784391998 14.336990931944477, 16.07192339230778 15.509314987985073 C14.756662000223566 16.68163904402567, 12.909364996781058 17.603190881810985, 11.064050397765698 17.655250848245082 C9.218735798750338 17.70731081467918, 6.819590393917125 16.758566426521597, 5.000035798215624 15.82167478658966 C3.1804812025141223 14.884783146657725, 0.8554244951806332 13.739346842360687, 0.14672282355668997 12.033901008653462 C-0.5619788480672533 10.328455174946237, -0.23243016500400804 7.423568380905124, 0.747825768471964 5.588999784346308 C1.7280817019479362 3.7544311877874925, 5.146708852026946 1.8269734673179703, 6.028258424412522 1.02648942930057 C6.909807996798098 0.22600539128316977, 5.883906408422075 0.7659495867010007, 6.037123202785422 0.7860955562419072 M11.908184129511644 0.4925252505410551 C13.836101094748159 0.46760847632659885, 16.077746229352726 1.3079986187687347, 17.284008509558454 2.7377289423730993 C18.490270789764182 4.167459265977464, 19.109895584163255 7.027757488564961, 19.145757810746012 9.070907192167242 C19.18162003732877 11.114056895769522, 18.852226935069652 13.37578054938221, 17.499181869055008 14.996627163986785 C16.146136803040363 16.61747377859136, 13.44678070410812 18.716670047608147, 11.027487414658157 18.7959868797947 C8.608194125208195 18.875303711981253, 5.003801120993234 16.51602695514367, 2.983422132355237 15.472528157106108 C0.9630431437172393 14.429029359068545, -0.5582994771384383 14.387025980039782, -1.0947865171698279 12.534994091569327 C-1.6312735572012174 10.682962203098873, -1.449000101323588 6.231045431149043, -0.2355001078331007 4.36033682628338 C0.9779998856573866 2.489628221417717, 3.961504968742356 2.0162163274823417, 6.186213443773096 1.310742462375348 C8.410921918803837 0.6052685972683545, 11.888318408554365 0.21529503671496403, 13.112750742351341 0.12749363564141802 C14.337183076148317 0.039692234567872006, 13.905850610735069 0.5344523544616391, 13.532807446554948 0.783934055934072" style="stroke: rgb(0, 0, 0); stroke-width: 1; fill: none;"></path></g><g transform="translate(186 239.5)"><path d="M1.5331360253237807 0.007721820733433971 C1.5331360253237807 0.007721820733433971, 1.5331360253237807 0.007721820733433971, 1.5331360253237807 0.007721820733433971 M1.5331360253237807 0.007721820733433971 C1.5331360253237807 0.007721820733433971, 1.5331360253237807 0.007721820733433971, 1.5331360253237807 0.007721820733433971 M-0.7273638574160561 7.158216335297913 C1.8979466447398239 5.627737952648354, 2.671346118372366 4.339429851825881, 6.6432832358273055 0.6431724566233492 M0.16657843722627313 8.146721015171499 C1.5986724539901067 6.497121922158468, 2.6468938774726682 4.399801035458977, 5.983623872125365 1.1260272002977467 M1.916747628544611 10.923501505952139 C4.340353833511162 9.502631194005373, 6.671908964138897 5.885580957349531, 9.374536357094094 4.04223750799993 M2.2507912617373886 11.543719354521293 C4.972225641544542 8.513993643220608, 6.756547205158426 5.932300809641159, 8.997870299239203 3.994958794564996" style="stroke: rgb(230, 73, 128); stroke-width: 0.5; fill: none;"></path><path d="M1.61629965858874 -0.08794699560428931 C2.2036832809383236 -0.6238831133046266, 3.554496461757041 -0.5101845588826874, 4.500998671010613 -0.06422370256360921 C5.447500880264186 0.38173715375546896, 6.905679568124176 1.4864577371647794, 7.295312914110173 2.5878181423101796 C7.68494626009617 3.6891785474555796, 7.138577365481199 5.339288478369143, 6.838798746926595 6.543938728308792 C6.539020128371991 7.74858897824844, 6.051844756506936 8.84248768285902, 5.4966412027825475 9.81571964194807 C4.941437649058159 10.78895160103712, 4.260699509507516 12.231005210751894, 3.507577424580265 12.383330482843093 C2.7544553396530147 12.535655754934291, 1.6222748196445826 11.475396068100457, 0.9779086932190442 10.72967127449526 C0.3335425667935057 9.983946480890063, -0.2980119365563714 9.197120850478068, -0.35861933397296575 7.908981721211909 C-0.41922673138956007 6.620842591945748, 0.10470926497914046 4.334172311095003, 0.6142643087194783 3.000836498898298 C1.1238193524598161 1.6675006867015927, 2.2379533620453564 0.24431754875024708, 2.6987109284690614 -0.09103315196832096 C3.1594684948927663 -0.426383852686889, 3.2451859386673285 0.8180274539876576, 3.378809707261707 0.9887322945868897 M1.9721233211331524 -1.3040326200511476 C2.4890584174274486 -1.9583192336147155, 4.482026624350292 -1.1166850148135907, 5.389054670006509 -0.3329386783694348 C6.296082715662726 0.4508076580747211, 6.9613445100959686 1.7997004506005967, 7.414291595070456 3.3984453986137875 C7.867238680044944 4.9971903466269785, 8.276852509239093 8.02933095320884, 8.106737179853436 9.25953100970971 C7.936621850467779 10.48973106621058, 7.299590470649415 10.336129367804233, 6.39359961875651 10.779645737619003 C5.487608766863605 11.223162107433772, 3.5576377060342015 12.031849502738442, 2.6707920684960085 11.920629228598331 C1.7839464309578155 11.80940895445822, 1.5882585678411174 11.142110498822126, 1.0725257935273511 10.112324092778334 C0.5567930192135848 9.082537686734542, -0.4427219789983379 7.08670014902328, -0.4236045773865893 5.741910792335582 C-0.4044871757748407 4.397121435647883, 0.38227449788602985 3.2312923226082924, 1.1872302031978426 2.0435879526521443 C1.9921859085096552 0.8558835826959963, 3.9821833223324132 -0.9077248826283244, 4.406129654484287 -1.3843154274013063 C4.830075986636161 -1.8609059721742882, 3.8588753875964263 -1.0311361478851362, 3.730908196109086 -0.8159553159857476" style="stroke: rgb(0, 0, 0); stroke-width: 1; fill: none;"></path></g><g transform="translate(185.5 259.5)"><path d="M3.3772621068390354 -1.0392298204419723 C3.3772621068390354 -1.0392298204419723, 3.3772621068390354 -1.0392298204419723, 3.3772621068390354 -1.0392298204419723 M3.3772621068390354 -1.0392298204419723 C3.3772621068390354 -1.0392298204419723, 3.3772621068390354 -1.0392298204419723, 3.3772621068390354 -1.0392298204419723 M3.0166436986238754 5.709823493804066 C3.727013980134838 5.4031989796523305, 4.595968827595362 4.100175791275602, 6.345793691611032 2.02854709085374 M2.223787544312427 5.950398725881456 C3.6636070611957265 4.727568605196663, 4.463945746632218 3.4836349371339264, 6.467016103731583 1.7556025619648292 M1.6240366193964322 12.753640393175504 C3.3588830932399856 10.543880203329243, 5.144178907501657 9.009368078332852, 8.215964952738032 7.085435277539263 M2.280650079952105 12.141994876049777 C3.147249533439903 11.225747663679433, 4.376392112989786 9.798650665015895, 7.460921139524326 6.765527638736138" style="stroke: rgb(230, 73, 128); stroke-width: 0.5; fill: none;"></path><path d="M3.2405864944564655 -0.8820025139194794 C3.7899493455816566 -0.9906263808604128, 5.041775481146877 -0.18084337175870502, 5.686432050805806 0.9043460988490368 C6.331088620464734 1.9895355694567787, 6.96676071713394 4.126231026238825, 7.108525912410034 5.629134309726972 C7.250291107686128 7.132037593215118, 6.8427092085977375 8.934239535987215, 6.537023222462372 9.921765799777916 C6.231337236327006 10.909292063568616, 5.96786079661333 11.170395573033995, 5.274409995597837 11.554291892471177 C4.580959194582345 11.93818821190836, 3.1170961457592337 12.64867113996292, 2.3763184163694158 12.225143716401014 C1.6355406869795979 11.801616292839109, 1.1219475949883608 10.343086984714988, 0.8297436192589296 9.013127351099744 C0.5375396435294983 7.6831677174844994, 0.602531226234993 5.448033151023824, 0.6230945619928279 4.245385914709547 C0.6436578977506627 3.0427386783952697, 0.3393208269722551 2.4672550636685506, 0.953123633805939 1.7972439332140784 C1.566926440639623 1.1272328027596061, 3.56351549924146 0.31510223335859305, 4.305911402994932 0.22531913198271347 C5.048307306748403 0.1355360306068339, 5.498243549713696 1.0539186914332421, 5.407499056326769 1.258545324958801 M3.1152684585170327 -0.09259621747914437 C3.5575494949847486 -0.6279986167538069, 4.384766588973684 -0.20446288549447333, 4.840964249986341 0.5817730336530431 C5.297161910998997 1.3680089528005595, 5.7379806081471765 3.49981479275186, 5.852454424592974 4.6248192974059545 C5.966928241038771 5.74982380206005, 5.8231318942219 6.324976531101506, 5.527807148661127 7.331800061577611 C5.232482403100354 8.338623592053716, 4.339968534129711 9.96401442843945, 4.080505951228338 10.665760480262584 C3.821043368326966 11.367506532085718, 4.572620609636145 11.742812904501587, 3.971031651252893 11.542276372516415 C3.369442692869641 11.341739840531243, 1.0465077605662865 10.36168878546453, 0.4709722009288284 9.462541288351547 C-0.10456335870862954 8.563393791238564, 0.41355648683579366 7.214751831587634, 0.5178182934281454 6.147391389838518 C0.6220801000204973 5.0800309480894015, 0.787590845842582 4.086475588658974, 1.0965430404829393 3.0583786378568503 C1.4054952351232965 2.0302816870547264, 2.1698231359942723 0.348123891940066, 2.3715314612702896 -0.021190314974223412 C2.573239786546307 -0.3905045218885128, 2.1542489869300474 0.5122119981282844, 2.3067929921390418 0.8424933963711139" style="stroke: rgb(0, 0, 0); stroke-width: 1; fill: none;"></path></g><g transform="translate(41.5 10)"><text x="0" y="25" font-family="Virgil" font-size="28px" fill="#000000">Weapon Collision:</text></g><g stroke-opacity="0.6" fill-opacity="0.6" transform="translate(146 66.5)"><path d="M13.971094529793312 6.84483521413091 C13.971094529793312 6.84483521413091, 13.971094529793312 6.84483521413091, 13.971094529793312 6.84483521413091 M13.971094529793312 6.84483521413091 C13.971094529793312 6.84483521413091, 13.971094529793312 6.84483521413091, 13.971094529793312 6.84483521413091 M3.5585329904525196 25.968377697033407 C6.829586634452877 18.861354374388224, 14.713147434567286 16.07945476426662, 19.404725171039814 5.628579320393556 M4.520313467767707 24.07379817844701 C7.3524111234721765 19.674310989881214, 13.488475829695833 14.717132485036519, 21.127624656419272 5.709638072185272 M4.4104535036231844 29.443411283445855 C10.728401775122087 20.027466601797727, 16.3113843362811 14.29057688039003, 27.664358402644577 2.383362610094027 M4.881005996509966 29.482795421284933 C10.357513316490628 23.75475423065123, 14.509557937309504 18.408870154429437, 27.439292385285082 2.2216386499030154 M4.718375298532131 33.556315658432524 C12.620322110234206 27.69953577212599, 21.683194912176553 17.30423750965628, 33.268314311131604 1.6982776456892612 M5.062220833601835 35.324139008117 C14.321567399224936 24.94639943065202, 23.512372430780786 15.157789419146667, 34.438441512956985 2.9084369586229446 M4.821600674313853 38.148470324091186 C14.106184399191587 28.44753310236186, 26.08135659111242 18.99942731372862, 38.56332575361641 1.334972268831482 M6.017640160990307 40.17053168322848 C15.623416539317354 27.7722301712638, 26.46214248726596 15.044065187454098, 37.730716029362995 2.430972832184782 M8.534657633036385 42.0204752209602 C18.692393049486363 32.41744853591228, 27.296010940392925 21.269712114352966, 44.684997116205 3.292572240950154 M10.039453113555918 42.00311537934524 C19.236706328948408 29.766136986491386, 29.257198624495828 19.036558047624148, 44.69891270342161 3.0118827742054926 M12.588237357872206 43.26692317202844 C26.009952990888173 30.944462566998673, 39.0847542924806 13.536610809951089, 50.183568198031864 3.5765195641430445 M14.324293257283646 44.42124366164364 C27.367220839320318 27.352609485870044, 41.41830204852655 11.361596629426778, 49.25374496707984 2.0793382789703436 M18.376138676946304 45.951046599170894 C27.30210531763568 35.75900980250701, 35.00988882538948 24.365261413759065, 54.89815032722202 -0.07026583971484968 M16.84518305311098 45.19212844418618 C29.226360506909742 32.11368431213335, 40.27119680410905 19.810391668780714, 55.83307903127518 1.8732075105418318 M21.924972918383688 46.628265424262565 C27.915344749829348 35.894548922236226, 39.4327021750222 27.77851784623885, 58.582490244928934 5.601452191919794 M20.446238711975425 46.64938789103536 C31.295701450078276 36.649660693296006, 40.326976673840605 23.69995185061888, 58.152697769973614 3.0888936236507796 M23.14416391030935 49.09618706917846 C35.06351944304919 36.62027670432859, 46.26562716693017 23.564083258265057, 64.71556039523963 4.550130260030887 M24.217670194814477 50.31804641625369 C39.79778506249655 32.44592564325425, 54.49059384979138 15.703049319592836, 63.14189101007466 3.9552389614685985 M26.41988895185779 51.899316036016344 C38.058143187993416 38.09336814457561, 49.45423260556892 29.336490237719886, 65.22279154829812 8.004669946938964 M28.214722183575137 52.29424426412642 C40.1502648137438 39.356038659849645, 50.61065575806633 25.574587277409435, 67.78968815453482 6.670749598503324 M33.80143298711603 50.550796425760126 C42.90712821934741 38.94252056061434, 55.305735426903944 24.326340518538867, 72.28666309021037 9.667322014073491 M32.769028255156925 51.341980027824974 C44.294680671243114 37.743906525598234, 56.831672894060304 23.951298607184793, 71.08044847227256 8.48149953837192 M38.37848025723755 53.33892690095313 C48.92469560605662 42.21051752321267, 58.07419341764776 30.907566262613017, 74.34823079112041 10.501363043755006 M37.99090253352582 52.574625612080176 C49.29945764317419 38.272133902871275, 60.97441247465177 25.862061627440816, 76.12038886624444 10.343807355582427 M44.09170459034735 52.53006488347036 C52.52251061671241 45.19546630323129, 60.062145079793765 33.07410479621085, 77.94954000814373 12.198128377635747 M43.70492997961932 52.53283043095452 C54.84367592723442 38.79447402946496, 69.10786418110531 22.759683181993235, 78.10499707637841 12.266269133974582 M49.01459231457043 53.382755295186804 C59.23823820021445 40.96079703999187, 72.67460124534432 26.574689332746548, 83.01544859839584 14.191140857367927 M46.856789304374935 54.0736501485105 C59.04370602136909 40.00916562982056, 70.62833930724653 26.83859819240908, 83.7258545926025 12.198887207388097 M54.6034422580318 52.89773055797746 C63.36015447045124 43.01291758715674, 75.02475654421558 27.16850872361162, 84.1672727450492 16.934368305940417 M52.888252968730164 52.99554667881062 C60.92147016849501 44.00171359864277, 69.23279532277907 33.79369442857462, 84.60928248090168 17.186327640999345 M58.291306719865936 55.32262017394011 C62.674117725177 45.15567421631236, 71.08259112782706 39.50659267105653, 85.81367239219084 21.331579824337126 M56.45612815463199 55.41809776614015 C67.22084132577953 42.58786764443767, 77.84734849475163 30.43284551985394, 86.53222681817546 20.672276527979733 M63.986463702140895 52.864274083613125 C71.1926441746378 41.910347196037996, 80.84274615535153 36.55071000120308, 86.87188386794577 25.297570334433058 M64.05572899696097 52.36932034322497 C70.79371697994392 44.00911271353284, 78.17942704568708 36.241295944997674, 88.26849131536136 24.935664532391765 M72.16941341701964 49.26882552976258 C80.33666317105401 44.145905934580746, 86.29558876316918 36.70152133388014, 88.64195600043897 27.4893222581032 M72.24287309069256 49.24073339501865 C76.10907481504185 43.849925340695734, 80.17510391805077 40.644418302260725, 89.58797343339685 28.69682856829793" style="stroke: rgb(21, 170, 191); stroke-width: 0.5; fill: none;"></path><path d="M27.187918240994215 2.722545200505035 C35.13290417936419 0.7332816929125434, 48.39649544125247 0.30221425869868224, 57.21303753386029 1.604363609318984 C66.0295796264681 2.9065129599392856, 74.95370661482559 6.200920206506504, 80.08717079664112 10.535441304226845 C85.22063497845664 14.869962401947186, 88.19828142503206 22.187950836034506, 88.01382262475346 27.61149019564103 C87.82936382447485 33.035029555247554, 84.63669345723339 38.97776009038242, 78.98041799496946 43.076677461865984 C73.32414253270552 47.17559483334955, 62.95125399399002 51.027446840124746, 54.07616985116989 52.20499442454242 C45.20108570834975 53.382542008960094, 33.81882779076879 52.24496905161725, 25.729913138048634 50.141962968372034 C17.640998485328474 48.03895688512682, 9.600807383783673 44.164905550820194, 5.542681934848936 39.586957925071125 C1.484556485914199 35.00901029932206, 0.021144454318936967 28.079853832010624, 1.3811604444402121 22.674277213877616 C2.7411764345614875 17.26870059574461, 8.524043422974962 10.87123349883784, 13.702777875576587 7.153498216273075 C18.88151232817821 3.4357629337083093, 28.587108299752938 1.4942861266924872, 32.453567160049964 0.3678655184890225 C36.32002602034699 -0.7585550897144422, 36.66284629784074 -0.0939619939707666, 36.90153103735874 0.3949745670522873 M36.01128369626288 1.1794565954881904 C44.31161914913758 0.024686095756979887, 56.6251581420895 1.74696761398704, 64.3177135841081 4.197657475468802 C72.0102690261267 6.648347336950563, 78.12822038789014 11.140078516941498, 82.16661634837452 15.883595764378759 C86.2050123088589 20.62711301181602, 90.24413721841165 27.678092531315873, 88.54808934701443 32.658760960092366 C86.8520414756172 37.63942938886886, 78.85154483487281 42.384924914218, 71.99032911999117 45.76760633703772 C65.12911340510954 49.15028775985744, 55.918410933192405 52.452044263372635, 47.380795057724626 52.95484949701069 C38.84317918225685 53.45765473064875, 28.143924776135094 51.84906100218499, 20.764633867184518 48.784437738866046 C13.385342958233942 45.7198144755471, 6.094103339894641 39.791687988826745, 3.1050496040211613 34.56710991709703 C0.11599586814768115 29.342531845367308, 0.001147865952475069 22.384756251283797, 2.8303114519436363 17.436969308487733 C5.659475037934797 12.489182365691669, 14.583550650731869 7.933110797925011, 20.08003111996813 4.880388260320647 C25.57651158920439 1.8276657227162825, 33.14550730293884 -0.3871380361682011, 35.80919426736119 -0.879365917138454 C38.472881231783546 -1.371593798108707, 36.21843052690049 1.2374377891555661, 36.062152906502256 1.9270209744991291" style="stroke: rgb(0, 0, 0); stroke-width: 1; fill: none;"></path></g><g><g transform="translate(340 97.5)"><path d="M1.0456837769597767 -0.5984023746103048 C-19.58930137989422 4.799757792924841, -102.90380523639422 27.050767348582546, -124.08102481402457 32.65120222009718 M0.34223808023147306 -1.0656291465740653 C-20.427740222386397 4.548391852996622, -105.26553788669096 27.43400487355578, -126.34453427669592 32.765929611148316" style="stroke: rgb(0, 0, 0); stroke-width: 1; fill: none;"></path></g><g transform="translate(340 97.5)"><path d="M-102.68251511551756 17.212001392949077 C-107.40318545479589 18.938857519363808, -113.65552686390471 23.489689651205417, -127.34802759503015 33.13996029992588 M-102.30361512493658 15.093446727242025 C-107.43950526652806 19.472998771289767, -113.76567112836831 24.459144935927227, -125.81139645882882 31.861535873943943" style="stroke: rgb(0, 0, 0); stroke-width: 1; fill: none;"></path></g><g transform="translate(340 97.5)"><path d="M-97.4693264740823 37.059990373564965 C-103.67954743175719 33.32629979251837, -111.37806478640151 32.37115732699382, -127.34802759503015 33.13996029992588 M-97.09042648350132 34.94143570785791 C-103.34087671950728 34.54418062676585, -110.92742945995833 34.73170034632375, -125.81139645882882 31.861535873943943" style="stroke: rgb(0, 0, 0); stroke-width: 1; fill: none;"></path></g></g><g transform="translate(352.5 78)"><text x="0" y="18" font-family="Virgil" font-size="20px" fill="#000000">Texture</text></g><g stroke-opacity="0.6" fill-opacity="0.6" transform="translate(177.75 94)"><path d="M7.8369875487927985 0.18752437385242127 C7.8369875487927985 0.18752437385242127, 7.8369875487927985 0.18752437385242127, 7.8369875487927985 0.18752437385242127 M7.8369875487927985 0.18752437385242127 C7.8369875487927985 0.18752437385242127, 7.8369875487927985 0.18752437385242127, 7.8369875487927985 0.18752437385242127 M5.987258058340544 9.215722983287545 C6.3088628917664895 8.4708722916905, 7.472640952277784 7.195479836642707, 8.91461012560963 5.52687222441707 M5.852639643541792 9.050222232755171 C6.933671415371223 7.547820040602562, 8.28409504725661 5.851409154563383, 8.903357194988946 4.836658233320827 M2.5386806991291038 18.258448718099878 C6.565136737425567 14.85257349278417, 7.64991194237121 11.171864007533907, 10.179532832722904 9.050711633393183 M3.547093080250993 17.032497852792055 C5.11804626712814 15.205706315812733, 7.8611391422878985 12.104677905114356, 10.378537826170938 8.920750363438962 M0.577395543932679 26.96325244276862 C3.207775219654251 24.045960260804623, 8.197694434964077 17.99218500836086, 10.677170488602167 13.93794090661535 M1.1159586877205845 27.544766228758576 C2.933331715502834 23.37610465786049, 6.432204326418939 20.574668071140753, 11.162899114136268 14.14442406326847 M0.838960400565127 31.200291291855205 C3.788822547527295 29.413515701910363, 6.97913464810909 23.518464520779382, 12.998785904986363 19.25564751337203 M2.709613343669633 30.288507889442077 C6.908855243173988 26.139197639196134, 10.180633303723235 21.36263561209077, 12.633706841064196 18.92415292645725 M3.259607389775468 34.890951808565305 C7.081845414136728 30.789744133650657, 9.092018709869594 29.430449957624223, 15.113000337798551 23.32047611581619 M3.5007214001113454 35.20534473170993 C7.284880170619008 30.727116741593075, 11.020437196459602 27.35432187305402, 13.597598137399585 23.840860657296062 M4.791641412243504 41.12519268836898 C7.317380843450234 35.749352193407724, 12.097751250605105 34.405449887519886, 15.361240434027573 27.538103512190908 M4.7527861550322505 40.54307184397315 C7.146048175425499 37.40956525100008, 10.987507071746819 33.588403268074536, 14.172387949922419 28.939843272260084 M5.491411047942155 46.72521982323056 C9.329676531623718 41.3989915991891, 12.575601201516736 36.3117489121765, 17.1001425434556 32.561476094592756 M6.093044697913491 45.18313758959672 C8.826814598663685 40.4577424400464, 13.132472094663376 38.16335642918839, 17.38322962109932 31.857801034711695 M7.866558859968544 49.725098493205046 C9.205439779114744 47.0316773788613, 12.208652044842633 43.83899950618592, 14.762589182132128 41.04360387955751 M7.33322218275255 48.63035259998742 C10.666362271300237 46.307562338906436, 13.7664551991919 42.16794769032683, 16.061978798718396 39.879786115297634 M8.187432486490225 54.63586664657053 C10.141868591027182 52.56698419422432, 12.050853106665844 50.013057015900955, 13.642589546926713 49.06164510929835 M8.599480032893709 54.08297908907701 C9.651726341835971 52.812369180456024, 11.078897218001487 51.19637597675056, 13.142632355774214 48.8280709870613" style="stroke: rgb(134, 142, 150); stroke-width: 0.5; fill: none;"></path><path d="M7.437542861327529 1.631459141150117 C9.978808139534667 6.085664081340656, 11.625457878215238 17.1888742914889, 16.58226049505174 30.296356642618775 M7.797373217530549 -0.9974165828898549 C10.061902637174354 9.324636731715874, 11.946773987868802 18.117598411766814, 14.023715210147202 28.756909015588462 M16.529623871669173 29.4739093426615 C13.155022132080047 36.026266069961714, 11.687439292818308 43.763554555056615, 8.334259336814284 56.032447362318635 M15.418041181750596 28.26588428299874 C12.562678735684603 35.69311408557929, 11.862163225077092 43.34661205754615, 7.185899478383362 57.55372104328126 M8.398093050345778 57.3496332410723 C6.15283045757562 46.00737100206315, 1.5272349378839136 34.58162434846163, -1.375695938244462 30.78136500157416 M7.041887742467225 57.96321663539857 C4.819325560852885 47.685371487103396, 3.4736784798651925 38.6710959463194, 0.7267811419442296 29.452502789907157 M1.1976745184510946 29.94668015278876 C3.979536978462711 18.03079757278785, 7.407717766175047 5.806736468784511, 8.941103165969253 -0.009075498208403587 M0.21899224538356066 29.9746769098565 C3.5851123402547094 17.589828339051454, 6.310458138836548 5.89665025539696, 8.795072359032929 0.9378428785130382" style="stroke: rgb(0, 0, 0); stroke-width: 1; fill: none;"></path></g><g stroke-opacity="0.6" fill-opacity="0.6" transform="translate(173.75 156)"><path d="M1.2992271500228068 3.779426917623222 C1.2992271500228068 3.779426917623222, 1.2992271500228068 3.779426917623222, 1.2992271500228068 3.779426917623222 M1.2992271500228068 3.779426917623222 C1.2992271500228068 3.779426917623222, 1.2992271500228068 3.779426917623222, 1.2992271500228068 3.779426917623222 M0.7152885010380509 10.857040061761223 C4.661803720176775 6.153354678951595, 6.027671602979118 3.3650646897519616, 7.25962574801419 1.5792110559634482 M0.5892013279170008 9.703106335556665 C3.3487590045570244 7.29878633199095, 5.211842641775469 4.4467340242316356, 8.518564152140282 2.2949166265885896 M4.541007817932886 13.233834274594031 C8.425349440700678 8.56293070010804, 11.662644411061107 5.457577418931303, 14.016436060727164 0.9290724821725949 M3.3092867312724863 12.325260090424038 C7.917738498384834 8.279702090832547, 12.370821509958995 4.439903399928209, 14.446092962822467 1.8973935245407834 M5.39270207442375 18.407133689237202 C9.34555560550296 11.139808961629193, 14.709198000676793 8.414628563560562, 19.007999176531275 1.5717858637098963 M5.381709427181948 16.98105868026 C10.513311390528576 11.665735502221478, 12.883662371999899 6.8579790622005365, 18.082535287457695 2.7043963929054136 M8.8950199889903 16.714640151556395 C11.635363115725587 14.55657508309161, 17.17494256023641 9.943275717931455, 22.48884373770451 4.519148658251717 M10.004948876933106 18.591990038739333 C13.013212181468381 14.138173019612095, 16.61756600251601 10.52774395729792, 21.32873007657362 4.372612209048449" style="stroke: rgb(134, 142, 150); stroke-width: 0.5; fill: none;"></path><path d="M12.838897139398068 0.5578708850297645 C14.951710761072896 0.9293319515120924, 17.691479430866377 1.8143159423344832, 18.620720469424995 3.5956540396201433 C19.549961507983614 5.376992136905804, 19.043593556438765 9.198979484119274, 18.414343370749783 11.245899468743724 C17.785093185060802 13.292819453368175, 16.258321486385128 14.839046837802787, 14.845219355291103 15.877173947366842 C13.432117224197077 16.915301056930897, 11.847232763735782 17.563177015378187, 9.935730584185626 17.474662126128056 C8.024228404635469 17.386147236877925, 4.838466487335746 16.57054369809294, 3.3762062779901623 15.346084611866058 C1.9139460686445782 14.121625525639175, 1.5213976506118623 12.040654173169704, 1.162169328112121 10.127907608766753 C0.8029410056123798 8.215161044363802, 0.3053770976980893 5.490069000707108, 1.2208363429917153 3.869605225448348 C2.1362955882853414 2.2491414501895877, 4.603147069150232 0.921509045891178, 6.654924799873877 0.40512495721419306 C8.706702530597521 -0.11125913146279187, 12.46761048752222 0.5884551364301785, 13.531502727333583 0.7713006933864381 C14.595394967144946 0.9541462503426977, 13.043557760928014 1.5017328970435109, 13.038278238742052 1.5021982989517504 M12.368167090285334 0.6874208091178993 C14.342910893677143 0.7246070709170002, 17.35488911710669 1.9633475554409083, 18.252400844321908 3.4149011993186456 C19.149912571537126 4.866454843196383, 18.268814327090457 7.274883063243836, 17.75323745357663 9.396742672384322 C17.237660580062805 11.518602281524808, 16.26121043021804 14.694359944926676, 15.15893960323895 16.146058854161563 C14.056668776259862 17.597757763396448, 12.914404238819532 18.238455919838, 11.139612491702094 18.10693612779364 C9.364820744584655 17.975416335749284, 6.238354672327887 16.509395017402376, 4.510189120534317 15.356940101895418 C2.7820235687407475 14.20448518638846, 1.3537708784046854 13.035127737018154, 0.7706191809406757 11.192206634751898 C0.1874674834766662 9.349285532485641, 0.33393478423049183 6.223750029564356, 1.0112789357502603 4.299413488297879 C1.6886230872700287 2.3750769470314017, 2.8860632898176943 0.43155563218865334, 4.8346840900592865 -0.3538126128469674 C6.783304890300879 -1.1391808578825882, 11.818868526008284 -0.42615097452649014, 12.703003737199815 -0.41279598191584554 C13.587138948391345 -0.39944098930520094, 10.179192957559488 -0.40758601891682644, 10.139495357208467 -0.2736826571830999" style="stroke: rgb(0, 0, 0); stroke-width: 1; fill: none;"></path></g><g stroke-opacity="0.6" fill-opacity="0.6" transform="translate(173.25 182)"><path d="M1.5400560074940106 2.663763256157562 C1.5400560074940106 2.663763256157562, 1.5400560074940106 2.663763256157562, 1.5400560074940106 2.663763256157562 M1.5400560074940106 2.663763256157562 C1.5400560074940106 2.663763256157562, 1.5400560074940106 2.663763256157562, 1.5400560074940106 2.663763256157562 M-0.06712294090174353 10.869079493955951 C2.384245444456402 6.263984883111765, 6.9257009307830515 2.301962611816876, 7.759195570203557 -0.2513446950553888 M-0.15787049359277106 10.093963545366432 C3.4910722751617618 6.711687279099626, 7.090243772856288 3.3080470478074666, 8.313413768981665 1.0153285229844071 M1.4997027535538563 13.352020904438897 C4.324846893847754 9.090571239481504, 10.882635818105152 3.815700786769214, 14.558954323434822 0.8427869705131532 M1.577573622165937 13.856719678191796 C4.533006779593139 9.94209335479452, 9.357114826537495 6.7330563307696725, 12.689845100117466 0.2714682184739292 M4.4628555581471865 19.760797792334827 C9.10295639192966 15.050222661902087, 9.130606627077483 9.035443605846385, 15.407096948523282 1.63499301677877 M3.886785410580689 18.27870460994241 C6.400152698205826 14.341282882310951, 10.520652733730259 11.404435241596367, 17.948215046014845 3.9466770319857627 M10.17229838068405 19.034540927467702 C11.77552917238367 12.896069629843279, 16.246796250640983 11.803336220473241, 18.996951190891657 6.148872743902465 M9.093318078013079 17.076350697047843 C12.091755064595898 15.016584859702798, 15.301024988595703 11.291426523452223, 19.507885530495066 6.460379740066563 M15.128307865841725 17.507753412840465 C16.060887889733948 15.771535345017881, 17.68298959890999 13.58067229553545, 19.402681016718965 12.513433541017427 M14.875742249239646 17.812874413929457 C16.18344163838039 16.746364833060994, 17.30626261273996 14.973738396851951, 19.29437330172583 12.691723107439309" style="stroke: rgb(134, 142, 150); stroke-width: 0.5; fill: none;"></path><path d="M14.536140438418457 0.30529730539900335 C16.063336050021817 1.0386245687150546, 16.84628986586609 2.8827484462070503, 17.569033000325906 4.795301475597754 C18.29177613478572 6.707854504988458, 19.221781161712784 9.677212074680556, 18.872599245177344 11.780615481743226 C18.523417328641905 13.884018888805896, 17.138896187714604 16.530311375586386, 15.47394150111326 17.41572191797377 C13.808986814511913 18.301132460361153, 11.096685118364313 17.322169627906224, 8.88287112556927 17.093078736067532 C6.669057132774228 16.86398784422884, 3.7297362987540126 17.199446152189097, 2.191057544343008 16.04117656694162 C0.6523787899320028 14.88290698169414, -0.21465833194706332 12.34307128062361, -0.3492014008967601 10.143461224582655 C-0.4837444698464569 7.9438511685417, 0.024013492694197724 4.462518219833923, 1.3837991306448272 2.8435162306958874 C2.743584768595457 1.2245142415578518, 5.575153849602264 0.787967971366597, 7.809512426807016 0.42944928975444085 C10.043871004011768 0.07093060814228469, 13.58593800042058 0.5715262604961086, 14.789950593873339 0.6924041410229504 C15.993963187326099 0.8132820215497923, 15.208793454893835 0.7726201244730144, 15.033587987523568 1.1547165729154925 M9.557861953154784 -1.0438090905835953 C11.610100612260984 -1.3153402021013987, 15.195752666255444 -0.6525164227839111, 16.94739709036626 0.958864729530613 C18.699041514477074 2.5702458818451372, 19.7776408447432 6.720791346776896, 20.067728497819676 8.624477823303549 C20.357816150896152 10.528164299830202, 19.956296364978428 10.65332600825198, 18.687923008825123 12.38098358869053 C17.41954965267182 14.10864116912908, 14.839125340878848 18.250826532893644, 12.457488360899841 18.990423305934844 C10.075851380920835 19.730020078976043, 6.12877019417128 17.631849650248544, 4.398101128951085 16.818564226937728 C2.6674320637308897 16.00527880362691, 2.9790405526231756 15.932347340458627, 2.0734739695786715 14.11071076606994 C1.1679073865341674 12.289074191681252, -1.1424251976402986 7.991256974221331, -1.0352983693159388 5.888744780605605 C-0.928171540991579 3.7862325869898794, 1.0863167059442318 2.608331077859481, 2.7162349395248304 1.4956376043755863 C4.346153173105429 0.3829441308916919, 7.650459681611729 -0.43968230697581756, 8.744211032167653 -0.7874160602977618 C9.837962382723578 -1.135149813619706, 8.979530301390731 -1.0573108938428641, 9.278743042860375 -0.590764915556079" style="stroke: rgb(0, 0, 0); stroke-width: 1; fill: none;"></path></g><g stroke-opacity="0.6" fill-opacity="0.6" transform="translate(171.25 211)"><path d="M4.825003725585728 1.5442857618679346 C4.825003725585728 1.5442857618679346, 4.825003725585728 1.5442857618679346, 4.825003725585728 1.5442857618679346 M4.825003725585728 1.5442857618679346 C4.825003725585728 1.5442857618679346, 4.825003725585728 1.5442857618679346, 4.825003725585728 1.5442857618679346 M3.0580743825736976 10.038303477406282 C4.756564397436146 6.423018498078353, 7.772383022439055 4.183720268316231, 11.374798891312933 0.9057910760240708 M3.1872447875070904 9.122920017219862 C6.2963200598498466 5.045789859796617, 9.626887304069873 1.7731181420043132, 11.76869964840964 -0.2107631087927071 M3.6831592786566403 14.51136260339078 C6.605083215081655 13.253221289114151, 8.803965743759381 9.62344657608529, 15.125695363680045 2.3289591102246945 M3.9350133642063527 14.559926173547472 C6.223034032367418 11.964005270159047, 9.617582173587135 8.252579139567182, 15.348615387702505 0.7014386983905734 M7.047112961990818 20.179357190717592 C11.087138367097054 12.240945695905241, 12.884398796391856 7.822056061887129, 17.845789603237854 3.2776451874466845 M5.7979636106100525 18.99101668978913 C10.212372226220534 11.955808989228911, 15.582514135274899 7.520888665189625, 19.401628260594652 3.8654744574742623 M11.450295397021346 19.157935007506676 C15.348025911132044 15.344632350707911, 16.030399529263224 11.335915357576146, 18.70441267473226 8.491871619158974 M12.179114687569909 18.39390907719142 C13.847098852219998 15.784266301148335, 15.484430892611822 14.155346539551068, 19.08533693907385 8.487035652184478" style="stroke: rgb(134, 142, 150); stroke-width: 0.5; fill: none;"></path><path d="M11.476478780547996 -0.23043371376110144 C13.444719438966082 -0.2693769364115264, 16.28764058791125 1.1048476366131565, 17.53479890981204 2.67182773323065 C18.78195723171283 4.2388078298481435, 18.98350587097481 7.030199520499931, 18.959428711952754 9.171446865943858 C18.935351552930697 11.312694211387786, 18.769550365084278 14.12785141126469, 17.390335955679696 15.519311805894215 C16.011121546275113 16.91077220052374, 12.907465646452176 17.411146959051138, 10.684142255525252 17.52020923372102 C8.460818864598329 17.6292715083909, 5.757202785345653 16.973530596985494, 4.050395610118157 16.173685453913514 C2.343588434890661 15.373840310841533, 0.9873721768558982 14.285975767593454, 0.44329920416027413 12.721138375289131 C-0.10077376853534992 11.156300982984808, 0.07941268636613863 8.620161274147478, 0.7859577739444124 6.78466110008758 C1.492502861522686 4.949160926027682, 2.6431384965747093 2.8722459518853114, 4.6825697296299165 1.7081373309297447 C6.722000962685124 0.5440287099741783, 11.491752830629423 0.05026509916261279, 13.022545172275656 -0.19999062564581926 C14.553337513921889 -0.4502463504542513, 14.208865007242922 -0.05642635160860515, 13.867323779507318 0.2066029820791524 M10.958440456939394 1.478972661421274 C13.046501722906442 1.2204110309774487, 15.535334312304496 1.50742741037572, 16.940909707559136 2.384802787402184 C18.346485102813777 3.262178164428648, 19.31912576629966 5.017543100473625, 19.391892828467235 6.743224923580057 C19.46465989063481 8.46890674668649, 18.500302778436897 11.10142434949707, 17.37751208056458 12.738893726040779 C16.25472138269226 14.376363102584488, 14.389428884426989 15.991118763769384, 12.655148641233335 16.56804118284231 C10.920868398039682 17.14496360191524, 8.826726440602544 16.516668295038862, 6.97183062140266 16.200428240478345 C5.116934802202776 15.884188185917829, 2.8367078848035945 16.12084414119821, 1.5257737260340338 14.670600855479206 C0.21483956726447317 13.220357569760203, -1.2356938269236446 9.569003820070265, -0.8937743312147042 7.498968526164325 C-0.5518548355057638 5.428933232258386, 2.059918563185634 3.7266315145239615, 3.5772907002876764 2.2503890920435676 C5.094662837389719 0.7741466695631736, 7.324644005562674 -0.953979530678124, 8.210458491397551 -1.3584860087180388 C9.09627297723243 -1.7629924867579536, 8.733160549484253 -0.3544390247046234, 8.89217761529694 -0.17664977619592115" style="stroke: rgb(0, 0, 0); stroke-width: 1; fill: none;"></path></g><g stroke-opacity="0.6" fill-opacity="0.6" transform="translate(175.75 241)"><path d="M-0.32570790045408415 3.691905421779731 C-0.32570790045408415 3.691905421779731, -0.32570790045408415 3.691905421779731, -0.32570790045408415 3.691905421779731 M-0.32570790045408415 3.691905421779731 C-0.32570790045408415 3.691905421779731, -0.32570790045408415 3.691905421779731, -0.32570790045408415 3.691905421779731 M0.8553216550966449 9.969621717288808 C2.553711832329418 7.211947147791828, 5.343817741137166 3.809844005610111, 7.166510160350677 1.5688810436672416 M-0.03146104961617818 9.481682524608166 C2.1571431920547446 6.7264351408985865, 4.580094200682193 4.378364269900387, 7.438227022848529 1.2135506774450535 M2.0508745830924515 12.764755366118731 C4.835117148903884 9.294980717602987, 7.4317961530775865 7.65839585714861, 8.131542138014318 5.047417170556312 M2.2818996581201705 12.67615202914934 C4.840857532593457 10.234771846891627, 6.749301935986955 7.276456284908078, 8.501619164510029 5.83556314497446" style="stroke: rgb(134, 142, 150); stroke-width: 0.5; fill: none;"></path><path d="M4.5600866248498555 -0.34543104740876807 C5.470349411381617 -0.44883383278941186, 6.536720554974194 0.08813214021240334, 7.0459335258188 0.9806242941088197 C7.555146496663406 1.873116448005236, 7.806765816310765 3.592452823918433, 7.615364449917491 5.00952187596973 C7.423963083524217 6.426590928021027, 6.364914347443728 8.30804208340226, 5.897525327459158 9.483038606416603 C5.430136307474589 10.658035129430946, 5.521998191329525 11.730752045903925, 4.811030330010075 12.059501014055787 C4.100062468690625 12.388249982207649, 2.4713761111887624 11.928766125334795, 1.6317181595424608 11.45553241532777 C0.7920602078961593 10.982298705320746, 0.13095697937563117 10.477642746125476, -0.22691737986773397 9.220098754013645 C-0.584791739111099 7.9625547619018135, -0.8384523442255458 5.160610529303579, -0.5155279959177301 3.9102684626567856 C-0.1926036476099145 2.6599263960099924, 0.9916041378857509 2.3650659866548023, 1.71062870997916 1.7180463541328859 C2.429653282072569 1.0710267216109695, 3.3689692631490487 0.3390657290290154, 3.798619436642724 0.02815066752528761 C4.2282696101364 -0.28276439397844016, 4.101202724514152 -0.3208479341588828, 4.288529750941214 -0.1474440148894809 M2.899645774500991 -0.5508144675705289 C3.6359997518204117 -1.2348920981804965, 5.4945090930260685 -1.1017979668326787, 6.258895564701459 -0.5304152828466693 C7.023282036376849 0.040967401139340054, 7.222044050479749 1.3392119721616627, 7.485964604553335 2.877481636345527 C7.74988515862692 4.415751300529391, 8.127212462559559 7.449745206667233, 7.842418889142975 8.699202702256516 C7.557625315726391 9.948660197845799, 6.774914975632778 10.077127045217594, 5.77720316405383 10.374226609881225 C4.779491352474882 10.671326174544856, 2.510216242708092 10.58321173708422, 1.8561480196692874 10.481800090238302 C1.2020797966304828 10.380388443392384, 2.1362461658519636 10.490798732415861, 1.8527938258210028 9.765756728805723 C1.5693414857900418 9.040714725195585, 0.34235412309761115 7.169765197555294, 0.15543397948352178 6.131548068577475 C-0.03148616413056757 5.093330939599656, 0.11353361667107298 4.395399090306351, 0.7312729641364668 3.5364539549388097 C1.3490123116018606 2.6775088195712686, 3.7526342412292393 1.4944892418046596, 3.8618700642758848 0.9778772563722278 C3.9711058873225302 0.46126527093979597, 1.7030203727372284 0.3072569785272212, 1.3866879024163403 0.4367820423442188" style="stroke: rgb(0, 0, 0); stroke-width: 1; fill: none;"></path></g><g stroke-opacity="0.6" fill-opacity="0.6" transform="translate(175.25 261)"><path d="M2.2532339561510177 0.6336934019304573 C2.2532339561510177 0.6336934019304573, 2.2532339561510177 0.6336934019304573, 2.2532339561510177 0.6336934019304573 M2.2532339561510177 0.6336934019304573 C2.2532339561510177 0.6336934019304573, 2.2532339561510177 0.6336934019304573, 2.2532339561510177 0.6336934019304573 M1.9150486835012277 7.652633592167275 C3.149469307691756 6.392696029061331, 4.018271822643567 4.36790669984111, 6.305597265391573 2.1625441540467047 M0.9929283962784401 7.584249060980381 C2.2776729990473736 6.626841071803995, 3.520650932943563 5.18545607273501, 5.839375711605847 2.1819213632462975 M3.6932265023013846 11.51396923878645 C3.8667246870912573 10.861435486288238, 5.321423431926801 9.476841845538551, 7.564758532220295 6.975899587500597 M3.3277823718974635 11.860350511115467 C4.43414756750448 9.97008709915196, 6.5504693283754785 8.395997215030814, 7.593734758864886 6.387335948528478" style="stroke: rgb(134, 142, 150); stroke-width: 0.5; fill: none;"></path><path d="M2.2514601472305205 0.635733935673044 C2.9544515752965195 0.41909170853200317, 4.787998380580675 0.4030614824650917, 5.396003176205225 0.7088642221710666 C6.0040079718297745 1.0146669618770414, 5.564076656605787 1.4260555565274635, 5.899488920977818 2.4705503739088934 C6.23490118534985 3.5150451912903233, 7.405043510034965 5.558263313116907, 7.4084767624374175 6.975833126459646 C7.4119100148398696 8.393402939802385, 6.698349235368733 10.2375144336078, 5.920088435392529 10.975969253965328 C5.141827635416325 11.714424074322856, 3.7111436323928815 11.44884639396984, 2.7389119625801923 11.406562048604815 C1.7666802927675032 11.364277703239791, 0.625915066089745 11.501465800479833, 0.08669841651639487 10.72226318177518 C-0.45251823305695527 9.943060563070526, -0.6948263563658751 8.048812107306059, -0.4963879348599085 6.731346336376898 C-0.29794951335394193 5.413880565447738, 0.5550825249091957 3.8534421665045278, 1.2773289455521946 2.8174685562002195 C1.9995753661951934 1.781494945895911, 3.5063178595255486 0.9996014100974828, 3.8370905889980844 0.5155046745510479 C4.16786331847062 0.03140793900461286, 3.3697298034712717 0.059082594542613, 3.2619653223874088 -0.08711185707839064 M5.697778526906529 0.4662647181542168 C6.351877506509446 0.2759016482704525, 6.700166938475583 0.0745677140594585, 6.741465434296744 1.113479228411919 C6.7827639301179055 2.1523907427643794, 6.042842096698168 5.283256228871551, 5.945569501833496 6.69973380426898 C5.848296906968825 8.116211379666408, 6.5714394895819925 8.511014744068763, 6.157829865108715 9.612344680796493 C5.744220240635437 10.713674617524223, 4.0101366585535825 13.15926617975597, 3.463911754993828 13.307713424635356 C2.9176868514340732 13.456160669514741, 3.5773982717603134 11.478388451667698, 2.880480443750187 10.503028150072806 C2.183562615740061 9.527667848477915, -0.034336874389930716 8.517220607949984, -0.7175952130669301 7.455551615066007 C-1.4008535517439293 6.393882622182031, -1.8041028653903448 5.4816830436155195, -1.2190695883118088 4.13301419276895 C-0.6340363112332728 2.784345341922381, 2.097846360833344 0.002864965217087012, 2.792604449404286 -0.6364614900134065 C3.487362537975228 -1.2757879452438998, 2.9483327274601425 -0.0643955665229557, 2.9494789431138417 0.29705546138598926 C2.950625158767541 0.6585064892949342, 2.3592342061421094 1.5516937908185298, 2.799481743326482 1.5322446774402634" style="stroke: rgb(0, 0, 0); stroke-width: 1; fill: none;"></path></g><g transform="translate(323.5 142)"><text x="0" y="18" font-family="Virgil" font-size="20px" fill="#000000">Polygon shape</text></g><g><g transform="translate(395 324.5)"><path d="M-1.0992941804230212 -0.029383199661970227 C-17.656455058604482 -12.875467230131227, -82.56752943471074 -63.48000958884755, -98.95643088296056 -76.2751513890922 M1.514908250179142 -0.6638556026481093 C-15.18895940044895 -13.872552404509237, -83.8338061217405 -65.26196920186902, -100.67379542687908 -78.27905087998137" style="stroke: rgb(0, 0, 0); stroke-width: 1; fill: none;"></path></g><g transform="translate(395 324.5)"><path d="M-72.06744735727713 -69.32540918225529 C-80.38931953471379 -73.33207751018894, -90.7840754548375 -76.05373008797437, -99.61026544744149 -76.6234134480916 M-72.3053756751369 -70.36324059115829 C-79.44619198016187 -72.08465543977333, -86.28594993199609 -74.18274786367179, -101.6083268529363 -79.04551808802411" style="stroke: rgb(0, 0, 0); stroke-width: 1; fill: none;"></path></g><g transform="translate(395 324.5)"><path d="M-84.48013251884082 -52.98388999138028 C-88.78749936169184 -62.305684062634256, -95.05862226341915 -70.45617232175275, -99.61026544744149 -76.6234134480916 M-84.71806083670059 -54.02172140028328 C-88.43589096918087 -59.96602617782601, -92.00212919704931 -66.37376512015398, -101.6083268529363 -79.04551808802411" style="stroke: rgb(0, 0, 0); stroke-width: 1; fill: none;"></path></g></g><g transform="translate(354 334)"><text x="0" y="18" font-family="Virgil" font-size="20px" fill="#000000">Overlap hit-box</text></g><g><g transform="translate(339 82.5)"><path d="M1.0586290195584296 0.28140310496091847 C-16.21222066928943 1.429406063258648, -86.90818708787361 6.167747919261456, -104.39072043150664 7.134050743281842 M1.6846449220553041 1.6150325315818193 C-15.654009526533384 2.56947804030031, -84.91048603093873 3.455467223487794, -102.76466801401227 4.3302956133708355" style="stroke: rgb(0, 0, 0); stroke-width: 1; fill: none;"></path></g><g transform="translate(339 82.5)"><path d="M-74.41592845551516 -7.398829582080254 C-79.55727772253823 -3.6127096247232795, -87.90047033476563 0.11647611651191436, -104.29076357569545 6.171437604688108 M-75.67206312574292 -6.275496146574626 C-85.31619733566153 -3.6346651816388063, -97.03081333500711 0.7854790429196159, -102.00847268115729 4.635207856409251" style="stroke: rgb(0, 0, 0); stroke-width: 1; fill: none;"></path></g><g transform="translate(339 82.5)"><path d="M-73.81779464452467 13.113660230957787 C-79.14247825019002 12.06004489256615, -87.62694895712016 10.94421865630362, -104.29076357569545 6.171437604688108 M-75.07392931475243 14.236993666463416 C-85.08875935325878 8.908328560897806, -97.03560268513587 5.364434128331859, -102.00847268115729 4.635207856409251" style="stroke: rgb(0, 0, 0); stroke-width: 1; fill: none;"></path></g></g><g><g stroke-opacity="0.4" fill-opacity="0.4" transform="translate(308 155.5)"><path d="M-0.9123956356197596 0.15027299858629695 C-26.625630628441773 2.550601153944929, -127.11247255740066 19.903848379229505, -153.97208524085582 14.873338649049401 C-180.83169792431096 9.842828918869298, -160.43488621252277 -22.559031354015072, -162.07007173635066 -30.032785382494332 M1.5557694574724885 -0.9925183455180377 C-24.2630159249374 1.4749540133246528, -128.16129019672363 17.527580621040734, -155.4530565011967 13.009630734222009 C-182.74482280566977 8.491680847403282, -160.96584174260187 -21.08342380136562, -162.194828369366 -28.1002176664304" style="stroke: rgb(0, 0, 0); stroke-width: 1; fill: none;"></path></g><g stroke-opacity="0.4" fill-opacity="0.4" transform="translate(308 155.5)"><path d="M-159.78016798649452 3.5348086870953814 C-159.39728172620832 -6.387817717531206, -163.27884287814499 -18.985889279219805, -163.8101375724096 -28.690757783083246 M-160.27819484271578 1.280432030719556 C-160.28197435387213 -3.7396979882837664, -161.06436657149152 -10.322443446413203, -162.04990575806238 -28.54084742902778" style="stroke: rgb(0, 0, 0); stroke-width: 1; fill: none;"></path></g><g stroke-opacity="0.4" fill-opacity="0.4" transform="translate(308 155.5)"><path d="M-179.5198807164342 -2.0744464974453187 C-172.68750522775025 -10.020554219100804, -170.14161075985874 -20.792193995678172, -163.8101375724096 -28.690757783083246 M-180.01790757265545 -4.328823153821144 C-175.98852348286616 -8.109376146556707, -172.78543902792944 -13.559604835356751, -162.04990575806238 -28.54084742902778" style="stroke: rgb(0, 0, 0); stroke-width: 1; fill: none;"></path></g></g><g><g stroke-opacity="0.4" fill-opacity="0.4" transform="translate(328 163.5)"><path d="M-0.09265304468572144 1.1448799755424262 C-13.162475455428163 5.447291027133663, -57.11590528550248 21.802630176767707, -79.29870059154928 26.62374532483518 C-101.48149589759608 31.444860472902654, -124.27207057935497 29.647730623309812, -133.18942488096656 30.071570863947272 M-1.1545545675884932 -0.6835320641566067 C-14.08814400588783 3.6806917884976915, -56.81919371252569 20.456969339055938, -78.87626890356653 25.503755940301343 C-100.93334409460736 30.550542541546747, -124.54636776402901 28.958329221311335, -133.4970057138335 29.597187543315812" style="stroke: rgb(0, 0, 0); stroke-width: 1; fill: none;"></path></g><g stroke-opacity="0.4" fill-opacity="0.4" transform="translate(328 163.5)"><path d="M-103.59075971705819 18.324118423717795 C-110.73343391944756 22.59389024582809, -118.00050923387738 25.68081760310927, -134.88569443273357 28.204037517337127 M-105.431280388627 18.55078112564492 C-112.64865262597331 21.328504210501876, -119.50424787574423 24.01751844491613, -134.32576901718042 30.36377168356441" style="stroke: rgb(0, 0, 0); stroke-width: 1; fill: none;"></path></g><g stroke-opacity="0.4" fill-opacity="0.4" transform="translate(328 163.5)"><path d="M-103.2148863452603 38.84188442282726 C-110.58113748300417 38.4602725242413, -117.93341808725798 36.89610637592884, -134.88569443273357 28.204037517337127 M-105.05540701682911 39.06854712475439 C-112.2420943523282 36.453724782954325, -119.19645213441026 33.75159753334374, -134.32576901718042 30.36377168356441" style="stroke: rgb(0, 0, 0); stroke-width: 1; fill: none;"></path></g></g><g transform="translate(16 385)"><text x="0" y="18" font-family="Virgil" font-size="20px" fill="#000000">1. has overlap?</text><text x="0" y="43" font-family="Virgil" font-size="20px" fill="#000000">2. is attacking?</text><text x="0" y="68" font-family="Virgil" font-size="20px" fill="#000000">3. sync poylgon shapes</text><text x="0" y="93" font-family="Virgil" font-size="20px" fill="#000000">4. run poylgon collision algo</text><text x="0" y="118" font-family="Virgil" font-size="20px" fill="#000000">5. handle collision (damage etc.)</text></g></svg>